<svg width="950" height="1267" viewBox="0 0 950 1267" fill="none" xmlns="http://www.w3.org/2000/svg">
<mask id="path-1-inside-1_214_5103" fill="white">
<path fill-rule="evenodd" clip-rule="evenodd" d="M788 -1.10082e-05L-6.10352e-05 -1.10082e-05L-3.85972e-05 883L-5.53823e-05 1267L788 1267L788 883L950 883L950 -1.10082e-05L788 -1.10082e-05Z"/>
</mask>
<path d="M-6.10352e-05 -1.10082e-05V-4.00001L-4.00006 -4.00001L-4.00006 -1.09066e-05L-6.10352e-05 -1.10082e-05ZM788 -1.10082e-05V3.99999V-1.10082e-05ZM-3.85972e-05 883L3.99996 883V883L-3.85972e-05 883ZM-5.53823e-05 1267L-4.00006 1267L-4.00006 1271L-5.55572e-05 1271L-5.53823e-05 1267ZM788 1267L788 1271L792 1271L792 1267L788 1267ZM788 883L788 879L784 879L784 883L788 883ZM950 883L950 887L954 887V883H950ZM950 -1.10082e-05L954 -1.10082e-05V-4.00001L950 -4.00001V-1.10082e-05ZM-6.10352e-05 3.99999L788 3.99999V-4.00001L-6.10352e-05 -4.00001L-6.10352e-05 3.99999ZM3.99996 883L3.99994 -1.11099e-05L-4.00006 -1.09066e-05L-4.00004 883L3.99996 883ZM3.99994 1267L3.99996 883L-4.00004 883L-4.00006 1267L3.99994 1267ZM788 1263L-5.52075e-05 1263L-5.55572e-05 1271L788 1271L788 1263ZM784 883L784 1267L792 1267L792 883L784 883ZM950 879L788 879L788 887L950 887L950 879ZM946 -1.10082e-05L946 883L954 883L954 -1.10082e-05L946 -1.10082e-05ZM788 3.99999L950 3.99999V-4.00001L788 -4.00001V3.99999Z" fill="url(#paint0_linear_214_5103)" mask="url(#path-1-inside-1_214_5103)"/>
<defs>
<linearGradient id="paint0_linear_214_5103" x1="950" y1="633.5" x2="-8.87263e-05" y2="633.5" gradientUnits="userSpaceOnUse">
<stop stop-color="#E83558"/>
<stop offset="0.2" stop-color="#F09C39"/>
<stop offset="0.515" stop-color="#8032E5"/>
<stop offset="1" stop-color="#E3318C"/>
</linearGradient>
</defs>
</svg>
