<svg width="1720" height="655" viewBox="0 0 1720 655" fill="none" xmlns="http://www.w3.org/2000/svg">
<mask id="path-1-inside-1_197_5304" fill="white">
<path fill-rule="evenodd" clip-rule="evenodd" d="M1407 0H458V145H0V655H458H496H1407H1720V406V145V95H1407V0Z"/>
</mask>
<path d="M458 0V-2H456V0H458ZM1407 0H1409V-2H1407V0ZM458 145V147H460V145H458ZM0 145V143H-2V145H0ZM0 655H-2V657H0V655ZM1720 655V657H1722V655H1720ZM1720 95H1722V93H1720V95ZM1407 95H1405V97H1407V95ZM458 2H1407V-2H458V2ZM460 145V0H456V145H460ZM0 147H458V143H0V147ZM2 655V145H-2V655H2ZM458 653H0V657H458V653ZM496 653H458V657H496V653ZM1407 653H496V657H1407V653ZM1720 653H1407V657H1720V653ZM1718 406V655H1722V406H1718ZM1718 145V406H1722V145H1718ZM1718 95V145H1722V95H1718ZM1407 97H1720V93H1407V97ZM1405 0V95H1409V0H1405Z" fill="#FF0000" mask="url(#path-1-inside-1_197_5304)"/>
</svg>
