<svg width="1720" height="655" viewBox="0 0 1720 655" fill="none" xmlns="http://www.w3.org/2000/svg">
<mask id="path-1-inside-1_197_5304" fill="white">
<path fill-rule="evenodd" clip-rule="evenodd" d="M1245 0H496V145H0V655H496H1245H1720V406V145V95H1245V0Z"/>
</mask>
<path d="M496 0V-2H494V0H496ZM1245 0H1247V-2H1245V0ZM496 145V147H498V145H496ZM0 145V143H-2V145H0ZM0 655H-2V657H0V655ZM1720 655V657H1722V655H1720ZM1720 95H1722V93H1720V95ZM1245 95H1243V97H1245V95ZM496 2H1245V-2H496V2ZM498 145V0H494V145H498ZM0 147H496V143H0V147ZM2 655V145H-2V655H2ZM496 653H0V657H496V653ZM1245 653H496V657H1245V653ZM1720 653H1245V657H1720V653ZM1718 406V655H1722V406H1718ZM1718 145V406H1722V145H1718ZM1718 95V145H1722V95H1718ZM1245 97H1720V93H1245V97ZM1243 0V95H1247V0H1243Z" fill="#FF0000" mask="url(#path-1-inside-1_197_5304)"/>
</svg>
