<svg width="16" height="16" viewBox="0 0 16 16" fill="none" xmlns="http://www.w3.org/2000/svg">
<g id="folder-zip-outline">
<path id="Vector" d="M13.334 3.99896H8.00065L7.2531 3.25141C6.87803 2.87634 6.36932 2.66563 5.83889 2.66563H2.66732C1.93398 2.66563 1.33398 3.26563 1.33398 3.99896V11.999C1.33398 12.7323 1.93398 13.3323 2.66732 13.3323H13.334C14.0673 13.3323 14.6673 12.7323 14.6673 11.999V5.33229C14.6673 4.59896 14.0673 3.99896 13.334 3.99896ZM13.334 11.999H10.6673V10.6656H9.33398V11.999H2.66732V5.33229H9.33398V6.66563H10.6673V5.33229H13.334V11.999ZM10.6673 7.99896V6.66563H12.0007V7.99896H10.6673ZM9.33398 7.99896H10.6673V9.33229H9.33398V7.99896ZM12.0007 10.6656H10.6673V9.33229H12.0007V10.6656Z" fill="black" fill-opacity="0.54"/>
</g>
</svg>
