<svg width="24" height="24" viewBox="0 0 24 24" fill="none" xmlns="http://www.w3.org/2000/svg">
<path d="M18 16.6667V7.33333C18 6.6 17.4 6 16.6667 6L7.33333 6C6.6 6 6 6.6 6 7.33333L6 16.6667C6 17.4 6.6 18 7.33333 18H16.6667C17.4 18 18 17.4 18 16.6667ZM9.93333 13.32L11.3333 15.0067L13.4 12.3467C13.5333 12.1733 13.8 12.1733 13.9333 12.3533L16.2733 15.4733C16.44 15.6933 16.28 16.0067 16.0067 16.0067H8.01333C7.73333 16.0067 7.58 15.6867 7.75333 15.4667L9.41333 13.3333C9.54 13.16 9.79333 13.1533 9.93333 13.32Z" fill="#646464"/>
</svg>
