<svg width="217" height="115" viewBox="0 0 217 115" fill="none" xmlns="http://www.w3.org/2000/svg">
<circle cx="58.4905" cy="57.4998" r="56.4998" fill="white" stroke="white" stroke-width="2"/>
<path fill-rule="evenodd" clip-rule="evenodd" d="M4.12684 46.2655C12.4536 40.2606 22.6776 36.7227 33.7279 36.7227C61.7074 36.7227 84.3893 59.4045 84.3893 87.384C84.3893 95.048 82.6875 102.314 79.6411 108.826C73.1222 111.516 65.9789 112.999 58.489 112.999C27.8374 112.999 2.98926 88.1512 2.98926 57.4995C2.98926 53.6508 3.38102 49.8936 4.12684 46.2655Z" fill="#030000"/>
<circle cx="71.2975" cy="54.9381" r="17.6461" fill="white"/>
<circle cx="158.512" cy="57.4998" r="56.4998" fill="white" stroke="white" stroke-width="2"/>
<path fill-rule="evenodd" clip-rule="evenodd" d="M104.148 46.2655C112.475 40.2606 122.699 36.7227 133.749 36.7227C161.729 36.7227 184.411 59.4045 184.411 87.384C184.411 95.048 182.709 102.314 179.663 108.826C173.144 111.516 166 112.999 158.511 112.999C127.859 112.999 103.011 88.1512 103.011 57.4995C103.011 53.6508 103.403 49.8936 104.148 46.2655Z" fill="#030000"/>
<circle cx="171.319" cy="54.9381" r="17.6461" fill="white"/>
</svg>
