<svg xmlns="http://www.w3.org/2000/svg" width="16" height="16" viewBox="0 0 16 16" fill="none">
  <path fill-rule="evenodd" clip-rule="evenodd" d="M2.05829 14.275C2.3194 14.5362 2.63329 14.6667 2.99996 14.6667H6.66663C6.85552 14.6667 7.01385 14.6028 7.14162 14.475C7.2694 14.3473 7.33329 14.1889 7.33329 14C7.33329 13.8112 7.2694 13.6528 7.14162 13.525C7.01385 13.3973 6.85552 13.3334 6.66663 13.3334H2.99996V2.66671H7.66663V5.33337C7.66663 5.52226 7.73052 5.6806 7.85829 5.80837C7.98607 5.93615 8.1444 6.00004 8.33329 6.00004H11V6.83337C11 7.02226 11.0638 7.1806 11.1916 7.30837C11.3194 7.43615 11.4777 7.50004 11.6666 7.50004C11.8555 7.50004 12.0138 7.43615 12.1416 7.30837C12.2694 7.1806 12.3333 7.02226 12.3333 6.83337V5.88337C12.3333 5.7056 12.3 5.53615 12.2333 5.37504C12.1666 5.21393 12.0722 5.07226 11.95 4.95004L8.71663 1.71671C8.5944 1.59449 8.45274 1.50004 8.29163 1.43337C8.13051 1.36671 7.96107 1.33337 7.78329 1.33337H2.99996C2.63329 1.33337 2.3194 1.46393 2.05829 1.72504C1.79718 1.98615 1.66663 2.30004 1.66663 2.66671V13.3334C1.66663 13.7 1.79718 14.0139 2.05829 14.275ZM9.66663 12.6667H11V14C11 14.1889 11.0638 14.3473 11.1916 14.475C11.3194 14.6028 11.4777 14.6667 11.6666 14.6667C11.8555 14.6667 12.0138 14.6028 12.1416 14.475C12.2694 14.3473 12.3333 14.1889 12.3333 14V12.6667H13.6666C13.8555 12.6667 14.0138 12.6028 14.1416 12.475C14.2694 12.3473 14.3333 12.1889 14.3333 12C14.3333 11.8112 14.2694 11.6528 14.1416 11.525C14.0138 11.3973 13.8555 11.3334 13.6666 11.3334H12.3333V10C12.3333 9.81115 12.2694 9.65282 12.1416 9.52504C12.0138 9.39726 11.8555 9.33337 11.6666 9.33337C11.4777 9.33337 11.3194 9.39726 11.1916 9.52504C11.0638 9.65282 11 9.81115 11 10V11.3334H9.66663C9.47774 11.3334 9.3194 11.3973 9.19163 11.525C9.06385 11.6528 8.99996 11.8112 8.99996 12C8.99996 12.1889 9.06385 12.3473 9.19163 12.475C9.3194 12.6028 9.47774 12.6667 9.66663 12.6667Z" fill="white"/>
</svg>