<svg xmlns="http://www.w3.org/2000/svg" width="16" height="16" viewBox="0 0 16 16" fill="none">
  <path fill-rule="evenodd" clip-rule="evenodd" d="M2.66671 13.6667C2.30004 13.6667 1.98615 13.5362 1.72504 13.275C1.46393 13.0139 1.33337 12.7 1.33337 12.3334V3.66671C1.33337 3.30004 1.46393 2.98615 1.72504 2.72504C1.98615 2.46393 2.30004 2.33337 2.66671 2.33337H6.11671C6.29449 2.33337 6.46393 2.36671 6.62504 2.43337C6.78615 2.50004 6.92782 2.59449 7.05004 2.71671L7.70715 3.37381C7.89468 3.56135 8.14904 3.66671 8.41425 3.66671H13.3334C13.7 3.66671 14.0139 3.79726 14.275 4.05837C14.5362 4.31949 14.6667 4.63337 14.6667 5.00004V6.00004C14.6667 6.36823 14.3682 6.66671 14 6.66671C13.6319 6.66671 13.3334 6.36823 13.3334 6.00004V5.27782C13.3334 5.12441 13.209 5.00004 13.0556 5.00004H7.86425C7.59904 5.00004 7.34468 4.89468 7.15715 4.70715L6.4096 3.9596C6.22206 3.77206 5.96771 3.66671 5.70249 3.66671H3.36671C2.98011 3.66671 2.66671 3.98011 2.66671 4.36671V11.8788C2.66671 12.1299 2.87021 12.3334 3.12125 12.3334H7.00004C7.36823 12.3334 7.66671 12.6319 7.66671 13C7.66671 13.3682 7.36823 13.6667 7.00004 13.6667H2.66671ZM10 11.6667H11.3334V13C11.3334 13.1889 11.3973 13.3473 11.525 13.475C11.6528 13.6028 11.8112 13.6667 12 13.6667C12.1889 13.6667 12.3473 13.6028 12.475 13.475C12.6028 13.3473 12.6667 13.1889 12.6667 13V11.6667H14C14.1889 11.6667 14.3473 11.6028 14.475 11.475C14.6028 11.3473 14.6667 11.1889 14.6667 11C14.6667 10.8112 14.6028 10.6528 14.475 10.525C14.3473 10.3973 14.1889 10.3334 14 10.3334H12.6667V9.00004C12.6667 8.81115 12.6028 8.65282 12.475 8.52504C12.3473 8.39726 12.1889 8.33337 12 8.33337C11.8112 8.33337 11.6528 8.39726 11.525 8.52504C11.3973 8.65282 11.3334 8.81115 11.3334 9.00004V10.3334H10C9.81115 10.3334 9.65282 10.3973 9.52504 10.525C9.39726 10.6528 9.33337 10.8112 9.33337 11C9.33337 11.1889 9.39726 11.3473 9.52504 11.475C9.65282 11.6028 9.81115 11.6667 10 11.6667Z" fill="white"/>
</svg>