<svg width="16" height="16" viewBox="0 0 16 16" fill="none" xmlns="http://www.w3.org/2000/svg">
<path fill-rule="evenodd" clip-rule="evenodd" d="M2.66659 13.6673C2.29992 13.6673 1.98603 13.5368 1.72492 13.2757C1.46381 13.0145 1.33325 12.7007 1.33325 12.334V3.66732C1.33325 3.30065 1.46381 2.98676 1.72492 2.72565C1.98603 2.46454 2.29992 2.33398 2.66659 2.33398H6.11659C6.29436 2.33398 6.46381 2.36732 6.62492 2.43398C6.78603 2.50065 6.9277 2.5951 7.04992 2.71732L7.70703 3.37442C7.89456 3.56196 8.14892 3.66732 8.41413 3.66732H13.3333C13.6999 3.66732 14.0138 3.79787 14.2749 4.05898C14.536 4.3201 14.6666 4.63398 14.6666 5.00065V6.00065C14.6666 6.36884 14.3681 6.66732 13.9999 6.66732C13.6317 6.66732 13.3333 6.36884 13.3333 6.00065V5.27843C13.3333 5.12502 13.2089 5.00065 13.0555 5.00065H7.86413C7.59892 5.00065 7.34456 4.89529 7.15703 4.70776L6.40948 3.96021C6.22194 3.77267 5.96759 3.66732 5.70237 3.66732H3.36659C2.97999 3.66732 2.66659 3.98072 2.66659 4.36732V11.8794C2.66659 12.1305 2.87009 12.334 3.12113 12.334H6.99992C7.36811 12.334 7.66659 12.6325 7.66659 13.0007C7.66659 13.3688 7.36811 13.6673 6.99992 13.6673H2.66659ZM9.99992 11.6673H11.3333V13.0007C11.3333 13.1895 11.3971 13.3479 11.5249 13.4757C11.6527 13.6034 11.811 13.6673 11.9999 13.6673C12.1888 13.6673 12.3471 13.6034 12.4749 13.4757C12.6027 13.3479 12.6666 13.1895 12.6666 13.0007V11.6673H13.9999C14.1888 11.6673 14.3471 11.6034 14.4749 11.4757C14.6027 11.3479 14.6666 11.1895 14.6666 11.0007C14.6666 10.8118 14.6027 10.6534 14.4749 10.5257C14.3471 10.3979 14.1888 10.334 13.9999 10.334H12.6666V9.00065C12.6666 8.81176 12.6027 8.65343 12.4749 8.52565C12.3471 8.39787 12.1888 8.33398 11.9999 8.33398C11.811 8.33398 11.6527 8.39787 11.5249 8.52565C11.3971 8.65343 11.3333 8.81176 11.3333 9.00065V10.334H9.99992C9.81103 10.334 9.6527 10.3979 9.52492 10.5257C9.39714 10.6534 9.33325 10.8118 9.33325 11.0007C9.33325 11.1895 9.39714 11.3479 9.52492 11.4757C9.6527 11.6034 9.81103 11.6673 9.99992 11.6673Z" fill="#696969"/>
</svg>
