<svg width="16" height="16" viewBox="0 0 16 16" fill="none" xmlns="http://www.w3.org/2000/svg">
<path fill-rule="evenodd" clip-rule="evenodd" d="M2.05841 14.2757C2.31953 14.5368 2.63341 14.6673 3.00008 14.6673H6.66675C6.85564 14.6673 7.01397 14.6034 7.14175 14.4757C7.26953 14.3479 7.33341 14.1895 7.33341 14.0007C7.33341 13.8118 7.26953 13.6534 7.14175 13.5257C7.01397 13.3979 6.85564 13.334 6.66675 13.334H3.00008V2.66732H7.66675V5.33398C7.66675 5.52287 7.73064 5.68121 7.85841 5.80898C7.98619 5.93676 8.14453 6.00065 8.33341 6.00065H11.0001V6.83398C11.0001 7.02287 11.064 7.18121 11.1917 7.30898C11.3195 7.43676 11.4779 7.50065 11.6667 7.50065C11.8556 7.50065 12.014 7.43676 12.1417 7.30898C12.2695 7.18121 12.3334 7.02287 12.3334 6.83398V5.88398C12.3334 5.70621 12.3001 5.53676 12.2334 5.37565C12.1667 5.21454 12.0723 5.07287 11.9501 4.95065L8.71675 1.71732C8.59452 1.5951 8.45286 1.50065 8.29175 1.43398C8.13064 1.36732 7.96119 1.33398 7.78341 1.33398H3.00008C2.63341 1.33398 2.31953 1.46454 2.05841 1.72565C1.7973 1.98676 1.66675 2.30065 1.66675 2.66732V13.334C1.66675 13.7007 1.7973 14.0145 2.05841 14.2757ZM9.66675 12.6673H11.0001V14.0007C11.0001 14.1895 11.064 14.3479 11.1917 14.4757C11.3195 14.6034 11.4779 14.6673 11.6667 14.6673C11.8556 14.6673 12.014 14.6034 12.1417 14.4757C12.2695 14.3479 12.3334 14.1895 12.3334 14.0007V12.6673H13.6667C13.8556 12.6673 14.014 12.6034 14.1417 12.4757C14.2695 12.3479 14.3334 12.1895 14.3334 12.0007C14.3334 11.8118 14.2695 11.6534 14.1417 11.5257C14.014 11.3979 13.8556 11.334 13.6667 11.334H12.3334V10.0007C12.3334 9.81176 12.2695 9.65343 12.1417 9.52565C12.014 9.39787 11.8556 9.33398 11.6667 9.33398C11.4779 9.33398 11.3195 9.39787 11.1917 9.52565C11.064 9.65343 11.0001 9.81176 11.0001 10.0007V11.334H9.66675C9.47786 11.334 9.31953 11.3979 9.19175 11.5257C9.06397 11.6534 9.00008 11.8118 9.00008 12.0007C9.00008 12.1895 9.06397 12.3479 9.19175 12.4757C9.31953 12.6034 9.47786 12.6673 9.66675 12.6673Z" fill="black" fill-opacity="0.54"/>
</svg>
