<svg width="20" height="20" viewBox="0 0 20 20" fill="none" xmlns="http://www.w3.org/2000/svg">
<g clip-path="url(#clip0_14292_139627)">
<g clip-path="url(#clip1_14292_139627)">
<path fill-rule="evenodd" clip-rule="evenodd" d="M12.277 7.02976C9.26083 7.13039 6.39062 7.98577 6.39062 11.1054C6.39062 13.269 7.65546 14.3257 9.35813 14.3257C10.8662 14.3257 11.8392 13.7219 12.6662 12.8162C12.7398 12.9208 12.8029 13.0147 12.8615 13.1018C13.113 13.4756 13.2814 13.7259 13.8337 14.1747C13.9796 14.2753 14.2229 14.2753 14.3202 14.1244L15.8283 12.7658C16.0228 12.6149 15.9256 12.3633 15.8283 12.2627C15.7743 12.175 15.7192 12.0912 15.6646 12.0081C15.3742 11.5666 15.0985 11.1473 15.0985 10.3003V7.08007C15.0985 6.966 15.0992 6.85264 15.0999 6.74014C15.1073 5.51277 15.1141 4.38756 14.2229 3.55791C13.3959 2.75285 12.3743 2.55158 11.2067 2.50126C8.62841 2.45095 6.92575 3.91013 6.68251 5.62089C6.63386 5.92279 6.8771 6.07374 7.02304 6.07374L8.823 6.32532C9.11489 6.37564 9.26083 6.12406 9.30948 5.92279C9.60137 4.81583 10.7203 4.51393 11.4013 4.76551C12.2952 5.04287 12.2857 6.04224 12.2783 6.82714C12.2776 6.89658 12.277 6.96433 12.277 7.02976ZM10.5256 12.3124C9.79584 12.3124 9.30937 11.6582 9.30937 10.8029C9.35802 8.99147 10.7201 8.68957 12.2769 8.68957V9.59527C12.2769 11.2054 11.4499 12.3124 10.5256 12.3124Z" fill="black"/>
<path d="M18.6978 17.6479C19.3302 17.0944 19.9626 15.7359 19.914 14.7799C19.914 14.4277 19.8653 14.3773 19.5248 14.2767C18.8924 14.0754 17.287 14.0251 16.5086 14.7799C16.3627 14.9308 16.4114 15.0315 16.5573 15.0315C17.0924 14.9308 18.7464 14.7296 18.9897 15.1321C19.1843 15.4843 18.6005 16.8932 18.4059 17.497C18.3086 17.7486 18.5032 17.7989 18.6978 17.6479ZM1.3306 14.8302C6.00077 19.409 13.3466 19.56 18.114 16.0881C18.4546 15.8868 18.114 15.4843 17.8221 15.6353C15.2122 16.7768 12.3815 17.2756 9.55334 17.0922C6.72517 16.9089 3.97687 16.0484 1.52519 14.5786C1.3306 14.4277 1.13601 14.6792 1.3306 14.8302Z" fill="#FF9900"/>
</g>
</g>
<defs>
<clipPath id="clip0_14292_139627">
<rect width="20" height="20" rx="4" fill="white"/>
</clipPath>
<clipPath id="clip1_14292_139627">
<rect width="20" height="20" fill="white"/>
</clipPath>
</defs>
</svg>
