<svg width="36" height="36" viewBox="0 0 36 36" fill="none" xmlns="http://www.w3.org/2000/svg">
<rect width="36" height="36" rx="18" fill="#EEEEEE"/>
<path d="M18 5C10.8323 5 5 10.8323 5 18C5 25.1677 10.8323 31 18 31C25.1677 31 31 25.1677 31 18C31 10.8323 25.1695 5 18 5ZM18 29.2027C11.823 29.2027 6.79733 24.177 6.79733 18C6.79733 11.823 11.823 6.79733 18 6.79733C24.177 6.79733 29.2027 11.823 29.2027 18C29.2027 24.177 24.177 29.2027 18 29.2027Z" fill="#EEEEEE"/>
<path d="M24.3928 21.2051C23.9489 20.9813 23.4094 21.1617 23.1856 21.6039C22.1931 23.5798 20.2045 24.8069 17.9957 24.8069C15.7869 24.8069 13.8001 23.5799 12.813 21.6057C12.5911 21.1617 12.0497 20.9831 11.6058 21.2033C11.1619 21.4252 10.9814 21.9648 11.2034 22.4105C12.4972 24.9982 15.0994 26.6061 17.9957 26.6061C20.892 26.6061 23.4924 25 24.7935 22.4123C25.0172 21.9684 24.8368 21.4288 24.3946 21.2051H24.3928Z" fill="black" fill-opacity="0.6"/>
<path d="M21.9181 16.7855C22.7626 16.7855 23.4466 15.968 23.4466 14.9593C23.4466 13.9505 22.7626 13.1331 21.9181 13.1331C21.0736 13.1331 20.3896 13.9505 20.3896 14.9593C20.3896 15.968 21.0736 16.7855 21.9181 16.7855Z" fill="black" fill-opacity="0.6"/>
<path d="M14.0831 16.7855C14.9277 16.7855 15.6116 15.968 15.6116 14.9593C15.6116 13.9505 14.9277 13.1331 14.0831 13.1331C13.2386 13.1331 12.5547 13.9505 12.5547 14.9593C12.5547 15.968 13.2386 16.7855 14.0831 16.7855Z" fill="black" fill-opacity="0.6"/>
</svg>
