<svg width="222" height="205" viewBox="0 0 222 205" fill="none" xmlns="http://www.w3.org/2000/svg">
<ellipse cx="12.2754" cy="26.4558" rx="12.2754" ry="26.4558" transform="matrix(-0.929549 -0.368698 -0.368698 0.929549 209.101 60.3281)" fill="#F3F5F7" stroke="black" stroke-width="1.5"/>
<path d="M209.476 113.027C201.625 106.161 188.233 101.074 179.983 98.6393C177.774 97.9873 175.452 97.8074 173.187 98.2278C167.133 99.3515 159.147 101.794 153.261 103.782C149.938 104.905 147.029 106.976 144.784 109.67L135.929 120.296C134.333 122.211 133.169 124.426 132.783 126.89C132.311 129.902 131.777 134.142 131.322 138.036C130.813 142.39 131.809 146.779 134.088 150.524L141.772 163.148C143.428 165.868 145.694 168.186 148.526 169.642C155.867 173.419 168.105 178.409 179.566 179.046C184.317 179.046 196.753 174.15 204.67 170.716C206.87 169.762 208.875 168.394 210.309 166.472C213.112 162.719 216.265 157.327 217.78 154.55C219.772 150.566 220.499 141.614 220.674 135.793C220.73 133.935 220.489 132.076 219.786 130.356C217.881 125.689 214.37 119.744 212.002 116.035C211.293 114.924 210.467 113.894 209.476 113.027Z" fill="#CFA4FF" stroke="black" stroke-width="1.5"/>
<path d="M164.83 112.594L189.129 101.874L182.506 99.0156L156.254 107.592L145.272 122.225L142.332 149.66L154.09 172.197L170.748 178.076L175.647 179.056L182.506 179.056L164.869 171.217L154.09 148.681L156.05 124.184L164.83 112.594Z" fill="black"/>
<path d="M137.433 124.184L147.231 107.527L133.514 123.205L131.241 134.034L132 147L145.272 168.277L135.473 144.761L137.433 124.184Z" fill="black"/>
<ellipse cx="5.08335" cy="13.6944" rx="5.08335" ry="13.6944" transform="matrix(-0.999298 0.0374644 0.133452 0.991055 190.223 131.961)" fill="#030000"/>
<ellipse cx="5.08335" cy="13.6944" rx="5.08335" ry="13.6944" transform="matrix(-0.999298 0.0374644 0.133452 0.991055 212.165 124.125)" fill="#030000"/>
<path d="M129.78 102.28C135.017 108.185 140.832 112.498 145.813 114.558C150.211 114.567 155.855 114.515 155.855 114.515C155.855 114.515 156.515 98.0973 146.819 87.1667C137.124 76.236 125.449 70.7583 120.744 74.9319C116.039 79.1055 120.085 91.3498 129.78 102.28Z" fill="black"/>
<path d="M128.083 102.565C133.518 108.288 139.386 112.486 144.292 114.511C148.49 114.557 153.873 114.557 153.873 114.557C153.873 114.557 153.288 98.7779 143.226 88.1833C133.164 77.5886 121.618 72.2195 117.436 76.1909C113.254 80.1623 118.021 91.9704 128.083 102.565Z" fill="#DCEBFD" stroke="black" stroke-width="1.5"/>
<ellipse cx="4.84973" cy="11.8179" rx="4.84973" ry="11.8179" transform="matrix(-0.669677 -0.742653 -0.742653 0.669677 80.6768 29.6016)" fill="#F3F5F7" stroke="black" stroke-width="1.5"/>
<path d="M72.7454 52.0368C70.3659 46.837 65.4475 41.3348 61.7928 37.814C60.134 36.2159 58.1246 35.0292 55.8899 34.471C53.1136 33.7776 49.7805 33.1915 46.8535 32.7559C43.3845 32.2397 39.8581 32.8151 36.651 34.2344L32.1778 36.214C29.8973 37.2233 27.8946 38.715 26.4886 40.7746C26.004 41.4845 25.4809 42.2662 24.9507 43.0682C22.5334 46.7247 21.4887 51.1084 21.8712 55.4749L22.2644 59.9638C22.5423 63.1364 23.5383 66.2269 25.5133 68.7253C28.6246 72.6611 33.423 77.73 38.8093 80.7776C41.1864 81.9537 48.1885 82.6295 53.3933 82.9385C55.7874 83.0806 58.191 82.7226 60.2852 81.5539C62.5548 80.2873 65.0248 78.6524 66.3562 77.7177C68.3137 76.2366 70.8028 72.2616 72.4988 69.1935C73.3978 67.5671 74.0003 65.7875 74.0605 63.9301C74.1453 61.3122 73.9331 58.1694 73.7019 55.8412C73.5717 54.5306 73.2935 53.2344 72.7454 52.0368Z" fill="#FBE62E" stroke="black" stroke-width="1.5"/>
<path d="M48.7396 40.415L64.9408 41.1271L62.0901 37.7693L45.4005 35.355L35.4278 40.3901L26.3906 54.6097L26.7238 70.1275L34.2485 77.8552L36.6646 79.718L40.4185 81.5751L32.8881 72.5095L33.0911 57.257L40.7961 44.381L48.7396 40.415Z" fill="black"/>
<path d="M30.6071 39.3402L40.4799 32.8767L28.7273 37.7428L24.551 43.0545L22.0378 49.1187L22.9586 65.5947L23.9632 50.0712L30.6071 39.3402Z" fill="black"/>
<ellipse cx="3.10395" cy="8.36195" rx="3.10395" ry="8.36195" transform="matrix(-0.912296 -0.409532 -0.319842 0.947471 57.3916 57.8867)" fill="#030000"/>
<ellipse cx="3.10395" cy="8.36195" rx="3.10395" ry="8.36195" transform="matrix(-0.912296 -0.409532 -0.319842 0.947471 71.5225 59.5391)" fill="#030000"/>
<path d="M32.3484 25.2827C33.6161 29.932 35.6304 33.8669 37.7988 36.3434C40.2034 37.5387 43.3066 39.0388 43.3066 39.0388C43.3066 39.0388 48.1128 30.2319 45.766 21.6243C43.4191 13.0168 38.513 6.85801 34.8078 7.86823C31.1027 8.87845 30.0016 16.6752 32.3484 25.2827Z" fill="black"/>
<path d="M31.342 24.9722C32.767 29.5757 34.8419 33.4621 36.979 35.8989C39.2637 37.061 42.2098 38.5185 42.2098 38.5185C42.2098 38.5185 46.1621 29.724 43.5239 21.2013C40.8858 12.6786 36.02 6.61368 32.6561 7.65498C29.2921 8.69629 28.7038 16.4495 31.342 24.9722Z" fill="#DCEBFD" stroke="black" stroke-width="1.5"/>
<g style="mix-blend-mode:multiply" opacity="0.3">
<path d="M132 199.5C132 202.538 149.239 205 170.503 205C191.766 205 209 202.538 209 199.5C209 196.462 191.766 194 170.503 194C149.239 194 132 196.462 132 199.5Z" fill="#231F20"/>
</g>
</svg>
