<svg width="378" height="181" viewBox="0 0 378 181" fill="none" xmlns="http://www.w3.org/2000/svg">
<path d="M114.556 83.9434V164.169C114.556 168.367 116.23 172.394 119.208 175.362C122.187 178.331 126.226 179.999 130.439 180H247.561C251.773 179.999 255.812 178.331 258.791 175.362C261.769 172.394 263.443 168.367 263.444 164.169V83.9434H114.556Z" fill="white" stroke="black" stroke-width="1.5" stroke-linejoin="round"/>
<path d="M257.875 116.405H121.863" stroke="black" stroke-width="1.5" stroke-linecap="round" stroke-linejoin="round"/>
<path d="M263.438 67.2988C263.433 63.1031 261.758 59.081 258.779 56.1159C255.801 53.1507 251.765 51.4848 247.555 51.4844H130.434C126.222 51.4864 122.184 53.1553 119.207 56.124C116.229 59.0928 114.556 63.1185 114.556 67.3162V83.9543H263.438V67.2988Z" fill="#CFA4FF" stroke="black" stroke-width="1.5" stroke-linejoin="round"/>
<path d="M146.686 93.4629V169.942M174.987 93.4629V169.942M203.29 93.4629V169.942M231.592 93.4629V169.942" stroke="black" stroke-width="1.5" stroke-linecap="round" stroke-linejoin="round"/>
<path d="M257.869 145.517H121.857" stroke="black" stroke-width="1.5" stroke-linecap="round" stroke-linejoin="round"/>
<path d="M243.305 56.4571L188.771 2.24023" stroke="black" stroke-width="1.5" stroke-linecap="round" stroke-linejoin="round"/>
<path d="M134.688 62.8585C136.46 62.8585 137.896 61.4268 137.896 59.6609C137.896 57.8951 136.46 56.4639 134.688 56.4639C132.917 56.4639 131.48 57.8951 131.48 59.6609C131.48 61.4268 132.917 62.8585 134.688 62.8585Z" fill="black" stroke="black" stroke-width="2.107" stroke-linejoin="round"/>
<path d="M151.39 60.0429C151.608 58.2908 150.359 56.6941 148.601 56.4768C146.843 56.2595 145.241 57.5046 145.023 59.2571C144.919 60.0986 145.155 60.9468 145.678 61.6154C146.201 62.284 146.968 62.7184 147.813 62.8232C149.57 63.0401 151.172 61.7954 151.39 60.0429Z" fill="black" stroke="black" stroke-width="2.107" stroke-linejoin="round"/>
<path d="M161.959 62.8585C163.731 62.8585 165.166 61.4268 165.166 59.6609C165.166 57.8951 163.731 56.4639 161.959 56.4639C160.187 56.4639 158.751 57.8951 158.751 59.6609C158.751 61.4268 160.187 62.8585 161.959 62.8585Z" fill="black" stroke="black" stroke-width="2.107" stroke-linejoin="round"/>
<path d="M175.706 62.8585C177.477 62.8585 178.914 61.4268 178.914 59.6609C178.914 57.8951 177.477 56.4639 175.706 56.4639C173.934 56.4639 172.498 57.8951 172.498 59.6609C172.498 61.4268 173.934 62.8585 175.706 62.8585ZM189.225 62.8585C190.997 62.8585 192.433 61.4268 192.433 59.6609C192.433 57.8951 190.997 56.4639 189.225 56.4639C187.453 56.4639 186.017 57.8951 186.017 59.6609C186.017 61.4268 187.453 62.8585 189.225 62.8585Z" fill="black" stroke="black" stroke-width="2.107" stroke-linejoin="round"/>
<path d="M202.292 62.8581C204.064 62.8581 205.499 61.4264 205.499 59.6606C205.499 57.8947 204.064 56.4635 202.292 56.4635C200.52 56.4635 199.084 57.8947 199.084 59.6606C199.084 61.4264 200.52 62.8581 202.292 62.8581ZM218.987 60.0429C219.205 58.2908 217.956 56.6941 216.198 56.4768C214.44 56.2595 212.838 57.5046 212.62 59.2571C212.403 61.0097 213.652 62.6059 215.409 62.8232C217.167 63.0405 218.77 61.7954 218.987 60.0429ZM229.56 62.8581C231.332 62.8581 232.768 61.4264 232.768 59.6606C232.768 57.8947 231.332 56.4635 229.56 56.4635C227.789 56.4635 226.353 57.8947 226.353 59.6606C226.353 61.4264 227.789 62.8581 229.56 62.8581ZM243.31 62.8581C245.081 62.8581 246.517 61.4264 246.517 59.6606C246.517 57.8947 245.081 56.4635 243.31 56.4635C241.539 56.4635 240.102 57.8947 240.102 59.6606C240.102 61.4264 241.538 62.8581 243.31 62.8581Z" fill="black" stroke="black" stroke-width="2.107" stroke-linejoin="round"/>
<path d="M202.318 61.9596C201.815 61.988 201.322 61.8179 200.944 61.4855C200.567 61.1536 200.336 60.6865 200.303 60.1859V47.1945C200.347 46.6916 200.579 46.2236 200.953 45.8825C201.326 45.5419 201.814 45.3525 202.321 45.3525C202.828 45.3525 203.315 45.5419 203.689 45.8825C204.062 46.2231 204.294 46.6916 204.339 47.1945V60.1859C204.302 60.6864 204.07 61.1525 203.692 61.4841C203.314 61.8156 202.821 61.9861 202.318 61.9596Z" fill="#CFD8DC" stroke="black" stroke-width="1.5" stroke-linejoin="round"/>
<path d="M215.942 61.9596C215.439 61.988 214.946 61.8179 214.568 61.4855C214.191 61.1536 213.96 60.6865 213.927 60.1859V47.1945C213.971 46.6916 214.203 46.2236 214.577 45.8825C214.95 45.5419 215.438 45.3525 215.945 45.3525C216.452 45.3525 216.939 45.5419 217.313 45.8825C217.686 46.2231 217.918 46.6916 217.963 47.1945V60.1859C217.926 60.6864 217.694 61.1525 217.316 61.4841C216.938 61.8156 216.445 61.9861 215.942 61.9596ZM229.576 61.955C229.073 61.9833 228.58 61.813 228.202 61.481C227.825 61.149 227.594 60.6819 227.559 60.1813V47.1899C227.607 46.6893 227.84 46.2245 228.214 45.8863C228.587 45.548 229.073 45.3606 229.578 45.3606C230.082 45.3606 230.569 45.548 230.942 45.8863C231.316 46.2245 231.549 46.6893 231.597 47.1899V60.1813C231.56 60.6818 231.328 61.148 230.95 61.4797C230.572 61.8113 230.079 61.982 229.576 61.955ZM243.193 61.9545C242.69 61.9829 242.196 61.8128 241.819 61.481C241.441 61.1486 241.211 60.6815 241.177 60.1809V47.1895C241.234 46.8268 241.386 46.4855 241.618 46.2002C241.85 45.9149 242.153 45.6955 242.496 45.5639C242.84 45.4318 243.212 45.3929 243.576 45.4497C243.94 45.5066 244.282 45.6588 244.568 45.8894C244.946 46.2217 245.179 46.6884 245.215 47.1895V60.1809C245.178 60.6815 244.946 61.1481 244.568 61.4796C244.19 61.8114 243.696 61.9819 243.193 61.9545Z" fill="#CFD8DC" stroke="black" stroke-width="1.5" stroke-linejoin="round"/>
<path d="M132.176 58.9659L186.419 4.74902" stroke="black" stroke-width="1.5" stroke-linecap="round" stroke-linejoin="round"/>
<path d="M188.758 15.7513C192.845 15.7513 196.158 12.4492 196.158 8.37564C196.158 4.30205 192.845 1 188.758 1C184.671 1 181.358 4.30251 181.358 8.37564C181.358 12.4488 184.672 15.7513 188.758 15.7513Z" fill="#9DA3A8" stroke="black" stroke-width="1.5" stroke-linejoin="round"/>
<path d="M134.721 61.9536C134.219 61.9816 133.725 61.8115 133.348 61.4796C132.97 61.1477 132.739 60.6805 132.704 60.1799V47.1885C132.739 46.6881 132.97 46.2215 133.348 45.8898C133.726 45.5584 134.219 45.3883 134.721 45.4163C135.224 45.3874 135.719 45.557 136.097 45.8884C136.475 46.2202 136.707 46.6874 136.742 47.1885V60.1799C136.705 60.6801 136.473 61.1463 136.096 61.4782C135.717 61.8095 135.224 61.9802 134.721 61.9536ZM148.35 61.9545C147.847 61.983 147.354 61.8127 146.976 61.4807C146.599 61.1486 146.367 60.6816 146.333 60.1808V47.1895C146.38 46.6879 146.613 46.2222 146.987 45.883C147.265 45.6301 147.609 45.4596 147.98 45.3907C148.35 45.3218 148.733 45.3572 149.084 45.4929C149.436 45.6286 149.742 45.8592 149.97 46.1589C150.197 46.4585 150.336 46.8154 150.371 47.1895V60.1808C150.334 60.6814 150.102 61.1475 149.724 61.4791C149.346 61.811 148.853 61.9816 148.35 61.9545Z" fill="#CFD8DC" stroke="black" stroke-width="1.5" stroke-linejoin="round"/>
<path d="M161.97 61.9542C161.468 61.9825 160.974 61.8122 160.597 61.4802C160.219 61.1483 159.988 60.6812 159.953 60.1806V47.1892C160 46.6878 160.233 46.2219 160.607 45.8828C160.98 45.5436 161.467 45.3556 161.972 45.3555C162.477 45.3556 162.964 45.5436 163.338 45.8828C163.711 46.2219 163.944 46.6878 163.991 47.1892V60.1806C163.955 60.6811 163.722 61.1473 163.344 61.479C162.966 61.8106 162.473 61.9813 161.97 61.9542Z" fill="#CFD8DC" stroke="black" stroke-width="1.5" stroke-linejoin="round"/>
<path d="M175.594 61.955C175.092 61.9833 174.598 61.813 174.221 61.481C173.843 61.149 173.612 60.6819 173.577 60.1813V47.1899C173.625 46.6893 173.859 46.2245 174.232 45.8863C174.605 45.548 175.092 45.3606 175.596 45.3606C176.101 45.3606 176.587 45.548 176.96 45.8863C177.334 46.2245 177.567 46.6893 177.615 47.1899V60.1813C177.579 60.6818 177.346 61.148 176.968 61.4797C176.59 61.8113 176.097 61.982 175.594 61.955ZM189.22 61.9596C188.717 61.988 188.223 61.8179 187.846 61.4855C187.469 61.1534 187.238 60.6864 187.204 60.1859V47.1945C187.249 46.6916 187.481 46.2236 187.855 45.8825C188.228 45.5414 188.716 45.3525 189.222 45.3525C189.729 45.3531 190.217 45.5423 190.59 45.8832C190.963 46.224 191.196 46.6918 191.241 47.1945V60.1859C191.204 60.686 190.971 61.1522 190.594 61.4841C190.216 61.8158 189.723 61.9865 189.22 61.9596Z" fill="#CFD8DC" stroke="black" stroke-width="1.5" stroke-linejoin="round"/>
<path d="M212.864 129.567C216.074 131.795 218.949 134.424 221.413 137.381" stroke="black" stroke-width="4" stroke-linecap="round" stroke-linejoin="round"/>
<path d="M213.577 138.091L219.989 128.146" stroke="black" stroke-width="4" stroke-linecap="round" stroke-linejoin="round"/>
<g clip-path="url(#clip0_9130_36756)">
<path d="M233.691 129.398C234.248 126.595 233.888 123.882 232.61 121.527C230.997 118.558 227.837 116.477 223.94 115.818C220.354 115.21 213.094 115.329 204.761 122.943C204.337 123.33 204.23 123.936 204.453 124.435C201.86 127.046 200.292 130.444 200.292 134.153C200.292 142.368 207.984 149.051 217.439 149.051C226.895 149.051 234.586 142.368 234.586 134.153C234.586 132.491 234.271 130.892 233.691 129.398ZM205.705 140.638C204.611 139.148 203.881 137.439 203.628 135.602C203.831 134.564 204.313 133.411 205.053 132.236C207.141 128.923 210.667 126.298 213.628 125.849C214.332 125.742 214.817 125.083 214.712 124.373C214.606 123.665 213.949 123.176 213.245 123.283C211.05 123.616 208.693 124.818 206.617 126.568C209.17 123.823 213.072 122.064 217.44 122.064C223.658 122.064 228.935 125.626 230.713 130.525C230.58 130.908 230.426 131.294 230.251 131.68C228.744 134.999 225.911 137.926 222.275 139.924C217.411 142.596 211.465 143.285 207.481 141.638C206.807 141.359 206.217 141.025 205.707 140.638H205.705ZM223.512 118.376C226.624 118.903 229.115 120.505 230.345 122.771C230.776 123.562 231.067 124.412 231.224 125.304C228.098 121.637 223.083 119.255 217.438 119.255C216.637 119.255 215.849 119.304 215.076 119.397C217.977 118.291 220.855 117.926 223.512 118.376ZM217.439 146.243C215.335 146.243 213.341 145.834 211.551 145.104C211.854 145.118 212.16 145.128 212.47 145.128C216.079 145.128 220.007 144.126 223.509 142.201C226.767 140.413 229.46 137.941 231.306 135.097C230.75 141.324 224.744 146.244 217.438 146.244L217.439 146.243Z" fill="#A041FF"/>
</g>
<defs>
<clipPath id="clip0_9130_36756">
<rect width="34.2944" height="33.4579" fill="white" transform="translate(200.292 115.594)"/>
</clipPath>
</defs>
</svg>
