<svg width="20" height="20" viewBox="0 0 20 20" fill="none" xmlns="http://www.w3.org/2000/svg">
<path d="M7.45312 7.44705C7.59957 7.44402 7.74268 7.42232 7.89023 7.42878C8.65635 7.46234 9.42203 7.67265 10.0947 8.04211C10.4056 8.21283 10.6616 8.44362 10.9499 8.64433C10.9146 8.55102 10.854 8.47025 10.8145 8.37826C10.7213 8.16123 10.6743 7.93008 10.6846 7.6941C10.7226 6.82813 11.5403 6.14262 12.3943 6.23407C12.6491 6.26134 12.9108 6.36852 13.1165 6.51885C13.2207 6.59504 13.303 6.69329 13.4015 6.77571C13.5563 6.90517 13.7414 7.01335 13.9336 7.07608C14.6348 7.30484 15.4633 7.02218 15.8445 6.3828C16.0639 6.01474 16.1162 5.58294 16.0399 5.16651C15.9499 4.67465 15.5813 4.32478 15.2069 4.02631C14.3419 3.33656 13.2832 3 12.1852 3C10.3449 3 8.64564 4.10064 7.8771 5.77465C7.72468 6.1066 7.60851 6.46068 7.54075 6.8199C7.50155 7.02785 7.49159 7.23986 7.45312 7.44705Z" fill="#1E8E3E"/>
<path d="M15.8326 4.6543C15.9262 4.91154 16.0665 5.1308 16.0789 5.41448C16.1171 6.2864 15.4379 7.1214 14.5403 7.16215C14.2794 7.17399 14.0152 7.11977 13.7801 7.00595C13.6559 6.9458 13.5465 6.85085 13.419 6.8018C13.632 7.14687 13.7882 7.46747 13.7594 7.88506C13.7061 8.65888 12.9402 9.384 12.1457 9.30716C11.8721 9.28071 11.5891 9.19538 11.3665 9.02987C11.1679 8.88215 11.0078 8.68136 10.8154 8.52387C10.4314 8.20958 9.99129 7.93817 9.52311 7.76839C9.08586 7.60981 8.62044 7.48229 8.15479 7.44965C6.24758 7.31599 4.37374 8.3301 3.51301 10.0516C3.32218 10.4332 3.16002 10.8445 3.08887 11.2679C2.86434 12.6037 3.1097 13.968 3.92877 15.0687C4.05397 15.237 4.19369 15.3875 4.33244 15.5439C4.37969 15.5971 4.41348 15.6627 4.46895 15.7083C5.2378 16.3406 6.46085 16.2174 7.03883 15.3918C7.14199 15.2444 7.21895 15.0744 7.25615 14.8977C7.32996 14.5469 7.26316 14.1889 7.10442 13.8715C7.03826 13.7392 6.90038 13.6115 6.86249 13.4724C6.71041 13.3652 6.58478 13.2086 6.48247 13.0543C6.3251 12.8168 6.21974 12.5054 6.21974 12.2181C6.21974 11.0996 7.52466 10.3149 8.49687 10.8776C8.68667 10.9874 8.84644 11.146 8.97198 11.3249C9.13084 11.3611 9.29567 11.5566 9.42809 11.655C9.68634 11.8467 9.97215 12.0024 10.2643 12.1362C11.3826 12.6482 12.7235 12.6773 13.8751 12.2551C14.3004 12.0991 14.7095 11.8837 15.0724 11.6119C16.6778 10.4098 17.3523 8.32098 16.8018 6.40271C16.6697 5.94234 16.4659 5.50902 16.2 5.1104C16.0956 4.95379 15.9856 4.7669 15.8326 4.6543Z" fill="#5BB974"/>
<path d="M8.99144 11.3047C9.02761 11.4001 9.09363 11.4787 9.13739 11.5708C9.24675 11.8008 9.30602 12.057 9.29477 12.3119C9.25785 13.1475 8.4684 13.8315 7.64212 13.7736C7.33712 13.7522 7.11751 13.5937 6.84394 13.4902C7.03438 13.7784 7.24208 14.0642 7.27779 14.4214C7.36779 15.3214 6.58859 16.0518 5.72267 16.1111C5.42048 16.1318 5.1189 16.0616 4.84847 15.9264C4.73583 15.8701 4.63944 15.7835 4.52539 15.7327C4.62792 15.9112 4.8726 16.05 5.03851 16.1671C5.59287 16.5584 6.25159 16.8208 6.91995 16.9315C8.48569 17.1909 10.1367 16.6998 11.2323 15.5237C11.5981 15.1309 11.8979 14.6812 12.1213 14.1934C12.3594 13.6735 12.4815 13.1075 12.5263 12.54C12.307 12.54 12.0794 12.5575 11.8611 12.5367C11.1693 12.4709 10.5159 12.2769 9.90366 11.945C9.68885 11.8285 9.48873 11.6883 9.29551 11.5394C9.19576 11.4625 9.10541 11.3578 8.99144 11.3047Z" fill="#34A853"/>
</svg>
