<svg width="30" height="20" viewBox="0 0 30 20" fill="none" xmlns="http://www.w3.org/2000/svg">
<g clip-path="url(#clip0_14292_139639)">
<g clip-path="url(#clip1_14292_139639)">
<mask id="mask0_14292_139639" style="mask-type:luminance" maskUnits="userSpaceOnUse" x="0" y="2" width="30" height="16">
<path d="M29.2557 2H0V18H29.2557V2Z" fill="white"/>
</mask>
<g mask="url(#mask0_14292_139639)">
<path d="M4.59172 8.2498C3.70364 7.99844 2.28352 7.66409 0.729173 8.07862C0.440445 8.15556 0.244344 8.28294 0.106913 8.52468C0.0383977 8.64543 -0.0246924 8.77602 0.00966556 8.90925C0.0394022 9.02236 0.201146 9.06215 0.330941 9.08284C0.455917 9.10254 0.739019 9.1174 0.815368 9.02637C0.855151 8.97876 0.856155 8.84494 0.648803 8.80134C0.572251 8.78526 0.363894 8.77804 0.348021 8.74288C0.348021 8.74288 0.355254 8.71857 0.469579 8.6832C0.52001 8.66751 0.890514 8.51502 1.90277 8.54777C3.10651 8.58655 4.15793 8.86844 5.26985 9.30627C6.35785 9.73464 7.58045 10.5094 8.29755 11.4319C8.5688 11.7809 8.90555 12.3543 8.94995 12.8372C9.05745 14.0098 7.91218 14.9993 5.5869 14.92C5.18946 14.9063 4.70646 14.8121 4.70646 14.8121L4.65823 12.5482C4.65823 12.5482 5.64215 12.5408 6.72997 12.8988C6.82258 12.9294 6.9156 12.9899 6.92404 13.0797C6.93007 13.1488 6.87563 13.2081 6.81434 13.2615C6.70162 13.36 6.54651 13.4028 6.51236 13.4445C6.48764 13.4747 6.48743 13.5207 6.51959 13.546C6.60137 13.6093 6.8021 13.6523 6.9375 13.6405C7.21178 13.6161 7.3942 13.4576 7.53204 13.2499C7.67891 13.0284 7.76251 12.4654 6.9811 12.1064C5.97105 11.642 4.651 11.7294 4.651 11.7294C4.651 11.7294 4.64417 11.4224 4.6305 11.2181C4.60779 10.8829 4.51498 10.2241 4.20958 10.0342C4.15371 9.99986 4.0852 9.99585 4.04663 10.0479C3.98734 10.1252 3.92909 10.42 3.91622 10.4966C3.80129 11.1819 3.80733 11.7965 3.80129 11.8052C3.79788 11.8092 3.79425 11.8126 3.78944 11.8162C3.77737 11.8239 3.04743 11.9111 2.34279 12.2163C2.0615 12.3381 1.65925 12.5579 1.53729 12.8408C1.37996 13.2059 1.65663 13.6055 2.12378 14.0479C2.5194 14.4227 3.10268 14.8171 3.53486 15.0212C3.64497 15.0733 3.77437 15.1374 3.77437 15.1374C3.77437 15.1374 3.8023 15.399 3.8248 15.5501C3.90597 16.0948 4.32129 16.0154 4.43581 15.9921C4.62188 15.9541 4.65763 15.8304 4.68334 15.6869C4.69742 15.6085 4.69157 15.4952 4.69157 15.4952C4.69157 15.4952 4.97287 15.5601 5.16173 15.5945C5.71107 15.6959 6.30781 15.7134 6.82498 15.6429C8.89349 15.3602 9.41471 14.3857 9.57944 14.1255C9.86576 13.673 10.4732 12.4124 8.64355 10.5412C8.22563 10.1136 7.01748 8.93617 4.59133 8.2496L4.59172 8.2498ZM1.86037 13.3497C1.78523 13.2722 1.72736 13.1882 1.74504 13.0867C1.76192 12.9889 1.9536 12.9025 2.05045 12.8739C2.98353 12.5989 3.77437 12.5848 3.77437 12.5848C3.77437 12.5848 3.76694 12.9195 3.76533 13.2581C3.7623 13.8995 3.77918 14.5505 3.77918 14.5505C3.77918 14.5505 2.72676 14.2438 1.86037 13.3495V13.3497Z" fill="black"/>
<path d="M11.3378 10.9947C11.7752 10.8233 12.113 10.5774 12.455 10.2274C12.6547 10.0243 12.8299 9.69009 12.7656 9.38571C12.7334 9.2344 12.6643 9.13012 12.5379 9.02123C12.475 8.96717 12.331 8.89082 12.2138 8.86752C12.1799 8.86068 12.1437 8.85807 12.1291 8.84862C12.1124 8.83798 12.0991 8.81607 12.0828 8.79578C12.0063 8.69853 11.8542 8.60551 11.7449 8.56792C11.4093 8.4518 10.9617 8.53939 10.6561 8.66819C10.333 8.80502 10.035 9.00554 9.80859 9.24826C9.21447 9.8852 9.47546 10.3897 9.5283 10.4838C9.5733 10.5633 9.65669 10.6491 9.67497 10.7323C9.68603 10.7817 9.67619 10.8464 9.67818 10.9049C9.6824 11.0389 9.74068 11.1772 9.84134 11.2662C9.91347 11.3297 10.0172 11.3486 10.1214 11.1904C10.1564 11.1374 10.2146 11.0295 10.2146 11.0295C10.2146 11.0295 10.3358 11.0996 10.6286 11.1201C10.8468 11.1354 11.1457 11.0697 11.3378 10.9947ZM9.93638 10.225C9.93638 10.225 9.91609 10.1826 9.90301 10.1506C9.81302 9.92681 10.0117 9.67443 10.1932 9.51971C10.5464 9.21874 10.847 9.22596 10.847 9.22596C10.847 9.22596 10.775 9.28362 10.7154 9.33587C10.1998 9.78695 9.93638 10.225 9.93638 10.225ZM10.7095 10.2167C10.9255 9.93825 11.3254 9.59264 11.6042 9.42628C11.8226 9.29589 12.0113 9.26011 12.1521 9.32202C12.2357 9.35878 12.3026 9.43453 12.3141 9.536C12.3515 9.85004 11.989 10.1125 11.7467 10.2539C11.196 10.5752 10.5446 10.5024 10.5279 10.4733C10.5255 10.4657 10.6597 10.2824 10.7097 10.2167H10.7095Z" fill="black"/>
<path d="M23.8218 11.9237C23.1208 11.4372 21.9898 12.9798 21.4923 13.7447C21.4182 13.3553 21.6816 12.8612 21.6816 12.8612C21.6816 12.8612 22.1039 12.1298 22.1638 11.9813C22.2215 11.8318 22.255 11.5246 22.1825 11.4941C22.1166 11.4637 22.0029 11.5622 22.0029 11.5622C21.0543 12.4135 20.9217 13.3581 20.9217 13.3581C20.8321 13.8666 20.9368 14.2239 21.0907 14.4738C20.5634 15.5972 20.3055 16.5771 20.3742 17.1564C20.4381 17.5974 20.7541 17.9163 20.9458 17.9836C21.1395 18.0644 21.1739 17.8315 21.1739 17.8315C21.3308 16.6332 21.6048 15.8321 21.9313 15.0402C22.9201 15.2675 23.6641 14.3049 23.9275 13.8449C24.0824 13.5689 24.1658 13.2002 24.1658 12.8534C24.1658 12.4583 24.0571 12.0919 23.8218 11.9235V11.9237ZM23.1775 13.8339C23.0639 13.9416 22.6882 14.153 22.2986 14.1968C22.6699 13.477 23.1311 12.9474 23.3866 12.6649C23.684 12.3299 23.723 12.6342 23.723 12.6342C23.7923 13.2253 23.3621 13.6701 23.1773 13.8341L23.1775 13.8339Z" fill="black"/>
<path d="M20.5727 14.4031C20.6199 14.2231 20.4561 14.0258 20.308 13.989C20.1698 13.9604 19.1087 14.1594 18.982 14.1935C18.8455 14.2301 18.9064 14.1019 18.9064 14.1019L19.0704 13.5471C19.0704 13.5471 20.083 13.5082 20.2305 13.4834C20.3667 13.4589 20.375 13.3627 20.375 13.3627C20.375 13.3627 20.3924 13.204 20.3874 13.0557C20.3726 12.8969 20.2456 12.9116 20.2456 12.9116C19.854 12.8706 19.3157 12.9168 19.3157 12.9168L19.4515 12.4911C19.4515 12.4911 20.5287 12.4386 20.9384 12.3442C21.1487 12.2946 21.0249 12.088 21.0249 12.088C20.7696 11.5773 20.4752 11.606 20.4752 11.606C19.6279 11.5776 18.3967 11.8023 18.2625 11.8688C18.1369 11.9259 18.1505 12.0205 18.3143 12.2268C18.4901 12.4443 18.7858 12.424 18.7858 12.424L18.5263 12.961C18.3143 12.9759 18.2416 13.042 18.2416 13.042C18.1194 13.1724 18.288 13.5578 18.288 13.5578C18.288 13.5578 17.9201 14.383 18.1869 14.8188C18.4734 15.2763 18.8124 15.2544 18.8124 15.2544C19.4574 15.3014 20.5164 14.6261 20.5729 14.4031H20.5727Z" fill="black"/>
<path d="M16.8708 11.1238C16.8708 11.1238 16.7207 11.0537 16.6827 11.2034C16.6446 11.3515 16.7012 11.5094 16.7012 11.5094C17.0747 12.7767 17.1595 13.5253 17.1595 13.5253C17.1595 13.5253 17.1768 13.7455 17.134 13.7578C17.1041 13.7805 17.0707 13.7491 17.0707 13.7491C17.0279 13.7508 16.6184 13.0638 16.6184 13.0638L16.5389 12.9292C16.0882 12.202 15.8151 11.9543 15.8151 11.9543C15.7512 11.8944 15.5873 11.7298 15.383 11.9567C15.1784 12.1849 15.0185 12.9181 14.954 13.6073C14.8991 14.2951 14.9409 14.6865 15.0412 14.8516C15.1517 15.0188 15.3647 15.0759 15.5403 14.9326C15.726 14.7899 15.691 13.8826 15.7203 13.4174C15.7485 12.9501 15.7945 13.0336 15.7945 13.0336C15.8354 13.0226 16.048 13.4502 16.048 13.4502C16.048 13.4502 16.6082 14.5971 16.96 14.7668C17.3165 14.9362 17.6032 14.6636 17.7117 14.4082C17.822 14.151 18.0094 13.3003 17.7304 12.3575C17.4495 11.415 16.8706 11.1238 16.8706 11.1238H16.8708Z" fill="black"/>
<path d="M11.051 13.5525C11.0365 13.2388 10.9991 12.4379 10.9115 12.076C10.8735 11.9203 10.8106 11.7783 10.6573 11.7198C10.6397 11.7132 10.6192 11.7071 10.6059 11.7049C10.5101 11.6862 10.455 11.8184 10.4291 11.8842C10.3533 12.0786 10.2987 12.5432 10.2838 12.6881C10.2388 13.1269 10.2023 14.1669 10.2784 14.6967C10.3103 14.9187 10.3835 15.063 10.6079 15.1094C10.6989 15.1283 10.8647 15.1247 10.9376 15.0781C11.0013 15.0385 11.0457 14.9613 11.0606 14.895C11.1018 14.7104 11.0857 14.4486 11.0775 14.2517C11.0676 14.0192 11.0618 13.7875 11.0511 13.5525H11.051Z" fill="black"/>
<path d="M14.6728 11.7985C14.1886 11.5411 13.3915 11.5405 12.8985 11.6018C12.3891 11.6649 11.7074 11.8238 11.4163 12.2424C11.3052 12.4021 11.2401 12.6476 11.2911 12.8476C11.32 12.9587 11.4 13.0431 11.5161 13.1035C11.7225 13.211 12.4108 13.2339 12.7176 13.2669C13.0068 13.2978 13.5392 13.3493 13.8328 13.4718C13.8328 13.4718 14.1107 13.5687 14.1088 13.7274C14.1082 13.8058 14.0496 13.8683 13.9901 13.9107C13.5545 14.2193 12.9558 14.3069 12.4233 14.2983C12.2429 14.2958 12.0942 14.2673 11.9109 14.1887C11.833 14.1546 11.7317 14.0923 11.7454 13.9858C11.7673 13.8152 11.9622 13.7732 12.1171 13.7879C12.2035 13.7957 12.3164 13.8327 12.4012 13.8659C12.7428 14.0007 12.8985 14.1142 13.1991 14.0684C13.3112 14.0513 13.6998 13.9671 13.752 13.807C13.7651 13.768 13.7464 13.7258 13.7176 13.6967C13.6767 13.6547 13.443 13.5639 13.3795 13.5408C13.1506 13.4594 12.7168 13.3848 12.4757 13.3756C12.1595 13.3643 11.7245 13.429 11.5441 13.6916C11.3815 13.9283 11.3449 14.4047 12.1518 14.8056C12.527 14.9918 12.9813 15.0746 13.4004 15.0286C13.6399 15.0011 14.3297 14.8938 14.5904 14.3451C14.7307 14.0499 14.7171 13.6557 14.566 13.3756C14.4667 13.1909 14.3453 12.9452 13.4452 12.8319C13.3013 12.8138 12.2425 12.6912 12.1452 12.676C12.0914 12.6675 11.8434 12.6382 11.9304 12.5436C11.955 12.5162 12.0301 12.4961 12.0737 12.4837C12.6296 12.3318 13.3353 12.349 13.919 12.3163C14.0494 12.3083 14.3459 12.2904 14.4894 12.2448C14.626 12.2022 14.7387 12.1055 14.7703 11.9554C14.7859 11.8757 14.7476 11.8383 14.6728 11.7985Z" fill="black"/>
<path d="M29.116 12.4842H27.4523C27.4339 11.9091 27.3757 11.3413 27.2783 10.783C27.2617 10.6871 27.1784 10.6172 27.0813 10.6172H26.6329C26.5454 10.6172 26.4791 10.6972 26.4954 10.7836C26.6 11.3407 26.6624 11.9086 26.6818 12.4842H24.9916C24.9142 12.4842 24.8516 12.5471 24.8516 12.6249V13.135C24.8516 13.2128 24.9142 13.2756 24.9916 13.2756H26.6818C26.6624 13.8515 26.5997 14.4191 26.4954 14.9763C26.4791 15.0627 26.5454 15.1427 26.6329 15.1427H27.0813C27.1784 15.1427 27.2617 15.073 27.2783 14.9769C27.3757 14.4185 27.4339 13.8507 27.4523 13.2756H29.116C29.1934 13.2756 29.256 13.2128 29.256 13.135V12.6249C29.256 12.5471 29.1934 12.4842 29.116 12.4842Z" fill="black"/>
<path d="M6.20672 6.31073C6.27264 6.35653 6.36507 6.32256 6.43116 6.25165C7.00178 5.63661 7.62606 5.10175 8.33713 4.6161C13.0024 1.4296 19.851 1.89274 23.8583 5.93098C25.1745 7.25067 25.899 8.66718 26.2791 9.78053C26.3068 9.8619 26.3829 9.91694 26.4683 9.91694H26.9287C27.0242 9.91694 27.092 9.82273 27.0615 9.7317C26.5626 8.25489 25.597 6.63381 24.194 5.31552C19.9879 1.35345 13.1742 0.913022 8.42632 4.15257C7.64957 4.67718 6.87782 5.34907 6.19971 6.11702C6.13278 6.19278 6.15549 6.27516 6.20654 6.31073H6.20672Z" fill="black"/>
</g>
</g>
</g>
<defs>
<clipPath id="clip0_14292_139639">
<rect width="29.2557" height="20" rx="4" fill="white"/>
</clipPath>
<clipPath id="clip1_14292_139639">
<rect width="29.2557" height="16" fill="white" transform="translate(0 2)"/>
</clipPath>
</defs>
</svg>
