<svg width="20" height="20" viewBox="0 0 20 20" fill="none" xmlns="http://www.w3.org/2000/svg">
<g clip-path="url(#clip0_14292_143289)">
<path d="M13.6558 8.47359C14.4774 7.97484 15.5476 8.23661 16.0457 9.05824C16.5445 9.87987 16.2827 10.95 15.4611 11.4482C15.4392 11.4614 15.4173 11.4741 15.3953 11.4862L6.3309 16.706C5.50927 17.2048 4.43913 16.943 3.94038 16.1214C3.44164 15.2997 3.70341 14.2296 4.52504 13.7309C4.54695 13.7176 4.56886 13.7049 4.59077 13.6928L13.6558 8.47359Z" fill="#81C995"/>
<path d="M7.14317 4.75004C7.1472 3.79118 6.37285 3.00991 5.414 3.00588C5.29061 3.0053 5.1678 3.01799 5.04671 3.04336C4.23431 3.24285 3.66638 3.97627 3.67791 4.81346V15.181L7.13971 15.2438L7.14317 4.75004Z" fill="#34A853"/>
<path d="M13.6961 11.4923C14.5339 11.9265 15.5648 11.6486 16.0711 10.8518C16.5577 10.033 16.2884 8.97441 15.4697 8.48777C15.4633 8.48431 15.4576 8.48085 15.4512 8.47682L6.32623 3.24779C5.51382 2.75712 4.45695 3.01773 3.9657 3.83014C3.95359 3.85032 3.94148 3.87107 3.92995 3.89183C3.44793 4.71692 3.72584 5.77726 4.55093 6.25986C4.5567 6.26332 4.56246 6.2662 4.56823 6.26966L13.6961 11.4923Z" fill="#5BB974"/>
<path d="M15.3909 11.5053L7.14062 16.1139V12.1551L13.6871 8.50472C14.5549 8.02385 15.6487 8.33751 16.1295 9.20585C16.1745 9.28657 16.2126 9.37075 16.2443 9.45724C16.4899 10.2558 16.1313 11.1166 15.3909 11.5053Z" fill="#81C995"/>
<path d="M5.41254 16.9989C6.36849 16.9989 7.14344 16.224 7.14344 15.268C7.14344 14.3121 6.36849 13.5371 5.41254 13.5371C4.45659 13.5371 3.68164 14.3121 3.68164 15.268C3.68164 16.224 4.45659 16.9989 5.41254 16.9989Z" fill="#1E8E3E"/>
</g>
<defs>
<clipPath id="clip0_14292_143289">
<rect width="12.6427" height="14" fill="white" transform="translate(3.67773 3)"/>
</clipPath>
</defs>
</svg>
