<svg width="232" height="170" viewBox="0 0 232 170" fill="none" xmlns="http://www.w3.org/2000/svg">
<rect x="0.5" y="165.5" width="230.994" height="4" rx="2" fill="black" stroke="black"/>
<mask id="mask0_2883_48822" style="mask-type:alpha" maskUnits="userSpaceOnUse" x="3" y="53" width="230" height="115">
<rect width="228.994" height="114" transform="matrix(1 0 0 -1 3.00586 168)" fill="#D9D9D9"/>
</mask>
<g mask="url(#mask0_2883_48822)">
<path d="M13.508 86.7401L194.614 70.9799C198.522 70.6398 201.964 73.5262 202.303 77.4237L211.534 183.512C211.874 187.41 208.983 190.847 205.074 191.187L23.9682 206.947C20.0595 207.288 16.6183 204.401 16.2792 200.504L7.04758 94.4152C6.70844 90.5177 9.59937 87.0802 13.508 86.7401Z" fill="#F3F5F7" stroke="black" stroke-width="1.5"/>
<path d="M107.464 114.441L112.179 183.12C112.228 183.83 111.277 184.603 109.321 185.31C105.256 186.799 98.3563 187.413 93.9125 186.722C91.6123 186.385 90.4117 185.753 90.358 184.971L85.6424 116.294C85.6911 117.004 86.8962 117.699 89.1968 118.044C93.6407 118.736 100.541 118.121 104.605 116.632C106.562 115.932 107.513 115.153 107.464 114.441Z" fill="#A041FF" stroke="black" stroke-width="1.5" stroke-linejoin="round"/>
<path d="M103.913 112.695C108.357 113.388 108.669 115.141 104.608 116.63C100.544 118.119 93.6438 118.733 89.2 118.042C84.756 117.35 84.4434 115.596 88.504 114.107C92.5691 112.619 99.4684 112.004 103.913 112.695Z" fill="#CFA4FF" stroke="black" stroke-width="1.5" stroke-linejoin="round"/>
<path d="M122.364 134.785L125.802 184.853C125.851 185.563 124.9 186.336 122.943 187.044C118.879 188.533 111.979 189.147 107.535 188.456C105.235 188.118 104.034 187.486 103.98 186.704L100.543 136.638C100.591 137.348 101.797 138.043 104.097 138.388C108.541 139.08 115.441 138.465 119.505 136.976C121.463 136.276 122.413 135.497 122.364 134.785Z" fill="#FBE62E" stroke="black" stroke-width="1.5" stroke-linejoin="round"/>
<path d="M118.812 133.037C123.256 133.73 123.568 135.483 119.508 136.972C115.443 138.461 108.543 139.075 104.099 138.384C99.6554 137.692 99.3428 135.938 103.403 134.449C107.469 132.961 114.368 132.346 118.812 133.037Z" fill="#FBE62E" stroke="black" stroke-width="1.5" stroke-linejoin="round"/>
<path d="M97.4042 158.782L98.4688 174.287C98.5176 174.997 97.5666 175.77 95.61 176.477C91.5458 177.967 84.6457 178.58 80.2019 177.889C77.9017 177.552 76.701 176.92 76.6473 176.138L75.5828 160.634C75.6315 161.344 76.8366 162.04 79.1372 162.384C83.5811 163.077 90.4811 162.461 94.5454 160.972C96.5025 160.273 97.453 159.493 97.4042 158.782Z" fill="#F78400" stroke="black" stroke-width="1.5" stroke-linejoin="round"/>
<path d="M93.8514 157.036C98.2953 157.729 98.6073 159.482 94.5466 160.971C90.4824 162.46 83.5823 163.074 79.1384 162.383C74.6945 161.691 74.3818 159.937 78.4425 158.448C82.5076 156.96 89.4068 156.345 93.8514 157.036Z" fill="#FFC664" stroke="black" stroke-width="1.5" stroke-linejoin="round"/>
<path d="M133.742 99.3154L215.991 105.843C219.944 106.156 222.916 109.684 222.594 113.743L216.699 188.031C216.432 191.4 213.53 193.902 210.255 193.642L125.558 186.92C122.283 186.66 119.812 183.732 120.08 180.364L125.975 106.075C126.297 102.016 129.788 99.0017 133.742 99.3154Z" fill="#FFC664" stroke="black" stroke-width="1.5"/>
<g clip-path="url(#clip0_2883_48822)">
<path d="M154.242 149.212C154.133 150.495 153 151.445 151.712 151.335C150.424 151.225 149.469 150.097 149.578 148.815" stroke="black" stroke-width="2" stroke-linecap="round" stroke-linejoin="round"/>
<path d="M154.242 149.212C154.351 147.93 155.483 146.98 156.771 147.09C158.059 147.199 159.015 148.327 158.905 149.61" stroke="black" stroke-width="2" stroke-linecap="round" stroke-linejoin="round"/>
<path d="M163.573 150.008C163.464 151.29 162.331 152.24 161.043 152.13C159.755 152.02 158.8 150.892 158.909 149.61" stroke="black" stroke-width="2" stroke-linecap="round" stroke-linejoin="round"/>
<path d="M163.573 150.007C163.682 148.725 164.814 147.775 166.102 147.885C167.39 147.995 168.346 149.123 168.236 150.405" stroke="black" stroke-width="2" stroke-linecap="round" stroke-linejoin="round"/>
<path d="M172.902 150.802C172.793 152.085 171.66 153.035 170.372 152.925C169.084 152.815 168.129 151.687 168.238 150.405" stroke="black" stroke-width="2" stroke-linecap="round" stroke-linejoin="round"/>
<path d="M163.573 150.007C163.682 148.725 164.814 147.775 166.102 147.885C167.39 147.995 168.346 149.123 168.236 150.405" stroke="black" stroke-width="2" stroke-linecap="round" stroke-linejoin="round"/>
<path d="M172.902 150.802C172.793 152.085 171.66 153.035 170.372 152.925C169.084 152.815 168.129 151.687 168.238 150.405" stroke="black" stroke-width="2" stroke-linecap="round" stroke-linejoin="round"/>
<path d="M172.902 150.802C173.012 149.52 174.144 148.57 175.432 148.68C176.72 148.789 177.675 149.918 177.566 151.2" stroke="black" stroke-width="2" stroke-linecap="round" stroke-linejoin="round"/>
<path d="M182.234 151.598C182.124 152.88 180.992 153.83 179.704 153.72C178.416 153.611 177.461 152.482 177.57 151.2" stroke="black" stroke-width="2" stroke-linecap="round" stroke-linejoin="round"/>
<path d="M182.233 151.598C182.343 150.315 183.475 149.365 184.763 149.475C186.051 149.585 187.006 150.713 186.897 151.995" stroke="black" stroke-width="2" stroke-linecap="round" stroke-linejoin="round"/>
<path d="M191.565 152.393C191.455 153.675 190.323 154.625 189.035 154.515C187.747 154.406 186.792 153.278 186.901 151.995" stroke="black" stroke-width="2" stroke-linecap="round" stroke-linejoin="round"/>
<path d="M192.118 146.401C193.108 134.782 184.449 124.556 172.778 123.562C161.107 122.567 151.126 130.952 149.904 142.335L149.892 142.334L149.853 142.799C149.791 143.526 150.333 144.164 151.061 144.226L190.643 147.599C191.373 147.662 192.014 147.122 192.076 146.397L192.118 146.401Z" fill="#FBF39B" stroke="black" stroke-width="2" stroke-linecap="round" stroke-linejoin="round"/>
<path d="M190 157.081L150.603 153.723C148.681 153.56 146.991 154.978 146.828 156.891L146.721 158.148C146.558 160.061 147.983 161.745 149.905 161.909L189.302 165.266C191.224 165.43 192.914 164.012 193.077 162.098L193.184 160.841C193.347 158.928 191.921 157.244 190 157.081Z" fill="#FF8CEE" stroke="black" stroke-width="2" stroke-linecap="round" stroke-linejoin="round"/>
<path d="M151.657 162.05L187.184 165.078C189.016 165.234 190.376 166.84 190.221 168.664L190.085 170.248C189.861 172.88 187.534 174.833 184.891 174.607L152.201 171.822C149.557 171.596 147.594 169.278 147.818 166.646L147.945 165.163C148.105 163.284 149.767 161.889 151.655 162.05L151.657 162.05Z" fill="#FBF39B" stroke="black" stroke-width="2" stroke-linecap="round" stroke-linejoin="round"/>
</g>
</g>
<path d="M140.689 41.9415L116.212 89.2909C115.832 90.026 114.774 90.0077 114.42 89.2599L91.2328 40.3353C90.8708 39.5715 91.5608 38.731 92.3805 38.9373L116.409 44.9856C116.553 45.0216 116.702 45.0255 116.847 44.9968L139.607 40.5012C140.429 40.339 141.074 41.1977 140.689 41.9415Z" fill="black" fill-opacity="0.1"/>
<path d="M133.252 41.5387L108.775 88.888C108.395 89.6232 107.337 89.6049 106.983 88.8571L83.7958 39.9325C83.4338 39.1687 84.1238 38.3281 84.9435 38.5345L108.972 44.5827C109.116 44.6188 109.265 44.6227 109.41 44.594L132.17 40.0984C132.992 39.9361 133.637 40.7949 133.252 41.5387Z" fill="#FBE62E" stroke="black" stroke-width="1.5"/>
<path d="M168.241 72.5901C171.014 73.5231 172.748 76.3281 173.268 77.614C174.031 75.6045 176.128 73.6666 178.468 72.5901C175.833 71.37 174.221 69.3604 173.268 67.3867C172.505 69.8987 169.599 71.9023 168.241 72.5901Z" fill="white" stroke="black"/>
<circle cx="6.13661" cy="6.13661" r="5.38661" transform="matrix(-1 0 0 1 150.369 11.5645)" fill="#FFC664" stroke="black" stroke-width="1.5"/>
<circle cx="4.90929" cy="4.90929" r="4.15929" transform="matrix(-1 0 0 1 72.3843 58.2017)" fill="#FBF39B" stroke="black" stroke-width="1.5"/>
<path d="M59.8083 80.6512C62.1426 86.6556 63.0433 92.5266 62.2517 97.3075C61.4632 102.07 59.006 105.727 54.6101 107.436C50.1146 109.183 45.6561 109.337 41.5104 107.129C37.3493 104.913 33.418 100.274 30.0908 92.2544C27.2356 84.3037 26.9984 78.2243 28.5461 73.7231C30.0884 69.2378 33.4304 66.2402 37.9162 64.4963C42.3138 62.7865 46.5881 63.8042 50.3767 66.7615C54.1808 69.7308 57.4739 74.6467 59.8083 80.6512Z" fill="#F78400" stroke="black"/>
<path d="M60.7887 81.0124C62.9015 87.0033 63.3822 92.9062 62.4752 97.5964C61.5657 102.3 59.2884 105.685 55.9737 106.854C52.659 108.023 48.7623 106.816 45.1033 103.723C41.4549 100.639 38.1263 95.7409 36.0136 89.7499C33.9008 83.759 33.4202 77.8561 34.3271 73.1659C35.2367 68.4621 37.5139 65.0774 40.8286 63.9084C44.1433 62.7394 48.04 63.9467 51.699 67.0393C55.3475 70.1229 58.676 75.0215 60.7887 81.0124Z" fill="#FFC664" stroke="black"/>
<path d="M58.6934 81.7513C60.3477 86.4421 60.7065 91.0646 59.9736 94.7358C59.2381 98.4192 57.4309 101.051 54.8353 101.966C52.2397 102.881 49.1815 101.966 46.2982 99.5587C43.4244 97.1596 40.8042 93.3346 39.15 88.6438C37.4958 83.9531 37.1369 79.3306 37.8699 75.6594C38.6053 71.9759 40.4126 69.3445 43.0082 68.4291C45.6038 67.5137 48.6619 68.4292 51.5453 70.8364C54.419 73.2356 57.0392 77.0606 58.6934 81.7513Z" stroke="black"/>
<path d="M50.3203 27.9979C47.4914 31.7713 44.1978 34.5921 40.9386 35.9418C37.6968 37.2842 34.5148 37.1674 31.7888 35.1236C28.9773 33.0157 27.1788 30.3276 26.9498 26.9339C26.7197 23.5227 28.068 19.3027 31.7666 14.1304C35.6048 9.27974 39.279 6.79818 42.6452 6.02596C45.995 5.2575 49.1216 6.16323 51.9247 8.26483C54.6523 10.3098 55.665 13.3195 55.2951 16.793C54.9231 20.2859 53.1493 24.2244 50.3203 27.9979Z" fill="#F78400" stroke="black"/>
<path d="M50.4796 28.7468C47.5762 32.3738 44.1006 34.948 40.85 36.1927C37.5865 37.4423 34.6487 37.323 32.6856 35.7514C30.7225 34.1799 29.9631 31.3393 30.4681 27.8814C30.971 24.4371 32.7221 20.4823 35.6255 16.8553C38.5289 13.2284 42.0045 10.6542 45.2551 9.40949C48.5186 8.15989 51.4563 8.27911 53.4195 9.85071C55.3826 11.4223 56.142 14.2628 55.637 17.7208C55.134 21.1651 53.383 25.1199 50.4796 28.7468Z" fill="#FFC664" stroke="black"/>
<path d="M49.2057 27.7272C46.9352 30.5635 44.211 32.5649 41.6635 33.5226C39.1043 34.4848 36.818 34.3673 35.2913 33.1451C33.7646 31.9229 33.1495 29.7176 33.5281 27.0099C33.9051 24.3145 35.2616 21.2182 37.532 18.3819C39.8025 15.5456 42.5267 13.5443 45.0742 12.5865C47.6334 11.6243 49.9197 11.7419 51.4464 12.9641C52.9731 14.1863 53.5882 16.3915 53.2096 19.0993C52.8326 21.7947 51.4761 24.891 49.2057 27.7272Z" stroke="black"/>
<defs>
<clipPath id="clip0_2883_48822">
<rect width="47.8746" height="51.1775" fill="white" transform="matrix(0.996389 0.0849107 -0.0849067 0.996389 149.219 120.879)"/>
</clipPath>
</defs>
</svg>
