<svg width="17" height="16" viewBox="0 0 17 16" fill="none" xmlns="http://www.w3.org/2000/svg">
<path d="M8.31374 3.28611L6.89953 4.70032C6.64026 4.9596 6.64026 5.38386 6.89953 5.64313C7.1588 5.9024 7.58307 5.9024 7.84234 5.64313L9.25655 4.22892C10.0344 3.4511 11.3072 3.4511 12.085 4.22892C12.8628 5.00674 12.8628 6.27953 12.085 7.05735L10.6708 8.47156C10.4115 8.73083 10.4115 9.1551 10.6708 9.41437C10.93 9.67364 11.3543 9.67364 11.6136 9.41437L13.0278 8.00015C14.3289 6.69908 14.3289 4.58719 13.0278 3.28611C11.7267 1.98503 9.61482 1.98503 8.31374 3.28611ZM6.42813 9.88577C6.6874 10.145 7.11166 10.145 7.37093 9.88577L10.1994 7.05735C10.4586 6.79807 10.4586 6.37381 10.1994 6.11454C9.94009 5.85526 9.51583 5.85526 9.25655 6.11454L6.42813 8.94296C6.16885 9.20224 6.16885 9.6265 6.42813 9.88577ZM8.78515 10.3572L7.37093 11.7714C6.59312 12.5492 5.32032 12.5492 4.54251 11.7714C3.76469 10.9936 3.76469 9.72078 4.54251 8.94296L5.95672 7.52875C6.21599 7.26948 6.21599 6.84521 5.95672 6.58594C5.69745 6.32667 5.27318 6.32667 5.01391 6.58594L3.5997 8.00016C2.29862 9.30123 2.29862 11.4131 3.5997 12.7142C4.90077 14.0153 7.01267 14.0153 8.31374 12.7142L9.72796 11.3C9.98723 11.0407 9.98723 10.6164 9.72796 10.3572C9.46868 10.0979 9.04442 10.0979 8.78515 10.3572Z" fill="#262626"/>
</svg>
