<svg width="240" height="179" viewBox="0 0 240 179" fill="none" xmlns="http://www.w3.org/2000/svg">
<g id="Desktop" clip-path="url(#clip0_8771_14781)">
<path id="Vector" d="M119.998 178.887C186.271 178.887 239.996 156.909 239.996 129.798C239.996 102.687 186.271 80.709 119.998 80.709C53.7248 80.709 0 102.687 0 129.798C0 156.909 53.7248 178.887 119.998 178.887Z" fill="#E8E8E8"/>
<path id="Vector_2" d="M69.8027 108.313V52.6483C69.8027 48.5981 72.6868 46.9945 76.2385 49.0674L141.901 87.3097C145.457 89.3826 148.337 94.3411 148.337 98.3913V154.056C148.337 158.106 145.453 159.709 141.901 157.636L76.2385 119.394C72.6825 117.321 69.8027 112.363 69.8027 108.313Z" fill="#CFA4FF"/>
<path id="Vector_3" d="M144.833 158.98C143.86 158.98 142.791 158.654 141.687 158.01L76.025 119.768C72.3555 117.63 69.3711 112.493 69.3711 108.313V52.6486C69.3711 50.5452 70.1085 48.9677 71.4436 48.2029C72.805 47.425 74.5895 47.5988 76.4614 48.6896L142.124 86.9319C145.793 89.07 148.778 94.2066 148.778 98.3872V154.051C148.778 156.155 148.04 157.732 146.701 158.497C146.142 158.819 145.51 158.975 144.829 158.975L144.833 158.98ZM73.3155 48.594C72.7875 48.594 72.2988 48.7157 71.8756 48.9547C70.8197 49.5587 70.2394 50.8712 70.2394 52.6486V108.313C70.2394 112.22 73.0319 117.022 76.4614 119.016L142.124 157.259C143.721 158.189 145.191 158.358 146.269 157.745C147.325 157.141 147.905 155.833 147.905 154.051V98.3872C147.905 94.4804 145.113 89.6784 141.683 87.6837L76.0207 49.4414C75.052 48.8765 74.1314 48.594 73.3155 48.594Z" fill="black"/>
<g id="Group">
<path id="Vector_4" d="M159.272 76.0104L93.6092 37.7681C91.7155 36.6643 90.0226 36.6122 88.8445 37.4074H88.8402L71.7275 48.5455C72.8882 47.9197 74.4851 48.0414 76.2435 49.067L141.906 87.3093C145.462 89.3822 148.342 94.3407 148.342 98.3909V154.055C148.342 155.828 147.792 157.128 146.871 157.862L163.897 146.798C165.018 146.124 165.707 144.734 165.707 142.756V87.092C165.707 83.0418 162.823 78.0833 159.272 76.0104Z" fill="#A041FF"/>
<path id="Vector_5" d="M146.539 158.605L146.408 157.684L146.6 157.523C147.443 156.849 147.905 155.62 147.905 154.055V98.3909C147.905 94.4841 145.113 89.6821 141.683 87.6874L76.0207 49.4451C74.4587 48.5369 73.0057 48.3544 71.9324 48.9323L71.4873 48.1849L88.8225 36.899L88.8356 36.9077C90.1794 36.1472 91.9814 36.3211 93.8315 37.3988L159.494 75.6411C163.163 77.7792 166.148 82.9158 166.148 87.0964V142.761C166.148 144.768 165.467 146.307 164.232 147.102L164.141 147.163L146.539 158.605ZM73.7475 47.746C74.6027 47.8285 75.5189 48.1414 76.4614 48.689L142.124 86.9313C145.793 89.0694 148.778 94.206 148.778 98.3866V154.051C148.778 154.903 148.651 155.676 148.416 156.341L163.678 146.411C164.708 145.798 165.275 144.495 165.275 142.748V87.0834C165.275 83.1766 162.483 78.3745 159.053 76.3799L93.3908 38.1376C91.7327 37.1728 90.1663 37.0338 89.0886 37.7638L88.8617 37.9159H88.853L73.7475 47.746Z" fill="black"/>
</g>
<g id="Group_2">
<path id="Vector_6" d="M107.37 82.7373C112.13 85.4751 116 92.1457 115.974 97.5692C115.974 100.611 114.753 102.588 112.868 103.323L112.815 118.815C112.815 122.314 110.32 123.735 107.239 121.962C104.185 120.21 101.689 115.925 101.715 112.427L101.768 96.9347C99.9088 94.0448 98.6871 90.6725 98.7133 87.6566C98.7133 82.2071 102.61 79.9995 107.37 82.7373Z" fill="black"/>
<path id="Vector_7" d="M111.607 121.962C108.553 120.211 106.057 115.926 106.083 112.428L106.136 96.9351C104.277 94.0452 103.055 90.6729 103.081 87.657C103.081 84.8105 104.146 82.8506 105.839 82.0162C101.803 80.53 98.7182 82.8072 98.7182 87.657C98.692 90.6729 99.9137 94.0452 101.772 96.9351L101.72 112.428C101.694 115.926 104.19 120.211 107.244 121.962C109.055 123.005 110.66 122.935 111.677 121.997C111.655 121.984 111.629 121.975 111.607 121.962Z" fill="#A041FF"/>
<path id="Vector_8" d="M109.753 123.161C108.906 123.161 107.981 122.883 107.026 122.336C103.832 120.506 101.257 116.061 101.284 112.423L101.336 97.0611C99.3681 93.9626 98.2555 90.5426 98.2817 87.6527C98.2817 84.8714 99.2547 82.7768 101.022 81.7599C102.802 80.7343 105.136 80.9472 107.588 82.3596C112.48 85.1756 116.437 91.9984 116.411 97.5696C116.411 100.507 115.285 102.689 113.304 103.61L113.256 118.816C113.256 120.663 112.606 122.053 111.419 122.731C110.918 123.018 110.355 123.161 109.748 123.161H109.753ZM103.509 81.9902C102.758 81.9902 102.065 82.164 101.458 82.5117C99.9703 83.3678 99.1543 85.193 99.1543 87.6527C99.1325 90.4165 100.219 93.7106 102.139 96.7004L102.209 96.8091L102.156 112.428C102.13 115.787 104.512 119.894 107.462 121.584C108.819 122.366 110.067 122.505 110.983 121.979C111.886 121.462 112.384 120.337 112.384 118.816L112.436 103.028L112.711 102.919C114.509 102.215 115.538 100.268 115.538 97.5696C115.564 92.2722 111.799 85.7883 107.152 83.1114C105.856 82.3683 104.617 81.9902 103.505 81.9902H103.509Z" fill="black"/>
</g>
<g id="Group_3">
<g id="Group_4">
<path id="Vector_9" d="M158.543 97.4049C158.543 97.4049 158.774 97.5309 158.756 97.5309L158.386 97.3179L158.316 97.2745C157.6 96.8747 156.684 97.0311 155.567 97.7569C153.634 99.0084 152.404 101.173 152.329 103.467C152.286 104.693 152.587 105.488 153.246 105.888L153.333 105.957L155.008 106.913C155.008 106.913 156.339 107.669 156.771 107.926C156.841 107.969 156.946 107.939 156.985 107.869L160.995 101.16L161.911 99.4951C161.955 99.4256 161.911 99.3257 161.854 99.2822L158.573 97.4005H158.547L158.543 97.4049Z" fill="#EEEEEE"/>
<path id="Vector_10" d="M156.841 108.382C156.737 108.382 156.636 108.356 156.54 108.299C156.113 108.043 154.786 107.291 154.786 107.291L152.989 106.244C152.203 105.753 151.841 104.84 151.889 103.454C151.963 101.042 153.281 98.7171 155.323 97.396C156.575 96.579 157.653 96.4139 158.521 96.8962L158.783 97.0266L162.103 98.9344C162.326 99.0952 162.448 99.4341 162.278 99.721L161.37 101.372L157.352 108.095C157.238 108.282 157.042 108.386 156.837 108.386L156.841 108.382ZM155.218 106.539C155.218 106.539 156.191 107.091 156.745 107.413L160.615 100.942L161.396 99.5254L159.04 98.1739V98.1913L158.046 97.6263C157.496 97.3482 156.737 97.5133 155.803 98.1217C153.996 99.2951 152.831 101.346 152.766 103.484C152.727 104.545 152.958 105.21 153.473 105.522L153.582 105.605L155.227 106.539H155.218ZM161.523 99.2864C161.523 99.2864 161.519 99.2951 161.514 99.2994L161.523 99.2864Z" fill="black"/>
</g>
<g id="Group_5">
<path id="Vector_11" d="M162.998 101.646C162.998 103.897 161.41 106.644 159.446 107.769C157.483 108.895 155.895 107.982 155.895 105.731C155.895 103.48 157.483 100.734 159.446 99.608C161.41 98.4825 162.998 99.3951 162.998 101.646Z" fill="#EEEEEE"/>
<path id="Vector_12" d="M157.858 108.69C157.443 108.69 157.059 108.59 156.715 108.395C155.903 107.93 155.458 106.982 155.458 105.735C155.458 103.345 157.151 100.425 159.228 99.2339C160.319 98.6081 161.366 98.5212 162.177 98.9862C162.985 99.4512 163.434 100.399 163.434 101.646C163.434 104.04 161.741 106.956 159.664 108.147C159.036 108.508 158.421 108.69 157.858 108.69ZM161.03 99.5642C160.62 99.5642 160.153 99.7076 159.664 99.9901C157.827 101.042 156.331 103.623 156.331 105.735C156.331 106.661 156.623 107.339 157.151 107.643C157.683 107.947 158.421 107.86 159.228 107.395C161.065 106.339 162.561 103.762 162.561 101.646C162.561 100.72 162.269 100.042 161.741 99.738C161.532 99.6163 161.292 99.5598 161.03 99.5598V99.5642Z" fill="black"/>
</g>
<g id="Group_6">
<path id="Vector_13" d="M159.652 99.2698L158.506 107.974L159.371 108.087L160.517 99.3828L159.652 99.2698Z" fill="black"/>
</g>
</g>
<g id="Group_7">
<path id="Vector_14" d="M158.544 124.905C158.544 124.905 158.775 125.031 158.757 125.031L158.386 124.818L158.317 124.774C157.601 124.375 156.685 124.535 155.568 125.257C153.635 126.513 152.404 128.677 152.33 130.967C152.287 132.193 152.588 132.988 153.247 133.388L153.334 133.457L155.009 134.413C155.009 134.413 156.34 135.169 156.772 135.426C156.842 135.469 156.947 135.439 156.986 135.369L160.996 128.659L161.912 126.991C161.956 126.921 161.912 126.821 161.855 126.778L158.574 124.9H158.548L158.544 124.905Z" fill="#E8E8E8"/>
<path id="Vector_15" d="M156.824 135.943C156.711 135.943 156.593 135.913 156.497 135.856C156.152 135.656 155.537 135.3 155.136 135.074L152.928 133.792C152.142 133.31 151.767 132.38 151.824 130.959C151.911 128.495 153.198 126.217 155.275 124.862C156.562 124.023 157.653 123.866 158.539 124.362L158.77 124.488L162.051 126.365C162.352 126.539 162.466 126.921 162.296 127.234L161.379 128.916L157.37 135.639C157.243 135.839 157.025 135.952 156.811 135.952L156.824 135.939V135.943ZM155.219 134.022C155.507 134.148 155.947 134.409 156.693 134.835L161.275 127.043L158.508 125.461C158.395 125.418 158.308 125.348 158.251 125.305L158.12 125.235C157.505 124.892 156.759 125.048 155.816 125.661C153.997 126.843 152.88 128.838 152.81 130.972C152.766 132.354 153.168 132.766 153.482 132.966L153.595 133.053L155.227 133.979V134.009L155.214 134.022H155.219Z" fill="black"/>
<path id="Vector_16" d="M162.998 129.146C162.998 131.397 161.41 134.144 159.446 135.269C157.483 136.395 155.895 135.482 155.895 133.231C155.895 130.98 157.483 128.234 159.446 127.108C161.41 125.982 162.998 126.895 162.998 129.146Z" fill="#E8E8E8"/>
<path id="Vector_17" d="M157.841 136.256C157.413 136.256 157.025 136.156 156.667 135.956C155.838 135.486 155.38 134.517 155.38 133.235C155.38 130.784 157.055 127.908 159.189 126.686C160.306 126.043 161.366 125.961 162.195 126.443C163.029 126.912 163.482 127.881 163.482 129.163C163.482 131.614 161.807 134.491 159.673 135.712C159.045 136.082 158.412 136.269 157.841 136.269V136.256ZM161.022 127.112C160.62 127.112 160.162 127.256 159.678 127.525C157.858 128.581 156.37 131.128 156.37 133.222C156.37 134.135 156.658 134.787 157.173 135.087C157.688 135.387 158.404 135.3 159.193 134.843C161.013 133.787 162.501 131.241 162.501 129.146C162.501 128.233 162.213 127.582 161.698 127.282C161.497 127.169 161.27 127.112 161.008 127.112H161.022Z" fill="black"/>
<path id="Vector_18" d="M159.577 126.748L158.325 135.505L159.303 135.644L160.555 126.887L159.577 126.748Z" fill="black"/>
</g>
<g id="Group_8">
<path id="Vector_19" d="M150.432 78.9656L150.489 45.6036C150.489 23.8533 138.014 11.9677 122.538 3.06772C116.543 0.742765 108.846 -0.760853 103.898 1.75532L103.881 1.76835C103.226 2.10297 98.8717 4.06289 98.2739 4.48877L93.6445 7.97404L93.6533 7.99576C98.8062 3.7022 106.507 2.98081 115.164 7.44386L115.12 7.41344C130.597 16.3135 143.071 28.199 143.071 49.9493L143.015 83.3114L143.089 83.3418L150.371 79.0048" fill="#EEEEEE"/>
</g>
<g id="Group_9">
<path id="Vector_20" d="M97.5759 25.1271L97.541 56.4119L104.959 52.0271L104.993 20.8118C104.993 19.1213 105.421 17.5786 106.189 16.2705C101.032 16.6703 97.5759 20.2903 97.5759 25.1271Z" fill="black"/>
<path id="Vector_21" d="M97.0996 57.1721L97.1389 25.1225C97.1389 19.9859 100.76 16.2529 106.153 15.8357L106.987 15.7705L106.563 16.4875C105.809 17.7695 105.429 19.221 105.429 20.8072L105.39 52.2702L97.0996 57.1721ZM105.416 16.7918C100.952 17.461 98.0072 20.7246 98.0072 25.1225L97.9723 55.6424L104.517 51.7748L104.552 20.8072C104.552 19.3644 104.84 18.0172 105.416 16.7918Z" fill="black"/>
</g>
<path id="Vector_22" d="M143.014 83.3859L133.228 77.6843L133.271 50.0108C133.271 36.8433 125.151 24.4276 115.094 18.6478C105.037 12.868 96.7903 17.4701 96.7903 25.0056L96.7554 56.4468L86.9512 50.7366L86.9904 24.5449C86.9904 8.2485 99.5129 -0.616754 115.164 7.44889L115.12 7.41847C130.597 16.3185 143.071 28.204 143.071 49.9543L143.014 83.3164L143.089 83.3468L143.014 83.3903V83.3859Z" fill="#EEEEEE"/>
<path id="Vector_23" d="M143.014 83.8894L132.787 77.9315L132.83 50.0059C132.83 37.8422 125.448 25.0962 114.871 19.0209C107.742 14.9229 103.003 16.7568 101.297 17.739C98.7055 19.2295 97.222 21.8761 97.222 25.0006L97.1827 57.198L86.5059 50.9793L86.5451 24.5357C86.5451 16.3049 89.7259 9.65592 95.2672 6.30103C100.778 2.95918 107.903 3.22426 115.329 7.04415C124.388 12.246 130.714 17.513 135.243 23.6057C140.798 31.0846 143.499 39.7022 143.499 49.9494L143.442 83.0246L144.044 83.2767L143.005 83.8938L143.014 83.8894ZM133.659 77.436L142.578 82.6292L142.635 49.9494C142.635 26.752 127.861 15.2532 114.963 7.82638C107.807 4.14121 100.979 3.86308 95.7297 7.04415C90.4546 10.2426 87.4265 16.6178 87.4265 24.54L87.3872 50.4839L96.3188 55.6857L96.3537 25.005C96.3537 21.5632 97.9986 18.6429 100.865 16.9915C102.702 15.9355 107.785 13.9451 115.312 18.2735C126.142 24.5009 133.707 37.5511 133.707 50.0146L133.664 77.4404L133.659 77.436Z" fill="black"/>
<path id="Vector_24" d="M143.237 83.7595L143.045 83.4423L142.918 83.7465L142.578 83.6031L142.635 49.9499C142.635 26.7524 127.861 15.2537 114.963 7.82683C106.943 3.69406 99.2728 3.87658 93.9322 8.33094L93.4784 8.70901L93.125 7.88333L93.3475 7.65301C108.436 -5.71441 122.341 2.44684 122.756 2.69889C131.809 7.90506 138.136 13.1721 142.665 19.2648C148.22 26.7437 150.92 35.3613 150.92 45.6085L150.864 79.2182L150.589 79.3834L143.232 83.7639L143.237 83.7595ZM115.334 7.04026C124.392 12.2508 130.719 17.5134 135.248 23.6061C140.802 31.0851 143.503 39.7027 143.503 49.9499L143.446 82.6209L149.991 78.7228L150.048 45.6041C150.048 22.3719 135.226 10.8732 122.315 3.44635L122.302 3.43766C122.184 3.36378 111.438 -3.0896 98.6663 4.75876C103.544 3.21603 109.352 3.96784 115.334 7.0446V7.04026Z" fill="black"/>
<g id="Group_10">
<g id="Group_11">
<path id="Vector_25" d="M110.657 56.7594C110.657 56.7594 110.657 56.4987 110.657 56.5117V57.0245C110.648 57.8415 110.055 58.5542 108.864 59.1539C106.809 60.1969 104.308 60.1752 102.28 59.0887C101.193 58.5151 100.652 57.8546 100.635 57.0897L100.617 56.9811L100.626 55.0603C100.626 55.0603 100.635 53.5349 100.626 53.0352C100.626 52.9526 100.7 52.8787 100.783 52.8787L108.619 52.7744L110.526 52.8179C110.609 52.8179 110.674 52.9048 110.683 52.9743V56.7421L110.666 56.7681L110.657 56.7594Z" fill="#FF8CEE"/>
<path id="Vector_26" d="M105.626 60.3451C104.391 60.3451 103.161 60.0539 102.07 59.4716C100.861 58.8328 100.229 58.0462 100.194 57.1336L100.172 56.9772L100.181 55.0564C100.181 55.0564 100.189 53.5354 100.181 53.0399C100.181 52.8835 100.242 52.7271 100.355 52.6141C100.464 52.5054 100.613 52.4446 100.765 52.4402L108.606 52.3359L110.53 52.3794H110.539C110.849 52.3794 111.08 52.6532 111.111 52.9183V52.9704L111.089 56.9424V57.0206C111.076 58.0245 110.391 58.8719 109.055 59.5455C107.991 60.0843 106.808 60.3538 105.626 60.3538V60.3451ZM101.045 56.9381L101.062 57.0728C101.075 57.6725 101.538 58.2027 102.476 58.6981C104.365 59.7063 106.734 59.7323 108.658 58.7589C109.684 58.2418 110.207 57.6551 110.216 57.0119V55.9255L110.234 55.9298V53.2312L108.602 53.1964L101.058 53.2963C101.058 53.9352 101.058 55.052 101.058 55.052L101.049 56.9337L101.045 56.9381ZM110.504 53.2442C110.504 53.2442 110.517 53.2442 110.526 53.2442H110.504Z" fill="black"/>
</g>
<g id="Group_12">
<path id="Vector_27" d="M109.191 50.7931C107.236 49.6675 104.051 49.6632 102.092 50.7931C100.133 51.9229 100.128 53.7481 102.087 54.8737C104.042 55.9992 107.227 56.0036 109.186 54.8737C111.145 53.7438 111.15 51.9186 109.191 50.7931Z" fill="#FF8CEE"/>
<path id="Vector_28" d="M105.639 56.1513C104.273 56.1513 102.912 55.8514 101.869 55.2561C100.782 54.6303 100.185 53.7742 100.185 52.8442C100.185 51.9099 100.782 51.0494 101.873 50.4236C103.95 49.2286 107.332 49.2286 109.413 50.4236C110.499 51.0494 111.097 51.9055 111.097 52.8355C111.097 53.7698 110.499 54.6303 109.408 55.2561C108.37 55.8558 107.004 56.1556 105.639 56.1556V56.1513ZM105.643 50.3802C104.434 50.3802 103.23 50.6453 102.309 51.1755C101.502 51.6404 101.057 52.2358 101.057 52.8442C101.057 53.4526 101.502 54.0436 102.305 54.5043C104.142 55.5603 107.135 55.5603 108.968 54.5043C109.775 54.0393 110.22 53.4439 110.22 52.8355C110.22 52.2271 109.775 51.6404 108.972 51.1755C108.051 50.6453 106.847 50.3802 105.639 50.3802H105.643Z" fill="black"/>
</g>
<path id="Vector_29" d="M101.677 50.7955L101.354 51.6025L109.598 54.8853L109.922 54.0783L101.677 50.7955Z" fill="black"/>
</g>
<g id="Group 989">
<path id="Vector_30" d="M52.3109 118.1C52.4026 118.156 52.4986 118.191 52.5902 118.247L47.603 115.358C47.603 115.358 47.5114 115.301 47.4721 115.284C47.4154 115.245 47.3587 115.227 47.3238 115.21C47.0271 115.045 46.7304 114.914 46.4293 114.767C46.3726 114.749 46.3158 114.71 46.2635 114.693C46.2242 114.675 46.1719 114.658 46.1151 114.636C45.7617 114.488 45.3908 114.358 44.9981 114.249H44.9589C44.5662 114.136 44.1604 114.045 43.7503 113.971C43.6935 113.971 43.6586 113.954 43.6019 113.932C43.5452 113.932 43.471 113.932 43.4143 113.915C43.0609 113.858 42.69 113.824 42.3148 113.784C42.258 113.784 42.2013 113.784 42.149 113.767H42.0922C41.6472 113.75 41.1629 113.728 40.696 113.767H40.3818C39.8408 113.806 39.3216 113.841 38.7631 113.932C38.4097 113.989 38.0388 114.063 37.6854 114.136C37.5719 114.154 37.4454 114.193 37.3319 114.228C37.1094 114.284 36.8869 114.341 36.6425 114.393C36.6251 114.393 36.6033 114.393 36.5684 114.41C36.1408 114.523 35.7132 114.649 35.2681 114.797C35.1939 114.836 35.1023 114.853 35.0281 114.888C34.6747 115.019 34.3213 115.149 33.9504 115.297C33.9112 115.297 33.8588 115.336 33.8195 115.353C33.7279 115.392 33.6537 115.427 33.5577 115.466C33.165 115.631 32.7767 115.801 32.384 116.005C32.2357 116.079 32.0873 116.135 31.9564 116.209C31.4547 116.47 30.9354 116.726 30.4118 117.026C29.6308 117.47 28.8673 117.974 28.1037 118.491C27.8637 118.656 27.6194 118.843 27.3794 119.03C26.8776 119.399 26.354 119.773 25.8523 120.177C25.573 120.399 25.2938 120.62 25.032 120.864C24.5651 121.255 24.12 121.641 23.675 122.05C23.3957 122.289 23.134 122.55 22.8547 122.81C22.6889 122.98 22.5187 123.106 22.3529 123.275C21.9079 123.719 21.4585 124.184 21.0134 124.649C20.5684 125.114 20.1408 125.596 19.7132 126.074C19.5648 126.244 19.4339 126.409 19.303 126.574C18.9889 126.943 18.6704 127.334 18.3562 127.721C18.1511 127.96 17.9461 128.204 17.741 128.46C17.5752 128.664 17.4268 128.886 17.2567 129.107C17.0341 129.403 16.8116 129.72 16.5891 130.016C16.4407 130.22 16.2749 130.424 16.1222 130.628C15.8604 130.998 15.6205 131.367 15.3761 131.741C15.2278 131.98 15.062 132.206 14.9092 132.445C14.8525 132.536 14.7784 132.632 14.7216 132.723C14.294 133.388 13.8664 134.075 13.4737 134.761C13.4563 134.8 13.417 134.852 13.3996 134.909C13.3254 135.057 13.2338 135.204 13.1596 135.335C12.8803 135.817 12.6011 136.3 12.3393 136.799C12.2084 137.021 12.0993 137.264 11.9859 137.486C11.855 137.725 11.7459 137.968 11.615 138.207C11.5016 138.412 11.3925 138.633 11.3008 138.837C11.0216 139.394 10.7816 139.967 10.5198 140.524C10.4631 140.637 10.4282 140.728 10.3715 140.836C10.3715 140.876 10.3322 140.893 10.3322 140.928C10.0181 141.649 9.71699 142.371 9.43774 143.096C9.38102 143.227 9.34612 143.357 9.28939 143.487C9.19777 143.748 9.10177 144.005 9.01015 144.283C8.87925 144.652 8.7309 145.004 8.61746 145.373C8.52583 145.652 8.45165 145.93 8.35566 146.208C8.24222 146.542 8.15059 146.873 8.05896 147.207C8.00224 147.412 7.92806 147.633 7.87134 147.837C7.77971 148.207 7.70554 148.559 7.60955 148.933C7.4961 149.341 7.40447 149.75 7.31285 150.175C7.27358 150.323 7.23867 150.471 7.1994 150.619C7.05105 151.284 6.93761 151.97 6.82853 152.639C6.81107 152.77 6.78926 152.918 6.7718 153.048C6.71508 153.343 6.68018 153.661 6.64091 153.956C6.58419 154.365 6.56673 154.751 6.52746 155.143C6.51001 155.421 6.47074 155.716 6.45329 155.994C6.37911 156.885 6.33984 157.772 6.33984 158.645C6.3573 166.224 9.05814 171.578 13.4083 174.081L18.3955 176.971C14.041 174.451 11.3445 169.114 11.327 161.539C11.327 160.67 11.3663 159.779 11.4405 158.889C11.4579 158.61 11.4972 158.315 11.5146 158.037C11.5888 157.333 11.663 156.646 11.7764 155.942C11.7939 155.812 11.8157 155.664 11.8332 155.534C11.9641 154.717 12.1299 153.904 12.3175 153.087C12.4091 152.679 12.5226 152.27 12.6142 151.844C12.7625 151.271 12.9109 150.697 13.081 150.119C13.1727 149.784 13.2861 149.454 13.3777 149.119C13.5828 148.472 13.8053 147.842 14.0279 147.194C14.1195 146.934 14.2155 146.655 14.3071 146.399C14.6431 145.508 14.9965 144.639 15.3848 143.748C15.4416 143.635 15.4765 143.526 15.5332 143.435C15.8866 142.657 16.24 141.879 16.6327 141.119C16.7636 140.88 16.8727 140.637 17.0036 140.398C17.3745 139.676 17.7672 138.955 18.1773 138.229C18.2515 138.081 18.3257 137.951 18.4173 137.803C18.9016 136.969 19.4208 136.134 19.9444 135.339C20.0928 135.1 20.2586 134.874 20.4113 134.635C20.804 134.062 21.1923 133.488 21.6025 132.91C21.825 132.597 22.0475 132.297 22.27 132.002C22.6235 131.537 22.9943 131.076 23.3696 130.611C23.6837 130.224 24.0022 129.833 24.3164 129.464C24.8749 128.799 25.4508 128.147 26.0268 127.539C26.6202 126.908 27.2529 126.296 27.8681 125.705C28.1299 125.444 28.4091 125.205 28.6884 124.944C29.1334 124.536 29.6003 124.149 30.0453 123.758C30.3246 123.536 30.5864 123.293 30.8656 123.071C31.3674 122.68 31.8692 122.293 32.3927 121.941C32.6327 121.776 32.8771 121.589 33.117 121.402C33.8806 120.885 34.6442 120.381 35.4252 119.938C35.9444 119.642 36.4506 119.364 36.9698 119.121C37.1181 119.047 37.2665 118.973 37.3974 118.917C37.7901 118.73 38.1784 118.547 38.5711 118.378C38.702 118.321 38.8329 118.265 38.9638 118.208C39.3172 118.061 39.6881 117.93 40.0415 117.8C40.1157 117.765 40.2073 117.743 40.3033 117.709C40.7309 117.561 41.1759 117.43 41.6035 117.322C41.8653 117.248 42.1053 117.191 42.3497 117.135C42.4631 117.118 42.5896 117.078 42.7031 117.044C43.074 116.97 43.4274 116.896 43.8026 116.839C44.3611 116.748 44.8803 116.709 45.4214 116.674H47.1318C47.2059 116.674 47.2801 116.674 47.3543 116.692C47.7252 116.726 48.1004 116.766 48.4538 116.822C48.5673 116.822 48.6764 116.861 48.7898 116.879C49.1999 116.952 49.6101 117.044 49.9984 117.157H50.0377C50.4086 117.27 50.7838 117.396 51.1547 117.543C51.2681 117.583 51.3598 117.635 51.4514 117.674C51.7481 117.804 52.0666 117.952 52.3458 118.117L52.3066 118.1H52.3109Z" fill="#FFEFD4"/>
<path id="Vector_31" d="M50.1336 139.163C50.1336 134.57 48.4799 131.324 45.8533 129.807L40.8661 126.917C43.5058 128.438 45.1246 131.68 45.1464 136.273C45.1464 136.812 45.129 137.347 45.0897 137.886C45.0897 138.051 45.0504 138.238 45.033 138.403C44.9937 138.755 44.9588 139.107 44.9021 139.441C44.8454 139.832 44.7712 140.219 44.697 140.61C44.6403 140.871 44.6054 141.149 44.5486 141.406C44.4919 141.645 44.4352 141.905 44.361 142.144C44.2694 142.496 44.1734 142.831 44.0818 143.183C44.0251 143.387 43.9509 143.592 43.8942 143.796C43.7633 144.183 43.6324 144.574 43.5015 144.965C43.4447 145.13 43.388 145.278 43.3357 145.447C43.1306 145.986 42.9255 146.521 42.6855 147.042C42.6681 147.098 42.6288 147.172 42.5939 147.229C42.3888 147.711 42.1663 148.172 41.9263 148.637C41.8522 148.785 41.778 148.932 41.7038 149.08C41.4813 149.523 41.237 149.949 40.997 150.397C40.9403 150.488 40.9053 150.562 40.8486 150.658C40.5519 151.157 40.2552 151.657 39.9193 152.157C39.8276 152.305 39.7316 152.435 39.64 152.583C39.4 152.935 39.1557 153.287 38.9157 153.621C38.7848 153.808 38.6365 153.991 38.5056 154.178C38.283 154.456 38.0605 154.751 37.838 155.012C37.6504 155.251 37.4671 155.477 37.262 155.699C37.0744 155.92 36.8912 156.125 36.7035 156.329C36.3894 156.681 36.0709 157.033 35.7349 157.367C35.5298 157.572 35.3248 157.776 35.1197 157.98C34.9539 158.128 34.7837 158.293 34.6179 158.445C34.3387 158.684 34.0769 158.928 33.7976 159.167C33.6318 159.297 33.4617 159.445 33.2959 159.575C32.9992 159.814 32.6806 160.04 32.3839 160.262C32.2356 160.375 32.0872 160.483 31.9389 160.579C31.472 160.892 31.0095 161.192 30.5427 161.47C30.0976 161.731 29.6482 161.952 29.2031 162.156C29.0897 162.213 28.9806 162.269 28.8672 162.304C28.4396 162.491 28.012 162.674 27.6018 162.804C27.5626 162.804 27.5451 162.804 27.5102 162.821C27.1568 162.934 26.8034 163.026 26.4499 163.117C26.2449 163.173 26.0572 163.208 25.8565 163.247C25.5947 163.304 25.3373 163.338 25.0755 163.36C24.9272 163.36 24.7788 163.399 24.6479 163.399C24.3338 163.417 24.0152 163.438 23.7011 163.399H23.496C23.1251 163.382 22.7717 163.325 22.4183 163.269C22.3267 163.269 22.2525 163.234 22.1565 163.212C21.8773 163.156 21.6155 163.065 21.358 162.991C21.2839 162.952 21.1922 162.934 21.1181 162.9C20.7821 162.769 20.4679 162.621 20.1494 162.435L25.1366 165.324C25.1366 165.324 25.1933 165.359 25.2108 165.359C25.4507 165.49 25.6951 165.62 25.9569 165.711C25.9962 165.729 26.0485 165.75 26.1052 165.768C26.1794 165.807 26.271 165.824 26.3452 165.859C26.4761 165.898 26.607 165.95 26.7379 165.989C26.8688 166.024 27.0172 166.046 27.1655 166.081C27.2571 166.098 27.3313 166.12 27.4273 166.137C27.484 166.137 27.5189 166.154 27.5756 166.172C27.8723 166.228 28.1516 166.263 28.4701 166.285H29.4388C29.5129 166.285 29.6046 166.285 29.6787 166.267C29.8271 166.267 29.9754 166.25 30.1063 166.228C30.2547 166.228 30.3856 166.211 30.5165 166.194C30.6299 166.194 30.7564 166.137 30.8699 166.12C31.075 166.081 31.2626 166.046 31.4633 165.989C31.5767 165.972 31.6858 165.95 31.7993 165.915C32.0392 165.842 32.2836 165.768 32.5236 165.694C32.5628 165.694 32.5803 165.694 32.6152 165.676C32.9119 165.585 33.2086 165.455 33.5271 165.342C33.6405 165.285 33.7671 165.229 33.8805 165.177C33.994 165.12 34.1031 165.064 34.2165 165.029C34.6615 164.825 35.111 164.603 35.556 164.342C36.0229 164.064 36.4854 163.769 36.9523 163.451C37.1006 163.338 37.2489 163.23 37.3973 163.139C37.7115 162.917 38.0125 162.695 38.3092 162.452C38.475 162.322 38.6452 162.174 38.811 162.043C39.0902 161.804 39.3695 161.561 39.6313 161.322C39.7971 161.174 39.9672 161.027 40.1156 160.857C40.2072 160.766 40.3207 160.67 40.4123 160.579C40.5257 160.466 40.6174 160.357 40.7264 160.244C41.0624 159.91 41.3766 159.558 41.6951 159.206C41.7867 159.093 41.9002 158.984 42.0092 158.871C42.1009 158.78 42.175 158.667 42.271 158.558C42.4587 158.337 42.6637 158.093 42.847 157.872C42.9604 157.724 43.087 157.576 43.2179 157.428C43.3095 157.298 43.4055 157.168 43.5146 157.037C43.6455 156.855 43.7938 156.668 43.9247 156.481C44.0163 156.351 44.1123 156.242 44.204 156.112C44.3523 155.89 44.5007 155.668 44.649 155.447C44.7406 155.299 44.8366 155.168 44.9283 155.021C44.9675 154.964 45.0024 154.908 45.0417 154.851C45.3035 154.443 45.5609 154.034 45.8053 153.608C45.8053 153.569 45.8445 153.552 45.862 153.517C45.9187 153.426 45.9536 153.33 46.0103 153.256C46.1761 152.961 46.3463 152.661 46.4947 152.365C46.5688 152.218 46.643 152.087 46.7172 151.94C46.7914 151.792 46.8655 151.644 46.9397 151.496C46.9964 151.366 47.0706 151.236 47.1273 151.105C47.2931 150.771 47.4415 150.419 47.5942 150.067C47.6116 150.01 47.6509 149.936 47.6858 149.88C47.6858 149.88 47.6858 149.841 47.7033 149.823C47.8909 149.397 48.0741 148.954 48.2443 148.507C48.2836 148.433 48.301 148.341 48.3359 148.267C48.3927 148.102 48.4494 147.955 48.5017 147.785C48.5759 147.563 48.6675 147.342 48.7417 147.12C48.7984 146.955 48.8334 146.786 48.8901 146.62C48.9468 146.416 49.021 146.212 49.0777 146.008C49.117 145.877 49.1519 145.747 49.1911 145.638C49.2479 145.417 49.3046 145.195 49.3569 144.973C49.4137 144.734 49.4878 144.474 49.5446 144.23C49.562 144.139 49.5838 144.043 49.6187 143.97C49.658 143.783 49.6755 143.618 49.7104 143.431C49.7845 143.044 49.8587 142.653 49.9154 142.266C49.9154 142.153 49.9547 142.044 49.9722 141.931C50.0114 141.692 50.0289 141.449 50.0463 141.21C50.0463 141.045 50.0856 140.875 50.1031 140.693C50.1423 140.154 50.1772 139.62 50.1598 139.081L50.1423 139.172L50.1336 139.163Z" fill="black"/>
<path id="Vector_32" d="M15.6599 175.207L16.1224 174.442C15.4068 174.203 14.7131 173.903 14.0586 173.529C9.63425 170.996 7.18648 165.642 7.15593 158.45C7.12103 143.318 17.8371 124.827 31.049 117.23C34.7534 115.097 38.4055 114.006 41.6822 114.006C43.1221 114.006 44.4922 114.219 45.7619 114.649C47.6032 115.271 49.2045 116.331 50.5222 117.782L50.9934 117.004C49.6103 115.544 47.9479 114.471 46.0411 113.823C41.5863 112.315 36.2544 113.232 30.6127 116.479C17.1608 124.214 6.24838 143.044 6.28329 158.454C6.30947 165.968 8.91868 171.591 13.6223 174.285C14.2724 174.659 14.953 174.963 15.6599 175.211V175.207Z" fill="black"/>
<path id="Vector_33" d="M114.802 91.9033L58.0227 124.531C54.5234 116.1 45.6878 113.745 35.3819 119.677C22.0434 127.347 11.2357 146.007 11.2706 161.274C11.3273 176.523 22.2092 182.711 35.5477 175.041C45.8536 169.114 54.6543 156.624 58.0969 144.208L92.0865 124.661C93.2951 123.975 94.2638 122.289 94.2638 120.92C94.2638 119.551 95.2324 117.86 96.441 117.178L112.86 107.909L112.873 103.328C114.758 102.594 115.98 100.616 115.98 97.5745C115.988 95.758 115.552 93.8067 114.802 91.9077V91.9033ZM35.5302 164.146V164.164C27.4582 168.814 20.8523 165.072 20.8348 155.824C20.8174 146.577 27.3666 135.278 35.4386 130.624C43.5106 125.974 50.1165 129.715 50.134 138.963C50.1514 148.189 43.6022 159.492 35.5302 164.142V164.146ZM74.2278 125.048C73.185 125.639 72.3298 125.161 72.3123 123.953C72.2949 122.749 73.1675 121.285 74.2103 120.672V120.655C75.2706 120.059 76.1432 120.542 76.1432 121.745C76.1432 122.949 75.288 124.431 74.2278 125.044V125.048ZM80.1181 121.789C79.0753 122.38 78.2201 121.902 78.2027 120.694C78.1852 119.49 79.0579 118.025 80.1007 117.413V117.395C81.161 116.8 82.0336 117.282 82.0336 118.486C82.0336 119.69 81.1784 121.172 80.1181 121.784V121.789ZM85.7249 118.43C84.6821 119.021 83.8269 118.543 83.8095 117.334C83.792 116.131 84.6646 114.666 85.7075 114.053V114.036C86.7677 113.441 87.6404 113.923 87.6404 115.127C87.6404 116.331 86.7852 117.812 85.7249 118.425V118.43ZM91.4364 115.131C90.3936 115.722 89.5384 115.244 89.5209 114.036C89.5035 112.832 90.3761 111.368 91.4189 110.755V110.738C92.4792 110.142 93.3519 110.625 93.3519 111.828C93.3519 113.032 92.4967 114.514 91.4364 115.127V115.131ZM97.2395 111.759C96.1967 112.35 95.3415 111.872 95.324 110.664C95.3066 109.46 96.1792 107.996 97.2221 107.383V107.365C98.2823 106.77 99.155 107.252 99.155 108.456C99.155 109.66 98.2998 111.142 97.2395 111.755V111.759ZM102.99 108.482C101.947 109.073 101.092 108.595 101.075 107.387C101.057 106.183 101.93 104.719 102.973 104.106V104.089C104.033 103.493 104.906 103.976 104.906 105.179C104.906 106.383 104.051 107.865 102.99 108.478V108.482Z" fill="#F9DC8F"/>
<g id="Group_13">
<g id="Group_14">
<g id="Group_15">
<path id="Vector_34" d="M74.2059 120.658V120.675C73.1631 121.288 72.2904 122.752 72.3079 123.956C72.3253 125.16 73.1805 125.642 74.2233 125.051C75.2836 124.439 76.1388 122.974 76.1388 121.753C76.1388 120.532 75.2662 120.067 74.2059 120.662V120.658Z" fill="#FFEFD4"/>
<path id="Vector_35" d="M73.381 125.738C73.1236 125.738 72.8836 125.677 72.6655 125.556C72.1637 125.273 71.8845 124.704 71.8714 123.965C71.8539 122.701 72.6698 121.206 73.7694 120.441V120.424L73.9919 120.28C74.642 119.915 75.3052 119.872 75.8026 120.163C76.3001 120.454 76.5749 121.019 76.5749 121.749C76.5749 123.118 75.6368 124.734 74.4413 125.425C74.0748 125.634 73.7127 125.738 73.381 125.738ZM74.6071 120.945L74.4239 121.054C73.4945 121.597 72.7266 122.927 72.7397 123.952C72.744 124.369 72.8749 124.678 73.0931 124.804C73.3112 124.93 73.6428 124.882 74.0006 124.678C74.9344 124.139 75.6979 122.827 75.6979 121.758C75.6979 121.345 75.5758 121.049 75.3576 120.919C75.17 120.81 74.9038 120.823 74.6028 120.949L74.6071 120.945Z" fill="black"/>
</g>
<path id="Vector_36" d="M75.0311 120.406C75.1794 120.632 75.2667 120.936 75.2667 121.314C75.2667 122.535 74.4115 124 73.3512 124.612C73.0676 124.773 72.7971 124.851 72.5527 124.86C72.88 125.351 73.5083 125.451 74.2239 125.047C75.2841 124.434 76.1393 122.97 76.1393 121.749C76.1393 120.879 75.6812 120.388 75.0311 120.406Z" fill="black"/>
</g>
<g id="Group_16">
<g id="Group_17">
<path id="Vector_37" d="M80.0965 117.399V117.416C79.0537 118.029 78.181 119.494 78.1985 120.697C78.216 121.901 79.0711 122.384 80.114 121.793C81.1742 121.18 82.0294 119.715 82.0294 118.494C82.0294 117.273 81.1568 116.808 80.0965 117.403V117.399Z" fill="#FFEFD4"/>
<path id="Vector_38" d="M79.2717 122.48C79.0142 122.48 78.7743 122.419 78.5561 122.297C78.0543 122.015 77.7751 121.445 77.762 120.706C77.7445 119.442 78.5605 117.947 79.66 117.182V117.165L79.8825 117.021C80.537 116.656 81.1959 116.613 81.6933 116.904C82.1907 117.195 82.4656 117.76 82.4656 118.49C82.4656 119.859 81.5275 121.476 80.3319 122.167C79.9654 122.375 79.6033 122.48 79.2717 122.48ZM80.5021 117.682L80.3189 117.791C79.3895 118.334 78.6216 119.664 78.6346 120.689C78.639 121.106 78.7699 121.415 78.9881 121.541C79.2062 121.667 79.5378 121.619 79.8956 121.415C80.8294 120.876 81.5929 119.564 81.5929 118.495C81.5929 118.082 81.4707 117.786 81.2526 117.656C81.065 117.547 80.7988 117.56 80.4977 117.686L80.5021 117.682Z" fill="black"/>
</g>
<path id="Vector_39" d="M80.9217 117.147C81.07 117.373 81.1573 117.677 81.1573 118.055C81.1573 119.276 80.3021 120.741 79.2418 121.354C78.9582 121.514 78.6877 121.593 78.4434 121.601C78.7706 122.092 79.3989 122.192 80.1145 121.788C81.1747 121.175 82.0299 119.711 82.0299 118.49C82.0299 117.621 81.5718 117.13 80.9217 117.147Z" fill="black"/>
</g>
<g id="Group_18">
<g id="Group_19">
<path id="Vector_40" d="M85.703 114.04V114.057C84.6601 114.67 83.7875 116.134 83.8049 117.338C83.8224 118.542 84.6776 119.024 85.7204 118.433C86.7807 117.82 87.6359 116.356 87.6359 115.135C87.6359 113.914 86.7632 113.449 85.703 114.044V114.04Z" fill="#FFEFD4"/>
<path id="Vector_41" d="M84.8781 119.12C84.6207 119.12 84.3807 119.059 84.1625 118.938C83.6608 118.655 83.3815 118.086 83.3684 117.347C83.351 116.083 84.1669 114.588 85.2664 113.823V113.805L85.489 113.662C86.1435 113.297 86.8023 113.253 87.3041 113.545C87.8015 113.836 88.0764 114.401 88.0764 115.131C88.0764 116.5 87.1383 118.116 85.9427 118.807C85.5762 119.016 85.2141 119.12 84.8825 119.12H84.8781ZM86.1086 114.323L85.9253 114.431C84.9959 114.974 84.228 116.304 84.2411 117.33C84.2454 117.747 84.3763 118.055 84.5945 118.182C84.8127 118.308 85.1443 118.26 85.5021 118.055C86.4358 117.517 87.1994 116.204 87.1994 115.135C87.1994 114.722 87.0772 114.427 86.859 114.296C86.6714 114.188 86.4052 114.201 86.1042 114.327L86.1086 114.323Z" fill="black"/>
</g>
<path id="Vector_42" d="M86.5271 113.788C86.6755 114.014 86.7628 114.318 86.7628 114.696C86.7628 115.917 85.9076 117.381 84.8473 117.994C84.5637 118.155 84.2932 118.233 84.0488 118.242C84.3761 118.733 85.0044 118.833 85.7199 118.429C86.7802 117.816 87.6354 116.352 87.6354 115.13C87.6354 114.261 87.1773 113.77 86.5271 113.788Z" fill="black"/>
</g>
<g id="Group_20">
<g id="Group_21">
<path id="Vector_43" d="M91.4149 110.742V110.759C90.372 111.372 89.4994 112.836 89.5169 114.04C89.5343 115.244 90.3895 115.726 91.4323 115.135C92.4926 114.523 93.3478 113.058 93.3478 111.837C93.3478 110.616 92.4751 110.151 91.4149 110.746V110.742Z" fill="#FFEFD4"/>
<path id="Vector_44" d="M90.59 115.822C90.3326 115.822 90.0926 115.761 89.8745 115.64C89.3727 115.357 89.0934 114.788 89.0804 114.049C89.0629 112.785 89.8788 111.29 90.9784 110.525V110.508L91.2009 110.364C91.8554 109.999 92.5142 109.956 93.0116 110.247C93.509 110.538 93.7839 111.103 93.7839 111.833C93.7839 113.202 92.8458 114.818 91.6503 115.509C91.2838 115.718 90.9216 115.822 90.59 115.822ZM91.8205 111.025L91.6372 111.133C90.7078 111.677 89.9399 113.006 89.953 114.032C89.9574 114.449 90.0883 114.758 90.3064 114.884C90.5246 115.01 90.8562 114.962 91.214 114.758C92.1477 114.219 92.9113 112.906 92.9113 111.837C92.9113 111.424 92.7891 111.129 92.5709 110.999C92.3833 110.89 92.1172 110.903 91.8161 111.029L91.8205 111.025Z" fill="black"/>
</g>
<path id="Vector_45" d="M92.24 110.49C92.3884 110.716 92.4757 111.02 92.4757 111.398C92.4757 112.619 91.6205 114.084 90.5602 114.696C90.2766 114.857 90.0061 114.935 89.7617 114.944C90.089 115.435 90.7173 115.535 91.4328 115.131C92.4931 114.518 93.3483 113.054 93.3483 111.833C93.3483 110.963 92.8902 110.472 92.24 110.49Z" fill="black"/>
</g>
<g id="Group_22">
<g id="Group_23">
<path id="Vector_46" d="M97.2176 107.369V107.386C96.1748 107.999 95.3021 109.463 95.3196 110.667C95.337 111.871 96.1922 112.353 97.2351 111.762C98.2953 111.15 99.1505 109.685 99.1505 108.464C99.1505 107.243 98.2779 106.778 97.2176 107.373V107.369Z" fill="#FFEFD4"/>
<path id="Vector_47" d="M96.3928 112.449C96.1353 112.449 95.8954 112.388 95.6772 112.267C95.1754 111.984 94.8962 111.415 94.8831 110.676C94.8656 109.412 95.6816 107.917 96.7811 107.152V107.134L97.0036 106.991C97.6581 106.626 98.317 106.583 98.8187 106.874C99.3161 107.165 99.591 107.73 99.591 108.46C99.591 109.829 98.6529 111.445 97.4574 112.136C97.0909 112.345 96.7287 112.449 96.3971 112.449H96.3928ZM97.6232 107.652L97.4399 107.76C96.5106 108.303 95.7426 109.633 95.7557 110.659C95.7601 111.076 95.891 111.385 96.1092 111.511C96.3273 111.637 96.6589 111.589 97.0167 111.385C97.9504 110.846 98.714 109.533 98.714 108.464C98.714 108.051 98.5918 107.756 98.3737 107.626C98.1861 107.517 97.9199 107.53 97.6188 107.656L97.6232 107.652Z" fill="black"/>
</g>
<path id="Vector_48" d="M98.0428 107.117C98.1911 107.343 98.2784 107.647 98.2784 108.025C98.2784 109.246 97.4232 110.711 96.3629 111.323C96.0793 111.484 95.8088 111.562 95.5645 111.571C95.8917 112.062 96.52 112.162 97.2356 111.758C98.2958 111.145 99.151 109.681 99.151 108.459C99.151 107.59 98.6929 107.099 98.0428 107.117Z" fill="black"/>
</g>
<g id="Group_24">
<g id="Group_25">
<path id="Vector_49" d="M102.969 104.092V104.11C101.926 104.723 101.053 106.187 101.071 107.391C101.088 108.595 101.943 109.077 102.986 108.486C104.046 107.873 104.901 106.409 104.901 105.188C104.901 103.966 104.029 103.501 102.969 104.097V104.092Z" fill="#FFEFD4"/>
<path id="Vector_50" d="M102.144 109.173C101.886 109.173 101.646 109.112 101.428 108.99C100.926 108.708 100.647 108.139 100.634 107.4C100.617 106.135 101.433 104.64 102.532 103.875V103.858L102.755 103.715C103.409 103.35 104.068 103.306 104.565 103.597C105.063 103.889 105.338 104.453 105.338 105.184C105.338 106.552 104.4 108.169 103.204 108.86C102.837 109.069 102.475 109.173 102.144 109.173ZM103.374 104.375L103.191 104.484C102.262 105.027 101.494 106.357 101.507 107.382C101.511 107.8 101.642 108.108 101.86 108.234C102.078 108.36 102.41 108.312 102.768 108.108C103.701 107.569 104.465 106.257 104.465 105.188C104.465 104.775 104.343 104.48 104.125 104.349C103.937 104.241 103.671 104.254 103.37 104.38L103.374 104.375Z" fill="black"/>
</g>
<path id="Vector_51" d="M103.793 103.84C103.941 104.066 104.028 104.37 104.028 104.749C104.028 105.97 103.173 107.434 102.113 108.047C101.829 108.208 101.559 108.286 101.314 108.295C101.642 108.786 102.27 108.886 102.986 108.482C104.046 107.869 104.901 106.404 104.901 105.183C104.901 104.314 104.443 103.823 103.793 103.84Z" fill="black"/>
</g>
</g>
<path id="Vector_52" d="M24.7179 179C22.3312 179 20.1234 178.444 18.1731 177.327C13.4695 174.632 10.8646 169.009 10.8341 161.495C10.7948 146.086 21.7116 127.256 35.1635 119.52C40.8008 116.274 46.1371 115.357 50.5919 116.865C53.9778 118.012 56.6088 120.52 58.2276 124.131L115.098 91.4512L115.281 91.9249C116.032 93.8804 116.424 95.8317 116.416 97.5743C116.416 100.512 115.29 102.694 113.309 103.615L113.296 108.013L96.6634 117.769C95.5987 118.373 94.6999 119.916 94.6999 121.137C94.6999 122.684 93.6484 124.496 92.3045 125.256L58.4719 144.712C54.8854 157.463 45.7793 169.874 35.77 175.632C31.8867 177.866 28.1256 178.996 24.7223 178.996L24.7179 179ZM46.2287 117.047C42.9563 117.047 39.3042 118.143 35.5955 120.272C22.3836 127.868 11.6675 146.359 11.7024 161.491C11.7286 168.683 14.1807 174.037 18.605 176.571C23.0599 179.122 28.9983 178.522 35.3293 174.88C45.199 169.2 54.1785 156.915 57.6735 144.308L57.7215 144.139L57.8742 144.047L91.8638 124.5C92.9285 123.901 93.8229 122.358 93.8229 121.132C93.8229 119.585 94.8745 117.773 96.2183 117.013L112.419 107.509L112.432 103.024L112.707 102.915C114.505 102.211 115.534 100.264 115.534 97.5656C115.543 96.0707 115.233 94.4019 114.636 92.7114L57.8 125.374L57.608 124.918C56.1071 121.298 53.5808 118.799 50.2996 117.686C49.0299 117.256 47.6642 117.043 46.22 117.043L46.2287 117.047ZM28.9634 166.828C27.4886 166.828 26.1229 166.484 24.9099 165.789C22.004 164.125 20.4027 160.665 20.3896 156.05C20.3721 146.668 27.0217 135.191 35.2115 130.476C39.2737 128.138 43.1177 127.773 46.0454 129.45C48.9514 131.115 50.5527 134.574 50.5658 139.189C50.5832 148.48 44.0514 159.822 35.962 164.62V164.642L35.7438 164.768C33.3615 166.141 31.0533 166.832 28.9634 166.832V166.828ZM41.992 129.281C40.0547 129.281 37.8949 129.932 35.6478 131.228C27.698 135.808 21.2448 146.942 21.2622 156.05C21.271 160.344 22.7196 163.534 25.3419 165.037C27.938 166.528 31.398 166.202 35.1024 164.125L35.3031 163.99C43.253 159.409 49.7062 148.284 49.6887 139.189C49.68 134.895 48.2314 131.706 45.6091 130.202C44.5358 129.585 43.314 129.281 41.992 129.281Z" fill="black"/>
<g id="Group_26">
<path id="Vector_53" d="M114.88 92.0991C114.88 92.0991 114.88 92.0903 114.876 92.0859C114.876 92.0903 114.876 92.0947 114.88 92.0991Z" fill="#FFEFD4"/>
<path id="Vector_54" d="M114.483 92.2769L114.461 92.2248L114.64 92.1639L114.457 92.2117L114.64 92.1639L115.282 91.9336L114.483 92.2769Z" fill="black"/>
</g>
<path id="Vector_55" d="M58.0013 124.709L58.0493 124.735L114.872 92.0817C114.287 90.5563 113.489 89.0657 112.542 87.7012L55.3965 120.537C56.4437 121.693 57.325 123.084 58.0013 124.709Z" fill="#FFEFD4"/>
<path id="Vector_56" d="M58.0449 125.239L57.6522 125.009L57.5955 124.874C56.9454 123.319 56.0945 121.958 55.0692 120.828L54.707 120.429L55.1739 120.159L112.668 87.123L112.895 87.4533C113.877 88.8657 114.675 90.3693 115.273 91.9251L115.404 92.2727L115.081 92.4596L58.0362 125.239H58.0449ZM56.0727 120.65C56.9192 121.663 57.6435 122.832 58.2282 124.131L114.331 91.8903C113.825 90.6431 113.179 89.4306 112.411 88.279L56.0771 120.65H56.0727Z" fill="black"/>
</g>
</g>
<defs>
<clipPath id="clip0_8771_14781">
<rect width="240" height="179" fill="white"/>
</clipPath>
</defs>
</svg>
