<svg width="240" height="179" viewBox="0 0 240 179" fill="none" xmlns="http://www.w3.org/2000/svg">
<g id="Desktop" clip-path="url(#clip0_8023_29517)">
<path id="Vector" d="M119.998 178.887C186.271 178.887 239.996 156.909 239.996 129.798C239.996 102.687 186.271 80.709 119.998 80.709C53.7248 80.709 0 102.687 0 129.798C0 156.909 53.7248 178.887 119.998 178.887Z" fill="#E8E8E8"/>
<path id="Vector_2" d="M69.8031 108.313V52.6483C69.8031 48.5981 72.6872 46.9945 76.2389 49.0674L141.901 87.3097C145.457 89.3826 148.337 94.3411 148.337 98.3913V154.056C148.337 158.106 145.453 159.709 141.901 157.636L76.2389 119.394C72.6828 117.321 69.8031 112.363 69.8031 108.313Z" fill="#CFA4FF"/>
<path id="Vector_3" d="M144.833 158.979C143.86 158.979 142.791 158.653 141.687 158.01L76.0251 119.768C72.3556 117.63 69.3712 112.493 69.3712 108.313V52.6483C69.3712 50.545 70.1085 48.9675 71.4437 48.2026C72.805 47.4248 74.5896 47.5986 76.4614 48.6894L142.124 86.9317C145.793 89.0697 148.778 94.2064 148.778 98.387V154.051C148.778 156.155 148.04 157.732 146.701 158.497C146.142 158.818 145.51 158.975 144.829 158.975L144.833 158.979ZM73.3155 48.5938C72.7876 48.5938 72.2989 48.7154 71.8757 48.9545C70.8197 49.5585 70.2394 50.8709 70.2394 52.6483V108.313C70.2394 112.219 73.0319 117.021 76.4614 119.016L142.124 157.258C143.721 158.188 145.191 158.358 146.269 157.745C147.325 157.141 147.905 155.833 147.905 154.051V98.387C147.905 94.4802 145.113 89.6782 141.683 87.6835L76.0207 49.4412C75.0521 48.8762 74.1314 48.5938 73.3155 48.5938Z" fill="black"/>
<g id="Group">
<path id="Vector_4" d="M159.271 76.0104L93.6089 37.7681C91.7153 36.6643 90.0224 36.6122 88.8443 37.4074H88.8399L71.7273 48.5455C72.8879 47.9197 74.4849 48.0414 76.2433 49.067L141.906 87.3093C145.462 89.3822 148.341 94.3407 148.341 98.3909V154.055C148.341 155.828 147.792 157.128 146.871 157.862L163.896 146.798C165.018 146.124 165.707 144.734 165.707 142.756V87.092C165.707 83.0418 162.823 78.0833 159.271 76.0104Z" fill="#A041FF"/>
<path id="Vector_5" d="M146.539 158.605L146.408 157.684L146.6 157.523C147.443 156.849 147.905 155.62 147.905 154.055V98.3909C147.905 94.4841 145.113 89.6821 141.683 87.6874L76.0207 49.4451C74.4587 48.5369 73.0057 48.3544 71.9324 48.9323L71.4873 48.1849L88.8225 36.899L88.8356 36.9077C90.1794 36.1472 91.9814 36.3211 93.8315 37.3988L159.494 75.6411C163.163 77.7792 166.148 82.9158 166.148 87.0964V142.761C166.148 144.768 165.467 146.307 164.232 147.102L164.141 147.163L146.539 158.605ZM73.7475 47.746C74.6027 47.8285 75.5189 48.1414 76.4614 48.689L142.124 86.9313C145.793 89.0694 148.778 94.206 148.778 98.3866V154.051C148.778 154.903 148.651 155.676 148.416 156.341L163.678 146.411C164.708 145.798 165.275 144.495 165.275 142.748V87.0834C165.275 83.1766 162.483 78.3745 159.053 76.3799L93.3908 38.1376C91.7327 37.1728 90.1663 37.0338 89.0886 37.7638L88.8617 37.9159H88.853L73.7475 47.746Z" fill="black"/>
</g>
<g id="Group_2">
<path id="Vector_6" d="M107.371 82.7373C112.131 85.4751 116.001 92.1457 115.975 97.5692C115.975 100.611 114.754 102.588 112.869 103.323L112.816 118.815C112.816 122.314 110.32 123.735 107.24 121.962C104.186 120.21 101.69 115.925 101.716 112.427L101.769 96.9347C99.9098 94.0448 98.6881 90.6725 98.7143 87.6566C98.7143 82.2071 102.611 79.9995 107.371 82.7373Z" fill="black"/>
<path id="Vector_7" d="M111.607 121.962C108.553 120.211 106.057 115.926 106.084 112.428L106.136 96.9351C104.277 94.0452 103.056 90.6729 103.082 87.657C103.082 84.8105 104.146 82.8506 105.839 82.0162C101.803 80.53 98.7185 82.8072 98.7185 87.657C98.6923 90.6729 99.914 94.0452 101.773 96.9351L101.72 112.428C101.694 115.926 104.19 120.211 107.244 121.962C109.055 123.005 110.661 122.935 111.677 121.997C111.655 121.984 111.629 121.975 111.607 121.962Z" fill="#A041FF"/>
<path id="Vector_8" d="M109.753 123.161C108.907 123.161 107.982 122.883 107.026 122.336C103.832 120.506 101.258 116.061 101.284 112.423L101.336 97.0611C99.3686 93.9626 98.256 90.5426 98.2822 87.6527C98.2822 84.8714 99.2552 82.7768 101.022 81.7599C102.803 80.7343 105.137 80.9472 107.589 82.3596C112.48 85.1756 116.438 91.9984 116.411 97.5696C116.411 100.507 115.286 102.689 113.305 103.61L113.257 118.816C113.257 120.663 112.607 122.053 111.42 122.731C110.918 123.018 110.355 123.161 109.749 123.161H109.753ZM103.509 81.9902C102.759 81.9902 102.065 82.164 101.459 82.5117C99.9708 83.3678 99.1548 85.193 99.1548 87.6527C99.133 90.4165 100.219 93.7106 102.139 96.7004L102.209 96.8091L102.157 112.428C102.131 115.787 104.513 119.894 107.462 121.584C108.819 122.366 110.067 122.505 110.984 121.979C111.887 121.462 112.384 120.337 112.384 118.816L112.437 103.028L112.711 102.919C114.509 102.215 115.539 100.268 115.539 97.5696C115.565 92.2722 111.8 85.7883 107.153 83.1114C105.857 82.3683 104.618 81.9902 103.505 81.9902H103.509Z" fill="black"/>
</g>
<g id="Group_3">
<g id="Group_4">
<path id="Vector_9" d="M158.543 97.4049C158.543 97.4049 158.774 97.5309 158.756 97.5309L158.386 97.3179L158.316 97.2745C157.6 96.8747 156.684 97.0311 155.567 97.7569C153.634 99.0084 152.404 101.173 152.329 103.467C152.286 104.693 152.587 105.488 153.246 105.888L153.333 105.957L155.008 106.913C155.008 106.913 156.339 107.669 156.771 107.926C156.841 107.969 156.946 107.939 156.985 107.869L160.995 101.16L161.911 99.4951C161.955 99.4256 161.911 99.3257 161.854 99.2822L158.573 97.4005H158.547L158.543 97.4049Z" fill="#EEEEEE"/>
<path id="Vector_10" d="M156.841 108.382C156.736 108.382 156.636 108.356 156.54 108.3C156.112 108.043 154.786 107.291 154.786 107.291L152.988 106.244C152.203 105.753 151.841 104.84 151.889 103.454C151.963 101.042 153.281 98.7173 155.323 97.3962C156.575 96.5792 157.653 96.4141 158.521 96.8965L158.783 97.0269L162.103 98.9346C162.326 99.0954 162.448 99.4344 162.278 99.7212L161.37 101.373L157.352 108.095C157.238 108.282 157.042 108.387 156.837 108.387L156.841 108.382ZM155.218 106.54C155.218 106.54 156.191 107.092 156.745 107.413L160.615 100.942L161.396 99.5256L159.04 98.1741V98.1915L158.045 97.6266C157.496 97.3484 156.736 97.5136 155.803 98.122C153.996 99.2953 152.831 101.347 152.766 103.485C152.726 104.545 152.958 105.21 153.473 105.523L153.582 105.605L155.227 106.54H155.218ZM161.523 99.2866C161.523 99.2866 161.518 99.2953 161.514 99.2997L161.523 99.2866Z" fill="black"/>
</g>
<g id="Group_5">
<path id="Vector_11" d="M162.998 101.646C162.998 103.898 161.409 106.644 159.446 107.77C157.482 108.895 155.894 107.982 155.894 105.731C155.894 103.48 157.482 100.734 159.446 99.6083C161.409 98.4827 162.998 99.3953 162.998 101.646Z" fill="#EEEEEE"/>
<path id="Vector_12" d="M157.858 108.69C157.443 108.69 157.059 108.59 156.714 108.395C155.903 107.93 155.458 106.983 155.458 105.735C155.458 103.345 157.151 100.425 159.228 99.2342C160.318 98.6084 161.366 98.5215 162.177 98.9865C162.984 99.4514 163.434 100.399 163.434 101.646C163.434 104.041 161.741 106.956 159.664 108.147C159.036 108.508 158.42 108.69 157.858 108.69ZM161.03 99.5644C160.619 99.5644 160.153 99.7078 159.664 99.9903C157.827 101.042 156.33 103.623 156.33 105.735C156.33 106.661 156.623 107.339 157.151 107.643C157.683 107.947 158.42 107.86 159.228 107.395C161.065 106.339 162.561 103.762 162.561 101.646C162.561 100.72 162.269 100.042 161.741 99.7383C161.531 99.6166 161.291 99.5601 161.03 99.5601V99.5644Z" fill="black"/>
</g>
<g id="Group_6">
<path id="Vector_13" d="M159.652 99.27L158.506 107.974L159.371 108.087L160.517 99.383L159.652 99.27Z" fill="black"/>
</g>
</g>
<g id="Group_7">
<path id="Vector_14" d="M158.543 124.905C158.543 124.905 158.774 125.031 158.757 125.031L158.386 124.818L158.316 124.775C157.6 124.375 156.684 124.536 155.567 125.257C153.634 126.513 152.404 128.677 152.33 130.967C152.286 132.193 152.587 132.988 153.246 133.388L153.333 133.457L155.009 134.413C155.009 134.413 156.339 135.17 156.771 135.426C156.841 135.469 156.946 135.439 156.985 135.369L160.995 128.66L161.911 126.991C161.955 126.921 161.911 126.821 161.855 126.778L158.573 124.901H158.547L158.543 124.905Z" fill="#E8E8E8"/>
<path id="Vector_15" d="M156.824 135.943C156.71 135.943 156.592 135.913 156.497 135.856C156.152 135.656 155.537 135.3 155.135 135.074L152.927 133.792C152.142 133.31 151.767 132.38 151.823 130.959C151.911 128.495 153.198 126.217 155.275 124.862C156.562 124.023 157.653 123.866 158.538 124.362L158.77 124.488L162.051 126.365C162.352 126.539 162.465 126.921 162.295 127.234L161.379 128.916L157.369 135.639C157.243 135.839 157.024 135.952 156.811 135.952L156.824 135.939V135.943ZM155.218 134.022C155.506 134.148 155.947 134.409 156.693 134.835L161.274 127.043L158.508 125.461C158.395 125.418 158.307 125.348 158.251 125.305L158.12 125.235C157.504 124.892 156.758 125.048 155.816 125.661C153.996 126.843 152.879 128.838 152.81 130.972C152.766 132.354 153.167 132.766 153.482 132.966L153.595 133.053L155.227 133.979V134.009L155.214 134.022H155.218Z" fill="black"/>
<path id="Vector_16" d="M162.998 129.146C162.998 131.398 161.409 134.144 159.446 135.27C157.483 136.395 155.894 135.482 155.894 133.231C155.894 130.98 157.483 128.234 159.446 127.108C161.409 125.983 162.998 126.895 162.998 129.146Z" fill="#E8E8E8"/>
<path id="Vector_17" d="M157.84 136.256C157.413 136.256 157.024 136.156 156.667 135.956C155.838 135.486 155.379 134.517 155.379 133.235C155.379 130.784 157.055 127.908 159.189 126.686C160.305 126.043 161.366 125.961 162.195 126.443C163.028 126.912 163.482 127.881 163.482 129.163C163.482 131.614 161.806 134.491 159.673 135.712C159.045 136.082 158.412 136.269 157.84 136.269V136.256ZM161.021 127.112C160.62 127.112 160.162 127.256 159.677 127.525C157.858 128.581 156.37 131.128 156.37 133.222C156.37 134.135 156.658 134.787 157.173 135.087C157.688 135.387 158.403 135.3 159.193 134.843C161.012 133.787 162.5 131.241 162.5 129.146C162.5 128.233 162.212 127.582 161.697 127.282C161.497 127.169 161.27 127.112 161.008 127.112H161.021Z" fill="black"/>
<path id="Vector_18" d="M159.577 126.748L158.325 135.505L159.302 135.644L160.554 126.887L159.577 126.748Z" fill="black"/>
</g>
<g id="Group_8">
<path id="Vector_19" d="M150.432 78.9656L150.488 45.6036C150.488 23.8533 138.014 11.9677 122.537 3.06772C116.542 0.742765 108.846 -0.760853 103.898 1.75532L103.88 1.76835C103.226 2.10297 98.8712 4.06289 98.2734 4.48877L93.644 7.97404L93.6528 7.99576C98.8058 3.7022 106.507 2.98081 115.164 7.44386L115.12 7.41344C130.596 16.3135 143.071 28.199 143.071 49.9493L143.014 83.3114L143.088 83.3418L150.371 79.0048" fill="#EEEEEE"/>
</g>
<g id="Group_9">
<path id="Vector_20" d="M97.5754 25.1271L97.5405 56.4119L104.958 52.0271L104.993 20.8118C104.993 19.1213 105.42 17.5786 106.188 16.2705C101.031 16.6703 97.5754 20.2903 97.5754 25.1271Z" fill="black"/>
<path id="Vector_21" d="M97.0995 57.1721L97.1388 25.1225C97.1388 19.9859 100.76 16.2529 106.153 15.8357L106.987 15.7705L106.563 16.4875C105.809 17.7695 105.429 19.221 105.429 20.8072L105.39 52.2702L97.0995 57.1721ZM105.416 16.7918C100.952 17.461 98.0071 20.7246 98.0071 25.1225L97.9722 55.6424L104.517 51.7748L104.552 20.8072C104.552 19.3644 104.84 18.0172 105.416 16.7918Z" fill="black"/>
</g>
<path id="Vector_22" d="M143.014 83.3859L133.227 77.6843L133.271 50.0108C133.271 36.8433 125.151 24.4276 115.094 18.6478C105.036 12.868 96.7898 17.4701 96.7898 25.0056L96.7549 56.4468L86.9507 50.7366L86.99 24.5449C86.99 8.2485 99.5125 -0.616754 115.163 7.44889L115.12 7.41847C130.596 16.3185 143.071 28.204 143.071 49.9543L143.014 83.3164L143.088 83.3468L143.014 83.3903V83.3859Z" fill="#EEEEEE"/>
<path id="Vector_23" d="M143.014 83.8894L132.786 77.9315L132.83 50.0059C132.83 37.8422 125.447 25.0962 114.871 19.0209C107.741 14.9229 103.003 16.7568 101.297 17.739C98.705 19.2295 97.2215 21.8761 97.2215 25.0006L97.1822 57.198L86.5054 50.9793L86.5446 24.5357C86.5446 16.3049 89.7254 9.65592 95.2668 6.30103C100.778 2.95918 107.903 3.22426 115.329 7.04415C124.387 12.246 130.714 17.513 135.243 23.6057C140.797 31.0846 143.498 39.7022 143.498 49.9494L143.441 83.0246L144.043 83.2767L143.005 83.8938L143.014 83.8894ZM133.659 77.436L142.577 82.6292L142.634 49.9494C142.634 26.752 127.86 15.2532 114.962 7.82638C107.807 4.14121 100.978 3.86308 95.7293 7.04415C90.4541 10.2426 87.426 16.6178 87.426 24.54L87.3867 50.4839L96.3183 55.6857L96.3532 25.005C96.3532 21.5632 97.9981 18.6429 100.865 16.9915C102.702 15.9355 107.785 13.9451 115.311 18.2735C126.141 24.5009 133.707 37.5511 133.707 50.0146L133.663 77.4404L133.659 77.436Z" fill="black"/>
<path id="Vector_24" d="M143.236 83.7593L143.044 83.442L142.918 83.7462L142.578 83.6028L142.634 49.9496C142.634 26.7522 127.86 15.2534 114.963 7.82659C106.943 3.69381 99.2724 3.87633 93.9318 8.33069L93.4781 8.70877L93.1246 7.88308L93.3472 7.65276C108.435 -5.71466 122.341 2.44659 122.755 2.69865C131.809 7.90481 138.136 13.1718 142.665 19.2645C148.219 26.7435 150.92 35.361 150.92 45.6082L150.863 79.218L150.589 79.3831L143.232 83.7636L143.236 83.7593ZM115.334 7.04002C124.392 12.2505 130.718 17.5132 135.247 23.6059C140.802 31.0849 143.503 39.7024 143.503 49.9496L143.446 82.6207L149.991 78.7226L150.047 45.6039C150.047 22.3717 135.226 10.8729 122.315 3.44611L122.302 3.43742C122.184 3.36354 111.437 -3.08985 98.666 4.75851C103.544 3.21579 109.352 3.96759 115.334 7.04436V7.04002Z" fill="black"/>
<g id="Group_10">
<g id="Group_11">
<path id="Vector_25" d="M110.656 56.7592C110.656 56.7592 110.656 56.4984 110.656 56.5115V57.0243C110.647 57.8413 110.054 58.554 108.863 59.1537C106.808 60.1966 104.308 60.1749 102.279 59.0885C101.192 58.5149 100.651 57.8543 100.634 57.0895L100.616 56.9808L100.625 55.06C100.625 55.06 100.634 53.5347 100.625 53.0349C100.625 52.9523 100.699 52.8785 100.782 52.8785L108.618 52.7742L110.525 52.8176C110.608 52.8176 110.673 52.9045 110.682 52.9741V56.7418L110.665 56.7679L110.656 56.7592Z" fill="#FF8CEE"/>
<path id="Vector_26" d="M105.625 60.3448C104.391 60.3448 103.16 60.0537 102.069 59.4714C100.861 58.8325 100.228 58.046 100.193 57.1334L100.171 56.9769L100.18 55.0561C100.18 55.0561 100.189 53.5351 100.18 53.0397C100.18 52.8833 100.241 52.7268 100.355 52.6138C100.464 52.5052 100.612 52.4443 100.765 52.44L108.606 52.3357L110.53 52.3791H110.538C110.848 52.3791 111.079 52.6529 111.11 52.918V52.9702L111.088 56.9422V57.0204C111.075 58.0242 110.39 58.8717 109.055 59.5452C107.99 60.0841 106.808 60.3535 105.625 60.3535V60.3448ZM101.044 56.9378L101.061 57.0725C101.075 57.6722 101.537 58.2024 102.475 58.6978C104.364 59.706 106.734 59.7321 108.658 58.7587C109.683 58.2415 110.207 57.6548 110.216 57.0117V55.9253L110.233 55.9296V53.2309L108.601 53.1961L101.057 53.2961C101.057 53.9349 101.057 55.0518 101.057 55.0518L101.048 56.9335L101.044 56.9378ZM110.504 53.2439C110.504 53.2439 110.517 53.2439 110.525 53.2439H110.504Z" fill="black"/>
</g>
<g id="Group_12">
<path id="Vector_27" d="M109.19 50.7931C107.236 49.6675 104.05 49.6632 102.091 50.7931C100.132 51.9229 100.128 53.7481 102.087 54.8737C104.042 55.9992 107.227 56.0036 109.186 54.8737C111.145 53.7438 111.149 51.9186 109.19 50.7931Z" fill="#FF8CEE"/>
<path id="Vector_28" d="M105.638 56.1513C104.273 56.1513 102.911 55.8514 101.868 55.2561C100.782 54.6303 100.184 53.7742 100.184 52.8442C100.184 51.9099 100.782 51.0494 101.873 50.4236C103.95 49.2286 107.331 49.2286 109.413 50.4236C110.499 51.0494 111.097 51.9055 111.097 52.8355C111.097 53.7698 110.499 54.6303 109.408 55.2561C108.37 55.8558 107.004 56.1556 105.638 56.1556V56.1513ZM105.643 50.3802C104.434 50.3802 103.23 50.6453 102.309 51.1755C101.502 51.6404 101.057 52.2358 101.057 52.8442C101.057 53.4526 101.502 54.0436 102.305 54.5043C104.142 55.5603 107.135 55.5603 108.967 54.5043C109.775 54.0393 110.22 53.4439 110.22 52.8355C110.22 52.2271 109.775 51.6404 108.972 51.1755C108.051 50.6453 106.847 50.3802 105.638 50.3802H105.643Z" fill="black"/>
</g>
<path id="Vector_29" d="M101.677 50.7953L101.353 51.6023L109.597 54.8851L109.921 54.078L101.677 50.7953Z" fill="black"/>
</g>
</g>
<defs>
<clipPath id="clip0_8023_29517">
<rect width="240" height="179" fill="white"/>
</clipPath>
</defs>
</svg>
