<svg width="24" height="24" viewBox="0 0 24 24" fill="none" xmlns="http://www.w3.org/2000/svg">
<path d="M23.2949 10.2992L13.6993 0.706798C12.7597 -0.230696 11.2387 -0.230696 10.302 0.706798C9.36536 1.64723 9.36536 3.16956 10.302 4.10705L18.1976 12.0008L10.302 19.8946C9.36242 20.8321 9.36242 22.3544 10.302 23.2948C10.7718 23.765 11.3855 24.0002 12.0021 24.0002C12.6187 24.0002 13.2324 23.765 13.6993 23.2978L23.2949 13.7024C23.7471 13.2528 23.9996 12.6385 23.9996 12.0008C23.9996 11.3631 23.7471 10.7518 23.2949 10.2992Z" fill="#FF860D"/>
<path d="M14.4036 11.9737C14.4036 11.3359 14.1482 10.7247 13.696 10.2721L4.10034 0.703165C3.16075 -0.23433 1.63977 -0.231391 0.703107 0.709043C-0.233555 1.64948 -0.230619 3.1718 0.70898 4.1093L8.60161 11.9825L0.703107 19.8968C-0.233555 20.8373 -0.233555 22.3596 0.703107 23.2971C1.17291 23.7673 1.78658 23.9995 2.40026 23.9995C3.01687 23.9995 3.63055 23.7644 4.10034 23.2941L13.696 13.6753C14.1452 13.2227 14.4007 12.6114 14.3978 11.9737H14.4036Z" fill="#FF860D"/>
<path d="M21.5968 4.00586C22.4806 4.00586 23.1971 3.28876 23.1971 2.40418C23.1971 1.5196 22.4806 0.802505 21.5968 0.802505C20.713 0.802505 19.9966 1.5196 19.9966 2.40418C19.9966 3.28876 20.713 4.00586 21.5968 4.00586Z" fill="#FF860D"/>
<path d="M21.5968 23.1946C22.4806 23.1946 23.1971 22.4775 23.1971 21.5929C23.1971 20.7083 22.4806 19.9912 21.5968 19.9912C20.713 19.9912 19.9966 20.7083 19.9966 21.5929C19.9966 22.4775 20.713 23.1946 21.5968 23.1946Z" fill="#FF860D"/>
<path d="M2.40313 4.80797C3.72964 4.80797 4.80498 3.73167 4.80498 2.40398C4.80498 1.0763 3.72964 0 2.40313 0C1.07663 0 0.00128174 1.0763 0.00128174 2.40398C0.00128174 3.73167 1.07663 4.80797 2.40313 4.80797Z" fill="#FFD919"/>
<path d="M2.40341 23.9986C3.72991 23.9986 4.80526 22.9223 4.80526 21.5946C4.80526 20.2669 3.72991 19.1906 2.40341 19.1906C1.0769 19.1906 0.0015564 20.2669 0.0015564 21.5946C0.0015564 22.9223 1.0769 23.9986 2.40341 23.9986Z" fill="#FFD919"/>
<path d="M2.4029 13.6002C3.28669 13.6002 4.00315 12.8831 4.00315 11.9986C4.00315 11.114 3.28669 10.3969 2.4029 10.3969C1.5191 10.3969 0.802643 11.114 0.802643 11.9986C0.802643 12.8831 1.5191 13.6002 2.4029 13.6002Z" fill="#FF860D"/>
<path d="M12.0015 4.80797C13.328 4.80797 14.4034 3.73167 14.4034 2.40398C14.4034 1.0763 13.328 0 12.0015 0C10.675 0 9.59967 1.0763 9.59967 2.40398C9.59967 3.73167 10.675 4.80797 12.0015 4.80797Z" fill="#FFD919"/>
<path d="M12.0015 23.9986C13.328 23.9986 14.4034 22.9223 14.4034 21.5946C14.4034 20.2669 13.328 19.1906 12.0015 19.1906C10.675 19.1906 9.59967 20.2669 9.59967 21.5946C9.59967 22.9223 10.675 23.9986 12.0015 23.9986Z" fill="#FFD919"/>
</svg>
