<svg width="240" height="179" viewBox="0 0 240 179" fill="none" xmlns="http://www.w3.org/2000/svg">
<g clip-path="url(#clip0_8951_12753)">
<path d="M119.998 178.887C186.271 178.887 239.996 156.909 239.996 129.798C239.996 102.687 186.271 80.709 119.998 80.709C53.7248 80.709 0 102.687 0 129.798C0 156.909 53.7248 178.887 119.998 178.887Z" fill="#E8E8E8"/>
<path d="M69.8032 108.313V52.6483C69.8032 48.5981 72.6873 46.9945 76.239 49.0674L141.901 87.3097C145.457 89.3826 148.337 94.3411 148.337 98.3913V154.056C148.337 158.106 145.453 159.709 141.901 157.636L76.239 119.394C72.683 117.321 69.8032 112.363 69.8032 108.313Z" fill="#CFA4FF"/>
<path d="M144.833 158.98C143.86 158.98 142.791 158.654 141.687 158.01L76.025 119.768C72.3555 117.63 69.3711 112.493 69.3711 108.313V52.6486C69.3711 50.5452 70.1085 48.9677 71.4436 48.2029C72.805 47.425 74.5895 47.5988 76.4614 48.6896L142.124 86.9319C145.793 89.07 148.778 94.2066 148.778 98.3872V154.051C148.778 156.155 148.04 157.732 146.701 158.497C146.142 158.819 145.51 158.975 144.829 158.975L144.833 158.98ZM73.3155 48.594C72.7875 48.594 72.2988 48.7157 71.8756 48.9547C70.8197 49.5587 70.2394 50.8712 70.2394 52.6486V108.313C70.2394 112.22 73.0319 117.022 76.4614 119.016L142.124 157.259C143.721 158.189 145.191 158.358 146.269 157.745C147.325 157.141 147.905 155.833 147.905 154.051V98.3872C147.905 94.4804 145.113 89.6784 141.683 87.6837L76.0207 49.4414C75.052 48.8765 74.1314 48.594 73.3155 48.594Z" fill="black"/>
<path d="M159.271 76.0104L93.6089 37.7681C91.7153 36.6643 90.0224 36.6122 88.8443 37.4074H88.8399L71.7273 48.5455C72.8879 47.9197 74.4849 48.0414 76.2433 49.067L141.906 87.3093C145.462 89.3822 148.341 94.3407 148.341 98.3909V154.055C148.341 155.828 147.792 157.128 146.871 157.862L163.896 146.798C165.018 146.124 165.707 144.734 165.707 142.756V87.092C165.707 83.0418 162.823 78.0833 159.271 76.0104Z" fill="#A041FF"/>
<path d="M146.539 158.605L146.408 157.684L146.6 157.523C147.443 156.849 147.905 155.62 147.905 154.055V98.3909C147.905 94.4841 145.113 89.6821 141.683 87.6874L76.0207 49.4451C74.4587 48.5369 73.0057 48.3544 71.9324 48.9323L71.4873 48.1849L88.8225 36.899L88.8356 36.9077C90.1794 36.1472 91.9814 36.3211 93.8315 37.3988L159.494 75.6411C163.163 77.7792 166.148 82.9158 166.148 87.0964V142.761C166.148 144.768 165.467 146.307 164.232 147.102L164.141 147.163L146.539 158.605ZM73.7475 47.746C74.6027 47.8285 75.5189 48.1414 76.4614 48.689L142.124 86.9313C145.793 89.0694 148.778 94.206 148.778 98.3866V154.051C148.778 154.903 148.651 155.676 148.416 156.341L163.678 146.411C164.708 145.798 165.275 144.495 165.275 142.748V87.0834C165.275 83.1766 162.483 78.3745 159.053 76.3799L93.3908 38.1376C91.7327 37.1728 90.1663 37.0338 89.0886 37.7638L88.8617 37.9159H88.853L73.7475 47.746Z" fill="black"/>
<path d="M107.371 82.7373C112.131 85.4751 116.001 92.1457 115.975 97.5692C115.975 100.611 114.754 102.588 112.869 103.323L112.816 118.815C112.816 122.314 110.32 123.735 107.24 121.962C104.186 120.21 101.69 115.925 101.716 112.427L101.769 96.9347C99.9098 94.0448 98.6881 90.6725 98.7143 87.6566C98.7143 82.2071 102.611 79.9995 107.371 82.7373Z" fill="black"/>
<path d="M111.607 121.962C108.553 120.211 106.057 115.926 106.084 112.428L106.136 96.9351C104.277 94.0452 103.055 90.6729 103.082 87.657C103.082 84.8105 104.146 82.8506 105.839 82.0162C101.803 80.53 98.7184 82.8072 98.7184 87.657C98.6923 90.6729 99.914 94.0452 101.773 96.9351L101.72 112.428C101.694 115.926 104.19 120.211 107.244 121.962C109.055 123.005 110.661 122.935 111.677 121.997C111.655 121.984 111.629 121.975 111.607 121.962Z" fill="#A041FF"/>
<path d="M109.753 123.161C108.907 123.161 107.982 122.883 107.026 122.336C103.832 120.506 101.258 116.061 101.284 112.423L101.336 97.0611C99.3686 93.9626 98.256 90.5426 98.2822 87.6527C98.2822 84.8714 99.2552 82.7768 101.022 81.7599C102.803 80.7343 105.137 80.9472 107.589 82.3596C112.48 85.1756 116.438 91.9984 116.411 97.5696C116.411 100.507 115.286 102.689 113.305 103.61L113.257 118.816C113.257 120.663 112.607 122.053 111.42 122.731C110.918 123.018 110.355 123.161 109.749 123.161H109.753ZM103.509 81.9902C102.759 81.9902 102.065 82.164 101.459 82.5117C99.9708 83.3678 99.1548 85.193 99.1548 87.6527C99.133 90.4165 100.219 93.7106 102.139 96.7004L102.209 96.8091L102.157 112.428C102.131 115.787 104.513 119.894 107.462 121.584C108.819 122.366 110.067 122.505 110.984 121.979C111.887 121.462 112.384 120.337 112.384 118.816L112.437 103.028L112.711 102.919C114.509 102.215 115.539 100.268 115.539 97.5696C115.565 92.2722 111.8 85.7883 107.153 83.1114C105.857 82.3683 104.618 81.9902 103.505 81.9902H103.509Z" fill="black"/>
<path d="M158.543 97.4049C158.543 97.4049 158.774 97.5309 158.756 97.5309L158.386 97.3179L158.316 97.2745C157.6 96.8747 156.684 97.0311 155.567 97.7569C153.634 99.0084 152.404 101.173 152.329 103.467C152.286 104.693 152.587 105.488 153.246 105.888L153.333 105.957L155.008 106.913C155.008 106.913 156.339 107.669 156.771 107.926C156.841 107.969 156.946 107.939 156.985 107.869L160.995 101.16L161.911 99.4951C161.955 99.4256 161.911 99.3257 161.854 99.2822L158.573 97.4005H158.547L158.543 97.4049Z" fill="#EEEEEE"/>
<path d="M156.841 108.382C156.736 108.382 156.636 108.356 156.54 108.299C156.112 108.043 154.786 107.291 154.786 107.291L152.988 106.244C152.203 105.753 151.841 104.84 151.889 103.454C151.963 101.042 153.281 98.7171 155.323 97.396C156.575 96.579 157.653 96.4139 158.521 96.8962L158.783 97.0266L162.103 98.9344C162.326 99.0952 162.448 99.4341 162.278 99.721L161.37 101.372L157.352 108.095C157.238 108.282 157.042 108.386 156.837 108.386L156.841 108.382ZM155.218 106.539C155.218 106.539 156.191 107.091 156.745 107.413L160.615 100.942L161.396 99.5254L159.04 98.1739V98.1913L158.045 97.6263C157.496 97.3482 156.736 97.5133 155.803 98.1217C153.996 99.2951 152.831 101.346 152.766 103.484C152.726 104.545 152.958 105.21 153.473 105.522L153.582 105.605L155.227 106.539H155.218ZM161.523 99.2864C161.523 99.2864 161.518 99.2951 161.514 99.2994L161.523 99.2864Z" fill="black"/>
<path d="M162.998 101.646C162.998 103.897 161.409 106.644 159.446 107.769C157.482 108.895 155.894 107.982 155.894 105.731C155.894 103.48 157.482 100.734 159.446 99.608C161.409 98.4825 162.998 99.3951 162.998 101.646Z" fill="#EEEEEE"/>
<path d="M157.858 108.69C157.443 108.69 157.059 108.59 156.714 108.395C155.903 107.93 155.458 106.982 155.458 105.735C155.458 103.345 157.151 100.425 159.228 99.2339C160.318 98.6081 161.366 98.5212 162.177 98.9862C162.984 99.4512 163.434 100.399 163.434 101.646C163.434 104.04 161.741 106.956 159.664 108.147C159.036 108.508 158.42 108.69 157.858 108.69ZM161.03 99.5642C160.619 99.5642 160.153 99.7076 159.664 99.9901C157.827 101.042 156.33 103.623 156.33 105.735C156.33 106.661 156.623 107.339 157.151 107.643C157.683 107.947 158.42 107.86 159.228 107.395C161.065 106.339 162.561 103.762 162.561 101.646C162.561 100.72 162.269 100.042 161.741 99.738C161.531 99.6163 161.291 99.5598 161.03 99.5598V99.5642Z" fill="black"/>
<path d="M159.652 99.2698L158.506 107.974L159.371 108.087L160.517 99.3828L159.652 99.2698Z" fill="black"/>
<path d="M158.543 124.905C158.543 124.905 158.774 125.031 158.757 125.031L158.386 124.818L158.316 124.774C157.6 124.375 156.684 124.535 155.567 125.257C153.634 126.513 152.404 128.677 152.33 130.967C152.286 132.193 152.587 132.988 153.246 133.388L153.333 133.457L155.009 134.413C155.009 134.413 156.339 135.169 156.771 135.426C156.841 135.469 156.946 135.439 156.985 135.369L160.995 128.659L161.911 126.991C161.955 126.921 161.911 126.821 161.855 126.778L158.573 124.9H158.547L158.543 124.905Z" fill="#E8E8E8"/>
<path d="M156.824 135.943C156.71 135.943 156.592 135.913 156.497 135.856C156.152 135.656 155.537 135.3 155.135 135.074L152.927 133.792C152.142 133.31 151.767 132.38 151.823 130.959C151.911 128.495 153.198 126.217 155.275 124.862C156.562 124.023 157.653 123.866 158.538 124.362L158.77 124.488L162.051 126.365C162.352 126.539 162.465 126.921 162.295 127.234L161.379 128.916L157.369 135.639C157.243 135.839 157.024 135.952 156.811 135.952L156.824 135.939V135.943ZM155.218 134.022C155.506 134.148 155.947 134.409 156.693 134.835L161.274 127.043L158.508 125.461C158.395 125.418 158.307 125.348 158.251 125.305L158.12 125.235C157.504 124.892 156.758 125.048 155.816 125.661C153.996 126.843 152.879 128.838 152.81 130.972C152.766 132.354 153.167 132.766 153.482 132.966L153.595 133.053L155.227 133.979V134.009L155.214 134.022H155.218Z" fill="black"/>
<path d="M162.998 129.146C162.998 131.397 161.409 134.144 159.446 135.269C157.482 136.395 155.894 135.482 155.894 133.231C155.894 130.98 157.482 128.234 159.446 127.108C161.409 125.982 162.998 126.895 162.998 129.146Z" fill="#E8E8E8"/>
<path d="M157.84 136.256C157.413 136.256 157.024 136.156 156.667 135.956C155.838 135.486 155.379 134.517 155.379 133.235C155.379 130.784 157.055 127.908 159.189 126.686C160.305 126.043 161.366 125.961 162.195 126.443C163.028 126.912 163.482 127.881 163.482 129.163C163.482 131.614 161.806 134.491 159.673 135.712C159.045 136.082 158.412 136.269 157.84 136.269V136.256ZM161.021 127.112C160.62 127.112 160.162 127.256 159.677 127.525C157.858 128.581 156.37 131.128 156.37 133.222C156.37 134.135 156.658 134.787 157.173 135.087C157.688 135.387 158.403 135.3 159.193 134.843C161.012 133.787 162.5 131.241 162.5 129.146C162.5 128.233 162.212 127.582 161.697 127.282C161.497 127.169 161.27 127.112 161.008 127.112H161.021Z" fill="black"/>
<path d="M159.577 126.748L158.325 135.505L159.302 135.644L160.554 126.887L159.577 126.748Z" fill="black"/>
<path d="M150.432 78.9656L150.488 45.6036C150.488 23.8533 138.014 11.9677 122.537 3.06772C116.542 0.742765 108.846 -0.760853 103.898 1.75532L103.88 1.76835C103.226 2.10297 98.8712 4.06289 98.2734 4.48877L93.644 7.97404L93.6528 7.99576C98.8058 3.7022 106.507 2.98081 115.164 7.44386L115.12 7.41344C130.596 16.3135 143.071 28.199 143.071 49.9493L143.014 83.3114L143.088 83.3418L150.371 79.0048" fill="#EEEEEE"/>
<path d="M97.5754 25.1271L97.5405 56.4119L104.958 52.0271L104.993 20.8118C104.993 19.1213 105.421 17.5786 106.188 16.2705C101.031 16.6703 97.5754 20.2903 97.5754 25.1271Z" fill="black"/>
<path d="M97.0996 57.1721L97.1389 25.1225C97.1389 19.9859 100.76 16.2529 106.153 15.8357L106.987 15.7705L106.563 16.4875C105.809 17.7695 105.429 19.221 105.429 20.8072L105.39 52.2702L97.0996 57.1721ZM105.416 16.7918C100.952 17.461 98.0072 20.7246 98.0072 25.1225L97.9723 55.6424L104.517 51.7748L104.552 20.8072C104.552 19.3644 104.84 18.0172 105.416 16.7918Z" fill="black"/>
<path d="M143.014 83.3859L133.227 77.6843L133.271 50.0108C133.271 36.8433 125.151 24.4276 115.094 18.6478C105.036 12.868 96.7898 17.4701 96.7898 25.0056L96.7549 56.4468L86.9507 50.7366L86.99 24.5449C86.99 8.2485 99.5125 -0.616754 115.163 7.44889L115.12 7.41847C130.596 16.3185 143.071 28.204 143.071 49.9543L143.014 83.3164L143.088 83.3468L143.014 83.3903V83.3859Z" fill="#EEEEEE"/>
<path d="M143.014 83.8894L132.786 77.9315L132.83 50.0059C132.83 37.8422 125.447 25.0962 114.871 19.0209C107.741 14.9229 103.003 16.7568 101.297 17.739C98.705 19.2295 97.2215 21.8761 97.2215 25.0006L97.1822 57.198L86.5054 50.9793L86.5446 24.5357C86.5446 16.3049 89.7254 9.65592 95.2668 6.30103C100.778 2.95918 107.903 3.22426 115.329 7.04415C124.387 12.246 130.714 17.513 135.243 23.6057C140.797 31.0846 143.498 39.7022 143.498 49.9494L143.441 83.0246L144.043 83.2767L143.005 83.8938L143.014 83.8894ZM133.659 77.436L142.577 82.6292L142.634 49.9494C142.634 26.752 127.86 15.2532 114.962 7.82638C107.807 4.14121 100.978 3.86308 95.7293 7.04415C90.4541 10.2426 87.426 16.6178 87.426 24.54L87.3867 50.4839L96.3183 55.6857L96.3532 25.005C96.3532 21.5632 97.9981 18.6429 100.865 16.9915C102.702 15.9355 107.785 13.9451 115.311 18.2735C126.141 24.5009 133.707 37.5511 133.707 50.0146L133.663 77.4404L133.659 77.436Z" fill="black"/>
<path d="M143.236 83.7595L143.044 83.4423L142.918 83.7465L142.577 83.6031L142.634 49.9499C142.634 26.7524 127.86 15.2537 114.963 7.82683C106.943 3.69406 99.2723 3.87658 93.9317 8.33094L93.4779 8.70901L93.1245 7.88333L93.347 7.65301C108.435 -5.71441 122.341 2.44684 122.755 2.69889C131.809 7.90506 138.136 13.1721 142.665 19.2648C148.219 26.7437 150.92 35.3613 150.92 45.6085L150.863 79.2182L150.588 79.3834L143.232 83.7639L143.236 83.7595ZM115.333 7.04026C124.391 12.2508 130.718 17.5134 135.247 23.6061C140.802 31.0851 143.502 39.7027 143.502 49.9499L143.446 82.6209L149.991 78.7228L150.047 45.6041C150.047 22.3719 135.225 10.8732 122.315 3.44635L122.301 3.43766C122.184 3.36378 111.437 -3.0896 98.6658 4.75876C103.544 3.21603 109.351 3.96784 115.333 7.0446V7.04026Z" fill="black"/>
<path d="M110.656 56.7594C110.656 56.7594 110.656 56.4987 110.656 56.5117V57.0245C110.647 57.8415 110.054 58.5542 108.863 59.1539C106.808 60.1969 104.308 60.1752 102.279 59.0887C101.192 58.5151 100.651 57.8546 100.634 57.0897L100.616 56.9811L100.625 55.0603C100.625 55.0603 100.634 53.5349 100.625 53.0352C100.625 52.9526 100.699 52.8787 100.782 52.8787L108.618 52.7744L110.525 52.8179C110.608 52.8179 110.673 52.9048 110.682 52.9743V56.7421L110.665 56.7681L110.656 56.7594Z" fill="#FF8CEE"/>
<path d="M105.625 60.3451C104.391 60.3451 103.16 60.0539 102.069 59.4716C100.861 58.8328 100.228 58.0462 100.193 57.1336L100.171 56.9772L100.18 55.0564C100.18 55.0564 100.189 53.5354 100.18 53.0399C100.18 52.8835 100.241 52.7271 100.355 52.6141C100.464 52.5054 100.612 52.4446 100.765 52.4402L108.606 52.3359L110.53 52.3794H110.538C110.848 52.3794 111.079 52.6532 111.11 52.9183V52.9704L111.088 56.9424V57.0206C111.075 58.0245 110.39 58.8719 109.055 59.5455C107.99 60.0843 106.808 60.3538 105.625 60.3538V60.3451ZM101.044 56.9381L101.061 57.0728C101.075 57.6725 101.537 58.2027 102.475 58.6981C104.364 59.7063 106.734 59.7323 108.658 58.7589C109.683 58.2418 110.207 57.6551 110.216 57.0119V55.9255L110.233 55.9298V53.2312L108.601 53.1964L101.057 53.2963C101.057 53.9352 101.057 55.052 101.057 55.052L101.048 56.9337L101.044 56.9381ZM110.504 53.2442C110.504 53.2442 110.517 53.2442 110.525 53.2442H110.504Z" fill="black"/>
<path d="M109.19 50.7931C107.236 49.6675 104.05 49.6632 102.091 50.7931C100.132 51.9229 100.128 53.7481 102.087 54.8737C104.042 55.9992 107.227 56.0036 109.186 54.8737C111.145 53.7438 111.149 51.9186 109.19 50.7931Z" fill="#FF8CEE"/>
<path d="M105.638 56.1513C104.273 56.1513 102.911 55.8514 101.869 55.2561C100.782 54.6303 100.184 53.7742 100.184 52.8442C100.184 51.9099 100.782 51.0494 101.873 50.4236C103.95 49.2286 107.331 49.2286 109.413 50.4236C110.499 51.0494 111.097 51.9055 111.097 52.8355C111.097 53.7698 110.499 54.6303 109.408 55.2561C108.37 55.8558 107.004 56.1556 105.638 56.1556V56.1513ZM105.643 50.3802C104.434 50.3802 103.23 50.6453 102.309 51.1755C101.502 51.6404 101.057 52.2358 101.057 52.8442C101.057 53.4526 101.502 54.0436 102.305 54.5043C104.142 55.5603 107.135 55.5603 108.968 54.5043C109.775 54.0393 110.22 53.4439 110.22 52.8355C110.22 52.2271 109.775 51.6404 108.972 51.1755C108.051 50.6453 106.847 50.3802 105.638 50.3802H105.643Z" fill="black"/>
<path d="M101.677 50.7955L101.353 51.6025L109.598 54.8853L109.921 54.0783L101.677 50.7955Z" fill="black"/>
<path d="M52.3112 118.1C52.4028 118.156 52.4988 118.191 52.5904 118.247L47.6032 115.358C47.6032 115.358 47.5116 115.301 47.4724 115.284C47.4156 115.245 47.3589 115.227 47.324 115.21C47.0273 115.045 46.7306 114.914 46.4295 114.767C46.3728 114.749 46.3161 114.71 46.2637 114.693C46.2245 114.675 46.1721 114.658 46.1154 114.636C45.762 114.488 45.3911 114.358 44.9984 114.249H44.9591C44.5664 114.136 44.1606 114.045 43.7505 113.971C43.6938 113.971 43.6589 113.954 43.6022 113.932C43.5454 113.932 43.4713 113.932 43.4145 113.915C43.0611 113.858 42.6902 113.824 42.315 113.784C42.2583 113.784 42.2016 113.784 42.1492 113.767H42.0925C41.6474 113.75 41.1631 113.728 40.6962 113.767H40.3821C39.841 113.806 39.3218 113.841 38.7633 113.932C38.4099 113.989 38.039 114.063 37.6856 114.136C37.5722 114.154 37.4456 114.193 37.3322 114.228C37.1097 114.284 36.8871 114.341 36.6428 114.393C36.6253 114.393 36.6035 114.393 36.5686 114.41C36.141 114.523 35.7134 114.649 35.2684 114.797C35.1942 114.836 35.1026 114.853 35.0284 114.888C34.675 115.019 34.3215 115.149 33.9507 115.297C33.9114 115.297 33.859 115.336 33.8198 115.353C33.7281 115.392 33.654 115.427 33.558 115.466C33.1653 115.631 32.777 115.801 32.3843 116.005C32.2359 116.079 32.0876 116.135 31.9567 116.209C31.4549 116.47 30.9357 116.726 30.4121 117.026C29.6311 117.47 28.8675 117.974 28.1039 118.491C27.864 118.656 27.6196 118.843 27.3796 119.03C26.8779 119.399 26.3543 119.773 25.8525 120.177C25.5732 120.399 25.294 120.62 25.0322 120.864C24.5653 121.255 24.1203 121.641 23.6752 122.05C23.396 122.289 23.1342 122.55 22.855 122.81C22.6891 122.98 22.519 123.106 22.3532 123.275C21.9081 123.719 21.4587 124.184 21.0137 124.649C20.5686 125.114 20.141 125.596 19.7134 126.074C19.5651 126.244 19.4342 126.409 19.3033 126.574C18.9891 126.943 18.6706 127.334 18.3565 127.721C18.1514 127.96 17.9463 128.204 17.7412 128.46C17.5754 128.664 17.4271 128.886 17.2569 129.107C17.0344 129.403 16.8119 129.72 16.5893 130.016C16.441 130.22 16.2752 130.424 16.1225 130.628C15.8607 130.998 15.6207 131.367 15.3764 131.741C15.228 131.98 15.0622 132.206 14.9095 132.445C14.8528 132.536 14.7786 132.632 14.7219 132.723C14.2943 133.388 13.8667 134.075 13.474 134.761C13.4565 134.8 13.4173 134.852 13.3998 134.909C13.3256 135.057 13.234 135.204 13.1598 135.335C12.8806 135.817 12.6013 136.3 12.3395 136.799C12.2086 137.021 12.0996 137.264 11.9861 137.486C11.8552 137.725 11.7461 137.968 11.6152 138.207C11.5018 138.412 11.3927 138.633 11.3011 138.837C11.0218 139.394 10.7819 139.967 10.5201 140.524C10.4633 140.637 10.4284 140.728 10.3717 140.836C10.3717 140.876 10.3325 140.893 10.3325 140.928C10.0183 141.649 9.71724 142.371 9.43799 143.096C9.38127 143.227 9.34636 143.357 9.28964 143.487C9.19801 143.748 9.10202 144.005 9.01039 144.283C8.87949 144.652 8.73114 145.004 8.6177 145.373C8.52607 145.652 8.4519 145.93 8.3559 146.208C8.24246 146.542 8.15083 146.873 8.0592 147.207C8.00248 147.412 7.92831 147.633 7.87159 147.837C7.77996 148.207 7.70578 148.559 7.60979 148.933C7.49635 149.341 7.40472 149.75 7.31309 150.175C7.27382 150.323 7.23892 150.471 7.19965 150.619C7.0513 151.284 6.93785 151.97 6.82877 152.639C6.81132 152.77 6.7895 152.918 6.77205 153.048C6.71533 153.343 6.68042 153.661 6.64115 153.956C6.58443 154.365 6.56698 154.751 6.52771 155.143C6.51025 155.421 6.47099 155.716 6.45353 155.994C6.37936 156.885 6.34009 157.772 6.34009 158.645C6.35754 166.224 9.05839 171.578 13.4085 174.081L18.3957 176.971C14.0412 174.451 11.3447 169.114 11.3273 161.539C11.3273 160.67 11.3665 159.779 11.4407 158.889C11.4582 158.61 11.4974 158.315 11.5149 158.037C11.5891 157.333 11.6632 156.646 11.7767 155.942C11.7941 155.812 11.816 155.664 11.8334 155.534C11.9643 154.717 12.1301 153.904 12.3177 153.087C12.4094 152.679 12.5228 152.27 12.6144 151.844C12.7628 151.271 12.9111 150.697 13.0813 150.119C13.1729 149.784 13.2864 149.454 13.378 149.119C13.5831 148.472 13.8056 147.842 14.0281 147.194C14.1197 146.934 14.2157 146.655 14.3074 146.399C14.6433 145.508 14.9968 144.639 15.3851 143.748C15.4418 143.635 15.4767 143.526 15.5334 143.435C15.8869 142.657 16.2403 141.879 16.633 141.119C16.7639 140.88 16.8729 140.637 17.0038 140.398C17.3747 139.676 17.7674 138.955 18.1776 138.229C18.2517 138.081 18.3259 137.951 18.4175 137.803C18.9019 136.969 19.4211 136.134 19.9447 135.339C20.093 135.1 20.2588 134.874 20.4115 134.635C20.8042 134.062 21.1926 133.488 21.6027 132.91C21.8252 132.597 22.0478 132.297 22.2703 132.002C22.6237 131.537 22.9946 131.076 23.3698 130.611C23.684 130.224 24.0025 129.833 24.3166 129.464C24.8751 128.799 25.4511 128.147 26.027 127.539C26.6204 126.908 27.2531 126.296 27.8683 125.705C28.1301 125.444 28.4094 125.205 28.6886 124.944C29.1337 124.536 29.6005 124.149 30.0456 123.758C30.3248 123.536 30.5866 123.293 30.8659 123.071C31.3676 122.68 31.8694 122.293 32.393 121.941C32.633 121.776 32.8773 121.589 33.1173 121.402C33.8809 120.885 34.6444 120.381 35.4254 119.938C35.9447 119.642 36.4508 119.364 36.97 119.121C37.1184 119.047 37.2667 118.973 37.3976 118.917C37.7903 118.73 38.1786 118.547 38.5713 118.378C38.7022 118.321 38.8331 118.265 38.964 118.208C39.3175 118.061 39.6883 117.93 40.0418 117.8C40.1159 117.765 40.2076 117.743 40.3035 117.709C40.7311 117.561 41.1762 117.43 41.6038 117.322C41.8656 117.248 42.1056 117.191 42.3499 117.135C42.4633 117.118 42.5899 117.078 42.7033 117.044C43.0742 116.97 43.4276 116.896 43.8029 116.839C44.3614 116.748 44.8806 116.709 45.4216 116.674H47.132C47.2062 116.674 47.2804 116.674 47.3545 116.692C47.7254 116.726 48.1007 116.766 48.4541 116.822C48.5675 116.822 48.6766 116.861 48.79 116.879C49.2002 116.952 49.6103 117.044 49.9987 117.157H50.0379C50.4088 117.27 50.784 117.396 51.1549 117.543C51.2684 117.583 51.36 117.635 51.4516 117.674C51.7483 117.804 52.0668 117.952 52.3461 118.117L52.3068 118.1H52.3112Z" fill="#FFEFD4"/>
<path d="M50.1336 139.163C50.1336 134.57 48.4799 131.324 45.8533 129.807L40.8661 126.917C43.5058 128.438 45.1246 131.68 45.1464 136.273C45.1464 136.812 45.129 137.347 45.0897 137.886C45.0897 138.051 45.0504 138.238 45.033 138.403C44.9937 138.755 44.9588 139.107 44.9021 139.441C44.8454 139.832 44.7712 140.219 44.697 140.61C44.6403 140.871 44.6054 141.149 44.5486 141.406C44.4919 141.645 44.4352 141.905 44.361 142.144C44.2694 142.496 44.1734 142.831 44.0818 143.183C44.0251 143.387 43.9509 143.592 43.8942 143.796C43.7633 144.183 43.6324 144.574 43.5015 144.965C43.4447 145.13 43.388 145.278 43.3357 145.447C43.1306 145.986 42.9255 146.521 42.6855 147.042C42.6681 147.098 42.6288 147.172 42.5939 147.229C42.3888 147.711 42.1663 148.172 41.9263 148.637C41.8522 148.785 41.778 148.932 41.7038 149.08C41.4813 149.523 41.237 149.949 40.997 150.397C40.9403 150.488 40.9053 150.562 40.8486 150.658C40.5519 151.157 40.2552 151.657 39.9193 152.157C39.8276 152.305 39.7316 152.435 39.64 152.583C39.4 152.935 39.1557 153.287 38.9157 153.621C38.7848 153.808 38.6365 153.991 38.5056 154.178C38.283 154.456 38.0605 154.751 37.838 155.012C37.6504 155.251 37.4671 155.477 37.262 155.699C37.0744 155.92 36.8912 156.125 36.7035 156.329C36.3894 156.681 36.0709 157.033 35.7349 157.367C35.5298 157.572 35.3248 157.776 35.1197 157.98C34.9539 158.128 34.7837 158.293 34.6179 158.445C34.3387 158.684 34.0769 158.928 33.7976 159.167C33.6318 159.297 33.4617 159.445 33.2959 159.575C32.9992 159.814 32.6806 160.04 32.3839 160.262C32.2356 160.375 32.0872 160.483 31.9389 160.579C31.472 160.892 31.0095 161.192 30.5427 161.47C30.0976 161.731 29.6482 161.952 29.2031 162.156C29.0897 162.213 28.9806 162.269 28.8672 162.304C28.4396 162.491 28.012 162.674 27.6018 162.804C27.5626 162.804 27.5451 162.804 27.5102 162.821C27.1568 162.934 26.8034 163.026 26.4499 163.117C26.2449 163.173 26.0572 163.208 25.8565 163.247C25.5947 163.304 25.3373 163.338 25.0755 163.36C24.9272 163.36 24.7788 163.399 24.6479 163.399C24.3338 163.417 24.0152 163.438 23.7011 163.399H23.496C23.1251 163.382 22.7717 163.325 22.4183 163.269C22.3267 163.269 22.2525 163.234 22.1565 163.212C21.8773 163.156 21.6155 163.065 21.358 162.991C21.2839 162.952 21.1922 162.934 21.1181 162.9C20.7821 162.769 20.4679 162.621 20.1494 162.435L25.1366 165.324C25.1366 165.324 25.1933 165.359 25.2108 165.359C25.4507 165.49 25.6951 165.62 25.9569 165.711C25.9962 165.729 26.0485 165.75 26.1052 165.768C26.1794 165.807 26.271 165.824 26.3452 165.859C26.4761 165.898 26.607 165.95 26.7379 165.989C26.8688 166.024 27.0172 166.046 27.1655 166.081C27.2571 166.098 27.3313 166.12 27.4273 166.137C27.484 166.137 27.5189 166.154 27.5756 166.172C27.8723 166.228 28.1516 166.263 28.4701 166.285H29.4388C29.5129 166.285 29.6046 166.285 29.6787 166.267C29.8271 166.267 29.9754 166.25 30.1063 166.228C30.2547 166.228 30.3856 166.211 30.5165 166.194C30.6299 166.194 30.7564 166.137 30.8699 166.12C31.075 166.081 31.2626 166.046 31.4633 165.989C31.5767 165.972 31.6858 165.95 31.7993 165.915C32.0392 165.842 32.2836 165.768 32.5236 165.694C32.5628 165.694 32.5803 165.694 32.6152 165.676C32.9119 165.585 33.2086 165.455 33.5271 165.342C33.6405 165.285 33.7671 165.229 33.8805 165.177C33.994 165.12 34.1031 165.064 34.2165 165.029C34.6615 164.825 35.111 164.603 35.556 164.342C36.0229 164.064 36.4854 163.769 36.9523 163.451C37.1006 163.338 37.2489 163.23 37.3973 163.139C37.7115 162.917 38.0125 162.695 38.3092 162.452C38.475 162.322 38.6452 162.174 38.811 162.043C39.0902 161.804 39.3695 161.561 39.6313 161.322C39.7971 161.174 39.9672 161.027 40.1156 160.857C40.2072 160.766 40.3207 160.67 40.4123 160.579C40.5257 160.466 40.6174 160.357 40.7264 160.244C41.0624 159.91 41.3766 159.558 41.6951 159.206C41.7867 159.093 41.9002 158.984 42.0092 158.871C42.1009 158.78 42.175 158.667 42.271 158.558C42.4587 158.337 42.6637 158.093 42.847 157.872C42.9604 157.724 43.087 157.576 43.2179 157.428C43.3095 157.298 43.4055 157.168 43.5146 157.037C43.6455 156.855 43.7938 156.668 43.9247 156.481C44.0163 156.351 44.1123 156.242 44.204 156.112C44.3523 155.89 44.5007 155.668 44.649 155.447C44.7406 155.299 44.8366 155.168 44.9283 155.021C44.9675 154.964 45.0024 154.908 45.0417 154.851C45.3035 154.443 45.5609 154.034 45.8053 153.608C45.8053 153.569 45.8445 153.552 45.862 153.517C45.9187 153.426 45.9536 153.33 46.0103 153.256C46.1761 152.961 46.3463 152.661 46.4947 152.365C46.5688 152.218 46.643 152.087 46.7172 151.94C46.7914 151.792 46.8655 151.644 46.9397 151.496C46.9964 151.366 47.0706 151.236 47.1273 151.105C47.2931 150.771 47.4415 150.419 47.5942 150.067C47.6116 150.01 47.6509 149.936 47.6858 149.88C47.6858 149.88 47.6858 149.841 47.7033 149.823C47.8909 149.397 48.0741 148.954 48.2443 148.507C48.2836 148.433 48.301 148.341 48.3359 148.267C48.3927 148.102 48.4494 147.955 48.5017 147.785C48.5759 147.563 48.6675 147.342 48.7417 147.12C48.7984 146.955 48.8334 146.786 48.8901 146.62C48.9468 146.416 49.021 146.212 49.0777 146.008C49.117 145.877 49.1519 145.747 49.1911 145.638C49.2479 145.417 49.3046 145.195 49.3569 144.973C49.4137 144.734 49.4878 144.474 49.5446 144.23C49.562 144.139 49.5838 144.043 49.6187 143.97C49.658 143.783 49.6755 143.618 49.7104 143.431C49.7845 143.044 49.8587 142.653 49.9154 142.266C49.9154 142.153 49.9547 142.044 49.9722 141.931C50.0114 141.692 50.0289 141.449 50.0463 141.21C50.0463 141.045 50.0856 140.875 50.1031 140.693C50.1423 140.154 50.1772 139.62 50.1598 139.081L50.1423 139.172L50.1336 139.163Z" fill="black"/>
<path d="M15.6596 175.207L16.1221 174.442C15.4066 174.203 14.7128 173.903 14.0583 173.529C9.63401 170.996 7.18623 165.642 7.15569 158.45C7.12078 143.318 17.8369 124.827 31.0488 117.23C34.7532 115.097 38.4052 114.006 41.682 114.006C43.1219 114.006 44.4919 114.219 45.7616 114.649C47.6029 115.271 49.2042 116.331 50.5219 117.782L50.9932 117.004C49.61 115.544 47.9476 114.471 46.0409 113.823C41.586 112.315 36.2541 113.232 30.6125 116.479C17.1606 124.214 6.24814 143.044 6.28304 158.454C6.30922 165.968 8.91844 171.591 13.622 174.285C14.2721 174.659 14.9528 174.963 15.6596 175.211V175.207Z" fill="black"/>
<path d="M114.801 91.9033L58.0225 124.531C54.5231 116.1 45.6876 113.745 35.3816 119.677C22.0432 127.347 11.2354 146.007 11.2703 161.274C11.3271 176.523 22.209 182.711 35.5474 175.041C45.8534 169.114 54.654 156.624 58.0966 144.208L92.0863 124.661C93.2949 123.975 94.2635 122.289 94.2635 120.92C94.2635 119.551 95.2322 117.86 96.4408 117.178L112.86 107.909L112.873 103.328C114.758 102.594 115.979 100.616 115.979 97.5745C115.988 95.758 115.552 93.8067 114.801 91.9077V91.9033ZM35.53 164.146V164.164C27.458 168.814 20.852 165.072 20.8346 155.824C20.8171 146.577 27.3663 135.278 35.4383 130.624C43.5103 125.974 50.1163 129.715 50.1337 138.963C50.1512 148.189 43.602 159.492 35.53 164.142V164.146ZM74.2275 125.048C73.1847 125.639 72.3295 125.161 72.3121 123.953C72.2946 122.749 73.1673 121.285 74.2101 120.672V120.655C75.2703 120.059 76.143 120.542 76.143 121.745C76.143 122.949 75.2878 124.431 74.2275 125.044V125.048ZM80.1179 121.789C79.0751 122.38 78.2199 121.902 78.2024 120.694C78.185 119.49 79.0576 118.025 80.1005 117.413V117.395C81.1607 116.8 82.0334 117.282 82.0334 118.486C82.0334 119.69 81.1782 121.172 80.1179 121.784V121.789ZM85.7247 118.43C84.6819 119.021 83.8267 118.543 83.8092 117.334C83.7918 116.131 84.6644 114.666 85.7072 114.053V114.036C86.7675 113.441 87.6401 113.923 87.6401 115.127C87.6401 116.331 86.7849 117.812 85.7247 118.425V118.43ZM91.4361 115.131C90.3933 115.722 89.5381 115.244 89.5207 114.036C89.5032 112.832 90.3759 111.368 91.4187 110.755V110.738C92.479 110.142 93.3516 110.625 93.3516 111.828C93.3516 113.032 92.4964 114.514 91.4361 115.127V115.131ZM97.2393 111.759C96.1964 112.35 95.3413 111.872 95.3238 110.664C95.3063 109.46 96.179 107.996 97.2218 107.383V107.365C98.2821 106.77 99.1547 107.252 99.1547 108.456C99.1547 109.66 98.2995 111.142 97.2393 111.755V111.759ZM102.99 108.482C101.947 109.073 101.092 108.595 101.075 107.387C101.057 106.183 101.93 104.719 102.973 104.106V104.089C104.033 103.493 104.905 103.976 104.905 105.179C104.905 106.383 104.05 107.865 102.99 108.478V108.482Z" fill="#F9DC8F"/>
<path d="M74.2056 120.658V120.675C73.1628 121.288 72.2902 122.752 72.3076 123.956C72.3251 125.16 73.1803 125.642 74.2231 125.051C75.2834 124.439 76.1386 122.974 76.1386 121.753C76.1386 120.532 75.2659 120.067 74.2056 120.662V120.658Z" fill="#FFEFD4"/>
<path d="M73.3808 125.738C73.1234 125.738 72.8834 125.677 72.6652 125.556C72.1635 125.273 71.8842 124.704 71.8711 123.965C71.8537 122.701 72.6696 121.206 73.7691 120.441V120.424L73.9917 120.28C74.6418 119.915 75.305 119.872 75.8024 120.163C76.2998 120.454 76.5747 121.019 76.5747 121.749C76.5747 123.118 75.6366 124.734 74.4411 125.425C74.0746 125.634 73.7124 125.738 73.3808 125.738ZM74.6069 120.945L74.4236 121.054C73.4943 121.597 72.7263 122.927 72.7394 123.952C72.7438 124.369 72.8747 124.678 73.0928 124.804C73.311 124.93 73.6426 124.882 74.0004 124.678C74.9341 124.139 75.6977 122.827 75.6977 121.758C75.6977 121.345 75.5755 121.049 75.3574 120.919C75.1697 120.81 74.9036 120.823 74.6025 120.949L74.6069 120.945Z" fill="black"/>
<path d="M75.0303 120.406C75.1787 120.632 75.2659 120.936 75.2659 121.314C75.2659 122.535 74.4107 124 73.3505 124.612C73.0669 124.773 72.7963 124.851 72.552 124.86C72.8792 125.351 73.5076 125.451 74.2231 125.047C75.2834 124.434 76.1386 122.97 76.1386 121.749C76.1386 120.879 75.6804 120.388 75.0303 120.406Z" fill="black"/>
<path d="M80.096 117.399V117.416C79.0532 118.029 78.1806 119.494 78.198 120.697C78.2155 121.901 79.0707 122.384 80.1135 121.793C81.1737 121.18 82.0289 119.715 82.0289 118.494C82.0289 117.273 81.1563 116.808 80.096 117.403V117.399Z" fill="#FFEFD4"/>
<path d="M79.2712 122.48C79.0138 122.48 78.7738 122.419 78.5556 122.297C78.0538 122.015 77.7746 121.445 77.7615 120.706C77.7441 119.442 78.56 117.947 79.6595 117.182V117.165L79.882 117.021C80.5365 116.656 81.1954 116.613 81.6928 116.904C82.1902 117.195 82.4651 117.76 82.4651 118.49C82.4651 119.859 81.527 121.476 80.3315 122.167C79.9649 122.375 79.6028 122.48 79.2712 122.48ZM80.5016 117.682L80.3184 117.791C79.389 118.334 78.6211 119.664 78.6342 120.689C78.6385 121.106 78.7694 121.415 78.9876 121.541C79.2057 121.667 79.5373 121.619 79.8951 121.415C80.8289 120.876 81.5924 119.564 81.5924 118.495C81.5924 118.082 81.4703 117.786 81.2521 117.656C81.0645 117.547 80.7983 117.56 80.4973 117.686L80.5016 117.682Z" fill="black"/>
<path d="M80.9207 117.147C81.0691 117.373 81.1563 117.677 81.1563 118.055C81.1563 119.276 80.3011 120.741 79.2409 121.354C78.9572 121.514 78.6867 121.593 78.4424 121.601C78.7696 122.092 79.3979 122.192 80.1135 121.788C81.1738 121.175 82.029 119.711 82.029 118.49C82.029 117.621 81.5708 117.13 80.9207 117.147Z" fill="black"/>
<path d="M85.7027 114.04V114.057C84.6599 114.67 83.7872 116.134 83.8047 117.338C83.8222 118.542 84.6773 119.024 85.7202 118.433C86.7804 117.82 87.6356 116.356 87.6356 115.135C87.6356 113.914 86.763 113.449 85.7027 114.044V114.04Z" fill="#FFEFD4"/>
<path d="M84.8779 119.12C84.6204 119.12 84.3805 119.059 84.1623 118.938C83.6605 118.655 83.3813 118.086 83.3682 117.347C83.3507 116.083 84.1667 114.588 85.2662 113.823V113.805L85.4887 113.662C86.1432 113.297 86.8021 113.253 87.3038 113.545C87.8012 113.836 88.0761 114.401 88.0761 115.131C88.0761 116.5 87.138 118.116 85.9425 118.807C85.576 119.016 85.2138 119.12 84.8822 119.12H84.8779ZM86.1083 114.323L85.925 114.431C84.9957 114.974 84.2278 116.304 84.2408 117.33C84.2452 117.747 84.3761 118.055 84.5943 118.182C84.8124 118.308 85.144 118.26 85.5018 118.055C86.4356 117.517 87.1991 116.204 87.1991 115.135C87.1991 114.722 87.0769 114.427 86.8588 114.296C86.6712 114.188 86.405 114.201 86.1039 114.327L86.1083 114.323Z" fill="black"/>
<path d="M86.5274 113.788C86.6757 114.014 86.763 114.318 86.763 114.696C86.763 115.917 85.9078 117.381 84.8475 117.994C84.5639 118.155 84.2934 118.233 84.0491 118.242C84.3763 118.733 85.0046 118.833 85.7202 118.429C86.7805 117.816 87.6357 116.352 87.6357 115.13C87.6357 114.261 87.1775 113.77 86.5274 113.788Z" fill="black"/>
<path d="M91.4141 110.742V110.759C90.3713 111.372 89.4987 112.836 89.5161 114.04C89.5336 115.244 90.3888 115.726 91.4316 115.135C92.4919 114.523 93.3471 113.058 93.3471 111.837C93.3471 110.616 92.4744 110.151 91.4141 110.746V110.742Z" fill="#FFEFD4"/>
<path d="M90.5893 115.822C90.3319 115.822 90.0919 115.761 89.8737 115.64C89.372 115.357 89.0927 114.788 89.0796 114.049C89.0622 112.785 89.8781 111.29 90.9776 110.525V110.508L91.2002 110.364C91.8546 109.999 92.5135 109.956 93.0109 110.247C93.5083 110.538 93.7832 111.103 93.7832 111.833C93.7832 113.202 92.8451 114.818 91.6496 115.509C91.2831 115.718 90.9209 115.822 90.5893 115.822ZM91.8197 111.025L91.6365 111.133C90.7071 111.677 89.9392 113.006 89.9523 114.032C89.9566 114.449 90.0875 114.758 90.3057 114.884C90.5239 115.01 90.8555 114.962 91.2132 114.758C92.147 114.219 92.9105 112.906 92.9105 111.837C92.9105 111.424 92.7884 111.129 92.5702 110.999C92.3826 110.89 92.1164 110.903 91.8154 111.029L91.8197 111.025Z" fill="black"/>
<path d="M92.2388 110.49C92.3872 110.716 92.4744 111.02 92.4744 111.398C92.4744 112.619 91.6192 114.084 90.559 114.696C90.2754 114.857 90.0048 114.935 89.7605 114.944C90.0877 115.435 90.716 115.535 91.4316 115.131C92.4919 114.518 93.3471 113.054 93.3471 111.833C93.3471 110.963 92.8889 110.472 92.2388 110.49Z" fill="black"/>
<path d="M97.2174 107.369V107.386C96.1745 107.999 95.3019 109.463 95.3193 110.667C95.3368 111.871 96.192 112.353 97.2348 111.762C98.2951 111.15 99.1503 109.685 99.1503 108.464C99.1503 107.243 98.2776 106.778 97.2174 107.373V107.369Z" fill="#FFEFD4"/>
<path d="M96.3925 112.449C96.1351 112.449 95.8951 112.388 95.6769 112.267C95.1752 111.984 94.8959 111.415 94.8828 110.676C94.8654 109.412 95.6813 107.917 96.7808 107.152V107.134L97.0034 106.991C97.6579 106.626 98.3167 106.583 98.8185 106.874C99.3159 107.165 99.5908 107.73 99.5908 108.46C99.5908 109.829 98.6527 111.445 97.4572 112.136C97.0906 112.345 96.7285 112.449 96.3969 112.449H96.3925ZM97.623 107.652L97.4397 107.76C96.5103 108.303 95.7424 109.633 95.7555 110.659C95.7599 111.076 95.8908 111.385 96.1089 111.511C96.3271 111.637 96.6587 111.589 97.0165 111.385C97.9502 110.846 98.7138 109.533 98.7138 108.464C98.7138 108.051 98.5916 107.756 98.3734 107.626C98.1858 107.517 97.9197 107.53 97.6186 107.656L97.623 107.652Z" fill="black"/>
<path d="M98.042 107.117C98.1904 107.343 98.2777 107.647 98.2777 108.025C98.2777 109.246 97.4225 110.711 96.3622 111.323C96.0786 111.484 95.8081 111.562 95.5637 111.571C95.891 112.062 96.5193 112.162 97.2348 111.758C98.2951 111.145 99.1503 109.681 99.1503 108.459C99.1503 107.59 98.6922 107.099 98.042 107.117Z" fill="black"/>
<path d="M102.968 104.092V104.11C101.925 104.723 101.053 106.187 101.07 107.391C101.088 108.595 101.943 109.077 102.986 108.486C104.046 107.873 104.901 106.409 104.901 105.188C104.901 103.966 104.028 103.501 102.968 104.097V104.092Z" fill="#FFEFD4"/>
<path d="M102.143 109.173C101.886 109.173 101.646 109.112 101.428 108.99C100.926 108.708 100.647 108.139 100.634 107.4C100.616 106.135 101.432 104.64 102.532 103.875V103.858L102.754 103.715C103.409 103.35 104.067 103.306 104.565 103.597C105.062 103.889 105.337 104.453 105.337 105.184C105.337 106.552 104.399 108.169 103.204 108.86C102.837 109.069 102.475 109.173 102.143 109.173ZM103.374 104.375L103.19 104.484C102.261 105.027 101.493 106.357 101.506 107.382C101.511 107.8 101.641 108.108 101.86 108.234C102.078 108.36 102.409 108.312 102.767 108.108C103.701 107.569 104.464 106.257 104.464 105.188C104.464 104.775 104.342 104.48 104.124 104.349C103.937 104.241 103.67 104.254 103.369 104.38L103.374 104.375Z" fill="black"/>
<path d="M103.793 103.84C103.941 104.066 104.028 104.37 104.028 104.749C104.028 105.97 103.173 107.434 102.113 108.047C101.829 108.208 101.559 108.286 101.314 108.295C101.642 108.786 102.27 108.886 102.986 108.482C104.046 107.869 104.901 106.404 104.901 105.183C104.901 104.314 104.443 103.823 103.793 103.84Z" fill="black"/>
<path d="M24.7179 179C22.3312 179 20.1234 178.444 18.1731 177.327C13.4695 174.632 10.8646 169.009 10.8341 161.495C10.7948 146.086 21.7116 127.256 35.1635 119.52C40.8008 116.274 46.1371 115.357 50.5919 116.865C53.9778 118.012 56.6088 120.52 58.2276 124.131L115.098 91.4512L115.281 91.9249C116.032 93.8804 116.424 95.8317 116.416 97.5743C116.416 100.512 115.29 102.694 113.309 103.615L113.296 108.013L96.6634 117.769C95.5987 118.373 94.6999 119.916 94.6999 121.137C94.6999 122.684 93.6484 124.496 92.3045 125.256L58.4719 144.712C54.8854 157.463 45.7793 169.874 35.77 175.632C31.8867 177.866 28.1256 178.996 24.7223 178.996L24.7179 179ZM46.2287 117.047C42.9563 117.047 39.3042 118.143 35.5955 120.272C22.3836 127.868 11.6675 146.359 11.7024 161.491C11.7286 168.683 14.1807 174.037 18.605 176.571C23.0599 179.122 28.9983 178.522 35.3293 174.88C45.199 169.2 54.1785 156.915 57.6735 144.308L57.7215 144.139L57.8742 144.047L91.8638 124.5C92.9285 123.901 93.8229 122.358 93.8229 121.132C93.8229 119.585 94.8745 117.773 96.2183 117.013L112.419 107.509L112.432 103.024L112.707 102.915C114.505 102.211 115.534 100.264 115.534 97.5656C115.543 96.0707 115.233 94.4019 114.636 92.7114L57.8 125.374L57.608 124.918C56.1071 121.298 53.5808 118.799 50.2996 117.686C49.0299 117.256 47.6642 117.043 46.22 117.043L46.2287 117.047ZM28.9634 166.828C27.4886 166.828 26.1229 166.484 24.9099 165.789C22.004 164.125 20.4027 160.665 20.3896 156.05C20.3721 146.668 27.0217 135.191 35.2115 130.476C39.2737 128.138 43.1177 127.773 46.0454 129.45C48.9514 131.115 50.5527 134.574 50.5658 139.189C50.5832 148.48 44.0514 159.822 35.962 164.62V164.642L35.7438 164.768C33.3615 166.141 31.0533 166.832 28.9634 166.832V166.828ZM41.992 129.281C40.0547 129.281 37.8949 129.932 35.6478 131.228C27.698 135.808 21.2448 146.942 21.2622 156.05C21.271 160.344 22.7196 163.534 25.3419 165.037C27.938 166.528 31.398 166.202 35.1024 164.125L35.3031 163.99C43.253 159.409 49.7062 148.284 49.6887 139.189C49.68 134.895 48.2314 131.706 45.6091 130.202C44.5358 129.585 43.314 129.281 41.992 129.281Z" fill="black"/>
<path d="M114.88 92.0991C114.88 92.0991 114.88 92.0903 114.876 92.0859C114.876 92.0903 114.876 92.0947 114.88 92.0991Z" fill="#FFEFD4"/>
<path d="M114.483 92.2769L114.461 92.2248L114.64 92.1639L114.457 92.2117L114.64 92.1639L115.281 91.9336L114.483 92.2769Z" fill="black"/>
<path d="M58.0006 124.709L58.0486 124.735L114.871 92.0817C114.286 90.5563 113.488 89.0657 112.541 87.7012L55.3958 120.537C56.4429 121.693 57.3243 123.084 58.0006 124.709Z" fill="#FFEFD4"/>
<path d="M58.0444 125.239L57.6517 125.009L57.595 124.874C56.9449 123.319 56.0941 121.958 55.0687 120.828L54.7065 120.429L55.1734 120.159L112.668 87.123L112.895 87.4533C113.876 88.8657 114.675 90.3693 115.273 91.9251L115.404 92.2727L115.081 92.4596L58.0357 125.239H58.0444ZM56.0722 120.65C56.9187 121.663 57.643 122.832 58.2277 124.131L114.33 91.8903C113.824 90.6431 113.178 89.4306 112.41 88.279L56.0766 120.65H56.0722Z" fill="black"/>
</g>
<defs>
<clipPath id="clip0_8951_12753">
<rect width="240" height="179" fill="white"/>
</clipPath>
</defs>
</svg>
