<svg width="22" height="20" viewBox="0 0 22 20" fill="none" xmlns="http://www.w3.org/2000/svg">
<rect x="11.702" y="10.7" width="8.67576" height="8.6" rx="1.3" stroke="#A5A5A6" stroke-width="1.4"/>
<path fill-rule="evenodd" clip-rule="evenodd" d="M14.5432 1.4H2.92578C2.59441 1.4 2.32578 1.66863 2.32578 2V13.5C2.32578 13.8314 2.59441 14.1 2.92578 14.1H14.5432C14.8746 14.1 15.1432 13.8314 15.1432 13.5V2C15.1432 1.66863 14.8746 1.4 14.5432 1.4ZM2.92578 0C1.82121 0 0.925781 0.895431 0.925781 2V13.5C0.925781 14.6046 1.82121 15.5 2.92578 15.5H14.5432C15.6478 15.5 16.5432 14.6046 16.5432 13.5V2C16.5432 0.895431 15.6478 0 14.5432 0H2.92578Z" fill="#A5A5A6"/>
</svg>
