<svg width="615" height="336" viewBox="0 0 615 336" fill="none" xmlns="http://www.w3.org/2000/svg">
<mask id="mask0_3660_6589" style="mask-type:alpha" maskUnits="userSpaceOnUse" x="0" y="0" width="615" height="336">
<rect width="615" height="336" fill="#D9D9D9"/>
</mask>
<g mask="url(#mask0_3660_6589)">
<path d="M10.8319 267.525C10.8319 270.309 8.57504 272.566 5.79096 272.566C3.00687 272.566 0.75 270.309 0.75 267.525C0.75 264.742 3.00687 262.485 5.79096 262.485C8.57504 262.485 10.8319 264.742 10.8319 267.525Z" fill="#FBF39B" stroke="black" stroke-width="1.5"/>
<path d="M471.215 206.245C471.215 209.668 468.44 212.443 465.016 212.443C461.592 212.443 458.817 209.668 458.817 206.245C458.817 202.821 461.592 200.046 465.016 200.046C468.44 200.046 471.215 202.821 471.215 206.245Z" fill="#FFC664" stroke="black" stroke-width="1.5"/>
<path d="M614.25 283.16C614.25 285.624 612.252 287.621 609.788 287.621C607.324 287.621 605.326 285.624 605.326 283.16C605.326 280.696 607.324 278.698 609.788 278.698C612.252 278.698 614.25 280.696 614.25 283.16Z" fill="#FBF39B" stroke="black" stroke-width="1.5"/>
<path d="M505.38 32.4262C505.38 36.4892 502.086 39.7831 498.022 39.7831C493.959 39.7831 490.665 36.4892 490.665 32.4262C490.665 28.3632 493.959 25.0693 498.022 25.0693C502.086 25.0693 505.38 28.3632 505.38 32.4262Z" fill="#CFA4FF" stroke="black" stroke-width="1.5"/>
<path d="M287.122 9.59855C284.138 10.6024 282.273 13.6205 281.713 15.004C280.893 12.8418 278.636 10.7569 276.118 9.59855C278.953 8.28578 280.687 6.12359 281.713 4C282.534 6.70275 285.661 8.85851 287.122 9.59855Z" fill="#FFBF00" stroke="black" stroke-width="1.5"/>
<path d="M198.279 179.891C194.937 181.016 192.849 184.395 192.222 185.944C191.303 183.523 188.776 181.189 185.957 179.891C189.131 178.422 191.073 176 192.222 173.623C193.141 176.649 196.643 179.063 198.279 179.891Z" fill="white" stroke="black" stroke-width="1.5"/>
<path d="M449.01 250.655C444.453 252.188 441.605 256.797 440.751 258.909C439.498 255.608 436.052 252.424 432.207 250.655C436.536 248.651 439.185 245.349 440.751 242.107C442.004 246.234 446.779 249.525 449.01 250.655Z" fill="#FFBF00" stroke="black" stroke-width="1.5"/>
<path d="M129.057 155.63C129.057 160.746 124.91 164.893 119.794 164.893C114.678 164.893 110.531 160.746 110.531 155.63C110.531 150.515 114.678 146.368 119.794 146.368C124.91 146.368 129.057 150.515 129.057 155.63Z" fill="#CFA4FF" stroke="black" stroke-width="1.5"/>
<path d="M256.665 108.04C256.665 111.312 254.013 113.965 250.74 113.965C247.468 113.965 244.815 111.312 244.815 108.04C244.815 104.767 247.468 102.115 250.74 102.115C254.013 102.115 256.665 104.767 256.665 108.04Z" fill="#FBF39B" stroke="black" stroke-width="1.5"/>
<path d="M315.407 157.434C315.407 159.969 313.352 162.024 310.817 162.024C308.282 162.024 306.227 159.969 306.227 157.434C306.227 154.899 308.282 152.844 310.817 152.844C313.352 152.844 315.407 154.899 315.407 157.434Z" fill="#FFC664" stroke="black" stroke-width="1.5"/>
<path d="M360.563 145.765L360.545 145.77L360.526 145.776C359.109 146.239 358.099 145.772 357.834 145.572L355.212 143.186L377.525 123.376L379.474 125.615C379.483 125.63 379.491 125.64 379.495 125.646L379.497 125.648C379.518 125.678 379.542 125.709 379.561 125.734L379.57 125.746C379.609 125.796 379.649 125.848 379.693 125.911C379.789 126.046 379.895 126.215 379.977 126.414C380.136 126.795 380.217 127.295 379.921 127.91C374.03 140.147 364.134 144.8 360.563 145.765Z" fill="#F78400" stroke="black" stroke-width="1.5"/>
<path d="M376.878 122.666C377.122 122.93 377.274 123.431 377.117 124.313C376.963 125.182 376.529 126.279 375.815 127.542C374.39 130.059 371.938 133.079 368.785 135.982C365.632 138.886 362.421 141.082 359.796 142.295C358.479 142.903 357.349 143.245 356.471 143.328C355.578 143.412 355.092 143.218 354.849 142.954C354.605 142.69 354.453 142.19 354.609 141.307C354.764 140.438 355.198 139.341 355.912 138.078C357.337 135.562 359.789 132.541 362.942 129.638C366.094 126.734 369.306 124.539 371.931 123.326C373.248 122.717 374.378 122.375 375.256 122.292C376.149 122.209 376.635 122.402 376.878 122.666Z" fill="#FFC664" stroke="black" stroke-width="1.5"/>
<path d="M198.689 108.806L198.689 108.787L198.688 108.767C198.532 105.944 199.894 104.268 200.485 103.821L206.245 100.118L230.179 147.823L224.971 150.371C224.936 150.382 224.909 150.392 224.893 150.398L224.891 150.399C224.842 150.417 224.786 150.44 224.735 150.461L224.709 150.472C224.608 150.514 224.492 150.562 224.356 150.612C224.062 150.722 223.685 150.838 223.256 150.896C222.417 151.007 221.366 150.897 220.315 149.994C202.152 134.393 198.708 115.406 198.689 108.806Z" fill="#F78400" stroke="black" stroke-width="1.5"/>
<path d="M231.174 147.293C230.392 147.703 229.275 147.662 227.784 146.965C226.306 146.275 224.596 144.999 222.762 143.199C219.1 139.605 215.071 134.047 211.569 127.373C208.067 120.699 205.782 114.226 204.906 109.171C204.467 106.639 204.388 104.506 204.66 102.898C204.934 101.276 205.535 100.333 206.317 99.9228C207.099 99.5126 208.216 99.5542 209.707 100.25C211.185 100.941 212.895 102.217 214.729 104.017C218.391 107.611 222.419 113.169 225.921 119.843C229.424 126.517 231.708 132.99 232.585 138.045C233.024 140.577 233.102 142.71 232.831 144.318C232.556 145.94 231.956 146.883 231.174 147.293Z" fill="#FFC664" stroke="black" stroke-width="1.5"/>
<mask id="path-16-inside-1_3660_6589" fill="white">
<path fill-rule="evenodd" clip-rule="evenodd" d="M96.5641 282.081C92.7134 282.425 89.8704 285.825 90.2141 289.675L94.4494 337.122L414.98 337.125L408.211 261.298C407.868 257.447 404.467 254.604 400.617 254.948L96.5641 282.081Z"/>
</mask>
<path fill-rule="evenodd" clip-rule="evenodd" d="M96.5641 282.081C92.7134 282.425 89.8704 285.825 90.2141 289.675L94.4494 337.122L414.98 337.125L408.211 261.298C407.868 257.447 404.467 254.604 400.617 254.948L96.5641 282.081Z" fill="#A041FF"/>
<path d="M90.2141 289.675L88.7201 289.809L90.2141 289.675ZM96.5641 282.081L96.4307 280.587L96.5641 282.081ZM94.4494 337.122L92.9553 337.256L93.0773 338.622L94.4494 338.622L94.4494 337.122ZM414.98 337.125L414.98 338.625L416.62 338.625L416.474 336.992L414.98 337.125ZM408.211 261.298L406.717 261.431L406.717 261.431L408.211 261.298ZM400.617 254.948L400.75 256.442L400.617 254.948ZM91.7082 289.542C91.4381 286.517 93.6719 283.845 96.6974 283.575L96.4307 280.587C91.7549 281.004 88.3027 285.133 88.7201 289.809L91.7082 289.542ZM95.9434 336.989L91.7082 289.542L88.7201 289.809L92.9553 337.256L95.9434 336.989ZM94.4494 338.622L414.98 338.625L414.98 335.625L94.4494 335.622L94.4494 338.622ZM406.717 261.431L413.486 337.258L416.474 336.992L409.705 261.164L406.717 261.431ZM400.75 256.442C403.776 256.172 406.447 258.405 406.717 261.431L409.705 261.164C409.288 256.489 405.159 253.036 400.483 253.454L400.75 256.442ZM96.6974 283.575L400.75 256.442L400.483 253.454L96.4307 280.587L96.6974 283.575Z" fill="black" mask="url(#path-16-inside-1_3660_6589)"/>
<mask id="path-18-inside-2_3660_6589" fill="white">
<path fill-rule="evenodd" clip-rule="evenodd" d="M90.985 282.579C87.1343 282.923 84.2913 286.323 84.635 290.173L88.7364 336.121L89.0383 339.502L89.0383 337.123L409.356 337.125L409.267 336.124L402.632 261.796C402.288 257.945 398.888 255.102 395.038 255.446L90.985 282.579Z"/>
</mask>
<path fill-rule="evenodd" clip-rule="evenodd" d="M90.985 282.579C87.1343 282.923 84.2913 286.323 84.635 290.173L88.7364 336.121L89.0383 339.502L89.0383 337.123L409.356 337.125L409.267 336.124L402.632 261.796C402.288 257.945 398.888 255.102 395.038 255.446L90.985 282.579Z" fill="#CFA4FF"/>
<path d="M84.635 290.173L83.141 290.307L84.635 290.173ZM90.985 282.579L90.8516 281.085L90.985 282.579ZM88.7364 336.121L90.2305 335.988L88.7364 336.121ZM89.0383 339.502L87.5442 339.636L90.5383 339.502L89.0383 339.502ZM89.0383 337.123L89.0382 335.623L87.5382 335.623L87.5383 337.123L89.0383 337.123ZM409.356 337.125L409.356 338.625L410.996 338.625L410.85 336.992L409.356 337.125ZM409.267 336.124L410.761 335.991L410.761 335.991L409.267 336.124ZM402.632 261.796L404.126 261.662L404.126 261.662L402.632 261.796ZM395.038 255.446L395.171 256.94L395.038 255.446ZM86.1291 290.04C85.859 287.015 88.0928 284.343 91.1183 284.073L90.8516 281.085C86.1758 281.502 82.7236 285.631 83.141 290.307L86.1291 290.04ZM90.2305 335.988L86.1291 290.04L83.141 290.307L87.2424 336.254L90.2305 335.988ZM90.5323 339.369L90.2305 335.988L87.2424 336.254L87.5442 339.636L90.5323 339.369ZM90.5383 339.502L90.5383 337.123L87.5383 337.123L87.5383 339.502L90.5383 339.502ZM89.0383 338.623L409.356 338.625L409.356 335.625L89.0382 335.623L89.0383 338.623ZM407.773 336.257L407.862 337.259L410.85 336.992L410.761 335.991L407.773 336.257ZM401.138 261.929L407.773 336.257L410.761 335.991L404.126 261.662L401.138 261.929ZM395.171 256.94C398.196 256.67 400.868 258.904 401.138 261.929L404.126 261.662C403.709 256.987 399.58 253.534 394.904 253.952L395.171 256.94ZM91.1183 284.073L395.171 256.94L394.904 253.952L90.8516 281.085L91.1183 284.073Z" fill="#1E1E1E" mask="url(#path-18-inside-2_3660_6589)"/>
<rect x="0.813709" y="0.680362" width="293.117" height="14.1827" rx="3.25" transform="matrix(0.996041 -0.0888904 0.0889044 0.99604 95.8099 290.092)" fill="#A041FF" stroke="#1E1E1E" stroke-width="1.5"/>
<mask id="mask1_3660_6589" style="mask-type:alpha" maskUnits="userSpaceOnUse" x="85" y="143" width="306" height="162">
<rect width="294.616" height="135.541" transform="matrix(0.996042 -0.088885 -0.0889098 -0.99604 97.1626 304.522)" fill="#D9D9D9"/>
</mask>
<g mask="url(#mask1_3660_6589)">
<path d="M105.736 217.989L348.774 188.193C354.162 187.532 359.061 191.355 359.72 196.728L377.178 339.088C377.837 344.461 374.007 349.354 368.619 350.014L125.581 379.81C120.194 380.471 115.295 376.648 114.636 371.275L97.1775 228.916C96.5186 223.543 100.349 218.649 105.736 217.989Z" fill="#F3F5F7" stroke="black" stroke-width="1.5"/>
<path d="M239.286 228.814L247.482 307.504C247.566 308.317 246.505 309.244 244.287 310.135C239.679 312.01 231.779 312.994 226.647 312.38C223.991 312.085 222.587 311.408 222.493 310.512L214.297 231.824C214.382 232.637 215.794 233.388 218.451 233.69C223.583 234.306 231.483 233.32 236.091 231.446C238.31 230.563 239.371 229.629 239.286 228.814Z" fill="#A041FF" stroke="black" stroke-width="1.5" stroke-linejoin="round"/>
<path d="M235.138 226.953C240.27 227.569 240.699 229.57 236.096 231.445C231.488 233.319 223.587 234.304 218.455 233.689C213.322 233.074 212.892 231.072 217.496 229.198C222.105 227.325 230.005 226.339 235.138 226.953Z" fill="#CFA4FF" stroke="black" stroke-width="1.5" stroke-linejoin="round"/>
<path d="M259.224 251.578L265.199 308.945C265.284 309.758 264.223 310.685 262.005 311.576C257.397 313.451 249.496 314.435 244.364 313.821C241.709 313.526 240.304 312.849 240.211 311.953L234.236 254.588C234.321 255.402 235.733 256.152 238.389 256.454C243.521 257.07 251.422 256.084 256.029 254.21C258.249 253.327 259.309 252.393 259.224 251.578Z" fill="#FBE62E" stroke="black" stroke-width="1.5" stroke-linejoin="round"/>
<path d="M255.074 249.718C260.207 250.333 260.636 252.335 256.032 254.209C251.424 256.084 243.523 257.068 238.391 256.454C233.259 255.838 232.829 253.837 237.433 251.963C242.042 250.089 249.941 249.103 255.074 249.718Z" fill="#FBE62E" stroke="black" stroke-width="1.5" stroke-linejoin="round"/>
<path d="M229.523 280.15L231.374 297.915C231.458 298.729 230.397 299.655 228.179 300.547C223.571 302.422 215.67 303.406 210.538 302.791C207.883 302.497 206.478 301.819 206.385 300.924L204.534 283.16C204.619 283.973 206.031 284.723 208.688 285.026C213.82 285.641 221.72 284.656 226.328 282.781C228.548 281.899 229.608 280.965 229.523 280.15Z" fill="#F78400" stroke="black" stroke-width="1.5" stroke-linejoin="round"/>
<path d="M225.373 278.289C230.505 278.905 230.934 280.907 226.33 282.781C221.722 284.656 213.822 285.64 208.69 285.026C203.557 284.41 203.127 282.409 207.731 280.534C212.34 278.661 220.24 277.675 225.373 278.289Z" fill="#FFC664" stroke="black" stroke-width="1.5" stroke-linejoin="round"/>
<path d="M269.758 227.517L366.166 215.66C370.876 215.08 375.199 218.503 375.794 223.331L386.507 310.405C387.002 314.423 384.196 318.061 380.281 318.543L281.004 330.753C277.089 331.235 273.485 328.385 272.991 324.366L262.277 237.293C261.683 232.464 265.048 228.096 269.758 227.517Z" fill="#FFC664" stroke="black" stroke-width="1.5"/>
<g clip-path="url(#clip0_3660_6589)">
<path d="M303.949 274.965C304.115 276.507 302.994 277.891 301.445 278.057C299.896 278.224 298.507 277.109 298.341 275.567" stroke="black" stroke-width="2" stroke-linecap="round" stroke-linejoin="round"/>
<path d="M303.949 274.965C303.783 273.423 304.904 272.039 306.453 271.873C308.001 271.706 309.391 272.821 309.556 274.363" stroke="black" stroke-width="2" stroke-linecap="round" stroke-linejoin="round"/>
<path d="M315.169 273.76C315.334 275.302 314.213 276.686 312.665 276.852C311.116 277.019 309.727 275.904 309.561 274.362" stroke="black" stroke-width="2" stroke-linecap="round" stroke-linejoin="round"/>
<path d="M315.169 273.76C315.003 272.218 316.124 270.834 317.672 270.668C319.221 270.501 320.61 271.616 320.776 273.157" stroke="black" stroke-width="2" stroke-linecap="round" stroke-linejoin="round"/>
<path d="M326.386 272.555C326.552 274.096 325.431 275.481 323.883 275.647C322.334 275.814 320.945 274.699 320.779 273.157" stroke="black" stroke-width="2" stroke-linecap="round" stroke-linejoin="round"/>
<path d="M315.169 273.76C315.003 272.218 316.124 270.834 317.672 270.668C319.221 270.501 320.61 271.616 320.776 273.157" stroke="black" stroke-width="2" stroke-linecap="round" stroke-linejoin="round"/>
<path d="M326.386 272.555C326.552 274.096 325.431 275.481 323.883 275.647C322.334 275.814 320.945 274.699 320.779 273.157" stroke="black" stroke-width="2" stroke-linecap="round" stroke-linejoin="round"/>
<path d="M326.386 272.555C326.22 271.013 327.341 269.629 328.89 269.462C330.438 269.296 331.828 270.411 331.993 271.952" stroke="black" stroke-width="2" stroke-linecap="round" stroke-linejoin="round"/>
<path d="M337.606 271.349C337.772 272.891 336.651 274.275 335.102 274.442C333.554 274.608 332.164 273.493 331.999 271.952" stroke="black" stroke-width="2" stroke-linecap="round" stroke-linejoin="round"/>
<path d="M337.606 271.349C337.44 269.808 338.561 268.423 340.109 268.257C341.658 268.091 343.048 269.205 343.213 270.747" stroke="black" stroke-width="2" stroke-linecap="round" stroke-linejoin="round"/>
<path d="M348.826 270.144C348.992 271.686 347.871 273.07 346.322 273.237C344.773 273.403 343.384 272.288 343.218 270.747" stroke="black" stroke-width="2" stroke-linecap="round" stroke-linejoin="round"/>
<path d="M348.101 262.929C346.6 248.96 334.006 238.856 319.973 240.364C305.94 241.872 296.063 254.084 297.236 267.828L297.222 267.83L297.282 268.389C297.376 269.263 298.164 269.893 299.04 269.799L346.633 264.686C347.511 264.592 348.144 263.807 348.051 262.935L348.101 262.929Z" fill="#FBF39B" stroke="black" stroke-width="2" stroke-linecap="round" stroke-linejoin="round"/>
<path d="M348.053 276.048L300.682 281.137C298.372 281.386 296.699 283.452 296.946 285.752L297.109 287.264C297.356 289.564 299.429 291.227 301.74 290.979L349.111 285.89C351.421 285.642 353.094 283.576 352.847 281.276L352.684 279.764C352.437 277.464 350.363 275.8 348.053 276.048Z" fill="#FF8CEE" stroke="black" stroke-width="2" stroke-linecap="round" stroke-linejoin="round"/>
<path d="M303.844 290.744L346.562 286.154C348.765 285.918 350.743 287.504 350.978 289.697L351.183 291.603C351.523 294.766 349.22 297.611 346.041 297.953L306.735 302.176C303.557 302.517 300.702 300.226 300.362 297.062L300.17 295.279C299.927 293.019 301.572 290.988 303.842 290.744L303.844 290.744Z" fill="#FBF39B" stroke="black" stroke-width="2" stroke-linecap="round" stroke-linejoin="round"/>
</g>
</g>
<mask id="path-44-inside-3_3660_6589" fill="white">
<path fill-rule="evenodd" clip-rule="evenodd" d="M53.0551 181.044C52.9468 180.912 52.8303 180.79 52.7057 180.68L52.7077 180.678C50.9567 179.716 48.9834 180.359 47.8417 181.925C46.1303 184.273 47.1299 187.245 49.3949 187.968L49.3947 187.969L49.4172 187.976C49.4736 187.993 49.5307 188.009 49.5886 188.024L57.383 190.229C57.383 190.229 57.8932 190.437 57.8184 189.928L57.8187 189.926L53.15 181.038L53.0551 181.044Z"/>
</mask>
<path fill-rule="evenodd" clip-rule="evenodd" d="M53.0551 181.044C52.9468 180.912 52.8303 180.79 52.7057 180.68L52.7077 180.678C50.9567 179.716 48.9834 180.359 47.8417 181.925C46.1303 184.273 47.1299 187.245 49.3949 187.968L49.3947 187.969L49.4172 187.976C49.4736 187.993 49.5307 188.009 49.5886 188.024L57.383 190.229C57.383 190.229 57.8932 190.437 57.8184 189.928L57.8187 189.926L53.15 181.038L53.0551 181.044Z" fill="#F0C2B8"/>
<path d="M52.7057 180.68L52.0846 179.896L51.1516 180.635L52.0411 181.427L52.7057 180.68ZM53.0551 181.044L52.2836 181.68L52.6081 182.073L53.1171 182.042L53.0551 181.044ZM52.7077 180.678L53.3288 181.462L54.5092 180.527L53.1889 179.801L52.7077 180.678ZM47.8417 181.925L48.6498 182.514L48.6498 182.514L47.8417 181.925ZM49.3949 187.968L50.3338 188.313L50.6929 187.333L49.6989 187.016L49.3949 187.968ZM49.3947 187.969L48.4558 187.625L48.0844 188.638L49.1226 188.931L49.3947 187.969ZM49.4172 187.976L49.7146 187.021L49.702 187.017L49.6892 187.013L49.4172 187.976ZM49.5886 188.024L49.8607 187.062L49.848 187.058L49.8353 187.055L49.5886 188.024ZM57.383 190.229L57.7596 189.303L57.7083 189.282L57.655 189.267L57.383 190.229ZM57.8184 189.928L56.8253 189.811L56.8099 189.942L56.8291 190.073L57.8184 189.928ZM57.8187 189.926L58.8118 190.043L58.8479 189.735L58.7039 189.461L57.8187 189.926ZM53.15 181.038L54.0352 180.573L53.7341 180L53.0879 180.04L53.15 181.038ZM52.0411 181.427C52.125 181.501 52.2061 181.586 52.2836 181.68L53.8266 180.408C53.6875 180.239 53.5355 180.08 53.3704 179.933L52.0411 181.427ZM52.0866 179.894L52.0846 179.896L53.3268 181.463L53.3288 181.462L52.0866 179.894ZM48.6498 182.514C49.5494 181.28 50.9925 180.877 52.2265 181.554L53.1889 179.801C50.9209 178.556 48.4174 179.437 47.0336 181.336L48.6498 182.514ZM49.6989 187.016C48.1695 186.527 47.2856 184.386 48.6498 182.514L47.0336 181.336C44.9749 184.16 46.0903 187.963 49.0909 188.921L49.6989 187.016ZM48.456 187.624L48.4558 187.625L50.3335 188.314L50.3338 188.313L48.456 187.624ZM49.1226 188.931L49.1452 188.938L49.6892 187.013L49.6667 187.007L49.1226 188.931ZM49.8353 187.055C49.7944 187.045 49.7541 187.033 49.7146 187.021L49.1199 188.93C49.193 188.953 49.2671 188.974 49.342 188.993L49.8353 187.055ZM49.3166 188.986L57.111 191.192L57.655 189.267L49.8607 187.062L49.3166 188.986ZM57.383 190.229C57.0064 191.156 57.0068 191.156 57.0072 191.156C57.0073 191.156 57.0077 191.156 57.0079 191.156C57.0084 191.156 57.0089 191.157 57.0095 191.157C57.0105 191.157 57.0116 191.158 57.0127 191.158C57.015 191.159 57.0175 191.16 57.02 191.161C57.0252 191.163 57.0311 191.165 57.0375 191.168C57.0504 191.173 57.066 191.178 57.0839 191.184C57.1192 191.196 57.1665 191.211 57.2225 191.225C57.3201 191.249 57.5073 191.287 57.7279 191.265C57.9574 191.242 58.3327 191.139 58.5951 190.772C58.8441 190.424 58.8455 190.039 58.8078 189.783L56.8291 190.073C56.8288 190.071 56.7945 189.851 56.9688 189.608C57.1566 189.345 57.4184 189.285 57.5297 189.274C57.6321 189.264 57.6964 189.282 57.7007 189.283C57.71 189.285 57.718 189.288 57.7257 189.29C57.7298 189.292 57.7345 189.293 57.74 189.295C57.7427 189.296 57.7457 189.298 57.7489 189.299C57.7506 189.299 57.7523 189.3 57.7541 189.301C57.7549 189.301 57.7559 189.302 57.7568 189.302C57.7572 189.302 57.7577 189.302 57.7582 189.302C57.7584 189.303 57.7588 189.303 57.7589 189.303C57.7593 189.303 57.7596 189.303 57.383 190.229ZM58.8116 190.045L58.8118 190.043L56.8255 189.809L56.8253 189.811L58.8116 190.045ZM58.7039 189.461L54.0352 180.573L52.2647 181.503L56.9334 190.391L58.7039 189.461ZM53.0879 180.04L52.9931 180.046L53.1171 182.042L53.212 182.036L53.0879 180.04Z" fill="black" mask="url(#path-44-inside-3_3660_6589)"/>
<path d="M54.9322 184.73C55.0112 184.975 57.8187 189.926 57.8187 189.926L57.8169 189.926C57.8917 190.435 57.3815 190.227 57.3815 190.227L52.4017 188.823C52.0279 186.479 54.3883 184.619 54.9322 184.73Z" fill="#030303"/>
<path d="M51.5229 180.619C50.7478 180.944 49.826 181.569 48.9386 182.736L48.9386 182.736L48.9317 182.745L49.5357 183.19C48.9317 182.745 48.9315 182.745 48.9314 182.746L48.931 182.746L48.9303 182.747L48.9282 182.75L48.9224 182.758L48.9039 182.784C48.8887 182.806 48.8677 182.836 48.8421 182.874C48.7908 182.95 48.7206 183.059 48.6395 183.195C48.4779 183.467 48.2699 183.853 48.0835 184.314C47.9056 184.754 47.7376 185.288 47.6585 185.87L10.4629 153.89C10.9648 153.049 11.6999 151.97 12.5433 151.012C13.0585 150.427 13.6004 149.903 14.1405 149.507C14.5561 149.202 14.9472 148.99 15.3052 148.873L49.9939 179.29L49.9963 179.292L51.5229 180.619Z" fill="#00FF00" stroke="black" stroke-width="1.5"/>
<path d="M8.49972 148C11 144.5 14.4999 148 14.4999 148L9.49968 153.5C6.69971 151.5 7.66639 149 8.49972 148Z" fill="#F1C966" stroke="black" stroke-width="1.5"/>
<path d="M47.8639 186.372L15.433 158.37C15.5975 157.792 15.7955 157.23 16.0297 156.691L48.2817 184.49C48.0726 185.026 47.8912 185.678 47.8639 186.372Z" fill="#009E00" stroke="black"/>
<path d="M48.1987 184.041C47.98 184.53 47.7545 185.163 47.6585 185.864L15.7181 158.286C15.9324 157.563 16.2002 156.87 16.5268 156.218C16.7769 155.719 17.0611 155.245 17.3828 154.799L49.2914 182.3C49.1735 182.436 49.056 182.58 48.9392 182.734L48.9391 182.734L48.9322 182.743L49.5359 183.188C48.9322 182.743 48.9321 182.743 48.932 182.743L48.9319 182.743L48.9316 182.744L48.9309 182.745L48.9292 182.747L48.9243 182.754L48.9088 182.775C48.8961 182.793 48.8788 182.818 48.8574 182.85C48.8148 182.912 48.7562 183.002 48.6875 183.114C48.5506 183.338 48.3714 183.656 48.1989 184.041L48.1987 184.041Z" fill="#00FF00" stroke="black" stroke-width="1.5"/>
<path d="M20.2416 153.646L22.5026 153.869L20.8182 152.344L16.4487 148.388L16.216 148.177L15.9027 148.195L15.9454 148.944C15.9027 148.195 15.9023 148.195 15.9018 148.195L15.9008 148.195L15.8984 148.195L15.8924 148.195L15.875 148.197C15.8612 148.198 15.8429 148.199 15.8203 148.201C15.7752 148.206 15.7131 148.213 15.6361 148.223C15.4823 148.245 15.2682 148.282 15.012 148.345C14.5013 148.471 13.8124 148.704 13.098 149.135C11.641 150.012 10.1447 151.675 9.78827 154.712L9.74192 155.107L10.0429 155.368L14.662 159.359L16.3769 160.841L15.8882 158.646C15.888 158.644 15.8878 158.643 15.8876 158.641C15.8857 158.624 15.8824 158.584 15.8829 158.524C15.8838 158.403 15.8997 158.194 15.9735 157.902C16.1204 157.32 16.5015 156.387 17.479 155.144L17.4838 155.139C17.4928 155.128 17.5076 155.112 17.5278 155.089C17.5682 155.045 17.6299 154.979 17.7101 154.899C17.8715 154.738 18.1023 154.527 18.3802 154.322C18.962 153.893 19.6256 153.585 20.2416 153.646Z" fill="#1551F1" stroke="black" stroke-width="1.5"/>
<path d="M18.2859 154.35L18.9694 153.784L18.2981 153.204L13.9962 149.486L13.5891 149.135L13.1254 149.407C12.436 149.813 11.6807 150.354 11.0563 151.207C10.4289 152.063 9.9673 153.187 9.7883 154.713L9.74195 155.108L10.0429 155.368L14.662 159.359L16.377 160.841L15.8882 158.646C15.888 158.645 15.8878 158.643 15.8876 158.641C15.8857 158.624 15.8824 158.585 15.8829 158.524C15.8838 158.403 15.8997 158.195 15.9735 157.902C16.1206 157.319 16.5027 156.384 17.4835 155.139L17.4906 155.13C17.4986 155.121 17.5117 155.105 17.5295 155.085C17.5651 155.044 17.6196 154.983 17.6904 154.908C17.8329 154.757 18.0377 154.555 18.2859 154.35Z" fill="#1551F1" stroke="black" stroke-width="1.5"/>
<path d="M16.5695 156.487L16.8633 155.966L16.4205 155.564C15.8171 155.015 15.2206 154.457 14.6217 153.896C13.7623 153.092 12.8979 152.282 12.001 151.492L11.4727 151.026L10.9749 151.524C10.6034 151.895 10.3472 152.436 10.1697 152.961C9.98576 153.505 9.85809 154.118 9.78856 154.711L9.74221 155.106L10.0432 155.366L14.6623 159.357L16.3604 160.824L15.8892 158.648C15.8881 158.639 15.8861 158.619 15.885 158.587C15.8825 158.518 15.8844 158.392 15.912 158.213C15.9669 157.857 16.1256 157.274 16.5695 156.487Z" fill="#1551F1" stroke="black" stroke-width="1.5"/>
</g>
<defs>
<clipPath id="clip0_3660_6589">
<rect width="57.686" height="61.6636" fill="white" transform="matrix(0.994279 -0.106816 0.106865 0.994273 291.491 242.609)"/>
</clipPath>
</defs>
</svg>
