<svg width="36" height="20" viewBox="0 0 36 20" fill="none" xmlns="http://www.w3.org/2000/svg">
<path d="M24.3018 6.34827C23.5784 6.35453 22.8544 6.35567 22.1309 6.3477C21.9659 6.34543 21.9304 6.40061 21.931 6.55082C21.9363 7.84345 21.9339 9.13609 21.9339 10.4287C21.9339 10.4913 21.9275 10.5539 21.9241 10.6159C21.9095 10.6199 21.8938 10.6244 21.8793 10.6279C21.834 10.5766 21.7916 10.5232 21.7433 10.4742C21.3773 10.1016 20.9502 9.81085 20.4679 9.60717C19.0425 9.00409 17.6014 9.0405 16.2004 9.63789C14.2794 10.4583 13.2282 11.9398 13.015 13.9766C12.8819 15.2403 13.0818 16.4544 13.8174 17.524C15.1022 19.393 16.9163 20.1838 19.1924 19.9101C20.2238 19.7861 21.1082 19.3304 21.8224 18.5794C21.8549 18.5447 21.8933 18.5157 21.9578 18.4582V19.9448C22.0095 19.9534 22.0316 19.9596 22.0536 19.9596C22.8178 19.9602 23.5819 19.9579 24.346 19.9636C24.4866 19.9642 24.4872 19.8914 24.4872 19.7918C24.4866 15.37 24.4855 10.9476 24.4895 6.52578C24.4895 6.37956 24.4395 6.346 24.3007 6.34713L24.3018 6.34827ZM21.9531 15.4644C21.587 16.5545 20.8624 17.3095 19.7136 17.5872C18.3371 17.9206 17.1331 17.5923 16.1813 16.5295C15.7141 16.0072 15.4741 15.2966 15.4758 14.5501C15.4648 12.9719 16.6345 11.8004 18.0756 11.5182C19.0222 11.3333 19.9036 11.4784 20.7148 12.0007C21.8288 12.7187 22.3709 14.2241 21.9543 15.4644H21.9531Z" fill="#010202"/>
<path d="M7.48836 6.68337C7.44478 6.56219 7.38318 6.53374 7.26232 6.53431C6.56212 6.53886 5.86076 6.53659 5.16056 6.53659C4.85898 6.53659 4.86363 6.53829 4.76484 6.81366C4.34647 7.9726 0.755983 17.8466 0.180134 19.4328C0.11854 19.6006 0.0615943 19.7707 0 19.946C0.0482295 19.9545 0.0708915 19.9619 0.0929725 19.9619C0.902996 19.9625 1.71418 19.9613 2.52479 19.9659C2.63984 19.9659 2.67064 19.9027 2.70085 19.8174C2.94432 19.1204 3.19361 18.4258 3.43185 17.7271C3.47253 17.6088 3.52947 17.5718 3.65382 17.5729C5.32152 17.5769 6.98863 17.5769 8.65633 17.5729C8.7737 17.5729 8.83007 17.6076 8.86842 17.718C9.10957 18.4155 9.36059 19.1096 9.6 19.8083C9.64009 19.9244 9.69123 19.9676 9.81906 19.9665C10.5896 19.9602 11.3589 19.9642 12.1294 19.9636C12.18 19.9636 12.2311 19.9585 12.2991 19.9539C12.2892 19.9056 12.2875 19.8834 12.2799 19.8629C11.7971 18.5339 8.06769 8.29234 7.48836 6.68451V6.68337ZM4.35693 15.1726C4.95428 13.4834 5.54465 11.8135 6.13503 10.1437C6.15188 10.1437 6.16873 10.1437 6.18558 10.1437C6.77596 11.8124 7.36633 13.4811 7.96426 15.1714H4.35576L4.35693 15.1726Z" fill="#010202"/>
<path d="M33.8445 14.3391C33.0955 13.926 32.275 13.7456 31.4505 13.5602C30.7799 13.4088 30.1088 13.2552 29.451 13.0618C28.8414 12.882 28.6514 12.2954 29.0343 11.8249C29.1668 11.6622 29.3493 11.5006 29.5434 11.4318C30.4899 11.0961 31.4144 11.1598 32.2611 11.7185C32.5284 11.8949 32.7416 12.1515 32.995 12.3859C33.6702 12.073 34.3739 11.7458 35.0839 11.417C35.0607 11.3686 35.0491 11.3362 35.0311 11.3083C34.5098 10.5271 33.8224 9.92634 32.934 9.59066C31.5533 9.06837 30.1401 9.04106 28.7322 9.48313C27.8879 9.74826 27.1761 10.221 26.7106 10.9777C26.1638 11.8642 26.1278 12.7887 26.6624 13.6887C27.09 14.409 27.8001 14.8022 28.5904 15.0178C29.4475 15.2516 30.3238 15.4172 31.1919 15.6118C31.6277 15.7091 32.0583 15.8166 32.4325 16.0726C32.6603 16.2285 32.7474 16.4367 32.7131 16.7041C32.6579 17.1331 32.397 17.4125 32.0257 17.6053C31.5853 17.8341 31.1041 17.854 30.6207 17.8272C29.6108 17.7732 28.8112 17.3544 28.2731 16.5005C28.2133 16.4054 28.1616 16.3793 28.0523 16.4299C27.6647 16.6074 27.2719 16.7764 26.882 16.9488C26.5456 17.0973 26.2091 17.2469 25.8535 17.4051C26.3957 18.4161 27.1633 19.1546 28.2284 19.5568C29.5747 20.0655 30.9658 20.1297 32.3581 19.7833C33.4267 19.5176 34.3105 18.9509 34.8573 17.9769C35.5285 16.781 35.3832 15.1873 33.8462 14.3396L33.8445 14.3391Z" fill="#010202"/>
<path d="M1.29779 3.67421C1.93059 3.67421 2.45065 3.4637 2.53374 2.89191C2.57674 2.59606 2.54537 2.40205 2.53084 2.33036C2.38325 1.61293 1.05548 1.39901 0.956698 0.997903C0.942752 0.938164 0.942171 0.877287 0.953792 0.818117C0.978198 0.708311 1.05432 0.587695 1.27339 0.587695C1.47851 0.587695 1.59763 0.711724 1.59763 0.897768V1.10998H2.47099V0.869321C2.47099 0.123438 1.78706 0.00680542 1.29256 0.00680542C0.669645 0.00680542 0.161783 0.20878 0.0688102 0.76805C0.0444049 0.921095 0.0403375 1.05764 0.0775265 1.22946C0.229769 1.92869 1.47212 2.1318 1.65283 2.57444C1.68653 2.65751 1.67607 2.76333 1.6598 2.82762C1.63133 2.94198 1.5523 3.05861 1.31929 3.05861C1.10081 3.05861 0.967739 2.93458 0.967739 2.74854V2.41684H0.0292969V2.68026C0.0292969 3.44435 0.642916 3.67478 1.3007 3.67478L1.29779 3.67421Z" fill="#010202"/>
<path d="M4.54669 0.432948H4.56645L5.03247 3.54108H5.97266L5.32766 0.115479L3.77153 0.116048L3.12305 3.54108H4.06788L4.54669 0.432948Z" fill="#010202"/>
<path d="M7.56906 0.462533H7.58824L8.1728 3.54108H9.06069L9.64467 0.463102H9.66385L9.68651 3.54108H10.5605L10.4837 0.115479L9.0572 0.116048L8.62604 2.73489H8.60628L8.17571 0.116048H6.74916L6.67188 3.54108H7.54756L7.56906 0.462533Z" fill="#010202"/>
<path d="M13.9068 2.88511C13.9498 2.58926 13.9184 2.39525 13.9039 2.32356C13.7563 1.60612 12.4285 1.3922 12.3297 0.991097C12.3158 0.931358 12.3152 0.870481 12.3268 0.811311C12.3512 0.701506 12.4274 0.58089 12.6464 0.58089C12.8516 0.58089 12.9707 0.704919 12.9707 0.890963V1.10318H13.844V0.862516C13.844 0.116633 13.1601 0 12.6656 0C12.0427 0 11.5348 0.201974 11.4419 0.761244C11.4175 0.91429 11.4134 1.05084 11.4506 1.22266C11.6028 1.92189 12.8452 2.125 13.0259 2.56764C13.0596 2.6507 13.0491 2.75652 13.0328 2.82081C13.0044 2.93517 12.9254 3.0518 12.6923 3.0518C12.4739 3.0518 12.3408 2.92778 12.3408 2.74173V2.41004H11.4023V2.67346C11.4023 3.43755 12.016 3.66797 12.6737 3.66797C13.3315 3.66797 13.8266 3.45746 13.9097 2.88567L13.9068 2.88511Z" fill="#010202"/>
<path d="M23.2632 2.11591H23.6223V2.61431C23.6223 2.65698 23.6217 2.70534 23.6136 2.74289C23.5985 2.83562 23.509 2.99208 23.2562 2.99208C23.0035 2.99208 22.9151 2.83562 22.8983 2.74346C22.8913 2.70534 22.8896 2.65698 22.8896 2.61317V1.04744C22.8896 0.991683 22.8936 0.930807 22.9041 0.88586C22.9233 0.801657 22.9976 0.636663 23.2522 0.636663C23.5195 0.636663 23.5857 0.81076 23.602 0.88586C23.613 0.935358 23.613 1.01615 23.613 1.01615V1.20788H24.4945V1.09295C24.4945 1.09295 24.4974 0.97689 24.4858 0.867654C24.4219 0.225887 23.878 0.021637 23.258 0.021637C22.6385 0.021637 22.108 0.227025 22.0302 0.868223C22.0232 0.924548 22.0156 1.03208 22.0156 1.09352V2.53409C22.0156 2.59781 22.018 2.64446 22.0278 2.75939C22.0865 3.38352 22.638 3.60597 23.258 3.60597C23.8774 3.60597 24.4312 3.38295 24.4881 2.75939C24.4992 2.64503 24.5003 2.59838 24.5003 2.53409V1.61581H23.2609V2.11421L23.2632 2.11591Z" fill="#010202"/>
<path d="M18.9758 0.723688H18.995L19.8585 3.50468H21.1037V0.116058H20.2374L20.285 2.80488H20.267L19.4622 0.116058H18.1641V3.50468H19.0235L18.9758 0.723688Z" fill="#010202"/>
<path d="M15.9587 3.64351C16.6014 3.64351 17.1174 3.43584 17.1795 2.79692C17.1848 2.72182 17.1883 2.64729 17.1883 2.57162V0.116067H16.3027V2.649C16.3027 2.69338 16.3021 2.74287 16.294 2.77985C16.2771 2.86349 16.2016 3.02734 15.9587 3.02734C15.7158 3.02734 15.6391 2.86349 15.6228 2.77985C15.6153 2.74287 15.6135 2.69337 15.6141 2.64786V0.114929H14.7286V2.57105C14.728 2.63364 14.7338 2.76222 14.7373 2.79635C14.7989 3.43584 15.3149 3.64351 15.9587 3.64351Z" fill="#010202"/>
</svg>
