<svg width="571" height="478" viewBox="0 0 571 478" fill="none" xmlns="http://www.w3.org/2000/svg">
<path d="M457.143 253.277C457.143 354.946 374.819 437.363 273.269 437.363C171.719 437.363 89.3945 354.946 89.3945 253.277C89.3945 151.608 171.719 69.1912 273.269 69.1912C374.819 69.1912 457.143 151.608 457.143 253.277Z" stroke="black" stroke-width="1.5"/>
<path d="M396.365 253.277C396.365 321.341 341.252 376.516 273.268 376.516C205.284 376.516 150.171 321.341 150.171 253.277C150.171 185.213 205.284 130.038 273.268 130.038C341.252 130.038 396.365 185.213 396.365 253.277Z" stroke="black" stroke-width="1.5"/>
<path d="M340.176 253.277C340.176 290.273 310.22 320.262 273.269 320.262C236.318 320.262 206.361 290.273 206.361 253.277C206.361 216.282 236.318 186.292 273.269 186.292C310.22 186.292 340.176 216.282 340.176 253.277Z" stroke="black" stroke-width="1.5"/>
<path fill-rule="evenodd" clip-rule="evenodd" d="M195.684 325.822C195.617 325.68 195.54 325.542 195.453 325.409C192.238 320.47 177.21 324.573 161.889 334.572C146.567 344.571 136.784 356.561 140 361.5C140.122 361.687 140.26 361.861 140.415 362.022L145.372 368.265C146.145 369.133 148.62 370.731 152.332 370.171C160.452 369.377 183.086 362.979 199.907 339.152C201.882 336.354 200.506 333.756 200.042 332.879C199.969 332.742 199.919 332.647 199.907 332.599L195.74 325.787L195.684 325.822Z" fill="black"/>
<path d="M151.113 358.957L151.094 358.959L151.074 358.962C147.649 359.478 145.432 358.008 144.8 357.314L139.597 350.682L194.35 316.358L198.083 322.46C198.1 322.502 198.116 322.535 198.126 322.555L198.126 322.556C198.153 322.611 198.186 322.673 198.217 322.732L198.233 322.761C198.295 322.878 198.366 323.014 198.444 323.174C198.611 323.521 198.799 323.972 198.919 324.494C199.157 325.522 199.143 326.844 198.149 328.252C181.476 351.869 159.059 358.18 151.113 358.957Z" fill="#F78400" stroke="black" stroke-width="1.5"/>
<path d="M193.679 315.351C194.297 316.302 194.359 317.705 193.687 319.593C193.019 321.468 191.672 323.682 189.716 326.095C185.811 330.914 179.592 336.391 171.978 341.36C164.364 346.329 156.848 349.815 150.868 351.448C147.874 352.265 145.307 352.606 143.324 352.461C141.327 352.315 140.069 351.691 139.451 350.741C138.832 349.791 138.77 348.388 139.442 346.499C140.11 344.624 141.457 342.411 143.413 339.998C147.318 335.179 153.538 329.701 161.151 324.732C168.765 319.764 176.281 316.277 182.261 314.645C185.255 313.828 187.822 313.487 189.805 313.632C191.803 313.778 193.06 314.401 193.679 315.351Z" fill="#FFC664" stroke="black" stroke-width="1.5"/>
<path d="M169.591 335.869L169.591 335.87C169.501 336.239 169.123 336.715 168.568 337.096C168.013 337.477 167.434 337.659 167.058 337.61L167.057 337.61L162.574 337.032L158.093 336.454C158.093 336.454 158.093 336.454 158.093 336.454C157.921 336.431 157.887 336.376 157.883 336.371L157.883 336.371C157.875 336.359 157.845 336.298 157.882 336.147C157.959 335.833 158.282 335.35 158.911 334.918L164.457 331.108L164.468 331.101L170.014 327.291C170.638 326.863 171.205 326.735 171.527 326.776C171.683 326.796 171.73 326.846 171.739 326.857C171.739 326.858 171.739 326.858 171.739 326.858C171.742 326.862 171.781 326.913 171.74 327.08C171.74 327.08 171.74 327.081 171.74 327.081L170.666 331.474L169.591 335.869Z" fill="#FBE62E" stroke="black"/>
<path d="M89.7659 78.9141C89.7659 81.7651 87.4576 84.0749 84.612 84.0749C81.7663 84.0749 79.458 81.7651 79.458 78.9141C79.458 76.0631 81.7663 73.7534 84.612 73.7534C87.4576 73.7534 89.7659 76.0631 89.7659 78.9141Z" fill="#FBF39B" stroke="black" stroke-width="1.5"/>
<ellipse cx="272.42" cy="253.577" rx="31.2608" ry="31.2967" fill="black"/>
<path d="M299.142 253.577C299.142 269.401 286.329 282.227 270.525 282.227C254.722 282.227 241.909 269.401 241.909 253.577C241.909 237.754 254.722 224.927 270.525 224.927C286.329 224.927 299.142 237.754 299.142 253.577Z" fill="#A041FF" stroke="black" stroke-width="1.5"/>
<path d="M270.216 234.059H273.535C278.137 234.059 281.867 237.789 281.867 242.39C281.867 246.992 278.137 250.722 273.535 250.722H270.216V234.059Z" fill="black"/>
<path d="M277.787 242.39C277.787 246.578 274.396 249.972 270.215 249.972C266.034 249.972 262.643 246.578 262.643 242.39C262.643 238.202 266.034 234.809 270.215 234.809C274.396 234.809 277.787 238.202 277.787 242.39Z" fill="white" stroke="black" stroke-width="1.5"/>
<path d="M273.545 272.21C265.556 272.21 260.23 266.656 258.565 263.879C261.203 256.617 267.109 253.794 271.049 253.047C272.081 252.851 272.854 253.047 273.545 253.047C281.534 253.047 286.861 258.88 288.525 263.879C286.028 268.045 281.534 272.21 273.545 272.21Z" fill="black"/>
<path d="M256.068 263.878C259.397 254.714 267.719 253.047 271.048 253.047C279.037 253.047 283.809 260.268 285.196 263.878C283.809 266.656 279.037 272.21 271.048 272.21C263.059 272.21 257.733 266.656 256.068 263.878Z" fill="white" stroke="black" stroke-width="1.5"/>
<path d="M10.3321 264.295C10.3321 266.849 8.2641 268.919 5.71489 268.919C3.16567 268.919 1.09766 266.849 1.09766 264.295C1.09766 261.741 3.16567 259.672 5.71489 259.672C8.2641 259.672 10.3321 261.741 10.3321 264.295Z" fill="white" stroke="black" stroke-width="1.5"/>
<path d="M184.229 230.981C184.229 232.942 182.642 234.53 180.685 234.53C178.729 234.53 177.142 232.942 177.142 230.981C177.142 229.02 178.729 227.432 180.685 227.432C182.642 227.432 184.229 229.02 184.229 230.981Z" fill="#FBF39B" stroke="black" stroke-width="1.5"/>
<path d="M289.427 88.049C289.427 90.0097 287.84 91.5977 285.884 91.5977C283.927 91.5977 282.34 90.0097 282.34 88.049C282.34 86.0882 283.927 84.5002 285.884 84.5002C287.84 84.5002 289.427 86.0882 289.427 88.049Z" fill="#FBF39B" stroke="black" stroke-width="1.5"/>
<path d="M337.732 398.092C337.732 400.35 335.905 402.178 333.652 402.178C331.399 402.178 329.571 400.35 329.571 398.092C329.571 395.835 331.399 394.006 333.652 394.006C335.905 394.006 337.732 395.835 337.732 398.092Z" fill="#CFA4FF" stroke="black" stroke-width="1.5"/>
<path d="M142.364 429.796C142.364 432.35 140.296 434.419 137.747 434.419C135.198 434.419 133.13 432.35 133.13 429.796C133.13 427.241 135.198 425.172 137.747 425.172C140.296 425.172 142.364 427.241 142.364 429.796Z" fill="#FFC664" stroke="black" stroke-width="1.5"/>
<path d="M426.829 235.28C426.829 238.427 424.28 240.978 421.138 240.978C417.996 240.978 415.447 238.427 415.447 235.28C415.447 232.132 417.996 229.582 421.138 229.582C424.28 229.582 426.829 232.132 426.829 235.28Z" fill="#FFC664" stroke="black" stroke-width="1.5"/>
<path d="M569.597 278.803C569.597 281.061 567.769 282.889 565.516 282.889C563.263 282.889 561.436 281.061 561.436 278.803C561.436 276.546 563.263 274.717 565.516 274.717C567.769 274.717 569.597 276.546 569.597 278.803Z" fill="#FECA53" stroke="black" stroke-width="1.5"/>
<path d="M469.766 77.8394C469.766 81.8774 466.496 85.1495 462.465 85.1495C458.434 85.1495 455.164 81.8774 455.164 77.8394C455.164 73.8013 458.434 70.5293 462.465 70.5293C466.496 70.5293 469.766 73.8013 469.766 77.8394Z" fill="#FECA53" stroke="black" stroke-width="1.5"/>
<ellipse cx="15.1737" cy="8.93431" rx="15.1737" ry="8.93431" transform="matrix(0.275575 0.96128 -0.96106 0.276341 449.97 204.866)" fill="#01090F"/>
<path d="M438.114 221.243C439.305 225.4 441.564 228.858 444.29 231.077C447.013 233.295 450.266 234.318 453.37 233.425C456.474 232.533 458.69 229.937 459.824 226.611C460.959 223.281 461.042 219.15 459.851 214.993C458.659 210.836 456.4 207.379 453.674 205.159C450.951 202.942 447.698 201.919 444.594 202.811C441.49 203.704 439.274 206.299 438.14 209.626C437.005 212.956 436.922 217.087 438.114 221.243Z" fill="#9BCDFB" stroke="black" stroke-width="1.5"/>
<path d="M455.207 231.337C452.978 231.977 450.449 231.165 448.128 229.109C445.815 227.06 443.799 223.843 442.678 219.931C441.556 216.019 441.56 212.221 442.436 209.255C443.315 206.279 445.028 204.247 447.257 203.606C449.487 202.965 452.016 203.777 454.337 205.833C456.65 207.882 458.665 211.099 459.787 215.011C460.908 218.923 460.904 222.722 460.029 225.687C459.15 228.663 457.436 230.696 455.207 231.337Z" fill="#DCEBFD" stroke="black" stroke-width="1.5"/>
<path d="M474.259 228.19C469.991 218.315 472.011 213.384 473.555 212.153L500.531 204.396L501 206.033C500.158 210.409 501.704 222.07 507.359 233.435C511.882 242.528 512.391 250.294 512.081 253.041L481.923 261.712C486.085 255.545 479.722 240.827 474.417 228.556L474.259 228.19Z" fill="black" stroke="black" stroke-width="0.5"/>
<path d="M476.73 226.493C472.674 217.059 474.557 212.363 476.006 211.195L502.546 203.564L502.994 205.127C502.218 209.297 503.718 220.425 509.085 231.287C513.379 239.977 513.888 247.386 513.606 250.005L485.245 258.16C489.18 252.235 481.801 238.286 476.73 226.493Z" fill="#FC7CE8" stroke="black" stroke-width="1.5"/>
<rect x="0.514113" y="-0.928216" width="5.29344" height="61.0621" rx="2.64672" transform="matrix(0.275575 0.96128 -0.96106 0.276341 506.93 197.885)" fill="#D9D9D9" stroke="black" stroke-width="1.5"/>
<path d="M510.04 207.111C506.559 208.112 502.926 206.099 501.927 202.612C500.927 199.126 502.94 195.489 506.422 194.488C509.903 193.487 513.536 195.5 514.536 198.987C515.535 202.473 513.522 206.11 510.04 207.111Z" fill="#FBF39B" stroke="black" stroke-width="1.5"/>
<path d="M519.274 240.137C519.167 240.172 519.054 240.207 518.937 240.239C513.509 241.982 512.943 246.738 513.353 248.94C511.849 243.692 507.104 243.636 504.92 244.264C510.152 242.76 510.273 238.232 509.554 235.595C509.471 235.367 509.394 235.13 509.324 234.883C509.406 235.099 509.484 235.338 509.554 235.595C511.465 240.878 516.355 240.958 518.937 240.239C519.047 240.204 519.16 240.17 519.274 240.137Z" fill="#FFBF00" stroke="black" stroke-width="1.5"/>
<path d="M267 24.1053C263.746 25.2 261.712 28.4912 261.102 30C260.207 27.6421 257.746 25.3684 255 24.1053C258.092 22.6737 259.983 20.3158 261.102 18C261.997 20.9474 265.407 23.2982 267 24.1053Z" fill="#FFBF00" stroke="black" stroke-width="1.5"/>
<path d="M104.334 123.668C114.671 119.233 138.446 101.936 150.85 68.2286C166.356 26.0945 215.087 20.1809 214.349 85.9693C213.61 151.758 242.406 227.156 319.195 201.284C395.984 175.412 421.088 10.5718 356.113 1.7015C304.132 -5.39477 279.324 43.0961 273.417 68.2286" stroke="black" stroke-width="1.5" stroke-dasharray="3 6"/>
<path d="M105.713 130.925V122.067L42.001 171L41.5703 173.735L105.713 130.925Z" fill="black"/>
<path d="M133.73 156.02L159.501 141.258H151.425L44.5205 171.52L133.73 156.02Z" fill="#DCEBFD" stroke="black" stroke-width="1.5"/>
<path d="M101.475 111.007L104.845 121.803L42.9427 171.667L45.1759 163.867L91.3417 111.007H101.475Z" fill="#DCEBFD" stroke="black" stroke-width="1.5"/>
<mask id="path-36-inside-1_3630_48470" fill="white">
<path fill-rule="evenodd" clip-rule="evenodd" d="M41.5703 173.735V173.735L41.5707 173.735L205.244 131.662L123.407 116.162L41.5711 173.734L102.027 110.257L54.1039 95.4949L41.5703 173.735Z"/>
</mask>
<path fill-rule="evenodd" clip-rule="evenodd" d="M41.5703 173.735V173.735L41.5707 173.735L205.244 131.662L123.407 116.162L41.5711 173.734L102.027 110.257L54.1039 95.4949L41.5703 173.735Z" fill="white"/>
<path d="M41.5703 173.735H40.0703V177.504L42.6601 174.766L41.5703 173.735ZM41.5703 173.735L40.0892 173.498L40.0703 173.616V173.735H41.5703ZM41.5707 173.735L41.1972 172.282L40.7782 172.39L40.4809 172.704L41.5707 173.735ZM205.244 131.662L205.618 133.115L205.524 130.189L205.244 131.662ZM123.407 116.162L123.687 114.688L123.063 114.57L122.544 114.935L123.407 116.162ZM41.5711 173.734L40.4849 172.7L42.4342 174.961L41.5711 173.734ZM102.027 110.257L103.113 111.292L104.784 109.537L102.468 108.824L102.027 110.257ZM54.1039 95.4949L54.5455 94.0613L52.8958 93.5532L52.6228 95.2576L54.1039 95.4949ZM43.0703 173.735V173.735H40.0703V173.735H43.0703ZM40.4809 172.704L40.4806 172.704L42.6601 174.766L42.6604 174.766L40.4809 172.704ZM204.871 130.21L41.1972 172.282L41.9441 175.188L205.618 133.115L204.871 130.21ZM123.128 117.636L204.965 133.136L205.524 130.189L123.687 114.688L123.128 117.636ZM42.4342 174.961L124.27 117.389L122.544 114.935L40.708 172.508L42.4342 174.961ZM100.94 109.223L40.4849 172.7L42.6573 174.769L103.113 111.292L100.94 109.223ZM53.6623 96.9284L101.585 111.691L102.468 108.824L54.5455 94.0613L53.6623 96.9284ZM43.0514 173.972L55.585 95.7321L52.6228 95.2576L40.0892 173.498L43.0514 173.972Z" fill="black" mask="url(#path-36-inside-1_3630_48470)"/>
<path d="M392.289 417.739C365.888 404.186 305.685 369.593 305.685 316.955C305.685 251.158 390.068 224.236 421.897 259.721C453.725 295.206 430.779 340.304 330.112 334.39C287.18 330.447 201.317 324.143 201.317 399.256C201.317 493.146 305.685 497.582 305.685 436.221" stroke="black" stroke-width="1.5" stroke-dasharray="4 6"/>
<path d="M389.755 416.785L396.39 413.833L445.787 458.12L417.034 438.191L389.755 416.785Z" fill="black"/>
<path d="M433.64 453.659L391.654 445.628L386.301 438.487L387.498 438.23L433.64 453.659Z" fill="#DCEBFD" stroke="black" stroke-width="1.5"/>
<path d="M444.237 455.725L397.213 413.565L399.218 404.196L403.669 403.784L443.327 452.862L444.237 455.725Z" fill="#DCEBFD" stroke="black" stroke-width="1.5"/>
<mask id="path-42-inside-2_3630_48470" fill="white">
<path fill-rule="evenodd" clip-rule="evenodd" d="M398.602 403.5L439.151 393.166L445.787 458.12L398.602 403.5ZM445.787 458.12L309.392 416.047L379.432 407.696L445.787 458.12Z"/>
</mask>
<path fill-rule="evenodd" clip-rule="evenodd" d="M398.602 403.5L439.151 393.166L445.787 458.12L398.602 403.5ZM445.787 458.12L309.392 416.047L379.432 407.696L445.787 458.12Z" fill="white"/>
<path d="M439.151 393.166L440.644 393.014L440.467 391.283L438.781 391.712L439.151 393.166ZM398.602 403.5L398.231 402.046L395.881 402.645L397.466 404.48L398.602 403.5ZM445.787 458.12L445.345 459.553L447.509 460.221L447.279 457.968L445.787 458.12ZM309.392 416.047L309.214 414.558L308.949 417.481L309.392 416.047ZM379.432 407.696L380.34 406.502L379.857 406.135L379.255 406.207L379.432 407.696ZM438.781 391.712L398.231 402.046L398.972 404.953L439.522 394.62L438.781 391.712ZM447.279 457.968L440.644 393.014L437.659 393.318L444.295 458.272L447.279 457.968ZM397.466 404.48L444.652 459.101L446.922 457.139L399.737 402.519L397.466 404.48ZM308.949 417.481L445.345 459.553L446.229 456.687L309.834 414.614L308.949 417.481ZM379.255 406.207L309.214 414.558L309.569 417.537L379.61 409.185L379.255 406.207ZM446.694 456.926L380.34 406.502L378.525 408.89L444.879 459.314L446.694 456.926Z" fill="black" mask="url(#path-42-inside-2_3630_48470)"/>
<path d="M398.738 277.191C398.744 277.346 398.747 277.507 398.745 277.674C398.99 285.463 405.146 287.999 408.256 288.289C400.642 288.289 398.738 294.503 398.738 297.61C398.738 290.167 392.716 288.303 388.903 288.255C388.567 288.277 388.219 288.289 387.86 288.289C388.182 288.262 388.532 288.25 388.903 288.255C396.722 287.733 398.714 281.338 398.745 277.674C398.74 277.515 398.738 277.354 398.738 277.191Z" fill="#FFBF00" stroke="black" stroke-width="1.5"/>
<path d="M201.923 99.4101L161.022 78.1774L158.49 84.1959C158.221 84.9664 158.086 87.0145 159.705 89.0433C162.98 93.6331 174.684 104.95 195.124 106.627C197.9 106.855 198.974 104.49 199.159 104.314L201.923 99.4101Z" fill="black"/>
<path d="M161.853 84.672L161.845 84.6614L161.837 84.6512C160.309 82.7184 160.43 80.8272 160.637 80.1871L162.886 74.6271L203.231 96.2354L200.786 100.704C200.766 100.729 200.751 100.751 200.742 100.764L200.742 100.764C200.718 100.8 200.692 100.841 200.667 100.881L200.654 100.901C200.604 100.98 200.546 101.072 200.475 101.177C200.32 101.403 200.108 101.678 199.828 101.938C199.277 102.45 198.454 102.91 197.231 102.793C176.882 100.849 165.127 89.2871 161.853 84.672Z" fill="#F78400" stroke="black"/>
<path d="M203.598 95.4973C203.227 96.2235 202.377 96.758 200.979 97.0093C199.59 97.2589 197.755 97.2086 195.587 96.8549C191.256 96.1485 185.709 94.2511 179.985 91.3184C174.261 88.3856 169.479 84.9912 166.374 81.8877C164.819 80.3339 163.705 78.8736 163.095 77.5999C162.48 76.3174 162.417 75.3149 162.788 74.5887C163.159 73.8626 164.009 73.3281 165.407 73.0768C166.796 72.8272 168.63 72.8774 170.798 73.2311C175.129 73.9376 180.676 75.8349 186.401 78.7677C192.125 81.7005 196.907 85.0949 200.012 88.1984C201.567 89.7522 202.681 91.2125 203.291 92.4862C203.905 93.7686 203.969 94.7712 203.598 95.4973Z" fill="#FFC664" stroke="black"/>
<mask id="mask0_3630_48470" style="mask-type:luminance" maskUnits="userSpaceOnUse" x="327" y="30" width="98" height="78">
<path d="M327.847 41.4443L416.85 30.9775L424.59 96.9494L335.587 107.416L327.847 41.4443Z" fill="white"/>
</mask>
<g mask="url(#mask0_3630_48470)">
<g style="mix-blend-mode:multiply">
<path d="M337.562 106.603C337.562 106.603 340.146 101.211 340.149 101.208C340.164 101.175 340.266 101.183 340.397 101.209L344.811 92.8024L344.956 92.8104C344.956 92.8104 344.966 92.8008 344.971 92.7947C344.868 92.7956 344.81 92.7996 344.81 92.7996L348.942 89.2067L399.253 45.827L404.434 41.2809C405.632 40.3829 405.219 40.6103 405.782 40.3038C407.674 39.2655 409.74 39.3829 411.416 40.3733C411.431 40.3827 411.443 40.3924 411.458 40.3991C411.608 40.4904 411.753 40.5879 411.899 40.6909C411.938 40.7198 411.978 40.7487 412.015 40.7779C412.131 40.8676 412.248 40.9628 412.36 41.0614C412.404 41.101 412.45 41.1402 412.494 41.1798C412.6 41.279 412.705 41.3869 412.804 41.4954C412.842 41.5384 412.883 41.5783 412.921 41.6212C413.056 41.773 413.186 41.9337 413.309 42.1009C415.49 45.094 414.844 48.7939 412.575 50.6059L410.551 52.4364L403.81 58.2641C403.81 58.2641 403.809 58.2586 403.809 58.2558L352.012 102.978C352.025 102.943 352.029 102.906 352.039 102.872C351.619 103.167 351.151 103.398 350.643 103.561L350.579 103.583C350.525 103.6 350.474 103.612 350.42 103.627L343.419 105.607C343.417 105.632 343.42 105.657 343.417 105.685L338.241 107.073C338.241 107.073 337.449 107.396 337.565 106.605L337.562 106.603Z" fill="#000002"/>
</g>
<path d="M347.902 98.398L347.884 98.4039L347.884 98.4039L347.871 98.4078C347.792 98.4325 347.711 98.4553 347.63 98.4762L347.63 98.476L347.617 98.4796L335.552 101.894L342.661 88.3574C342.705 88.2864 342.778 88.2133 342.869 88.1476C342.964 88.0799 343.052 88.0395 343.086 88.0271L343.937 87.7164L343.87 87.6645C346.14 86.8237 348.569 87.738 350.062 89.7859L350.062 89.7859C352.545 93.1928 351.051 97.3923 347.902 98.398ZM335.466 102.086C335.466 102.086 335.466 102.085 335.466 102.084L335.466 102.086Z" fill="#F0C2B8" stroke="black"/>
<path d="M339.458 93.8464C339.335 94.2259 334.977 101.914 334.977 101.914L334.979 101.913C334.863 102.704 335.655 102.381 335.655 102.381L343.387 100.202C343.967 96.5622 340.302 93.6746 339.458 93.8464Z" fill="#030303"/>
<path d="M343.428 87.7328C343.649 87.7823 343.894 87.8509 344.158 87.9453C345.307 88.3568 346.788 89.2509 348.234 91.1522L348.238 91.1585L347.836 91.4549C348.238 91.1585 348.238 91.1583 348.238 91.1585L348.239 91.1601L348.242 91.1631L348.249 91.1728L348.273 91.2074C348.294 91.2371 348.324 91.2799 348.361 91.3348C348.434 91.4446 348.537 91.6033 348.656 91.8034C348.894 92.203 349.2 92.7715 349.474 93.4491C349.872 94.4341 350.216 95.6868 350.151 96.9991L407.525 47.2499C407.636 46.0803 407.419 44.1998 406.392 42.4117C405.346 40.591 403.448 38.8432 400.137 38.0449L346.686 84.8995L346.685 84.9008L343.428 87.7328Z" fill="#009E00"/>
<path d="M348.238 91.1585L348.234 91.1522C346.788 89.2509 345.307 88.3568 344.158 87.9453C343.894 87.8509 343.649 87.7823 343.428 87.7328L346.685 84.9008L346.686 84.8995L400.137 38.0449C403.448 38.8432 405.346 40.591 406.392 42.4117C407.419 44.1998 407.636 46.0803 407.525 47.2499L350.151 96.9991C350.216 95.6868 349.872 94.4341 349.474 93.4491C349.2 92.7715 348.894 92.203 348.656 91.8034C348.537 91.6033 348.434 91.4446 348.361 91.3348C348.324 91.2799 348.294 91.2371 348.273 91.2074L348.249 91.1728L348.242 91.1631L348.239 91.1601L348.238 91.1585ZM348.238 91.1585L347.836 91.4549C348.238 91.1585 348.238 91.1583 348.238 91.1585Z" stroke="black"/>
<path d="M349.305 93.048C349.771 94.0889 350.227 95.5074 350.152 97.0017L401.095 53.0127C400.734 51.7083 400.266 50.4555 399.677 49.2792C399.166 48.2588 398.563 47.2959 397.856 46.4087L347.261 90.0185C347.585 90.3493 347.909 90.7242 348.233 91.1491L348.238 91.1553L347.835 91.452C348.238 91.1553 348.237 91.1553 348.238 91.1553L348.239 91.1567L348.24 91.1592L348.246 91.1673L348.267 91.1957C348.284 91.22 348.308 91.2549 348.339 91.2998C348.4 91.3896 348.485 91.5194 348.586 91.6839C348.787 92.0124 349.051 92.4818 349.305 93.048Z" fill="#00FF00"/>
<path d="M348.238 91.1553L348.233 91.1491C347.909 90.7242 347.585 90.3493 347.261 90.0185L397.856 46.4087C398.563 47.2959 399.166 48.2588 399.677 49.2792C400.266 50.4555 400.734 51.7083 401.095 53.0127L350.152 97.0017C350.227 95.5074 349.771 94.0889 349.305 93.048C349.051 92.4818 348.787 92.0124 348.586 91.6839C348.485 91.5194 348.4 91.3896 348.339 91.2998C348.308 91.2549 348.284 91.22 348.267 91.1957L348.246 91.1673L348.24 91.1592L348.239 91.1567L348.238 91.1553ZM348.238 91.1553L347.835 91.452C348.238 91.1553 348.237 91.1553 348.238 91.1553Z" stroke="black"/>
<path d="M411 36.4999C407.8 32.4999 403.167 35.6662 401 37.9995C406.2 39.5995 408.167 43.9995 408.5 45.9996C410.833 44.3329 414.2 40.4999 411 36.4999Z" fill="#F1C966" stroke="black" stroke-width="1.5"/>
<path d="M350.152 97.0017L401.095 53.0127C400.793 51.9209 400.416 50.8653 399.956 49.8604L349.452 93.3918C349.861 94.3909 350.219 95.666 350.152 97.0017Z" fill="#009E00" stroke="black"/>
<path d="M393.05 44.4974L391.471 44.653L392.676 43.6202L399.675 37.6203L399.837 37.4819L400.048 37.5021L400.001 37.9999C400.048 37.5021 400.048 37.5021 400.048 37.5021L400.05 37.5022L400.052 37.5025L400.058 37.5031L400.079 37.5054C400.096 37.5073 400.12 37.5102 400.15 37.5143C400.211 37.5224 400.298 37.5353 400.407 37.5547C400.625 37.5935 400.934 37.6585 401.305 37.7644C402.048 37.9759 403.048 38.3524 404.083 39.0143C406.169 40.3485 408.358 42.8206 408.886 47.3179L408.917 47.5812L408.716 47.7546L401.545 53.9514L400.401 54.9394L400.729 53.4697L400.73 53.4643C400.731 53.4554 400.734 53.4379 400.737 53.4118C400.742 53.3595 400.749 53.2727 400.748 53.1523C400.746 52.9118 400.715 52.535 400.587 52.0293C400.332 51.0187 399.69 49.481 398.114 47.4819L398.109 47.4759L398.088 47.4506C398.07 47.4278 398.041 47.3935 398.003 47.3493C397.928 47.2608 397.816 47.1331 397.672 46.98C397.385 46.6732 396.974 46.2682 396.483 45.873C395.475 45.0627 394.234 44.3807 393.05 44.4974Z" fill="#143CA8"/>
<path d="M400.048 37.5021L399.837 37.4819L399.675 37.6203L392.676 43.6202L391.471 44.653L393.05 44.4974C394.234 44.3807 395.475 45.0627 396.483 45.873C396.974 46.2682 397.385 46.6732 397.672 46.98C397.816 47.1331 397.928 47.2608 398.003 47.3493C398.041 47.3935 398.07 47.4278 398.088 47.4506L398.109 47.4759L398.114 47.4819C399.69 49.481 400.332 51.0187 400.587 52.0293C400.715 52.535 400.746 52.9118 400.748 53.1523C400.749 53.2727 400.742 53.3595 400.737 53.4118C400.734 53.4379 400.731 53.4554 400.73 53.4643L400.729 53.4697L400.401 54.9394L401.545 53.9514L408.716 47.7546L408.917 47.5812L408.886 47.3179C408.358 42.8206 406.169 40.3485 404.083 39.0143C403.048 38.3524 402.048 37.9759 401.305 37.7644C400.934 37.6585 400.625 37.5935 400.407 37.5547C400.298 37.5353 400.211 37.5224 400.15 37.5143C400.12 37.5102 400.096 37.5073 400.079 37.5054L400.058 37.5031L400.052 37.5025L400.05 37.5022L400.048 37.5021ZM400.048 37.5021L400.001 37.9999C400.048 37.5021 400.048 37.5021 400.048 37.5021Z" stroke="black"/>
<path d="M396.775 46.1646L396.339 45.8035L396.752 45.4152L403.386 39.1725L403.659 38.9155L403.982 39.1057C406.105 40.3554 408.35 42.7588 408.885 47.3181L408.916 47.5814L408.715 47.7548L401.544 53.9516L400.401 54.9396L400.728 53.4699L400.729 53.4645C400.73 53.4556 400.733 53.4381 400.736 53.412C400.741 53.3597 400.748 53.2729 400.747 53.1525C400.745 52.912 400.714 52.5352 400.586 52.0295C400.331 51.0194 399.69 49.4828 398.115 47.4852L398.113 47.4821L398.096 47.4625C398.081 47.4447 398.059 47.4177 398.028 47.3826C397.967 47.3124 397.876 47.2103 397.759 47.0864C397.524 46.8381 397.186 46.5046 396.775 46.1646Z" fill="#1551F1" stroke="black"/>
<path d="M400.694 52.5745C400.743 52.8944 400.749 53.1309 400.743 53.2801C400.753 53.6042 400.526 54.513 400.411 54.9269L401.543 53.9486L408.715 47.7518L408.915 47.5784L408.884 47.3151C408.687 45.6308 408.117 44.5483 407.568 43.507L407.568 43.5068C407.526 43.4271 407.484 43.3476 407.443 43.2681L407.148 42.7031L406.669 43.1247C405.607 44.0612 404.567 44.9208 403.525 45.7819L403.519 45.787L403.185 46.0631C402.031 47.0176 400.873 47.9827 399.695 49.0536L399.399 49.3218L399.595 49.6692C400.321 50.9559 400.596 51.9356 400.694 52.5745Z" stroke="black"/>
<path d="M401.405 56.1864C403.744 54.0617 406.149 52.0102 408.519 49.9209C409.108 51.0475 409.562 52.4275 409.762 54.1362L402.591 60.3331C402.591 60.3331 401.195 59.9649 401.405 56.1864Z" fill="black"/>
</g>
<g clip-path="url(#clip0_3630_48470)">
<mask id="mask1_3630_48470" style="mask-type:luminance" maskUnits="userSpaceOnUse" x="10" y="191" width="122" height="125">
<path d="M75.7759 315.388L10.498 239.614L66.6753 191.244L131.953 267.018L75.7759 315.388Z" fill="white"/>
</mask>
<g mask="url(#mask1_3630_48470)">
<g style="mix-blend-mode:multiply">
<path d="M129.967 265.7C129.967 265.7 123.366 266.678 123.362 266.678C123.322 266.684 123.266 266.585 123.208 266.448L112.676 267.617L112.593 267.477C112.593 267.477 112.577 267.474 112.569 267.473C112.634 267.568 112.674 267.619 112.674 267.619L106.77 266.042L35.223 246.611L27.7822 244.66C26.2033 244.113 26.6718 244.353 26.0368 244.024C23.8947 242.923 22.7125 240.938 22.5816 238.77C22.581 238.75 22.5823 238.733 22.5793 238.715C22.57 238.519 22.5695 238.324 22.5737 238.125C22.5757 238.07 22.5777 238.016 22.5817 237.963C22.592 237.8 22.6069 237.632 22.6283 237.467C22.6376 237.402 22.6449 237.335 22.6542 237.269C22.6796 237.109 22.714 236.945 22.7525 236.786C22.7682 236.723 22.7796 236.66 22.7952 236.598C22.8515 236.379 22.9187 236.158 22.9967 235.94C24.4024 232.053 28.228 230.34 31.3212 231.306L34.2783 232.034L43.879 234.628C43.879 234.628 43.8743 234.633 43.8719 234.635L117.589 254.6C117.548 254.611 117.512 254.63 117.473 254.642C118.008 254.846 118.515 255.135 118.983 255.502L119.043 255.548C119.092 255.587 119.135 255.627 119.183 255.668L125.387 260.905C125.412 260.892 125.433 260.874 125.461 260.858L129.978 264.778C129.978 264.778 130.771 265.309 129.967 265.696L129.967 265.7Z" fill="#000002"/>
</g>
<path d="M115.955 261.217L115.974 261.231L115.974 261.231L115.984 261.239C116.057 261.298 116.13 261.359 116.201 261.422L116.201 261.422L116.211 261.431L126.936 270.483L126.957 270.501L126.977 270.514L126.977 270.514C126.977 270.514 126.977 270.514 126.978 270.514L126.989 270.522C126.995 270.528 127.004 270.534 127.014 270.543L109.912 272.439C109.809 272.444 109.687 272.42 109.563 272.374C109.437 272.327 109.34 272.269 109.303 272.242L108.569 271.711L108.563 271.804C106.276 270.225 105.57 267.339 106.551 264.625L106.551 264.625C108.162 260.168 113.023 258.905 115.955 261.217Z" fill="#F0C2B8" stroke="black"/>
<path d="M116.985 271.915C117.413 271.791 127.245 271.02 127.245 271.02L127.243 271.017C128.047 270.631 127.254 270.1 127.254 270.1L120.408 264.311C116.68 266.048 116.299 271.241 116.985 271.915Z" fill="#030303"/>
<path d="M108.851 272.063C108.759 271.827 108.669 271.558 108.592 271.255C108.255 269.936 108.156 268.007 109.011 265.482L109.014 265.474L109.54 265.661C109.014 265.474 109.014 265.474 109.014 265.474L109.015 265.472L109.016 265.468L109.021 265.456L109.038 265.411C109.052 265.373 109.073 265.319 109.101 265.251C109.156 265.114 109.239 264.92 109.35 264.685C109.571 264.215 109.905 263.577 110.361 262.9C111.023 261.917 111.967 260.816 113.221 260.057L31.3712 238.073C30.2202 238.7 28.6171 240.077 27.6049 242.143C26.5744 244.248 26.1432 247.094 27.4734 250.655L104.195 270.819L104.198 270.82L108.851 272.063Z" fill="#A041FF"/>
<path d="M109.014 265.474L109.011 265.482C108.156 268.007 108.255 269.936 108.592 271.255C108.669 271.558 108.759 271.827 108.851 272.063L104.198 270.82L104.195 270.819L27.4734 250.655C26.1432 247.094 26.5744 244.248 27.6049 242.143C28.6171 240.077 30.2202 238.7 31.3712 238.073L113.221 260.057C111.967 260.816 111.023 261.917 110.361 262.9C109.905 263.577 109.571 264.215 109.35 264.685C109.239 264.92 109.156 265.114 109.101 265.251C109.073 265.319 109.052 265.373 109.038 265.411L109.021 265.456L109.016 265.468L109.015 265.472L109.014 265.474ZM109.014 265.474L109.54 265.661C109.014 265.474 109.014 265.474 109.014 265.474Z" stroke="black"/>
<path d="M110.096 263.307C110.767 262.226 111.794 260.918 113.223 260.054L40.718 240.42C39.7368 241.568 38.8706 242.783 38.1505 244.063C37.5266 245.173 37.0125 246.332 36.6333 247.54L108.571 267.09C108.674 266.584 108.818 266.049 109.009 265.485L109.012 265.477L109.538 265.663C109.012 265.477 109.012 265.477 109.012 265.477L109.013 265.475L109.014 265.471L109.018 265.461L109.031 265.424C109.043 265.393 109.06 265.349 109.082 265.293C109.127 265.18 109.194 265.02 109.283 264.824C109.462 264.433 109.731 263.896 110.096 263.307Z" fill="#CFA4FF"/>
<path d="M109.012 265.477L109.009 265.485C108.818 266.049 108.674 266.584 108.571 267.09L36.6333 247.54C37.0125 246.332 37.5266 245.173 38.1505 244.063C38.8706 242.783 39.7368 241.568 40.718 240.42L113.223 260.054C111.794 260.918 110.767 262.226 110.096 263.307C109.731 263.896 109.462 264.433 109.283 264.824C109.194 265.02 109.127 265.18 109.082 265.293C109.06 265.349 109.043 265.393 109.031 265.424L109.018 265.461L109.014 265.471L109.013 265.475L109.012 265.477ZM109.012 265.477L109.538 265.663C109.012 265.477 109.012 265.477 109.012 265.477Z" stroke="black"/>
<path d="M19.2585 241.574C17.5585 247.033 23.3809 249.339 26.8921 249.886C25.1236 244.077 27.9642 239.509 29.6058 237.952C26.6067 236.835 20.9586 236.115 19.2585 241.574Z" fill="#F1C966" stroke="black" stroke-width="1.5"/>
<path d="M113.223 260.054L40.718 240.419C39.8967 241.38 39.156 242.388 38.5141 243.442L110.322 262.956C110.99 261.953 111.946 260.826 113.223 260.054Z" fill="#A041FF" stroke="black"/>
<path d="M37.8688 253.179L38.9992 254.543L37.2913 254.073L27.37 251.348L27.1413 251.285L27.0277 251.077L27.5178 250.81C27.0277 251.077 27.0279 251.077 27.0277 251.077L27.0269 251.076L27.0258 251.073L27.0225 251.067L27.0118 251.047C27.0029 251.03 26.9906 251.006 26.9754 250.975C26.9449 250.914 26.9026 250.826 26.8523 250.712C26.7519 250.486 26.6192 250.16 26.4849 249.75C26.2169 248.932 25.9403 247.772 25.9059 246.401C25.8367 243.638 26.7553 240.069 30.5849 236.772L30.8091 236.579L31.0948 236.656L41.3056 239.417L42.9335 239.858L41.3698 240.473L41.3642 240.475C41.3551 240.48 41.3372 240.488 41.3113 240.502C41.2593 240.529 41.1751 240.577 41.0643 240.654C40.8431 240.806 40.5142 241.07 40.1262 241.504C39.3508 242.371 38.3298 243.925 37.4657 246.632L37.4632 246.64L37.4527 246.675C37.4432 246.707 37.4293 246.754 37.412 246.817C37.3773 246.942 37.3292 247.125 37.2773 247.354C37.1732 247.811 37.055 248.444 36.9964 249.145C36.8764 250.583 37.021 252.157 37.8688 253.179Z" fill="#1B1B1B"/>
<path d="M27.0277 251.077L27.1413 251.285L27.37 251.348L37.2913 254.073L38.9992 254.543L37.8688 253.179C37.021 252.157 36.8764 250.583 36.9964 249.145C37.055 248.444 37.1732 247.811 37.2773 247.354C37.3292 247.125 37.3773 246.942 37.412 246.817C37.4293 246.754 37.4432 246.707 37.4527 246.675L37.4632 246.64L37.4657 246.632C38.3298 243.925 39.3508 242.371 40.1262 241.504C40.5142 241.07 40.8431 240.806 41.0643 240.654C41.1751 240.577 41.2593 240.529 41.3113 240.502C41.3372 240.488 41.3551 240.48 41.3642 240.475L41.3698 240.473L42.9335 239.858L41.3056 239.417L31.0948 236.656L30.8091 236.579L30.5849 236.772C26.7553 240.069 25.8367 243.638 25.9059 246.401C25.9403 247.772 26.2169 248.932 26.4849 249.75C26.6192 250.16 26.7519 250.486 26.8523 250.712C26.9026 250.826 26.9449 250.914 26.9754 250.975C26.9906 251.006 27.0029 251.03 27.0118 251.047L27.0225 251.067L27.0258 251.073L27.0269 251.076L27.0277 251.077ZM27.0277 251.077L27.5178 250.81C27.0277 251.077 27.0279 251.077 27.0277 251.077Z" stroke="black"/>
<path d="M37.0828 248.692L37.0215 249.321L36.4046 249.182L26.4871 246.946L26.0788 246.854L26.0528 246.437C25.882 243.692 26.7026 240.115 30.585 236.772L30.8092 236.579L31.0949 236.656L41.3057 239.417L42.9336 239.858L41.3699 240.473L41.3644 240.475C41.3552 240.48 41.3373 240.488 41.3114 240.502C41.2595 240.529 41.1752 240.577 41.0644 240.654C40.8431 240.805 40.5143 241.07 40.1263 241.504C39.3513 242.37 38.331 243.924 37.4672 246.628L37.466 246.632L37.4579 246.659C37.4508 246.684 37.4401 246.722 37.4267 246.772C37.3998 246.872 37.3622 247.02 37.3208 247.206C37.2379 247.578 37.1405 248.099 37.0828 248.692Z" fill="#494949" stroke="black"/>
<path d="M40.5628 241.064C40.8279 240.818 41.0433 240.666 41.1846 240.577C41.4781 240.365 42.4605 240.008 42.9151 239.856L41.3031 239.42L31.0924 236.658L30.8066 236.581L30.5824 236.774C29.1482 238.009 28.5032 239.213 27.8827 240.37L27.8826 240.37C27.8351 240.459 27.7877 240.547 27.7402 240.636L27.4021 241.262L28.0909 241.441C29.6204 241.838 31.0652 242.263 32.5124 242.689L32.521 242.691L32.985 242.828C34.5886 243.299 36.2043 243.766 37.9309 244.187L38.3633 244.293L38.5622 243.895C39.2991 242.42 40.0334 241.554 40.5628 241.064Z" stroke="black"/>
<path d="M43.4587 238.149C40.0332 237.314 36.6335 236.371 33.2207 235.485C33.8947 234.236 34.8872 232.954 36.3422 231.701L46.5531 234.462C46.5531 234.462 47.0848 235.984 43.4587 238.149Z" fill="black"/>
</g>
</g>
<path d="M92.662 337.505C88.5866 338.878 86.0394 343.004 85.2753 344.896C84.1545 341.94 81.0725 339.089 77.6338 337.505C81.5055 335.71 83.8743 332.754 85.2753 329.851C86.396 333.546 90.6668 336.493 92.662 337.505Z" fill="#FFBF00" stroke="black" stroke-width="1.5"/>
<path d="M262.267 158.6C257.318 160.267 254.225 165.278 253.297 167.575C251.937 163.985 248.194 160.524 244.019 158.6C248.72 156.421 251.596 152.831 253.297 149.305C254.658 153.793 259.844 157.372 262.267 158.6Z" fill="#CFA4FF" stroke="black" stroke-width="1.5"/>
<defs>
<clipPath id="clip0_3630_48470">
<rect width="109.371" height="87.0505" fill="white" transform="translate(65.7207 323.32) rotate(-124.037)"/>
</clipPath>
</defs>
</svg>
