<svg width="20" height="20" viewBox="0 0 20 20" fill="none" xmlns="http://www.w3.org/2000/svg">
<path d="M16.717 13.6283C14.2926 12.4547 13.9062 10.6427 13.889 10.5083C13.8682 10.3455 13.8446 10.2175 14.0242 10.0519C14.1974 9.89189 14.9658 9.41629 15.179 9.26749C15.5314 9.02109 15.6866 8.77509 15.5722 8.47269C15.4922 8.26349 15.2974 8.18469 15.0922 8.18469C15.0275 8.18489 14.963 8.19213 14.8998 8.20629C14.5126 8.29029 14.1366 8.48429 13.919 8.53669C13.8929 8.54343 13.866 8.54706 13.839 8.54749C13.723 8.54749 13.679 8.49589 13.6902 8.35629C13.7174 7.93309 13.775 7.10709 13.7082 6.33549C13.6166 5.27389 13.2742 4.74789 12.8682 4.28269C12.6718 4.05709 11.7598 3.08789 9.9998 3.08789C8.2398 3.08789 7.329 4.05709 7.1338 4.27989C6.7266 4.74509 6.3846 5.27109 6.2938 6.33269C6.227 7.10429 6.287 7.92989 6.3118 8.35349C6.3198 8.48629 6.279 8.54469 6.163 8.54469C6.136 8.54423 6.10915 8.5406 6.083 8.53389C5.8658 8.48149 5.4898 8.28749 5.1026 8.20349C5.03944 8.18933 4.97492 8.18209 4.9102 8.18189C4.7042 8.18189 4.5102 8.26189 4.4302 8.46989C4.3158 8.77229 4.4702 9.01829 4.8238 9.26469C5.037 9.41349 5.8054 9.88869 5.9786 10.0491C6.1578 10.2147 6.1346 10.3427 6.1138 10.5055C6.0966 10.6419 5.7098 12.4539 3.2858 13.6255C3.1438 13.6943 2.9022 13.8399 3.3282 14.0751C3.997 14.4447 4.4422 14.4051 4.7882 14.6279C5.0818 14.8171 4.9082 15.2251 5.1218 15.3723C5.3842 15.5535 6.1598 15.3595 7.1618 15.6903C8.0018 15.9671 8.5122 16.7491 10.0018 16.7491C11.4914 16.7491 12.0166 15.9635 12.8418 15.6903C13.8418 15.3595 14.619 15.5535 14.8818 15.3723C15.095 15.2251 14.9218 14.8171 15.2154 14.6279C15.5614 14.4051 16.0062 14.4447 16.6754 14.0751C17.1006 13.8427 16.859 13.6971 16.717 13.6283Z" fill="white"/>
<path d="M17.7717 13.4905C17.6629 13.1945 17.4557 13.0361 17.2197 12.9049C17.1753 12.8789 17.1345 12.8581 17.0997 12.8421C17.0293 12.8057 16.9573 12.7705 16.8857 12.7333C16.1501 12.3433 15.5757 11.8513 15.1773 11.2681C15.0641 11.1039 14.966 10.9299 14.8841 10.7481C14.8501 10.6509 14.8517 10.5957 14.8761 10.5453C14.9003 10.5065 14.9323 10.4731 14.9701 10.4473C15.0965 10.3637 15.2269 10.2789 15.3153 10.2217C15.4729 10.1197 15.5977 10.0389 15.6781 9.98169C15.9801 9.77049 16.1913 9.54609 16.3233 9.29529C16.4154 9.12201 16.4691 8.93094 16.4808 8.73505C16.4924 8.53917 16.4618 8.34307 16.3909 8.16009C16.1909 7.63369 15.6937 7.30689 15.0913 7.30689C14.9642 7.30677 14.8375 7.32018 14.7133 7.34689C14.6801 7.35409 14.6469 7.36169 14.6145 7.37009C14.6201 7.01009 14.6121 6.63009 14.5801 6.25609C14.4665 4.94129 14.0061 4.25209 13.5261 3.70249C13.2187 3.35809 12.8567 3.06671 12.4545 2.84009C11.7261 2.42409 10.9001 2.21289 9.99969 2.21289C9.09929 2.21289 8.27729 2.42409 7.54809 2.84009C7.14493 3.06678 6.78215 3.35874 6.47449 3.70409C5.99449 4.25369 5.53409 4.94409 5.42049 6.25769C5.38849 6.63169 5.38049 7.01369 5.38569 7.37169C5.35329 7.36329 5.32049 7.35569 5.28729 7.34849C5.16307 7.32178 5.03635 7.30837 4.90929 7.30849C4.30649 7.30849 3.80849 7.63529 3.60929 8.16169C3.53809 8.34475 3.50713 8.54099 3.51852 8.73708C3.5299 8.93317 3.58337 9.12451 3.67529 9.29809C3.80769 9.54889 4.01889 9.77329 4.32089 9.98449C4.40089 10.0405 4.52609 10.1213 4.68369 10.2245C4.76889 10.2797 4.89329 10.3605 5.01529 10.4413C5.05797 10.4689 5.09425 10.5053 5.12169 10.5481C5.14729 10.6005 5.14809 10.6569 5.11009 10.7609C5.02926 10.9388 4.93275 11.1093 4.82169 11.2701C4.43209 11.8401 3.87449 12.3233 3.16249 12.7101C2.78529 12.9101 2.39329 13.0437 2.22769 13.4937C2.10289 13.8333 2.18449 14.2197 2.50169 14.5453C2.6181 14.6668 2.75313 14.769 2.90169 14.8481C3.2108 15.018 3.5395 15.1495 3.88049 15.2397C3.95086 15.2578 4.01766 15.2877 4.07809 15.3281C4.19369 15.4293 4.17729 15.5817 4.33129 15.8049C4.40859 15.9202 4.50682 16.0201 4.62089 16.0993C4.94409 16.3225 5.30729 16.3365 5.69209 16.3513C6.03969 16.3645 6.43369 16.3797 6.88369 16.5281C7.07009 16.5897 7.26369 16.7089 7.48809 16.8481C8.02689 17.1793 8.76449 17.6325 9.99889 17.6325C11.2333 17.6325 11.9761 17.1769 12.5189 16.8445C12.7417 16.7077 12.9341 16.5897 13.1153 16.5297C13.5653 16.3809 13.9593 16.3661 14.3069 16.3529C14.6917 16.3381 15.0549 16.3241 15.3781 16.1009C15.5132 16.0067 15.6257 15.8837 15.7077 15.7409C15.8185 15.5525 15.8157 15.4209 15.9197 15.3289C15.9764 15.2904 16.0391 15.2618 16.1053 15.2441C16.4509 15.1536 16.7841 15.0209 17.0973 14.8489C17.2551 14.7642 17.3972 14.653 17.5173 14.5201L17.5213 14.5153C17.8189 14.1969 17.8937 13.8217 17.7717 13.4905ZM16.6745 14.0801C16.0053 14.4497 15.5605 14.4101 15.2145 14.6329C14.9205 14.8221 15.0945 15.2301 14.8809 15.3773C14.6185 15.5585 13.8429 15.3645 12.8409 15.6953C12.0145 15.9685 11.4873 16.7541 10.0009 16.7541C8.51449 16.7541 7.99969 15.9701 7.15969 15.6933C6.15969 15.3625 5.38249 15.5565 5.11969 15.3753C4.90649 15.2281 5.07969 14.8201 4.78609 14.6309C4.43969 14.4081 3.99489 14.4477 3.32609 14.0801C2.90009 13.8449 3.14169 13.6993 3.28369 13.6305C5.70769 12.4569 6.09449 10.6449 6.11169 10.5105C6.13249 10.3477 6.15569 10.2197 5.97649 10.0541C5.80329 9.89409 5.03489 9.41849 4.82169 9.26969C4.46889 9.02329 4.31369 8.77729 4.42809 8.47489C4.50809 8.26569 4.70329 8.18689 4.90809 8.18689C4.97282 8.18709 5.03733 8.19433 5.10049 8.20849C5.48769 8.29249 5.86369 8.48649 6.08089 8.53889C6.10704 8.5456 6.13389 8.54923 6.16089 8.54969C6.27689 8.54969 6.31769 8.49129 6.30969 8.35849C6.28489 7.93489 6.22489 7.10929 6.29169 6.33769C6.38329 5.27609 6.72529 4.75009 7.13169 4.28489C7.32689 4.06129 8.24409 3.09209 9.99809 3.09209C11.7521 3.09209 12.6717 4.05729 12.8669 4.28009C13.2737 4.74529 13.6161 5.27129 13.7069 6.33289C13.7737 7.10449 13.7161 7.93049 13.6889 8.35369C13.6797 8.49329 13.7217 8.54489 13.8377 8.54489C13.8647 8.54446 13.8915 8.54083 13.9177 8.53409C14.1353 8.48169 14.5113 8.28769 14.8985 8.20369C14.9616 8.18953 15.0262 8.18229 15.0909 8.18209C15.2969 8.18209 15.4909 8.26209 15.5709 8.47009C15.6853 8.77249 15.5309 9.01849 15.1777 9.26489C14.9645 9.41369 14.1961 9.88889 14.0229 10.0493C13.8433 10.2149 13.8669 10.3429 13.8877 10.5057C13.9049 10.6421 14.2913 12.4541 16.7157 13.6257C16.8589 13.6973 17.1005 13.8429 16.6745 14.0801Z" fill="black"/>
</svg>
