<svg width="138" height="138" viewBox="0 0 138 138" fill="none" xmlns="http://www.w3.org/2000/svg">
<path fill-rule="evenodd" clip-rule="evenodd" d="M135.875 67.9194C135.875 105.435 105.472 135.867 67.9374 135.867C30.4026 135.867 0 105.444 0 67.9194C0 30.3945 30.4026 0 67.9374 0C105.472 0 135.875 30.4041 135.875 67.9194ZM128.408 67.9098C128.408 101.325 101.34 128.412 67.954 128.412H67.9374C34.5519 128.412 7.46681 101.306 7.46681 67.9194C7.46681 34.5332 34.5519 7.46482 67.9374 7.46482C101.323 7.46482 128.408 34.4949 128.408 67.9098ZM47.6752 69.3083L59.2419 80.875L92.1752 47.975C93.4752 46.675 95.5753 46.675 96.8753 47.975C98.1752 49.275 98.1752 51.375 96.8753 52.675L61.6086 87.9417C60.3086 89.2417 58.2086 89.2417 56.9086 87.9417L42.9752 74.0083C41.6752 72.7083 41.6752 70.6083 42.9752 69.3083C44.2752 68.0083 46.3752 68.0083 47.6752 69.3083Z" fill="#A041FF"/>
</svg>
