<svg width="20" height="20" viewBox="0 0 20 20" fill="none" xmlns="http://www.w3.org/2000/svg">
<path d="M6.77517 13.1657V16.2187C4.51689 15.0465 2.98047 12.6955 2.98047 9.98025C2.98047 8.98687 3.18577 8.03985 3.56325 7.18555H6.4308C5.82815 7.95376 5.46391 8.92727 5.46391 9.98025C5.46391 11.2187 5.9606 12.3445 6.76855 13.1657H6.77517Z" fill="#0C0C27"/>
<path d="M17.02 9.9806C17.02 13.8614 13.8743 17.0005 10.0001 17.0005C9.57629 17.0005 9.16569 16.9607 8.76172 16.8879V14.3382C9.15245 14.4508 9.56967 14.5104 10.0001 14.5104C12.5034 14.5104 14.5366 12.4773 14.5366 9.97398C14.5366 8.72894 14.0332 7.59649 13.2187 6.78192V3.74219C15.477 4.90775 17.02 7.26537 17.02 9.98722V9.9806Z" fill="#0C0C27"/>
<path d="M6.07227 3V5.48344H8.76101V10.8543H11.2511V3H6.07227Z" fill="#0C0C27"/>
</svg>
