<svg width="20" height="20" viewBox="0 0 20 20" fill="none" xmlns="http://www.w3.org/2000/svg">
<path d="M8.43747 8.31514V7.67528C8.22042 7.64503 8.00157 7.62953 7.78242 7.62891C5.10772 7.62891 2.93164 9.80367 2.93164 12.4792C2.93177 13.2589 3.12 14.0271 3.48035 14.7186C3.84071 15.41 4.36255 16.0044 5.0016 16.4511C4.19432 15.5844 3.71482 14.4231 3.71482 13.1481C3.71335 11.8849 4.20699 10.6713 5.08987 9.76785C5.97274 8.86436 7.17453 8.34283 8.43747 8.31514Z" fill="#25F4EE"/>
<path d="M8.55175 15.3803C9.74525 15.3803 10.7357 14.415 10.7789 13.2318L10.7826 2.68518L12.6953 2.66894C12.6543 2.44832 12.6335 2.22441 12.6332 2H9.99915L9.99495 12.5628C9.98204 12.9369 9.87436 13.3015 9.68201 13.6226C9.48966 13.9436 9.21893 14.2106 8.89522 14.3984C8.5715 14.5862 8.20539 14.6888 7.8312 14.6965C7.45702 14.7041 7.08701 14.6167 6.75586 14.4423C7.15858 14.9991 7.81259 15.3803 8.55175 15.3803Z" fill="#25F4EE"/>
<path d="M16.3015 6.2727V5.66796C15.5924 5.66842 14.8984 5.46208 14.3047 5.07422C14.8167 5.66219 15.5129 6.1037 16.3015 6.2727Z" fill="#25F4EE"/>
<path d="M14.3024 5.07422C13.7207 4.40836 13.4004 3.55407 13.4008 2.66992H12.6934C12.7849 3.1587 12.9748 3.6238 13.2513 4.03707C13.5279 4.45035 13.8855 4.80318 14.3024 5.07422Z" fill="#FE2C55"/>
<path d="M7.78183 10.2636C7.286 10.263 6.80431 10.4288 6.41389 10.7344C6.02348 11.0401 5.74692 11.4679 5.62852 11.9494C5.51012 12.4308 5.55672 12.9381 5.76087 13.39C5.96501 13.8418 6.31488 14.2121 6.75445 14.4415C6.51551 14.1111 6.37258 13.721 6.34145 13.3144C6.31031 12.9078 6.39218 12.5006 6.57802 12.1376C6.76385 11.7746 7.04641 11.4701 7.39448 11.2577C7.74254 11.0452 8.14256 10.9332 8.55033 10.9338C8.77214 10.9341 8.99261 10.9683 9.20407 11.0352V8.3443C8.98748 8.31375 8.76907 8.29791 8.55033 8.29688C8.51208 8.29688 8.47409 8.29897 8.43583 8.29976V10.366C8.22431 10.2988 8.00377 10.2643 7.78183 10.2636Z" fill="#FE2C55"/>
<path d="M16.3 6.25391V8.30238C14.9843 8.30394 13.7015 7.89143 12.6333 7.12329V12.4792C12.6333 15.1542 10.4569 17.3305 7.78199 17.3305C6.78678 17.3313 5.81571 17.0241 5.00195 16.4512C5.45493 16.9396 6.00391 17.3293 6.61449 17.5956C7.22506 17.862 7.88408 17.9994 8.55023 17.9992C11.2252 17.9992 13.4015 15.8245 13.4015 13.1482V7.79196C14.4698 8.55999 15.7526 8.97249 17.0682 8.97106V6.33539C16.81 6.33529 16.5525 6.30798 16.3 6.25391Z" fill="#FE2C55"/>
<path d="M12.6323 12.4805V7.12426C13.7005 7.8924 14.9833 8.30491 16.299 8.30335V6.25514C15.5231 6.08789 14.8225 5.67351 14.3021 5.07422C13.8854 4.80305 13.5281 4.45016 13.2518 4.03689C12.9754 3.62363 12.7858 3.15859 12.6944 2.66992H10.7649L10.7607 13.2327C10.7444 13.694 10.5843 14.1387 10.3026 14.5043C10.0209 14.87 9.63188 15.1384 9.19 15.2718C8.74813 15.4052 8.27559 15.397 7.83861 15.2483C7.40163 15.0997 7.02214 14.818 6.75333 14.4427C6.31376 14.2133 5.96389 13.8431 5.75974 13.3912C5.5556 12.9394 5.509 12.4321 5.6274 11.9506C5.7458 11.4691 6.02236 11.0413 6.41277 10.7356C6.80319 10.43 7.28488 10.2642 7.78071 10.2648C8.003 10.2654 8.2239 10.3 8.43576 10.3673V8.301C5.81372 8.36231 3.69922 10.5127 3.69922 13.1484C3.6981 14.375 4.16345 15.5562 5.00094 16.4524C5.81462 17.0253 6.78559 17.3325 7.78071 17.3318C10.4559 17.3318 12.6323 15.1554 12.6323 12.4805Z" fill="black"/>
</svg>
