<svg width="277" height="369" viewBox="0 0 277 369" fill="none" xmlns="http://www.w3.org/2000/svg">
<path d="M254.598 288.217C254.598 310.114 240.53 330.047 217.553 344.545C194.586 359.036 162.811 368.024 127.674 368.024C92.5372 368.024 60.7622 359.036 37.7951 344.545C14.8183 330.047 0.75 310.114 0.75 288.217C0.75 266.32 14.8183 246.387 37.7951 231.889C60.7622 217.398 92.5372 208.41 127.674 208.41C162.811 208.41 194.586 217.398 217.553 231.889C240.53 246.387 254.598 266.32 254.598 288.217Z" fill="#F2EEEB" stroke="black" stroke-width="1.5"/>
<path d="M76.3719 251.911C79.1138 251.008 80.9418 251.347 83.2266 252.476L174.622 304.416C178.621 306.674 179.62 308.932 177.478 310.626C175.811 311.945 172.337 311.379 170.624 310.626C140.159 293.125 78.5426 258.912 75.8007 257.557C72.3734 255.863 72.9446 253.04 76.3719 251.911Z" fill="black"/>
<rect x="110.277" y="239.811" width="2.16366" height="17.9015" rx="1.08183" fill="black"/>
<rect x="120.785" y="250.341" width="2.10163" height="18.9545" rx="1.05081" fill="black"/>
<rect x="133.395" y="253.5" width="2.10163" height="17.9015" rx="1.05081" fill="black"/>
<path d="M85.0644 214.266L94.3081 210.342C90.2326 207.907 86.9028 202.538 86.9176 198.408L77.6739 202.331C77.6591 206.462 80.9889 211.831 85.0644 214.266Z" fill="#333333"/>
<path d="M165.487 262.268L174.731 258.344L94.3136 210.348L85.0625 214.265L165.487 262.268Z" fill="#333333"/>
<path d="M177.455 260.328C176.104 260.918 176.798 259.58 174.724 258.35L165.48 262.273C167.547 263.51 169.43 263.76 170.781 263.17C173.557 261.995 174.679 261.508 177.455 260.328Z" fill="#333333"/>
<path d="M170.76 263.181L180.004 259.257C181.34 258.692 179.59 258.401 179.597 256.345L172.923 259.187C172.923 261.237 172.089 262.615 170.752 263.18L170.76 263.181Z" fill="#333333"/>
<path d="M77.6738 202.331L86.9175 198.414L87.4122 50.5263L78.1685 54.4501L77.6738 202.331Z" fill="#333333"/>
<path d="M87.4107 50.5266C87.4107 48.4898 85.6609 48.2057 86.9751 47.6316L80.3008 50.4735C78.9866 51.0476 78.1671 52.4136 78.1597 54.4498C80.9357 53.2755 84.6347 51.7074 87.4033 50.526L87.4107 50.5266Z" fill="#333333"/>
<path d="M87.0132 47.6159L80.3389 50.4578C81.69 49.8869 83.5579 50.1424 85.6104 51.3643L92.2848 48.5223C90.2323 47.294 88.3643 47.0385 87.0132 47.6159Z" fill="#333333"/>
<path d="M172.922 259.188L179.596 256.346L180.091 108.464L173.417 111.3L172.922 259.188Z" fill="#333333"/>
<path d="M166.026 99.3658L172.7 96.5238L92.2832 48.5281L85.6089 51.3635L166.026 99.3658Z" fill="#F3EADA" stroke="#111010" stroke-miterlimit="10"/>
<path d="M173.417 111.299L180.092 108.457C180.106 104.327 176.777 98.9577 172.701 96.5232L166.027 99.3652C170.102 101.8 173.432 107.168 173.417 111.299Z" fill="#F3EADA" stroke="#111010" stroke-miterlimit="10"/>
<path d="M84.3765 43.3171C86.0672 42.6004 88.4003 42.9229 90.9623 44.4563L174.045 94.0467C179.139 97.0915 183.296 103.802 183.281 108.961L182.779 259.653C182.772 262.216 181.73 263.933 180.069 264.64L173.395 267.482C175.064 266.776 176.097 265.058 176.105 262.495L176.607 111.803C176.621 106.644 172.465 99.9269 167.37 96.8886L84.2879 47.2918C81.726 45.7583 79.3929 45.4423 77.7021 46.1525L84.3765 43.3106V43.3171Z" fill="black"/>
<mask id="mask0_2883_64470" style="mask-type:luminance" maskUnits="userSpaceOnUse" x="116" y="42" width="107" height="225">
<path d="M123.418 42.5414C125.109 41.8248 127.442 42.1472 130.004 43.6807L213.087 93.271C218.181 96.3158 222.338 103.026 222.323 108.185L221.821 258.877C221.814 261.44 220.772 263.158 219.111 263.864L212.437 266.706C214.106 266 215.139 264.282 215.147 261.719L215.649 111.027C215.663 105.868 211.507 99.1513 206.412 96.113L123.33 46.5161C120.768 44.9827 118.435 44.6667 116.744 45.3769L123.418 42.5349V42.5414Z" fill="white"/>
</mask>
<g mask="url(#mask0_2883_64470)">
<path d="M116.744 45.3502L125.117 41.8248L116.744 41.0879V45.3502Z" fill="#CDE3E3"/>
</g>
<path d="M84.3765 43.3171C86.0672 42.6004 88.4003 42.9229 90.9623 44.4563L174.045 94.0467C179.139 97.0915 183.296 103.802 183.281 108.961L182.779 259.653C182.772 262.216 181.73 263.933 180.069 264.64L173.395 267.482C175.064 266.776 176.097 265.058 176.105 262.495L176.607 111.803C176.621 106.644 172.465 99.9269 167.37 96.8886L84.2879 47.2918C81.726 45.7583 79.3929 45.4423 77.7021 46.1525L84.3765 43.3106V43.3171Z" stroke="black" stroke-miterlimit="10"/>
<path d="M167.371 96.8813C172.465 99.9261 176.622 106.637 176.607 111.796L176.105 262.487C176.09 267.646 171.904 269.38 166.809 266.341L83.7271 216.751C78.6327 213.706 74.476 206.996 74.4908 201.837L74.9928 51.1451C75.0076 45.9861 79.1938 44.2527 84.2882 47.291L167.371 96.8813Z" fill="#CFA4FF" stroke="#111010" stroke-width="1.5" stroke-miterlimit="10"/>
<path d="M159.303 104.092C163.583 106.649 167.076 112.283 167.063 116.614L166.641 243.127C166.629 247.458 163.112 248.913 158.831 246.362L89.0251 204.724C84.7448 202.167 81.2523 196.533 81.2647 192.202L81.6865 65.6889C81.6989 61.3577 85.2162 59.9026 89.4965 62.4537L159.303 104.092Z" fill="white" stroke="#111010" stroke-width="1.5" stroke-miterlimit="10"/>
<ellipse cx="19.1761" cy="8.02735" rx="19.1761" ry="8.02735" transform="matrix(0.926943 0.375298 0 1 112.527 180.157)" fill="black"/>
<path d="M140.401 196.402L144.74 149.634L144.573 149.386L138.064 152.072L129.135 149.9L119.12 145.395L108.772 135.523L112.862 186.064L117.869 193.142L134.058 200.599L140.401 196.402Z" fill="white" stroke="black" stroke-width="1.5"/>
<path d="M136.059 198.703L139.063 152.116L142.902 151.145L139.063 197.394L136.059 198.703Z" fill="#FC8EEC" stroke="black" stroke-width="1.5"/>
<path d="M117.45 191.981L114.779 142.735L119.953 146.183L120.788 193.783L117.45 191.981Z" fill="#FC8EEC" stroke="black" stroke-width="1.5"/>
<path d="M112.736 187.367L114.12 187.79L111.217 137.818L111.191 137.378L110.834 137.04L108.164 134.516L107.009 133.424L107.162 134.87L112.736 187.367Z" fill="#FC8EEC" stroke="black" stroke-width="1.5"/>
<path d="M127.13 197.252V150.351L132.388 152.119L131.053 198.84L127.13 197.252Z" fill="#FC8EEC" stroke="black" stroke-width="1.5"/>
<path d="M145.546 146.082C145.546 149.137 143.548 151.237 140.028 151.999C136.527 152.757 131.644 152.15 126.213 149.951C120.782 147.752 115.899 144.406 112.398 140.812C108.878 137.2 106.88 133.482 106.88 130.427C106.88 130.253 106.869 129.936 106.856 129.575C106.846 129.283 106.835 128.963 106.828 128.663C106.82 128.311 106.816 127.971 106.822 127.691C106.828 127.388 106.846 127.224 106.859 127.174C107.481 124.761 109.717 123.545 113.2 123.49C116.666 123.435 121.229 124.539 126.213 126.557C131.195 128.574 135.757 131.187 139.222 134.07C142.706 136.967 144.944 140.017 145.567 142.936C145.58 142.998 145.598 143.172 145.604 143.47C145.61 143.746 145.607 144.071 145.598 144.405C145.591 144.684 145.58 144.982 145.57 145.254C145.557 145.6 145.546 145.906 145.546 146.082Z" fill="#FC8EEC" stroke="black" stroke-width="1.5"/>
<ellipse cx="17.6456" cy="8.02735" rx="17.6456" ry="8.02735" transform="matrix(0.926943 0.375298 0 1 110.19 122.748)" fill="white"/>
<path d="M135.865 144.146C135.865 145.44 134.971 146.411 133.194 146.745C131.443 147.074 128.975 146.74 126.212 145.622C123.449 144.503 120.981 142.838 119.229 141.091C117.453 139.318 116.559 137.623 116.559 136.33L116.559 133.571L116.559 132.17C116.696 132.198 116.855 132.231 117.033 132.269C117.682 132.405 118.588 132.604 119.621 132.854C121.695 133.357 124.239 134.056 126.212 134.855C128.27 135.688 130.826 136.967 132.882 138.047C133.907 138.585 134.802 139.071 135.441 139.422C135.598 139.509 135.74 139.587 135.865 139.656V139.663V139.672V139.682V139.692V139.701V139.711V139.721V139.731V139.741V139.751V139.761V139.771V139.781V139.791V139.802V139.812V139.822V139.833V139.843V139.854V139.864V139.875V139.885V139.896V139.907V139.917V139.928V139.939V139.95V139.961V139.972V139.983V139.994V140.005V140.016V140.028V140.039V140.05V140.062V140.073V140.084V140.096V140.107V140.119V140.13V140.142V140.154V140.165V140.177V140.189V140.201V140.213V140.224V140.236V140.248V140.26V140.272V140.284V140.297V140.309V140.321V140.333V140.345V140.358V140.37V140.382V140.395V140.407V140.419V140.432V140.444V140.457V140.47V140.482V140.495V140.507V140.52V140.533V140.546V140.558V140.571V140.584V140.597V140.61V140.623V140.635V140.648V140.661V140.674V140.687V140.7V140.714V140.727V140.74V140.753V140.766V140.779V140.792V140.806V140.819V140.832V140.845V140.859V140.872V140.885V140.899V140.912V140.926V140.939V140.952V140.966V140.979V140.993V141.006V141.02V141.034V141.047V141.061V141.074V141.088V141.101V141.115V141.129V141.142V141.156V141.17V141.183V141.197V141.211V141.225V141.238V141.252V141.266V141.28V141.293V141.307V141.321V141.335V141.349V141.362V141.376V141.39V141.404V141.418V141.432V141.445V141.459V141.473V141.487V141.501V141.515V141.529V141.543V141.556V141.57V141.584V141.598V141.612V141.626V141.64V141.654V141.668V141.681V141.695V141.709V141.723V141.737V141.751V141.765V141.779V141.793V141.807V141.82V141.834V141.848V141.862V141.876V141.89V141.904V141.917V141.931V141.945V141.959V141.973V141.987V142V142.014V142.028V142.042V142.055V142.069V142.083V142.097V142.11V142.124V142.138V142.152V142.165V142.179V142.193V142.206V142.22V142.233V142.247V142.261V142.274V142.288V142.301V142.315V142.328V142.342V142.355V142.369V142.382V142.396V142.409V142.422V142.436V142.449V142.462V142.476V142.489V142.502V142.516V142.529V142.542V142.555V142.568V142.581V142.595V142.608V142.621V142.634V142.647V142.66V142.673V142.686V142.699V142.711V142.724V142.737V142.75V142.763V142.776V142.788V142.801V142.814V142.826V142.839V142.851V142.864V142.877V142.889V142.902V142.914V142.926V142.939V142.951V142.963V142.976V142.988V143V143.012V143.024V143.036V143.049V143.061V143.073V143.084V143.096V143.108V143.12V143.132V143.144V143.155V143.167V143.179V143.19V143.202V143.214V143.225V143.236V143.248V143.259V143.271V143.282V143.293V143.304V143.315V143.327V143.338V143.349V143.36V143.371V143.382V143.392V143.403V143.414V143.425V143.435V143.446V143.457V143.467V143.478V143.488V143.498V143.509V143.519V143.529V143.539V143.55V143.56V143.57V143.58V143.59V143.599V143.609V143.619V143.629V143.638V143.648V143.658V143.667V143.676V143.686V143.695V143.705V143.714V143.723V143.732V143.741V143.75V143.759V143.768V143.777V143.785V143.794V143.803V143.811V143.82V143.828V143.837V143.845V143.853V143.862V143.87V143.878V143.886V143.894V143.902V143.91V143.917V143.925V143.933V143.94V143.948V143.955V143.963V143.97V143.977V143.984V143.992V143.999V144.006V144.012V144.019V144.026V144.033V144.039V144.046V144.052V144.059V144.065V144.072V144.078V144.084V144.09V144.096V144.102V144.108V144.113V144.119V144.125V144.13V144.136V144.141V144.146Z" fill="#FC8EEC" stroke="black" stroke-width="1.5"/>
<mask id="path-31-inside-1_2883_64470" fill="white">
<path fill-rule="evenodd" clip-rule="evenodd" d="M126.213 147.455C137.274 151.934 146.241 149.992 146.241 143.117C146.241 136.243 137.274 127.04 126.213 122.561C115.152 118.083 106.185 120.025 106.185 126.899C106.185 133.774 115.152 142.977 126.213 147.455ZM126.214 143.848C134.049 147.02 140.401 145.635 140.401 140.753C140.401 135.871 134.049 129.342 126.214 126.17C118.379 122.998 112.027 124.383 112.027 129.265C112.027 134.147 118.379 140.676 126.214 143.848Z"/>
</mask>
<path fill-rule="evenodd" clip-rule="evenodd" d="M126.213 147.455C137.274 151.934 146.241 149.992 146.241 143.117C146.241 136.243 137.274 127.04 126.213 122.561C115.152 118.083 106.185 120.025 106.185 126.899C106.185 133.774 115.152 142.977 126.213 147.455ZM126.214 143.848C134.049 147.02 140.401 145.635 140.401 140.753C140.401 135.871 134.049 129.342 126.214 126.17C118.379 122.998 112.027 124.383 112.027 129.265C112.027 134.147 118.379 140.676 126.214 143.848Z" fill="white"/>
<path d="M126.214 126.17V124.67V126.17ZM144.851 142.554C144.851 145.227 143.096 147.223 139.681 147.963C136.303 148.694 131.545 148.114 126.213 145.955V148.955C131.943 151.275 137.198 151.963 141.069 151.124C144.903 150.294 147.632 147.882 147.632 143.68L144.851 142.554ZM126.213 124.061C131.545 126.22 136.303 129.493 139.681 132.96C143.096 136.465 144.851 139.882 144.851 142.554L147.632 143.68C147.632 139.479 144.903 134.857 141.069 130.922C137.198 126.949 131.943 123.381 126.213 121.061V124.061ZM107.575 127.462C107.575 124.79 109.33 122.793 112.745 122.054C116.123 121.322 120.881 121.903 126.213 124.061V121.061C120.483 118.742 115.228 118.054 111.357 118.892C107.523 119.723 104.794 122.135 104.794 126.336L107.575 127.462ZM126.213 145.955C120.881 143.797 116.123 140.524 112.745 137.057C109.33 133.552 107.575 130.135 107.575 127.462L104.794 126.336C104.794 130.538 107.523 135.16 111.357 139.094C115.228 143.067 120.483 146.635 126.213 148.955V145.955ZM139.01 140.19C139.01 141.868 137.907 143.226 135.55 143.74C133.23 144.247 129.932 143.853 126.214 142.348V145.348C130.331 147.015 134.127 147.515 136.941 146.901C139.719 146.295 141.791 144.519 141.791 141.316L139.01 140.19ZM126.214 127.67C129.932 129.175 133.23 131.453 135.55 133.838C137.907 136.261 139.01 138.512 139.01 140.19L141.791 141.316C141.791 138.112 139.719 134.658 136.941 131.803C134.127 128.91 130.331 126.337 126.214 124.67V127.67ZM113.418 129.828C113.418 128.15 114.521 126.792 116.878 126.278C119.198 125.771 122.496 126.165 126.214 127.67V124.67C122.097 123.003 118.301 122.503 115.487 123.117C112.71 123.723 110.637 125.499 110.637 128.702L113.418 129.828ZM126.214 142.348C122.496 140.843 119.198 138.565 116.878 136.18C114.521 133.757 113.418 131.506 113.418 129.828L110.637 128.702C110.637 131.906 112.71 135.36 115.487 138.215C118.301 141.108 122.097 143.681 126.214 145.348V142.348Z" fill="black" mask="url(#path-31-inside-1_2883_64470)"/>
<mask id="path-33-inside-2_2883_64470" fill="white">
<path fill-rule="evenodd" clip-rule="evenodd" d="M140.328 143.968C140.891 143.134 141.198 142.113 141.198 140.919C141.198 135.365 134.554 128.172 126.359 124.854C118.163 121.536 111.52 123.349 111.52 128.903C111.52 129.942 111.752 131.038 112.184 132.156C113.206 128.314 119.098 127.435 126.214 130.316C133.561 133.291 139.603 139.217 140.328 143.968Z"/>
</mask>
<path fill-rule="evenodd" clip-rule="evenodd" d="M140.328 143.968C140.891 143.134 141.198 142.113 141.198 140.919C141.198 135.365 134.554 128.172 126.359 124.854C118.163 121.536 111.52 123.349 111.52 128.903C111.52 129.942 111.752 131.038 112.184 132.156C113.206 128.314 119.098 127.435 126.214 130.316C133.561 133.291 139.603 139.217 140.328 143.968Z" fill="#FC8EEC"/>
<path d="M140.328 143.968L138.958 143.673L139.623 148.033L141.534 145.202L140.328 143.968ZM112.184 132.156L110.937 132.315L112.592 136.601L113.53 133.077L112.184 132.156ZM139.808 140.356C139.808 141.263 139.576 142.06 139.121 142.735L141.534 145.202C142.206 144.208 142.589 142.963 142.589 141.482L139.808 140.356ZM126.359 126.354C130.236 127.924 133.681 130.387 136.112 133.019C138.562 135.671 139.808 138.279 139.808 140.356L142.589 141.482C142.589 138.005 140.512 134.24 137.591 131.077C134.652 127.895 130.677 125.103 126.359 123.354V126.354ZM112.91 129.466C112.91 127.389 114.156 125.789 116.605 125.121C119.037 124.458 122.481 124.784 126.359 126.354V123.354C122.041 121.606 118.066 121.18 115.126 121.982C112.205 122.779 110.129 124.863 110.129 128.34L112.91 129.466ZM113.43 131.996C113.086 131.104 112.91 130.257 112.91 129.466L110.129 128.34C110.129 129.627 110.418 130.972 110.937 132.315L113.43 131.996ZM113.53 133.077C113.9 131.685 115.232 130.622 117.537 130.308C119.808 129.998 122.841 130.451 126.214 131.816V128.816C122.471 127.301 119 126.752 116.29 127.122C113.614 127.487 111.489 128.785 110.838 131.235L113.53 133.077ZM126.214 131.816C129.697 133.226 132.816 135.317 135.108 137.542C137.435 139.803 138.701 141.985 138.958 143.673L141.697 144.264C141.23 141.2 139.112 138.043 136.4 135.409C133.652 132.74 130.077 130.38 126.214 128.816V131.816Z" fill="black" mask="url(#path-33-inside-2_2883_64470)"/>
<path d="M135.865 139.096C135.865 140.39 134.971 141.361 133.194 141.695C131.442 142.024 128.975 141.69 126.212 140.571C123.448 139.453 120.981 137.788 119.229 136.041C117.452 134.268 116.559 132.573 116.559 131.28C116.559 129.987 117.452 129.015 119.229 128.682C120.981 128.353 123.448 128.686 126.212 129.805C128.975 130.924 131.442 132.588 133.194 134.336C134.971 136.108 135.865 137.803 135.865 139.096Z" fill="white" stroke="black" stroke-width="1.5"/>
<path d="M124.668 106.446L128.004 107.796V134.837C128.004 135.831 127.257 136.334 126.336 135.961C125.415 135.588 124.668 134.48 124.668 133.486V106.446Z" fill="#5BF6D6" stroke="black" stroke-width="1.5" stroke-linejoin="round"/>
<ellipse cx="2.42717" cy="1.53824" rx="2.42717" ry="1.53824" transform="matrix(0.926943 0.375298 0 1 124.11 104.708)" fill="black"/>
<mask id="path-38-inside-3_2883_64470" fill="white">
<path fill-rule="evenodd" clip-rule="evenodd" d="M140.731 193.107C140.578 197.894 134.211 199.218 126.38 196.047C118.453 192.837 112.026 186.238 112.026 181.306C112.026 181.215 112.029 181.124 112.033 181.035C112.029 181.036 112.026 181.036 112.026 181.036V181.306V185.816C112.026 190.748 118.453 197.347 126.38 200.557C134.307 203.767 140.734 202.371 140.734 197.439V193.11C140.734 193.11 140.733 193.109 140.731 193.107Z"/>
</mask>
<path fill-rule="evenodd" clip-rule="evenodd" d="M140.731 193.107C140.578 197.894 134.211 199.218 126.38 196.047C118.453 192.837 112.026 186.238 112.026 181.306C112.026 181.215 112.029 181.124 112.033 181.035C112.029 181.036 112.026 181.036 112.026 181.036V181.306V185.816C112.026 190.748 118.453 197.347 126.38 200.557C134.307 203.767 140.734 202.371 140.734 197.439V193.11C140.734 193.11 140.733 193.109 140.731 193.107Z" fill="#FC8EEC"/>
<path d="M140.731 193.107L141.403 192.066L139.419 190.079L139.341 192.493L140.731 193.107ZM112.033 181.035L113.422 181.676L113.543 179.206L111.434 179.439L112.033 181.035ZM112.026 181.036L111.424 179.44L110.636 179.53V180.473L112.026 181.036ZM140.734 193.11L142.124 193.673V192.791L141.41 192.073L140.734 193.11ZM139.341 192.493C139.288 194.153 138.134 195.488 135.75 195.978C133.403 196.461 130.098 196.052 126.38 194.547V197.547C130.493 199.212 134.287 199.727 137.12 199.144C139.915 198.569 142.02 196.847 142.121 193.721L139.341 192.493ZM126.38 194.547C122.616 193.023 119.276 190.718 116.925 188.304C114.537 185.852 113.417 183.571 113.417 181.869L110.636 180.743C110.636 183.973 112.729 187.458 115.536 190.341C118.38 193.262 122.217 195.862 126.38 197.547V194.547ZM113.417 181.869C113.417 181.804 113.418 181.739 113.422 181.676L110.644 180.395C110.639 180.509 110.636 180.626 110.636 180.743L113.417 181.869ZM112.026 181.036C112.629 182.632 112.629 182.632 112.629 182.632C112.629 182.632 112.629 182.632 112.629 182.632C112.629 182.632 112.629 182.632 112.629 182.632C112.629 182.632 112.629 182.632 112.629 182.632C112.629 182.632 112.629 182.632 112.629 182.632C112.629 182.632 112.629 182.632 112.629 182.632C112.629 182.632 112.629 182.632 112.629 182.632C112.629 182.632 112.629 182.632 112.629 182.632C112.629 182.632 112.629 182.632 112.629 182.632C112.63 182.632 112.631 182.631 112.632 182.631L111.434 179.439C111.431 179.439 111.429 179.44 111.427 179.44C111.426 179.44 111.425 179.44 111.425 179.44C111.425 179.44 111.424 179.44 111.424 179.44C111.424 179.44 111.424 179.44 111.424 179.44C111.424 179.44 111.424 179.44 111.424 179.44C111.424 179.44 111.424 179.44 111.424 179.44C111.424 179.44 111.424 179.44 111.424 179.44C111.424 179.44 111.424 179.44 111.424 179.44C111.424 179.44 111.424 179.44 111.424 179.44C111.424 179.44 111.424 179.44 112.026 181.036ZM113.417 181.869V181.599L110.636 180.473V180.743L113.417 181.869ZM113.417 186.379V181.869L110.636 180.743V185.253L113.417 186.379ZM126.38 199.057C122.616 197.533 119.276 195.228 116.925 192.814C114.537 190.362 113.417 188.081 113.417 186.379L110.636 185.253C110.636 188.483 112.729 191.968 115.536 194.851C118.38 197.772 122.217 200.372 126.38 202.057V199.057ZM139.343 196.876C139.343 198.578 138.223 199.952 135.835 200.47C133.484 200.981 130.144 200.581 126.38 199.057V202.057C130.543 203.742 134.38 204.249 137.224 203.632C140.031 203.022 142.124 201.232 142.124 198.002L139.343 196.876ZM139.343 192.547V196.876L142.124 198.002V193.673L139.343 192.547ZM140.058 194.147C140.059 194.148 140.059 194.148 140.058 194.148C140.058 194.148 140.058 194.147 140.058 194.147C140.058 194.147 140.058 194.147 140.058 194.147C140.058 194.147 140.057 194.147 140.057 194.147C140.057 194.147 140.057 194.146 140.057 194.146C140.057 194.146 140.057 194.146 140.057 194.146C140.057 194.146 140.057 194.146 140.057 194.146C140.057 194.146 140.057 194.146 140.057 194.146C140.057 194.146 140.057 194.146 140.057 194.146C140.057 194.146 140.057 194.146 140.734 193.11C141.41 192.073 141.41 192.073 141.41 192.073C141.41 192.073 141.41 192.073 141.41 192.073C141.41 192.073 141.41 192.073 141.41 192.073C141.41 192.073 141.41 192.073 141.41 192.073C141.41 192.073 141.41 192.073 141.41 192.073C141.41 192.073 141.41 192.073 141.41 192.073C141.41 192.073 141.41 192.073 141.41 192.073C141.41 192.073 141.409 192.072 141.409 192.072C141.409 192.072 141.408 192.071 141.408 192.071C141.406 192.069 141.405 192.068 141.403 192.066L140.058 194.147Z" fill="black" mask="url(#path-38-inside-3_2883_64470)"/>
<path d="M224.66 7.0678L197.823 25.378L230.941 28.2389V124.94L243.503 119.218V71.7256L249.212 82.0251L260.632 78.0197L273.765 69.4368L238.364 0.773682L224.66 7.0678Z" fill="black"/>
<path d="M199.833 49.5235L215.156 40.7493L216.297 40.0957L216.276 41.4118L215.138 114.226L230.201 123.595L230.763 45.4L232.18 45.0643L249.5 79.2147L258.523 73.1897L225.508 8.1413L189.684 30.7884L199.833 49.5235Z" fill="#FECA53" stroke="black" stroke-width="1.5"/>
<path d="M25.0369 53.27L98.3483 97.4127C99.1337 97.8856 99.8665 98.857 100.412 100.094C100.957 101.33 101.3 102.805 101.3 104.217V175.927C101.3 177.339 100.957 178.399 100.412 178.979C99.8665 179.56 99.1337 179.649 98.3483 179.176L25.0369 135.033C24.2516 134.56 23.5187 133.589 22.9734 132.352C22.4286 131.116 22.0848 129.641 22.0848 128.229V56.5193C22.0848 55.1072 22.4286 54.0465 22.9734 53.4665C23.5187 52.8861 24.2516 52.7972 25.0369 53.27Z" fill="black" stroke="black" stroke-width="0.5"/>
<path d="M64.2202 100.946V139.022C64.2202 139.416 63.8885 139.606 63.2258 139.524C61.849 139.362 59.5549 138.058 58.1021 136.634C57.3497 135.907 56.9673 135.283 56.9673 134.849V96.7742C56.9673 97.1677 57.3497 97.8276 58.1021 98.5578C59.5549 99.9831 61.849 101.286 63.2258 101.448C63.8885 101.535 64.2202 101.34 64.2202 100.946Z" fill="black" stroke="black" stroke-width="0.576643" stroke-linejoin="round"/>
<path d="M63.0863 99.1664C64.5391 100.592 64.6024 101.609 63.2268 101.449C61.85 101.287 59.5559 99.9834 58.1031 98.5589C56.6503 97.1336 56.5868 96.1159 57.9624 96.2765C59.3395 96.4386 61.6333 97.7417 63.0863 99.1664Z" fill="black" stroke="black" stroke-width="0.576643" stroke-linejoin="round"/>
<path d="M68.6826 115.424V143.182C68.6826 143.575 68.3509 143.766 67.6882 143.683C66.3114 143.522 64.0173 142.218 62.5645 140.793C61.8121 140.067 61.4297 139.442 61.4297 139.009V111.252C61.4297 111.645 61.8121 112.305 62.5645 113.035C64.0173 114.461 66.3114 115.764 67.6882 115.925C68.3509 116.012 68.6826 115.818 68.6826 115.424Z" fill="black" stroke="black" stroke-width="0.576643" stroke-linejoin="round"/>
<path d="M67.5487 113.644C69.0015 115.07 69.0648 116.087 67.6892 115.927C66.3124 115.765 64.0183 114.461 62.5655 113.037C61.1127 111.612 61.0492 110.594 62.4248 110.754C63.8019 110.917 66.0957 112.22 67.5487 113.644Z" fill="black" stroke="black" stroke-width="0.576643" stroke-linejoin="round"/>
<path d="M59.6075 129.122V137.719C59.6075 138.112 59.2757 138.303 58.6131 138.22C57.2362 138.059 54.9421 136.755 53.4894 135.33C52.7369 134.604 52.3545 133.979 52.3545 133.546V124.95C52.3545 125.344 52.7369 126.004 53.4894 126.734C54.9421 128.159 57.2362 129.463 58.6131 129.624C59.2757 129.711 59.6075 129.517 59.6075 129.122Z" fill="black" stroke="black" stroke-width="0.576643" stroke-linejoin="round"/>
<path d="M58.4735 127.341C59.9263 128.767 59.9896 129.784 58.614 129.623C57.2372 129.462 54.9431 128.158 53.4903 126.734C52.0375 125.308 51.974 124.291 53.3496 124.451C54.7267 124.613 57.0205 125.917 58.4735 127.341Z" fill="black" stroke="black" stroke-width="0.576643" stroke-linejoin="round"/>
<path d="M26.4251 126.669V126.884L25.8261 126.523V126.356L26.1477 126.04C26.2281 125.961 26.2402 125.888 26.2402 125.814C26.2402 125.687 26.1879 125.589 26.0874 125.528C26.007 125.48 25.9427 125.488 25.8985 125.555L25.7939 125.358C25.8583 125.256 25.9708 125.243 26.1035 125.323C26.2804 125.43 26.3929 125.645 26.3929 125.886C26.3929 126.02 26.3728 126.129 26.2603 126.235L26.0432 126.446L26.4251 126.676V126.669Z" fill="black"/>
<path d="M26.5063 126.042C26.5063 125.948 26.5506 125.908 26.6028 125.939C26.6551 125.971 26.6993 126.064 26.6993 126.158C26.6993 126.252 26.6551 126.292 26.6028 126.261C26.5506 126.229 26.5063 126.136 26.5063 126.042ZM26.5063 126.779C26.5063 126.685 26.5506 126.645 26.6028 126.676C26.6551 126.708 26.6993 126.801 26.6993 126.895C26.6993 126.989 26.6551 127.029 26.6028 126.998C26.5506 126.966 26.5063 126.873 26.5063 126.779Z" fill="black"/>
<path d="M27.0727 125.914V127.267L26.9199 127.175V126.03L26.7471 125.926V125.711L27.0687 125.905L27.0727 125.914Z" fill="black"/>
<path d="M27.9588 127.498L27.8141 127.411V127.719L27.6693 127.632V127.324L27.2231 127.055V126.881L27.6251 126.252L27.7859 126.349L27.4081 126.959L27.6734 127.118V126.844L27.8141 126.928V127.203L27.9588 127.29V127.504V127.498Z" fill="black"/>
<path d="M90.9704 164.858L29.2861 127.716V128.259L90.9704 165.401V164.858Z" fill="black"/>
<path d="M49.1409 139.947C49.1409 140.812 48.7225 141.257 48.2035 140.945C47.6845 140.632 47.2661 139.683 47.2661 138.818C47.2661 137.953 47.6845 137.508 48.2035 137.82C48.7225 138.133 49.1409 139.082 49.1409 139.947Z" fill="black"/>
<path d="M92.5262 166.054C92.5262 166.322 92.3936 166.416 92.2287 166.317C92.0077 166.184 91.875 165.863 91.875 165.427C91.875 164.965 92.0358 164.807 92.273 164.95C92.3534 164.998 92.4338 165.074 92.486 165.165L92.4297 165.319C92.3855 165.246 92.3333 165.194 92.277 165.16C92.1242 165.068 92.0278 165.171 92.0278 165.479C92.076 165.414 92.1524 165.413 92.2448 165.469C92.4056 165.566 92.5262 165.799 92.5262 166.054ZM92.3815 165.98C92.3815 165.839 92.3172 165.714 92.2207 165.656C92.1242 165.597 92.0559 165.657 92.0559 165.791C92.0559 165.925 92.1162 166.055 92.2247 166.12C92.3172 166.176 92.3855 166.13 92.3855 165.989L92.3815 165.98Z" fill="black"/>
<path d="M92.5952 165.629C92.5952 165.535 92.6394 165.495 92.6917 165.526C92.7439 165.558 92.7882 165.651 92.7882 165.745C92.7882 165.839 92.7439 165.879 92.6917 165.848C92.6394 165.816 92.5952 165.723 92.5952 165.629ZM92.5952 166.366C92.5952 166.272 92.6394 166.232 92.6917 166.263C92.7439 166.295 92.7882 166.388 92.7882 166.482C92.7882 166.576 92.7439 166.616 92.6917 166.585C92.6394 166.553 92.5952 166.46 92.5952 166.366Z" fill="black"/>
<path d="M92.8857 166.01C92.8857 165.568 93.0305 165.401 93.2234 165.517C93.4164 165.633 93.5651 165.977 93.5651 166.419C93.5651 166.861 93.4204 167.029 93.2234 166.91C93.0264 166.792 92.8857 166.452 92.8857 166.01ZM93.4123 166.327C93.4123 165.999 93.336 165.806 93.2234 165.738C93.1109 165.67 93.0345 165.778 93.0345 166.1C93.0345 166.421 93.1109 166.621 93.2234 166.689C93.336 166.757 93.4123 166.649 93.4123 166.327Z" fill="black"/>
<path d="M93.667 166.481C93.667 166.039 93.8117 165.871 94.0047 165.987C94.1976 166.104 94.3463 166.448 94.3463 166.89C94.3463 167.332 94.2016 167.5 94.0047 167.381C93.8077 167.262 93.667 166.923 93.667 166.481ZM94.1936 166.798C94.1936 166.47 94.1172 166.276 94.0047 166.209C93.8921 166.141 93.8197 166.251 93.8197 166.573C93.8197 166.894 93.8961 167.095 94.0047 167.16C94.1132 167.225 94.1936 167.12 94.1936 166.798Z" fill="black"/>
<path d="M95.6816 167.615L95.356 167.419V166.025L96.1881 166.526V167.076L95.6816 166.771V167.615Z" fill="black"/>
<path d="M96.1881 169.716L95.356 169.215V167.835L95.6816 168.031V168.869L96.1881 169.174V169.716Z" fill="black"/>
<path d="M97.5 170.505L96.6719 170.006V169.463L97.1744 169.766V168.922L97.5 169.118V170.505Z" fill="black"/>
<path d="M97.504 168.705L97.1784 168.509V167.671L96.6719 167.366V166.817L97.504 167.318V168.705Z" fill="black"/>
<path d="M86.9831 98.3192C86.955 98.2687 87.5947 98.5802 88.6608 99.1752L88.7493 99.2285V99.3827C88.7574 100.447 88.7614 101.65 88.7695 102.948V103.404L88.5763 102.96C88.5039 102.795 88.4275 102.629 88.351 102.455C88.1579 102.01 87.9688 101.581 87.7838 101.161L87.9367 101.254C87.6228 101.534 87.3211 101.788 87.0435 102.03L86.8745 102.176V101.807C86.8866 100.715 86.9107 99.8178 86.9268 99.2106C86.9469 98.6059 86.959 98.2779 86.9751 98.3144C86.9912 98.3509 87.0033 98.7336 87.0234 99.376C87.0435 100.018 87.0636 100.895 87.0716 101.926L86.9067 101.706C87.1803 101.455 87.474 101.183 87.7838 100.9L87.8602 100.825L87.9367 100.999C88.1217 101.419 88.3108 101.848 88.5079 102.288C88.5844 102.462 88.6608 102.635 88.7292 102.797L88.5361 102.815C88.5442 101.525 88.5522 100.33 88.5562 99.2731L88.6488 99.4831C87.6751 98.8566 86.9992 98.3759 86.9711 98.3187L86.9831 98.3192Z" fill="black"/>
<path d="M93.1497 102.474C93.1738 102.469 93.0209 102.692 92.7433 103.094C92.4697 103.5 92.0554 104.102 91.5525 104.744L91.3634 104.986V104.51C91.3634 103.953 91.3593 103.361 91.3553 102.741V102.567L91.3915 102.723C91.134 102.145 90.8846 101.593 90.6472 101.068L90.4541 100.636L90.7237 100.799C91.4599 101.269 92.0956 101.712 92.514 102.004C92.9364 102.299 93.1698 102.459 93.1456 102.465C93.1215 102.464 92.8479 102.319 92.4134 102.091C91.9749 101.861 91.3955 101.565 90.7196 101.158L90.7961 100.896C91.0335 101.414 91.2869 101.969 91.5484 102.543L91.5846 102.618V102.698V102.873C91.5846 103.49 91.5846 104.08 91.5806 104.634L91.3915 104.399C91.8622 103.824 92.2887 103.377 92.6106 103.035C92.9284 102.696 93.1296 102.475 93.1497 102.467V102.474Z" fill="black"/>
<path d="M93.1505 102.472C93.1747 102.581 92.8206 102.71 92.3539 102.757C91.8913 102.8 91.497 102.751 91.4728 102.642C91.4487 102.534 91.8028 102.405 92.2694 102.358C92.7321 102.314 93.1264 102.364 93.1505 102.472Z" fill="black"/>
<path d="M96.1589 103.844C96.1589 103.844 96.2635 103.846 96.4606 104.019C96.6497 104.186 96.9394 104.548 97.1687 105.156C97.398 105.75 97.5388 106.619 97.3739 107.291C97.225 107.972 96.7342 108.347 96.1589 107.994C95.5835 107.654 95.0927 106.688 94.9438 105.828C94.7789 104.95 94.9197 104.258 95.149 103.94C95.3784 103.608 95.668 103.595 95.8571 103.655C96.0502 103.718 96.1589 103.824 96.1589 103.844C96.1589 103.877 96.0543 103.821 95.8813 103.811C95.7123 103.803 95.4669 103.856 95.2818 104.181C95.0967 104.485 94.9961 105.095 95.145 105.828C95.2818 106.547 95.6881 107.335 96.1629 107.614C96.6376 107.907 97.044 107.608 97.1808 107.054C97.3296 106.5 97.229 105.769 97.044 105.242C96.8589 104.701 96.6135 104.345 96.4445 104.15C96.2715 103.952 96.1629 103.88 96.1669 103.849L96.1589 103.844Z" fill="black"/>
<path d="M96.5624 106.911C96.5182 106.958 96.2567 106.486 95.9751 105.847L95.9429 105.774V105.687C95.9429 105.023 95.9952 104.511 96.0555 104.548C96.1159 104.584 96.1682 105.152 96.1682 105.822V105.836L96.136 105.682C96.4136 106.319 96.6067 106.871 96.5624 106.918V106.911Z" fill="black"/>
<path d="M67.3146 89.1648C67.3146 89.2721 59.1274 84.4228 49.0331 78.3447C38.9388 72.2667 30.7515 67.2497 30.7515 67.1492C30.7515 67.0486 38.9347 71.8888 49.0331 77.9692C59.1314 84.0497 67.3146 89.0642 67.3146 89.1648Z" fill="black"/>
<path d="M29.0242 66.11C29.0242 67.4376 28.3805 68.1228 27.5839 67.6431C26.7873 67.1634 26.1436 65.7031 26.1436 64.3755C26.1436 63.0479 26.7873 62.3627 27.5839 62.8424C28.3805 63.322 29.0242 64.7824 29.0242 66.11Z" fill="black"/>
<path d="M21.6111 56.0591L94.9225 100.202C95.5299 100.567 96.1452 101.347 96.6352 102.459C97.1237 103.567 97.4463 104.926 97.4463 106.248V177.958C97.4463 179.28 97.1237 180.25 96.6352 180.77C96.1452 181.292 95.5299 181.331 94.9225 180.965L21.6111 136.822C21.0038 136.456 20.3884 135.677 19.8985 134.565C19.4099 133.457 19.0873 132.098 19.0873 130.776V59.0663C19.0873 57.7442 19.4099 56.7737 19.8985 56.2537C20.3884 55.7321 21.0038 55.6934 21.6111 56.0591Z" fill="#F3F5F7" stroke="black" stroke-width="1.5"/>
<path d="M61.988 97.8778V142.958C61.988 143.424 61.5952 143.65 60.8107 143.552C59.1806 143.361 56.4645 141.817 54.7445 140.13C53.8537 139.27 53.4009 138.531 53.4009 138.018V92.9385C53.4009 93.4045 53.8537 94.1858 54.7445 95.0503C56.4645 96.7378 59.1806 98.2807 60.8107 98.4717C61.5952 98.575 61.988 98.3447 61.988 97.8778Z" fill="#A041FF" stroke="black" stroke-width="1.5" stroke-linejoin="round"/>
<path d="M60.6454 95.7699C62.3654 97.4574 62.4404 98.6622 60.8117 98.4721C59.1816 98.2811 56.4655 96.7373 54.7455 95.0507C53.0254 93.3632 52.9502 92.1583 54.5789 92.3484C56.2093 92.5404 58.9251 94.0832 60.6454 95.7699Z" fill="#CFA4FF" stroke="black" stroke-width="1.5" stroke-linejoin="round"/>
<path d="M67.2717 115.019V147.884C67.2717 148.35 66.8789 148.576 66.0944 148.478C64.4643 148.287 61.7482 146.743 60.0282 145.056C59.1373 144.196 58.6846 143.457 58.6846 142.944V110.08C58.6846 110.546 59.1373 111.327 60.0282 112.192C61.7482 113.879 64.4643 115.422 66.0944 115.613C66.8789 115.717 67.2717 115.486 67.2717 115.019Z" fill="#FBE62E" stroke="black" stroke-width="1.5" stroke-linejoin="round"/>
<path d="M65.9291 112.912C67.6491 114.599 67.7241 115.804 66.0954 115.614C64.4653 115.423 61.7492 113.879 60.0292 112.192C58.3091 110.505 58.2339 109.3 59.8626 109.49C61.493 109.682 64.2088 111.225 65.9291 112.912Z" fill="#FBE62E" stroke="black" stroke-linejoin="round"/>
<path d="M56.5271 131.236V141.414C56.5271 141.88 56.1343 142.106 55.3498 142.008C53.7197 141.817 51.0036 140.273 49.2836 138.587C48.3927 137.726 47.9399 136.987 47.9399 136.474V126.297C47.9399 126.763 48.3927 127.544 49.2836 128.409C51.0036 130.096 53.7197 131.639 55.3498 131.83C56.1343 131.934 56.5271 131.703 56.5271 131.236Z" fill="#F78400" stroke="black" stroke-width="1.5" stroke-linejoin="round"/>
<path d="M55.184 129.128C56.904 130.816 56.979 132.02 55.3503 131.83C53.7202 131.639 51.0041 130.095 49.2841 128.409C47.564 126.721 47.4888 125.516 49.1175 125.707C50.7479 125.899 53.4637 127.441 55.184 129.128Z" fill="#FFC664" stroke="black" stroke-width="1.5" stroke-linejoin="round"/>
<g clip-path="url(#clip0_2883_64470)">
<g clip-path="url(#clip1_2883_64470)">
<mask id="mask1_2883_64470" style="mask-type:luminance" maskUnits="userSpaceOnUse" x="32" y="268" width="104" height="76">
<path d="M133.968 268.322L32.1787 271.709L33.7626 343.622L135.552 340.235L133.968 268.322Z" fill="white"/>
</mask>
<g mask="url(#mask1_2883_64470)">
<g style="mix-blend-mode:multiply">
<path d="M133.203 339.687C133.203 339.687 129.454 334.337 129.451 334.334C129.428 334.302 129.315 334.327 129.172 334.377L122.893 326.099L122.73 326.131C122.73 326.131 122.717 326.122 122.711 326.117C122.827 326.101 122.893 326.096 122.893 326.096L117.682 322.926L54.2976 284.725L47.7579 280.706C46.2697 279.941 46.7702 280.117 46.0891 279.881C43.7982 279.079 41.4912 279.544 39.7599 280.879C39.7445 280.892 39.7322 280.904 39.7167 280.914C39.5621 281.036 39.414 281.164 39.266 281.298C39.226 281.336 39.1859 281.373 39.1491 281.411C39.0321 281.526 38.9153 281.647 38.8049 281.771C38.7619 281.82 38.7159 281.87 38.6729 281.92C38.5687 282.043 38.4679 282.176 38.3734 282.308C38.3368 282.361 38.297 282.41 38.2603 282.462C38.1325 282.647 38.0109 282.84 37.8989 283.04C35.9118 286.602 37.2166 290.458 40.0526 292.026L42.6156 293.655L51.111 298.79C51.111 298.79 51.1109 298.784 51.1108 298.78L116.377 338.176C116.357 338.14 116.347 338.102 116.331 338.066C116.849 338.314 117.412 338.484 118.008 338.576L118.084 338.588C118.147 338.598 118.207 338.602 118.27 338.609L126.457 339.581C126.464 339.608 126.464 339.635 126.471 339.665L132.512 340.303C132.512 340.303 133.454 340.518 133.2 339.69L133.203 339.687Z" fill="#000002"/>
</g>
<path d="M124.114 320.662L123.181 320.483L123.247 320.417C120.49 319.84 117.829 321.249 116.448 323.724L116.448 323.724C114.185 327.781 116.502 332.068 120.264 332.638L120.289 332.642L120.289 332.642L120.301 332.643C120.396 332.657 120.492 332.669 120.589 332.678L120.589 332.677L120.601 332.679L134.752 334.361L134.779 334.364L134.801 334.369L134.802 334.37L134.817 334.372C134.827 334.374 134.84 334.376 134.856 334.378L124.68 320.966C124.616 320.891 124.516 320.821 124.395 320.762C124.273 320.703 124.162 320.671 124.114 320.662ZM134.924 334.5C134.924 334.5 134.925 334.5 134.925 334.498L134.924 334.5Z" fill="#F0C2B8" stroke="black"/>
<path d="M129.078 326.339C129.276 326.725 135.38 334.243 135.38 334.243L135.377 334.243C135.631 335.07 134.69 334.855 134.69 334.855L125.649 333.789C124.428 329.986 128.101 326.293 129.078 326.339Z" fill="#030303"/>
<path d="M123.658 320.443C123.417 320.532 123.152 320.646 122.87 320.79C121.641 321.419 120.113 322.62 118.784 324.893L118.779 324.9L119.279 325.152C118.779 324.9 118.779 324.9 118.779 324.9L118.778 324.902L118.776 324.906L118.77 324.917L118.748 324.958C118.729 324.994 118.702 325.044 118.669 325.109C118.603 325.239 118.513 325.426 118.41 325.659C118.204 326.126 117.948 326.785 117.746 327.556C117.452 328.676 117.26 330.074 117.539 331.468L45.2111 287.605C44.9035 286.37 44.8552 284.321 45.7319 282.238C46.6246 280.117 48.487 277.934 52.0887 276.536L119.549 317.944L119.551 317.945L123.658 320.443Z" fill="#A041FF"/>
<path d="M118.779 324.9L118.784 324.893C120.113 322.62 121.641 321.419 122.87 320.79C123.152 320.646 123.417 320.532 123.658 320.443L119.551 317.945L119.549 317.944L52.0887 276.536C48.487 277.934 46.6246 280.117 45.7319 282.238C44.8552 284.321 44.9035 286.37 45.2111 287.605L117.539 331.468C117.26 330.074 117.452 328.676 117.746 327.556C117.948 326.785 118.204 326.126 118.41 325.659C118.513 325.426 118.603 325.239 118.669 325.109C118.702 325.044 118.729 324.994 118.748 324.958L118.77 324.917L118.776 324.906L118.778 324.902L118.779 324.9ZM118.779 324.9L119.279 325.152C118.779 324.9 118.779 324.9 118.779 324.9Z" stroke="black"/>
<path d="M117.874 327.099C117.512 328.29 117.22 329.883 117.538 331.471L53.3462 292.721C53.5483 291.265 53.8794 289.847 54.3585 288.491C54.7753 287.314 55.3031 286.184 55.9597 285.118L119.701 323.519C119.388 323.927 119.081 324.381 118.783 324.889L118.779 324.897L119.278 325.149C118.779 324.897 118.779 324.897 118.779 324.897L118.778 324.899L118.777 324.901L118.771 324.911L118.753 324.945C118.737 324.974 118.715 325.015 118.688 325.068C118.633 325.174 118.558 325.327 118.47 325.52C118.295 325.905 118.071 326.451 117.874 327.099Z" fill="#CFA4FF"/>
<path d="M118.779 324.897L118.783 324.889C119.081 324.381 119.388 323.927 119.701 323.519L55.9597 285.118C55.3031 286.184 54.7753 287.314 54.3585 288.491C53.8794 289.847 53.5483 291.265 53.3462 292.721L117.538 331.471C117.22 329.883 117.512 328.29 117.874 327.099C118.071 326.451 118.295 325.905 118.47 325.52C118.558 325.327 118.633 325.174 118.688 325.068C118.715 325.015 118.737 324.974 118.753 324.945L118.771 324.911L118.777 324.901L118.778 324.899L118.779 324.897ZM118.779 324.897L119.278 325.149C118.779 324.897 118.779 324.897 118.779 324.897Z" stroke="black"/>
<path d="M39.6229 276.663C42.6002 271.855 48.308 274.486 51.1101 276.629C45.5081 279.195 43.9815 284.229 43.9186 286.426C41.0326 285.024 36.6456 281.471 39.6229 276.663Z" fill="#F1C966" stroke="black" stroke-width="1.5"/>
<path d="M117.538 331.471L53.3464 292.721C53.5155 291.502 53.7751 290.31 54.1361 289.159L117.761 327.491C117.457 328.628 117.254 330.052 117.538 331.471Z" fill="#A041FF" stroke="black"/>
<path d="M61.0711 282.283L62.8724 282.191L61.3553 281.283L52.5423 276.006L52.3392 275.884L52.1043 275.94L52.2355 276.466C52.1043 275.94 52.1043 275.94 52.1043 275.94L52.1026 275.941L52.1003 275.941L52.0933 275.943L52.0706 275.949C52.0516 275.954 52.0251 275.961 51.9915 275.97C51.9242 275.989 51.8287 276.017 51.7088 276.056C51.4693 276.133 51.1322 276.253 50.7304 276.427C49.9282 276.776 48.8613 277.343 47.8 278.221C45.6608 279.992 43.5827 282.998 43.6906 287.9L43.6969 288.187L43.9498 288.34L52.9869 293.8L54.4276 294.67L53.83 293.15L53.828 293.145C53.825 293.135 53.8193 293.117 53.8119 293.09C53.7974 293.034 53.7766 292.943 53.7588 292.813C53.7235 292.556 53.7 292.147 53.7647 291.585C53.8938 290.461 54.3764 288.709 55.8385 286.31L55.843 286.302L55.8621 286.272C55.8796 286.244 55.9064 286.203 55.9419 286.149C56.013 286.042 56.1193 285.887 56.2568 285.7C56.5326 285.324 56.9311 284.823 57.4225 284.319C58.4298 283.286 59.7201 282.353 61.0711 282.283Z" fill="#1B1B1B"/>
<path d="M52.1043 275.94L52.3392 275.884L52.5423 276.006L61.3553 281.283L62.8724 282.191L61.0711 282.283C59.7201 282.353 58.4298 283.286 57.4225 284.319C56.9311 284.823 56.5326 285.324 56.2568 285.7C56.1193 285.887 56.013 286.042 55.9419 286.149C55.9064 286.203 55.8796 286.244 55.8621 286.272L55.843 286.302L55.8385 286.31C54.3764 288.709 53.8938 290.461 53.7647 291.585C53.7 292.147 53.7235 292.556 53.7588 292.813C53.7766 292.943 53.7974 293.034 53.8119 293.09C53.8193 293.117 53.825 293.135 53.828 293.145L53.83 293.15L54.4276 294.67L52.9869 293.8L43.9498 288.34L43.6969 288.187L43.6906 287.9C43.5827 282.998 45.6608 279.992 47.8 278.221C48.8613 277.343 49.9282 276.776 50.7304 276.427C51.1322 276.253 51.4693 276.133 51.7088 276.056C51.8287 276.017 51.9242 275.989 51.9915 275.97C52.0251 275.961 52.0516 275.954 52.0706 275.949L52.0933 275.943L52.1003 275.941L52.1026 275.941L52.1043 275.94ZM52.1043 275.94L52.2355 276.466C52.1043 275.94 52.1043 275.94 52.1043 275.94Z" stroke="black"/>
<path d="M57.138 284.68L57.5729 284.221L57.0478 283.873L48.6084 278.276L48.2608 278.046L47.9269 278.303C45.7322 279.989 43.5813 282.931 43.6908 287.901L43.6972 288.188L43.95 288.34L52.987 293.8L54.4278 294.67L53.8301 293.15L53.8283 293.145C53.8252 293.135 53.8194 293.117 53.8122 293.09C53.7976 293.035 53.7768 292.943 53.7591 292.814C53.7236 292.556 53.7002 292.147 53.7648 291.585C53.8939 290.461 54.3762 288.711 55.8364 286.313L55.8388 286.31L55.854 286.286C55.868 286.265 55.8895 286.232 55.9183 286.189C55.9758 286.104 56.0623 285.98 56.1749 285.828C56.4003 285.524 56.7285 285.111 57.138 284.68Z" fill="#333333" stroke="black"/>
<path d="M53.7285 292.186C53.7231 292.537 53.754 292.791 53.7833 292.95C53.8225 293.299 54.2201 294.234 54.414 294.659L52.9872 293.797L43.9503 288.337L43.6973 288.185L43.691 287.898C43.6506 286.062 44.1232 284.809 44.5778 283.604L44.5779 283.604C44.6128 283.512 44.6474 283.42 44.6818 283.328L44.9259 282.674L45.5301 283.047C46.8714 283.876 48.176 284.626 49.4829 285.377L49.4907 285.381L49.9097 285.622C51.3572 286.455 52.8105 287.299 54.3038 288.252L54.6778 288.491L54.5116 288.895C53.896 290.392 53.7396 291.486 53.7285 292.186Z" stroke="black"/>
<path d="M53.4914 296.17C50.5287 294.279 47.5021 292.476 44.5091 290.628C44.0221 291.931 43.7262 293.483 43.7672 295.346L52.8043 300.805C52.8043 300.805 54.3182 300.182 53.4914 296.17Z" fill="black"/>
</g>
</g>
</g>
<mask id="path-92-inside-4_2883_64470" fill="white">
<path fill-rule="evenodd" clip-rule="evenodd" d="M179.812 148.793L177.915 150.124C177.763 149.925 177.598 149.731 177.42 149.544C175.356 147.379 172.125 147.369 170.564 148.487L170.564 148.486L169.097 149.516C167.363 148.189 165.879 148.154 164.766 148.934L164.765 148.934L158.521 152.509L162.591 155.058C162.729 157.158 163.642 160.517 166.561 162.76C169.521 165.034 182.97 172.546 193.491 178.249C193.602 178.479 193.722 178.708 193.852 178.934C195.156 180.039 196.623 181.133 197.77 181.927V185.868L200.031 184.544C200.752 184.161 201.816 183.564 203.345 182.679C206.349 180.943 206.257 175.304 204.727 172.647C203.228 170.042 200.798 168.423 198.451 168.197C198.931 164.799 197.858 160.355 195.264 156.193C191.026 149.393 184.334 145.92 180.316 148.434C180.14 148.544 179.972 148.664 179.812 148.793Z"/>
</mask>
<path fill-rule="evenodd" clip-rule="evenodd" d="M179.812 148.793L177.915 150.124C177.763 149.925 177.598 149.731 177.42 149.544C175.356 147.379 172.125 147.369 170.564 148.487L170.564 148.486L169.097 149.516C167.363 148.189 165.879 148.154 164.766 148.934L164.765 148.934L158.521 152.509L162.591 155.058C162.729 157.158 163.642 160.517 166.561 162.76C169.521 165.034 182.97 172.546 193.491 178.249C193.602 178.479 193.722 178.708 193.852 178.934C195.156 180.039 196.623 181.133 197.77 181.927V185.868L200.031 184.544C200.752 184.161 201.816 183.564 203.345 182.679C206.349 180.943 206.257 175.304 204.727 172.647C203.228 170.042 200.798 168.423 198.451 168.197C198.931 164.799 197.858 160.355 195.264 156.193C191.026 149.393 184.334 145.92 180.316 148.434C180.14 148.544 179.972 148.664 179.812 148.793Z" fill="white"/>
<path d="M177.915 150.124L176.721 151.033L177.595 152.181L178.776 151.352L177.915 150.124ZM179.812 148.793L180.673 150.021L180.714 149.992L180.754 149.961L179.812 148.793ZM177.42 149.544L178.506 148.509L178.506 148.509L177.42 149.544ZM170.564 148.487L169.268 149.242L170.097 150.665L171.437 149.707L170.564 148.487ZM170.564 148.486L171.86 147.731L171.038 146.322L169.702 147.258L170.564 148.486ZM169.097 149.516L168.185 150.707L169.058 151.375L169.958 150.744L169.097 149.516ZM164.766 148.934L165.13 150.389L165.399 150.321L165.627 150.162L164.766 148.934ZM164.765 148.934L164.4 147.479L164.2 147.529L164.02 147.632L164.765 148.934ZM158.521 152.509L157.776 151.208L155.603 152.452L157.725 153.781L158.521 152.509ZM162.591 155.058L164.088 154.96L164.037 154.194L163.387 153.787L162.591 155.058ZM166.561 162.76L167.475 161.571L167.475 161.571L166.561 162.76ZM193.491 178.249L194.844 177.6L194.633 177.162L194.206 176.93L193.491 178.249ZM193.852 178.934L192.552 179.682L192.682 179.909L192.882 180.078L193.852 178.934ZM197.77 181.927H199.27V181.141L198.624 180.693L197.77 181.927ZM197.77 185.868H196.27V188.485L198.528 187.163L197.77 185.868ZM200.031 184.544L199.328 183.219L199.3 183.234L199.273 183.249L200.031 184.544ZM203.345 182.679L202.595 181.381L203.345 182.679ZM204.727 172.647L203.428 173.395H203.428L204.727 172.647ZM198.451 168.197L196.966 167.987L196.747 169.54L198.308 169.69L198.451 168.197ZM195.264 156.193L196.537 155.399V155.399L195.264 156.193ZM180.316 148.434L181.112 149.706L181.112 149.706L180.316 148.434ZM178.776 151.352L180.673 150.021L178.95 147.565L177.053 148.896L178.776 151.352ZM176.334 150.579C176.474 150.726 176.603 150.878 176.721 151.033L179.108 149.216C178.923 148.973 178.722 148.737 178.506 148.509L176.334 150.579ZM171.437 149.707C171.852 149.41 172.659 149.172 173.646 149.276C174.599 149.377 175.578 149.785 176.334 150.579L178.506 148.509C177.198 147.138 175.53 146.459 173.961 146.293C172.426 146.13 170.837 146.447 169.691 147.267L171.437 149.707ZM169.268 149.242L169.268 149.242L171.86 147.731L171.86 147.731L169.268 149.242ZM169.958 150.744L171.425 149.714L169.702 147.258L168.235 148.288L169.958 150.744ZM165.627 150.162C165.898 149.972 166.187 149.889 166.54 149.926C166.92 149.967 167.47 150.16 168.185 150.707L170.008 148.324C168.99 147.545 167.931 147.057 166.857 146.943C165.756 146.826 164.747 147.116 163.905 147.705L165.627 150.162ZM164.401 147.479L164.4 147.479L165.13 150.389L165.13 150.389L164.401 147.479ZM164.02 147.632L157.776 151.208L159.266 153.811L165.511 150.236L164.02 147.632ZM157.725 153.781L161.795 156.33L163.387 153.787L159.317 151.238L157.725 153.781ZM167.475 161.571C165.017 159.682 164.209 156.806 164.088 154.96L161.094 155.157C161.248 157.509 162.266 161.352 165.647 163.95L167.475 161.571ZM194.206 176.93C188.951 174.082 182.968 170.784 177.933 167.915C172.848 165.019 168.853 162.63 167.475 161.571L165.647 163.95C167.228 165.164 171.439 167.669 176.448 170.522C181.508 173.404 187.51 176.713 192.776 179.568L194.206 176.93ZM195.152 178.186C195.04 177.992 194.938 177.797 194.844 177.6L192.139 178.898C192.265 179.162 192.403 179.424 192.552 179.682L195.152 178.186ZM198.624 180.693C197.508 179.921 196.082 178.857 194.822 177.789L192.882 180.078C194.231 181.221 195.738 182.344 196.916 183.16L198.624 180.693ZM199.27 185.868V181.927H196.27V185.868H199.27ZM199.273 183.249L197.012 184.574L198.528 187.163L200.789 185.838L199.273 183.249ZM202.595 181.381C201.068 182.263 200.024 182.85 199.328 183.219L200.735 185.869C201.481 185.473 202.564 184.864 204.096 183.978L202.595 181.381ZM203.428 173.395C204.009 174.405 204.384 176.16 204.241 177.885C204.096 179.649 203.467 180.876 202.595 181.381L204.096 183.978C206.227 182.746 207.054 180.286 207.231 178.132C207.412 175.94 206.976 173.547 206.027 171.899L203.428 173.395ZM198.308 169.69C200.092 169.862 202.128 171.138 203.428 173.395L206.027 171.899C204.328 168.947 201.503 166.984 198.595 166.704L198.308 169.69ZM193.991 156.986C196.452 160.936 197.384 165.027 196.966 167.987L199.936 168.407C200.478 164.571 199.264 159.775 196.537 155.399L193.991 156.986ZM181.112 149.706C182.489 148.844 184.555 148.875 187.016 150.152C189.444 151.412 191.989 153.774 193.991 156.986L196.537 155.399C194.301 151.812 191.381 149.037 188.398 147.489C185.45 145.959 182.161 145.51 179.52 147.163L181.112 149.706ZM180.754 149.961C180.867 149.869 180.987 149.784 181.112 149.706L179.52 147.163C179.293 147.305 179.076 147.459 178.87 147.626L180.754 149.961Z" fill="black" mask="url(#path-92-inside-4_2883_64470)"/>
<mask id="path-94-inside-5_2883_64470" fill="white">
<path fill-rule="evenodd" clip-rule="evenodd" d="M171.569 154.452C171.325 154.05 171.03 153.663 170.685 153.301C168.621 151.135 165.561 150.707 163.85 152.345C163.416 152.76 163.111 153.267 162.93 153.829C158.733 150.064 155.713 153.774 155.839 158.543C155.894 160.597 156.737 164.217 159.831 166.588C163.516 169.411 183.444 180.325 193.775 185.792C194.179 186.027 194.484 186.188 194.645 186.252L194.649 186.254L194.649 186.253C194.692 186.27 194.725 186.28 194.746 186.281C195.874 186.633 196.871 186.513 197.912 185.774C200.4 184.008 200.356 179.662 197.815 176.067C196.145 173.705 193.812 172.254 191.703 172.038C192.213 168.63 191.144 164.147 188.528 159.949C184.29 153.15 177.598 149.676 173.58 152.191C172.716 152.731 172.047 153.504 171.569 154.452Z"/>
</mask>
<path fill-rule="evenodd" clip-rule="evenodd" d="M171.569 154.452C171.325 154.05 171.03 153.663 170.685 153.301C168.621 151.135 165.561 150.707 163.85 152.345C163.416 152.76 163.111 153.267 162.93 153.829C158.733 150.064 155.713 153.774 155.839 158.543C155.894 160.597 156.737 164.217 159.831 166.588C163.516 169.411 183.444 180.325 193.775 185.792C194.179 186.027 194.484 186.188 194.645 186.252L194.649 186.254L194.649 186.253C194.692 186.27 194.725 186.28 194.746 186.281C195.874 186.633 196.871 186.513 197.912 185.774C200.4 184.008 200.356 179.662 197.815 176.067C196.145 173.705 193.812 172.254 191.703 172.038C192.213 168.63 191.144 164.147 188.528 159.949C184.29 153.15 177.598 149.676 173.58 152.191C172.716 152.731 172.047 153.504 171.569 154.452Z" fill="#ECE9EA"/>
<path d="M171.569 154.452L170.288 155.232L171.693 157.543L172.909 155.127L171.569 154.452ZM170.685 153.301L169.599 154.336V154.336L170.685 153.301ZM163.85 152.345L164.887 153.429L163.85 152.345ZM162.93 153.829L161.929 154.945L163.65 156.489L164.358 154.288L162.93 153.829ZM155.839 158.543L157.339 158.503L157.339 158.503L155.839 158.543ZM159.831 166.588L160.743 165.397H160.743L159.831 166.588ZM193.775 185.792L194.528 184.495L194.502 184.48L194.476 184.466L193.775 185.792ZM194.645 186.252L195.345 184.925L195.272 184.887L195.196 184.856L194.645 186.252ZM194.649 186.254L193.949 187.58L196.229 188.782L196.148 186.207L194.649 186.254ZM194.649 186.253L195.195 184.856L193.079 184.028L193.15 186.3L194.649 186.253ZM194.746 186.281L195.192 184.849L195.038 184.801L194.877 184.787L194.746 186.281ZM197.912 185.774L197.044 184.551L197.912 185.774ZM197.815 176.067L199.039 175.201L197.815 176.067ZM191.703 172.038L190.22 171.816L189.987 173.37L191.55 173.53L191.703 172.038ZM188.528 159.949L189.801 159.156L188.528 159.949ZM173.58 152.191L174.376 153.462V153.462L173.58 152.191ZM172.851 153.673C172.55 153.179 172.19 152.706 171.771 152.266L169.599 154.336C169.87 154.62 170.099 154.922 170.288 155.232L172.851 153.673ZM171.771 152.266C169.374 149.751 165.346 148.837 162.813 151.261L164.887 153.429C165.776 152.578 167.869 152.52 169.599 154.336L171.771 152.266ZM162.813 151.261C162.188 151.86 161.755 152.586 161.502 153.369L164.358 154.288C164.468 153.948 164.645 153.66 164.887 153.429L162.813 151.261ZM163.932 152.712C162.737 151.641 161.487 150.974 160.217 150.818C158.905 150.656 157.73 151.061 156.803 151.833C155.044 153.299 154.27 155.964 154.34 158.583L157.339 158.503C157.282 156.352 157.955 154.778 158.724 154.138C159.06 153.857 159.42 153.742 159.851 153.795C160.323 153.853 161.025 154.135 161.929 154.945L163.932 152.712ZM154.34 158.582C154.401 160.9 155.338 165.035 158.918 167.778L160.743 165.397C158.135 163.399 157.386 160.293 157.339 158.503L154.34 158.582ZM158.918 167.778C160.869 169.273 166.894 172.77 173.579 176.508C180.323 180.278 187.898 184.379 193.073 187.118L194.476 184.466C189.32 181.737 181.766 177.648 175.042 173.889C168.259 170.097 162.477 166.726 160.743 165.397L158.918 167.778ZM193.022 187.089C193.416 187.318 193.814 187.536 194.094 187.647L195.196 184.856C195.202 184.859 195.189 184.854 195.149 184.835C195.113 184.817 195.064 184.792 195.002 184.76C194.878 184.694 194.719 184.606 194.528 184.495L193.022 187.089ZM193.946 187.579L193.949 187.58L195.348 184.927L195.345 184.925L193.946 187.579ZM196.148 186.207L196.148 186.206L193.15 186.3L193.15 186.3L196.148 186.207ZM194.103 187.65C194.153 187.67 194.361 187.753 194.615 187.776L194.877 184.787C194.948 184.793 195.005 184.804 195.042 184.812C195.079 184.82 195.109 184.828 195.129 184.834C195.167 184.845 195.191 184.854 195.195 184.856L194.103 187.65ZM194.299 187.713C195.034 187.943 195.797 188.039 196.586 187.92C197.376 187.801 198.102 187.479 198.78 186.997L197.044 184.551C196.681 184.808 196.389 184.916 196.138 184.954C195.886 184.992 195.586 184.972 195.192 184.849L194.299 187.713ZM198.78 186.997C200.538 185.749 201.27 183.682 201.249 181.591C201.228 179.494 200.464 177.216 199.039 175.201L196.59 176.933C197.706 178.512 198.235 180.206 198.249 181.621C198.264 183.044 197.774 184.033 197.044 184.551L198.78 186.997ZM199.039 175.201C197.182 172.573 194.493 170.816 191.856 170.546L191.55 173.53C193.131 173.692 195.108 174.836 196.59 176.933L199.039 175.201ZM187.255 160.743C189.738 164.726 190.663 168.852 190.22 171.816L193.186 172.26C193.763 168.408 192.55 163.567 189.801 159.156L187.255 160.743ZM174.376 153.462C175.753 152.6 177.819 152.631 180.281 153.909C182.708 155.169 185.253 157.531 187.255 160.743L189.801 159.156C187.565 155.568 184.645 152.794 181.663 151.246C178.714 149.715 175.425 149.267 172.784 150.919L174.376 153.462ZM172.909 155.127C173.278 154.394 173.771 153.841 174.376 153.462L172.784 150.919C171.662 151.622 170.815 152.614 170.23 153.778L172.909 155.127Z" fill="black" mask="url(#path-94-inside-5_2883_64470)"/>
<defs>
<clipPath id="clip0_2883_64470">
<rect width="99.6578" height="74.5677" fill="white" transform="matrix(0.998884 -0.0472304 0.0470326 0.998893 33.9463 272.222)"/>
</clipPath>
<clipPath id="clip1_2883_64470">
<rect width="111.446" height="84.4054" fill="white" transform="matrix(-0.989549 0.1442 0.1442 0.989549 133.135 255.928)"/>
</clipPath>
</defs>
</svg>
