<svg width="20" height="20" viewBox="0 0 20 20" fill="none" xmlns="http://www.w3.org/2000/svg">
<g clip-path="url(#clip0_14292_139666)">
<path d="M17.6668 6.14949C17.4824 5.46065 16.9411 4.91932 16.2522 4.73493C15.0036 4.40039 10 4.40039 10 4.40039C10 4.40039 4.99638 4.40039 3.74909 4.73493C3.06026 4.91932 2.51893 5.46065 2.33454 6.14949C2 7.39677 2 10.0007 2 10.0007C2 10.0007 2 12.6045 2.33454 13.8518C2.51893 14.5407 3.06026 15.082 3.74909 15.2664C4.99638 15.6009 10 15.6009 10 15.6009C10 15.6009 15.0036 15.6009 16.2509 15.2664C16.9397 15.082 17.4811 14.5407 17.6655 13.8518C18 12.6045 18 10.0007 18 10.0007C18 10.0007 18 7.39677 17.6655 6.14949H17.6668Z" fill="#FF0000"/>
<path d="M8.40039 12.401L12.5584 10.0013L8.40039 7.60156V12.401Z" fill="white"/>
</g>
<defs>
<clipPath id="clip0_14292_139666">
<rect width="16" height="11.2005" fill="white" transform="translate(2 4.40039)"/>
</clipPath>
</defs>
</svg>
