<svg width="25" height="24" viewBox="0 0 25 24" fill="none" xmlns="http://www.w3.org/2000/svg">
<path fill-rule="evenodd" clip-rule="evenodd" d="M6.68722 3H18.3124C20.073 3 21.5 4.46359 21.5 6.26929V17.7307C21.5 19.5364 20.073 21 18.3124 21H6.68722C4.92701 21 3.5 19.5364 3.5 17.7307V6.26929C3.5 4.46359 4.92701 3 6.68722 3ZM11.4677 15.6925H13.0374C13.1098 15.6925 13.1341 15.651 13.1098 15.5685L10.3686 7.68385C10.3605 7.64239 10.3282 7.62185 10.2723 7.62185H8.35218C8.34515 7.62076 8.33812 7.62076 8.33109 7.62185C8.29032 7.62797 8.26185 7.66655 8.26783 7.70872C8.26712 7.87707 8.25096 8.04506 8.21932 8.21017C8.19711 8.29863 8.17458 8.36748 8.15204 8.43639C8.15033 8.44161 8.14863 8.44683 8.14692 8.45205L5.7319 15.5562C5.70765 15.6471 5.73577 15.6925 5.81661 15.6925H7.2292C7.29739 15.6957 7.3582 15.6489 7.37401 15.5808L7.94165 13.7693H10.731L11.3468 15.6056C11.3602 15.6615 11.4118 15.6986 11.4677 15.6925ZM18.8938 12.9477C18.9019 12.8818 18.9121 12.7743 18.924 12.6258C18.936 12.4773 18.9423 12.3122 18.9423 12.1305C18.9423 11.4917 18.7455 10.8169 18.3504 10.3162C17.8801 9.71954 17.1241 9.46792 16.3944 9.46792C15.5445 9.46792 14.7846 9.75411 14.2328 10.4398C13.7232 11.0732 13.4845 11.8976 13.4841 12.7123C13.4841 13.4632 13.694 14.2635 14.1604 14.8425C14.7526 15.5775 15.637 15.8457 16.5392 15.8457C16.8956 15.8515 17.2517 15.8205 17.6017 15.7527C17.8597 15.7094 18.111 15.6327 18.35 15.5242C18.3718 15.5101 18.3905 15.491 18.4042 15.4686C18.4182 15.4398 18.4245 15.4077 18.4224 15.3756V14.199C18.4224 14.1247 18.4021 14.1042 18.362 14.1373C18.1465 14.2242 17.9219 14.2844 17.6924 14.3162C17.4358 14.3695 17.175 14.3987 16.9135 14.4037C16.5838 14.411 16.2563 14.3454 15.9536 14.2109C15.7301 14.1143 15.5392 13.9531 15.4043 13.7466C15.282 13.5379 15.2039 13.3057 15.1748 13.0642H17.5536C17.6459 13.0642 17.7359 13.0711 17.8237 13.0779C17.9195 13.0852 18.0126 13.0924 18.1029 13.0901C18.2759 13.0862 18.4207 13.0779 18.5377 13.0652C18.6544 13.053 18.737 13.0469 18.7852 13.0469C18.8407 13.0469 18.8874 13.0043 18.8938 12.9477ZM15.3379 11.3872C15.528 11.0079 15.9188 10.7794 16.3339 10.8053C16.7779 10.7877 17.1782 11.0768 17.3121 11.5112C17.3416 11.6031 17.3578 11.699 17.3603 11.796V11.8702C17.3068 11.903 17.2471 11.9236 17.1852 11.9297C17.0928 11.934 16.9497 11.9358 16.7564 11.9358H15.1748C15.2001 11.7451 15.2549 11.5598 15.3379 11.3872ZM10.2843 12.2419L9.31808 9.03424L8.37646 12.2419H10.2843Z" fill="#757575"/>
</svg>
