<svg width="36" height="36" viewBox="0 0 36 36" fill="none" xmlns="http://www.w3.org/2000/svg">
<rect width="36" height="36" rx="8" fill="#9999F8"/>
<path fill-rule="evenodd" clip-rule="evenodd" d="M12.8331 10H23.1666C24.7315 10 26 11.301 26 12.906V23.094C26 24.699 24.7315 26 23.1666 26H12.8331C11.2685 26 10 24.699 10 23.094V12.906C10 11.301 11.2685 10 12.8331 10ZM17.0824 21.2822H18.4777C18.5421 21.2822 18.5636 21.2454 18.5421 21.172L16.1054 14.1634C16.0983 14.1266 16.0695 14.1083 16.0198 14.1083H14.3131C14.3068 14.1073 14.3006 14.1073 14.2943 14.1083C14.2581 14.1138 14.2328 14.148 14.2381 14.1855C14.2374 14.3352 14.2231 14.4845 14.195 14.6313C14.1752 14.7099 14.1552 14.7711 14.1351 14.8323C14.1336 14.837 14.1321 14.8416 14.1306 14.8463L11.9839 21.1611C11.9624 21.2418 11.9873 21.2822 12.0592 21.2822H13.3148C13.3755 21.2851 13.4295 21.2435 13.4436 21.1829L13.9481 19.5727H16.4276L16.9749 21.205C16.9868 21.2547 17.0327 21.2877 17.0824 21.2822ZM23.6834 18.8424C23.6905 18.7838 23.6996 18.6883 23.7102 18.5563C23.7208 18.4243 23.7265 18.2775 23.7265 18.116C23.7265 17.5482 23.5515 16.9483 23.2003 16.5032C22.7823 15.9729 22.1103 15.7493 21.4617 15.7493C20.7062 15.7493 20.0308 16.0037 19.5403 16.6132C19.0872 17.1762 18.8751 17.909 18.8748 18.6332C18.8748 19.3006 19.0613 20.012 19.4759 20.5266C20.0023 21.18 20.7884 21.4184 21.5904 21.4184C21.9072 21.4235 22.2237 21.396 22.5349 21.3357C22.7642 21.2973 22.9876 21.229 23.2 21.1326C23.2194 21.1201 23.236 21.1031 23.2481 21.0832C23.2606 21.0576 23.2663 21.0291 23.2644 21.0006V19.9547C23.2644 19.8886 23.2463 19.8704 23.2107 19.8999C23.0191 19.9771 22.8195 20.0306 22.6155 20.0588C22.3874 20.1062 22.1556 20.1322 21.9231 20.1367C21.6301 20.1431 21.3389 20.0848 21.0699 19.9652C20.8712 19.8794 20.7016 19.7361 20.5816 19.5525C20.4729 19.367 20.4035 19.1606 20.3776 18.9459H22.4921C22.5741 18.9459 22.6542 18.9521 22.7322 18.9581C22.8173 18.9646 22.9 18.971 22.9804 18.969C23.1341 18.9655 23.2628 18.9581 23.3669 18.9469C23.4706 18.936 23.544 18.9305 23.5868 18.9305C23.6362 18.9305 23.6777 18.8927 23.6834 18.8424ZM20.5225 17.4553C20.6916 17.1182 21.039 16.915 21.408 16.9381C21.8025 16.9224 22.1584 17.1794 22.2774 17.5655C22.3037 17.6472 22.3181 17.7324 22.3202 17.8186V17.8846C22.2727 17.9138 22.2196 17.9321 22.1646 17.9375C22.0825 17.9414 21.9553 17.943 21.7835 17.943H20.3776C20.4001 17.7735 20.4488 17.6087 20.5225 17.4553ZM16.0305 18.215L15.1716 15.3638L14.3346 18.215H16.0305Z" fill="black" fill-opacity="0.54"/>
</svg>
