<svg width="25" height="24" viewBox="0 0 25 24" fill="none" xmlns="http://www.w3.org/2000/svg">
<path d="M10.8125 9.03065H10.7974L9.8675 12.2383H11.7726L10.8125 9.03065ZM10.8125 9.03065H10.7974L9.8675 12.2383H11.7726L10.8125 9.03065ZM18.3124 3H6.68762C4.92488 3 3.5 4.46142 3.5 6.26935V17.7306C3.5 19.5386 4.92488 21 6.68762 21H18.3124C20.0751 21 21.5 19.5386 21.5 17.7306V6.26935C21.5 4.46142 20.0751 3 18.3124 3ZM14.525 15.7154H12.9574C12.905 15.723 12.8526 15.6847 12.8375 15.6306L12.2226 13.8H9.43262L8.86238 15.6076C8.84762 15.6768 8.7875 15.723 8.72 15.7154H7.30988C7.22762 15.7154 7.20512 15.6692 7.22762 15.5769L9.6425 8.44615C9.665 8.36935 9.6875 8.28462 9.71738 8.19231C9.74762 8.03077 9.76238 7.86166 9.76238 7.69219C9.755 7.65397 9.78488 7.61538 9.8225 7.60781H11.7649C11.825 7.60781 11.8549 7.63089 11.8626 7.66911L14.5999 15.5924C14.6224 15.6768 14.5999 15.7154 14.525 15.7154ZM17.0749 15.6C17.0749 15.6847 17.045 15.723 16.9775 15.723H15.5076C15.4324 15.723 15.3951 15.6768 15.3951 15.6V9.6768C15.3951 9.6 15.425 9.56935 15.4925 9.56935H16.9775C17.045 9.56935 17.0749 9.60757 17.0749 9.6768V15.6ZM16.9174 8.65385C16.7451 8.83846 16.4899 8.93834 16.235 8.9232C15.9875 8.93077 15.7474 8.83089 15.5674 8.65385C15.3951 8.46166 15.3051 8.20781 15.3125 7.94603C15.3051 7.68462 15.4025 7.43834 15.5825 7.26166C15.7625 7.08462 16.0026 6.99231 16.2501 6.99231C16.5426 6.99231 16.7676 7.08462 16.9325 7.26166C17.0974 7.44627 17.1874 7.69219 17.18 7.94603C17.1874 8.20781 17.0974 8.46166 16.9174 8.65385ZM10.7974 9.03065L9.8675 12.2383H11.7726L10.8125 9.03065H10.7974Z" fill="#757575"/>
</svg>
