<svg width="37" height="36" viewBox="0 0 37 36" fill="none" xmlns="http://www.w3.org/2000/svg">
<rect x="0.5" width="36" height="36" rx="8" fill="#F9A947"/>
<path d="M17.5 15.3606H17.4866L16.66 18.2119H18.3534L17.5 15.3606ZM17.5 15.3606H17.4866L16.66 18.2119H18.3534L17.5 15.3606ZM24.1666 10H13.8334C12.2666 10 11 11.299 11 12.9061C11 14.5131 11 23.0939 11 23.0939C11 24.701 12.2666 26 13.8334 26H24.1666C25.7334 26 27 24.701 27 23.0939V12.9061C27 11.299 25.7334 10 24.1666 10ZM20.8 21.3026H19.4066C19.36 21.3093 19.3134 21.2753 19.3 21.2272L18.7534 19.6H16.2734L15.7666 21.2067C15.7534 21.2683 15.7 21.3093 15.64 21.3026H14.3866C14.3134 21.3026 14.2934 21.2615 14.3134 21.1795L16.46 14.841C16.48 14.7728 16.5 14.6974 16.5266 14.6154C16.5534 14.4718 16.5666 14.3215 16.5666 14.1708C16.56 14.1369 16.5866 14.1026 16.62 14.0958H18.3466C18.4 14.0958 18.4266 14.1163 18.4334 14.1503L20.8666 21.1933C20.8866 21.2683 20.8666 21.3026 20.8 21.3026ZM23.0666 21.2C23.0666 21.2753 23.04 21.3093 22.98 21.3093H21.6734C21.6066 21.3093 21.5734 21.2683 21.5734 21.2V15.9349C21.5734 15.8667 21.6 15.8394 21.66 15.8394H22.98C23.04 15.8394 23.0666 15.8734 23.0666 15.9349V21.2ZM22.9266 15.0256C22.7734 15.1897 22.5466 15.2785 22.32 15.2651C22.1 15.2718 21.8866 15.183 21.7266 15.0256C21.5734 14.8548 21.4934 14.6292 21.5 14.3965C21.4934 14.1641 21.58 13.9452 21.74 13.7881C21.9 13.6308 22.1134 13.5487 22.3334 13.5487C22.5934 13.5487 22.7934 13.6308 22.94 13.7881C23.0866 13.9522 23.1666 14.1708 23.16 14.3965C23.1666 14.6292 23.0866 14.8548 22.9266 15.0256ZM17.4866 15.3606L16.66 18.2119H18.3534L17.5 15.3606H17.4866Z" fill="black" fill-opacity="0.54"/>
</svg>
