<svg width="25" height="24" viewBox="0 0 25 24" fill="none" xmlns="http://www.w3.org/2000/svg">
<path fill-rule="evenodd" clip-rule="evenodd" d="M6.68749 3H18.3125C20.0748 3 21.5 4.46172 21.5 6.26922V17.7308C21.5 19.5383 20.0748 21 18.3125 21H6.68749C4.92518 21 3.5 19.5383 3.5 17.7308V6.26922C3.5 4.46172 4.92518 3 6.68749 3ZM10.1 13.1614C11.1827 13.1614 12.3281 12.9191 12.995 11.9614C13.5047 11.2298 13.574 10.1539 13.2724 9.32318C13.0069 8.59124 12.4216 8.08537 11.7199 7.81531C11.3002 7.65378 10.7901 7.57698 10.1752 7.57698L8.27016 7.61556C8.09757 7.62313 7.97769 7.62313 7.85009 7.62313H7.85006C7.79768 7.62313 7.77518 7.65378 7.77518 7.70786V15.6229C7.77518 15.6922 7.80507 15.7232 7.86518 15.7232H9.31989C9.37262 15.7152 9.40989 15.6691 9.4025 15.6154V13.1462C9.54488 13.1462 9.64999 13.1462 9.72487 13.1538C9.8001 13.1614 9.91995 13.1614 10.0999 13.1614H10.1ZM17.9898 11.1231C18.0724 11.1231 18.11 11.1 18.11 11.0384V9.50779C18.1023 9.45371 18.0573 9.41549 18.0049 9.42306C17.6073 9.42306 17.2101 9.52294 16.8648 9.72305C16.5576 9.89251 16.2876 10.1153 16.0626 10.3847C16.0626 10.2848 16.0549 10.1925 16.0475 10.1078C16.0401 10.031 16.025 9.94624 16.0099 9.86944C16.0025 9.80021 15.9874 9.73855 15.9649 9.6769C15.9424 9.60767 15.8826 9.55394 15.8074 9.55394H14.495C14.4873 9.54601 14.4725 9.54601 14.4725 9.55394C14.4349 9.56152 14.4124 9.6001 14.4198 9.63868L14.4215 9.65867C14.436 9.82817 14.45 9.99149 14.45 10.1615C14.4537 10.2615 14.4556 10.3615 14.4574 10.4615C14.4593 10.5615 14.4611 10.6615 14.4648 10.7615C14.4725 10.9616 14.4725 11.1538 14.4725 11.3384V15.6309C14.4799 15.6922 14.5323 15.7307 14.5924 15.7232H16.07C16.1375 15.7232 16.1674 15.6922 16.1674 15.6154V11.6924C16.2725 11.5691 16.4075 11.4768 16.5498 11.4076C16.7523 11.3153 16.9626 11.2461 17.1798 11.1999C17.4424 11.1386 17.7198 11.1155 17.9898 11.1231ZM11.8099 10.3692C11.8177 10.1308 11.7576 9.89251 11.6377 9.68446C11.5101 9.48471 11.3301 9.33075 11.1125 9.24602C10.8351 9.13064 10.5352 9.08449 10.2276 9.09242C10.0325 9.09242 9.85989 9.09242 9.71752 9.09999C9.56741 9.09242 9.46264 9.09999 9.40991 9.10756V11.6924C9.41767 11.693 9.42539 11.6936 9.43307 11.6941C9.52937 11.7011 9.61905 11.7076 9.7024 11.7076H10.1C10.3925 11.7076 10.685 11.6614 10.9627 11.5691C11.2025 11.4999 11.4127 11.3539 11.5776 11.1617C11.7351 10.9691 11.8099 10.7077 11.8099 10.3692Z" fill="#757575"/>
</svg>
