<svg width="37" height="36" viewBox="0 0 37 36" fill="none" xmlns="http://www.w3.org/2000/svg">
<rect x="0.5" width="36" height="36" rx="8" fill="#9999F8"/>
<path fill-rule="evenodd" clip-rule="evenodd" d="M13.8333 10.5H24.1667C25.7332 10.5 27 11.7993 27 13.406V23.594C27 25.2007 25.7332 26.5 24.1667 26.5H13.8333C12.2668 26.5 11 25.2007 11 23.594V13.406C11 11.7993 12.2668 10.5 13.8333 10.5ZM16.8666 19.5323C17.8291 19.5323 18.8472 19.317 19.44 18.4657C19.8931 17.8154 19.9546 16.859 19.6865 16.1206C19.4506 15.47 18.9303 15.0203 18.3066 14.7803C17.9335 14.6367 17.4801 14.5684 16.9335 14.5684L15.2401 14.6027C15.0867 14.6095 14.9802 14.6095 14.8667 14.6095H14.8667C14.8202 14.6095 14.8002 14.6367 14.8002 14.6848V21.7204C14.8002 21.7819 14.8267 21.8095 14.8802 21.8095H16.1732C16.2201 21.8024 16.2532 21.7614 16.2467 21.7137V19.5189C16.3732 19.5189 16.4667 19.5189 16.5332 19.5256C16.6001 19.5323 16.7066 19.5323 16.8666 19.5323H16.8666ZM23.8798 17.7205C23.9532 17.7205 23.9867 17.7 23.9867 17.6452V16.2847C23.9798 16.2366 23.9398 16.2027 23.8932 16.2094C23.5398 16.2094 23.1867 16.2982 22.8798 16.476C22.6067 16.6267 22.3667 16.8247 22.1668 17.0642C22.1668 16.9754 22.1599 16.8933 22.1533 16.818C22.1468 16.7497 22.1333 16.6744 22.1199 16.6062C22.1133 16.5446 22.0999 16.4898 22.0799 16.435C22.0599 16.3735 22.0068 16.3257 21.9399 16.3257H20.7734C20.7665 16.3187 20.7534 16.3187 20.7534 16.3257C20.7199 16.3325 20.6999 16.3668 20.7065 16.401L20.708 16.4188C20.7209 16.5695 20.7334 16.7147 20.7334 16.8658C20.7366 16.9547 20.7383 17.0436 20.7399 17.1324C20.7416 17.2214 20.7432 17.3103 20.7465 17.3991C20.7534 17.577 20.7534 17.7478 20.7534 17.9119V21.7274C20.7599 21.7819 20.8065 21.8162 20.8599 21.8095H22.1733C22.2333 21.8095 22.2599 21.7819 22.2599 21.7137V18.2266C22.3533 18.117 22.4733 18.035 22.5999 17.9734C22.7799 17.8914 22.9667 17.8298 23.1598 17.7888C23.3933 17.7343 23.6398 17.7138 23.8798 17.7205ZM18.3865 17.0504C18.3934 16.8385 18.3399 16.6267 18.2334 16.4417C18.1199 16.2642 17.9599 16.1273 17.7665 16.052C17.52 15.9495 17.2534 15.9084 16.98 15.9155C16.8065 15.9155 16.6531 15.9155 16.5266 15.9222C16.3931 15.9155 16.3 15.9222 16.2531 15.9289V18.2266C16.26 18.2271 16.2669 18.2276 16.2737 18.2281C16.3593 18.2343 16.439 18.2401 16.5131 18.2401H16.8665C17.1265 18.2401 17.3865 18.199 17.6334 18.117C17.8465 18.0555 18.0334 17.9257 18.1799 17.7548C18.3199 17.5837 18.3865 17.3513 18.3865 17.0504Z" fill="black" fill-opacity="0.54"/>
</svg>
