<svg width="25" height="24" viewBox="0 0 25 24" fill="none" xmlns="http://www.w3.org/2000/svg">
<rect width="24" height="24" transform="translate(0.020752)"/>
<path d="M4.52075 21C4.12075 21 3.77075 20.85 3.47075 20.55C3.17075 20.25 3.02075 19.9 3.02075 19.5V4.5C3.02075 4.1 3.17075 3.75 3.47075 3.45C3.77075 3.15 4.12075 3 4.52075 3H19.5208C19.9208 3 20.2708 3.15 20.5708 3.45C20.8708 3.75 21.0208 4.1 21.0208 4.5V19.5C21.0208 19.9 20.8708 20.25 20.5708 20.55C20.2708 20.85 19.9208 21 19.5208 21H4.52075ZM5.02075 19H19.5208V5H5.02075V19Z" fill="black" fill-opacity="0.54"/>
<path d="M10.6708 10.25L8.92075 12L10.6958 13.775C10.8458 13.925 10.9208 14.1084 10.9208 14.325C10.9208 14.5417 10.8458 14.725 10.6958 14.875C10.5458 15.025 10.3638 15.1 10.1499 15.1C9.93603 15.1 9.7513 15.025 9.59575 14.875L7.24575 12.525C7.16242 12.4417 7.10409 12.3584 7.07075 12.275C7.03742 12.1917 7.02075 12.1011 7.02075 12.0033C7.02075 11.9056 7.03742 11.8139 7.07075 11.7283C7.10409 11.6428 7.16242 11.5584 7.24575 11.475L9.57075 9.15002C9.7263 9.00002 9.91103 8.92502 10.1249 8.92502C10.3388 8.92502 10.5208 9.00002 10.6708 9.15002C10.8208 9.30002 10.8958 9.48336 10.8958 9.70002C10.8958 9.91669 10.8208 10.1 10.6708 10.25Z" fill="black" fill-opacity="0.54"/>
<path d="M13.3458 13.775L15.1208 12L13.3458 10.225C13.1958 10.075 13.1208 9.89336 13.1208 9.68002C13.1208 9.46669 13.1985 9.28002 13.3541 9.12002C13.4319 9.04002 13.5166 8.98336 13.6083 8.95002C13.6999 8.91669 13.7958 8.90002 13.8958 8.90002C13.9958 8.90002 14.0958 8.91669 14.1958 8.95002C14.2958 8.98336 14.3791 9.04169 14.4458 9.12502L16.7958 11.475C16.8791 11.5584 16.9374 11.6417 16.9708 11.725C17.0041 11.8084 17.0208 11.8989 17.0208 11.9967C17.0208 12.0945 17.0041 12.1861 16.9708 12.2717C16.9374 12.3573 16.8791 12.4417 16.7958 12.525L14.4458 14.875C14.2902 15.025 14.1055 15.1 13.8916 15.1C13.6777 15.1 13.4958 15.025 13.3458 14.875C13.1958 14.725 13.1208 14.5417 13.1208 14.325C13.1208 14.1084 13.1958 13.925 13.3458 13.775Z" fill="black" fill-opacity="0.54"/>
</svg>
