<svg width="36" height="36" viewBox="0 0 36 36" fill="none" xmlns="http://www.w3.org/2000/svg">
<rect width="36" height="36" rx="8" fill="#EDD6FF"/>
<path d="M11.75 25.5C11.4167 25.5 11.125 25.375 10.875 25.125C10.625 24.875 10.5 24.5833 10.5 24.25V11.75C10.5 11.4167 10.625 11.125 10.875 10.875C11.125 10.625 11.4167 10.5 11.75 10.5H24.25C24.5833 10.5 24.875 10.625 25.125 10.875C25.375 11.125 25.5 11.4167 25.5 11.75V24.25C25.5 24.5833 25.375 24.875 25.125 25.125C24.875 25.375 24.5833 25.5 24.25 25.5H11.75ZM12.1667 23.8333H23.816V12.1667H12.1667V23.8333Z" fill="black" fill-opacity="0.54"/>
<path d="M16.875 16.5417L15.4167 18L16.8958 19.4792C17.0208 19.6042 17.0833 19.757 17.0833 19.9375C17.0833 20.1181 17.0208 20.2709 16.8958 20.3959C16.7708 20.5209 16.6192 20.5834 16.441 20.5834C16.2627 20.5834 16.1088 20.5209 15.9792 20.3959L14.0208 18.4375C13.9514 18.3681 13.9028 18.2986 13.875 18.2292C13.8472 18.1597 13.8333 18.0843 13.8333 18.0028C13.8333 17.9213 13.8472 17.8449 13.875 17.7736C13.9028 17.7023 13.9514 17.632 14.0208 17.5625L15.9583 15.625C16.088 15.5 16.2419 15.4375 16.4201 15.4375C16.5984 15.4375 16.75 15.5 16.875 15.625C17 15.75 17.0625 15.9028 17.0625 16.0834C17.0625 16.2639 17 16.4167 16.875 16.5417Z" fill="black" fill-opacity="0.54"/>
<path d="M19.1042 19.4792L20.5833 18L19.1042 16.5209C18.9792 16.3959 18.9167 16.2445 18.9167 16.0667C18.9167 15.8889 18.9815 15.7334 19.1111 15.6C19.1759 15.5334 19.2465 15.4861 19.3229 15.4584C19.3993 15.4306 19.4792 15.4167 19.5625 15.4167C19.6458 15.4167 19.7292 15.4306 19.8125 15.4584C19.8958 15.4861 19.9653 15.5347 20.0208 15.6042L21.9792 17.5625C22.0486 17.632 22.0972 17.7014 22.125 17.7709C22.1528 17.8403 22.1667 17.9158 22.1667 17.9973C22.1667 18.0787 22.1528 18.1551 22.125 18.2264C22.0972 18.2977 22.0486 18.3681 21.9792 18.4375L20.0208 20.3959C19.8912 20.5209 19.7373 20.5834 19.559 20.5834C19.3808 20.5834 19.2292 20.5209 19.1042 20.3959C18.9792 20.2709 18.9167 20.1181 18.9167 19.9375C18.9167 19.757 18.9792 19.6042 19.1042 19.4792Z" fill="black" fill-opacity="0.54"/>
</svg>
