<svg width="36" height="36" viewBox="0 0 36 36" fill="none" xmlns="http://www.w3.org/2000/svg">
<rect width="36" height="36" rx="8" fill="#FFBFDD"/>
<g clip-path="url(#clip0_343_6216)">
<path d="M23.8333 12.1667V23.8333H12.1667V12.1667H23.8333ZM23.8333 10.5H12.1667C11.25 10.5 10.5 11.25 10.5 12.1667V23.8333C10.5 24.75 11.25 25.5 12.1667 25.5H23.8333C24.75 25.5 25.5 24.75 25.5 23.8333V12.1667C25.5 11.25 24.75 10.5 23.8333 10.5Z" fill="black" fill-opacity="0.54"/>
<path d="M19.6666 21.3333C19.6666 21.7936 19.2935 22.1667 18.8333 22.1667H14.6666C14.2063 22.1667 13.8333 21.7936 13.8333 21.3333C13.8333 20.8731 14.2063 20.5 14.6666 20.5H18.8333C19.2935 20.5 19.6666 20.8731 19.6666 21.3333ZM22.1666 18C22.1666 18.4602 21.7935 18.8333 21.3333 18.8333H14.6666C14.2063 18.8333 13.8333 18.4602 13.8333 18C13.8333 17.5398 14.2063 17.1667 14.6666 17.1667H21.3333C21.7935 17.1667 22.1666 17.5398 22.1666 18ZM22.1666 14.6667C22.1666 15.1269 21.7935 15.5 21.3333 15.5H14.6666C14.2063 15.5 13.8333 15.1269 13.8333 14.6667C13.8333 14.2064 14.2063 13.8333 14.6666 13.8333H21.3333C21.7935 13.8333 22.1666 14.2064 22.1666 14.6667Z" fill="black" fill-opacity="0.54"/>
</g>
<defs>
<clipPath id="clip0_343_6216">
<rect width="20" height="20" fill="white" transform="translate(8 8)"/>
</clipPath>
</defs>
</svg>
