<svg width="25" height="24" viewBox="0 0 25 24" fill="none" xmlns="http://www.w3.org/2000/svg">
<path d="M9.57353 3C7.60933 3 6 4.586 6 6.52174C6 7.65077 6.58244 8.61509 7.42848 9.26087C6.58244 9.90665 6 10.871 6 12C6 13.129 6.58244 14.0933 7.42848 14.7391C6.58244 15.3849 6 16.3492 6 17.4783C6 19.414 7.60933 21 9.57353 21C11.5377 21 13.1471 19.414 13.1471 17.4783V14.7391V10.0435H15.1324C17.0966 10.0435 18.7059 8.45747 18.7059 6.52174C18.7059 4.586 17.0966 3 15.1324 3H12.3529H9.57353ZM9.57353 4.56522H11.5588V8.47826H9.57353C8.46767 8.47826 7.58824 7.61157 7.58824 6.52174C7.58824 5.43191 8.46767 4.56522 9.57353 4.56522ZM13.1471 4.56522H15.1324C16.2382 4.56522 17.1176 5.43191 17.1176 6.52174C17.1176 7.61157 16.2382 8.47826 15.1324 8.47826H13.1471V4.56522ZM9.57353 10.0435H11.5588V13.9565H9.57353C8.46767 13.9565 7.58824 13.0898 7.58824 12C7.58824 10.9102 8.46767 10.0435 9.57353 10.0435ZM15.5294 10.0435C14.8976 10.0435 14.2916 10.2908 13.8448 10.7311C13.3981 11.1714 13.1471 11.7686 13.1471 12.3913C13.1471 13.014 13.3981 13.6112 13.8448 14.0515C14.2916 14.4918 14.8976 14.7391 15.5294 14.7391C16.1613 14.7391 16.7672 14.4918 17.214 14.0515C17.6608 13.6112 17.9118 13.014 17.9118 12.3913C17.9118 11.7686 17.6608 11.1714 17.214 10.7311C16.7672 10.2908 16.1613 10.0435 15.5294 10.0435ZM9.57353 15.5217H11.5588V17.4783C11.5588 18.5681 10.6794 19.4348 9.57353 19.4348C8.46767 19.4348 7.58824 18.5681 7.58824 17.4783C7.58824 16.3884 8.46767 15.5217 9.57353 15.5217Z" fill="#757575"/>
</svg>
