<svg width="37" height="36" viewBox="0 0 37 36" fill="none" xmlns="http://www.w3.org/2000/svg">
<rect x="0.5" width="36" height="36" rx="8" fill="#63D390"/>
<path d="M16.1765 10C14.4305 10 13 11.4098 13 13.1304C13 14.134 13.5177 14.9912 14.2698 15.5652C13.5177 16.1392 13 16.9964 13 18C13 19.0036 13.5177 19.8608 14.2698 20.4348C13.5177 21.0088 13 21.866 13 22.8696C13 24.5902 14.4305 26 16.1765 26C17.9224 26 19.3529 24.5902 19.3529 22.8696V20.4348V16.2609H21.1176C22.8636 16.2609 24.2941 14.8511 24.2941 13.1304C24.2941 11.4098 22.8636 10 21.1176 10H18.6471H16.1765ZM16.1765 11.3913H17.9412V14.8696H16.1765C15.1935 14.8696 14.4118 14.0992 14.4118 13.1304C14.4118 12.1617 15.1935 11.3913 16.1765 11.3913ZM19.3529 11.3913H21.1176C22.1006 11.3913 22.8824 12.1617 22.8824 13.1304C22.8824 14.0992 22.1006 14.8696 21.1176 14.8696H19.3529V11.3913ZM16.1765 16.2609H17.9412V19.7391H16.1765C15.1935 19.7391 14.4118 18.9687 14.4118 18C14.4118 17.0313 15.1935 16.2609 16.1765 16.2609ZM21.4706 16.2609C20.909 16.2609 20.3703 16.4807 19.9732 16.8721C19.576 17.2635 19.3529 17.7943 19.3529 18.3478C19.3529 18.9013 19.576 19.4321 19.9732 19.8235C20.3703 20.2149 20.909 20.4348 21.4706 20.4348C22.0322 20.4348 22.5709 20.2149 22.968 19.8235C23.3651 19.4321 23.5882 18.9013 23.5882 18.3478C23.5882 17.7943 23.3651 17.2635 22.968 16.8721C22.5709 16.4807 22.0322 16.2609 21.4706 16.2609ZM16.1765 21.1304H17.9412V22.8696C17.9412 23.8383 17.1595 24.6087 16.1765 24.6087C15.1935 24.6087 14.4118 23.8383 14.4118 22.8696C14.4118 21.9008 15.1935 21.1304 16.1765 21.1304Z" fill="black" fill-opacity="0.54"/>
</svg>
