<svg width="24" height="24" viewBox="0 0 24 24" fill="none" xmlns="http://www.w3.org/2000/svg">
<path fill-rule="evenodd" clip-rule="evenodd" d="M3 5C3 3.89543 3.89543 3 5 3H19C20.1046 3 21 3.89543 21 5V19C21 20.1046 20.1046 21 19 21H5C3.89543 21 3 20.1046 3 19V5ZM5 5H19V19H5V5ZM12.004 8.90769L13.6695 13.1538H10.3386L12.004 8.90769ZM14.2649 14.6923L14.989 16.5231C15.1097 16.8077 15.3993 17 15.7211 17C16.2682 17 16.6464 16.4692 16.4452 15.9846L13.0258 7.66923C12.8569 7.26154 12.4546 7 12.004 7C11.5535 7 11.1512 7.26154 10.9742 7.66923L7.55475 15.9846C7.35361 16.4692 7.73176 17 8.27887 17C8.60874 17 8.89839 16.8077 9.01102 16.5154L9.72709 14.6923H14.2649Z" fill="black" fill-opacity="0.54"/>
</svg>
