<svg width="36" height="36" viewBox="0 0 36 36" fill="none" xmlns="http://www.w3.org/2000/svg">
<rect width="36" height="36" rx="8" fill="#F9C07A"/>
<path fill-rule="evenodd" clip-rule="evenodd" d="M10 11.7778C10 10.7959 10.7959 10 11.7778 10H24.2222C25.2041 10 26 10.7959 26 11.7778V24.2222C26 25.2041 25.2041 26 24.2222 26H11.7778C10.7959 26 10 25.2041 10 24.2222V11.7778ZM11.7778 11.7778H24.2222V24.2222H11.7778V11.7778ZM18.0036 15.2515L19.484 19.0258H16.5232L18.0036 15.2515ZM20.0132 20.3933L20.6569 22.0207C20.7641 22.2737 21.0216 22.4446 21.3077 22.4446C21.794 22.4446 22.1301 21.9728 21.9513 21.5421L18.9118 14.1506C18.7617 13.7882 18.4041 13.5557 18.0036 13.5557C17.6031 13.5557 17.2455 13.7882 17.0882 14.1506L14.0487 21.5421C13.8699 21.9728 14.206 22.4446 14.6923 22.4446C14.9855 22.4446 15.243 22.2737 15.3431 22.0138L15.9796 20.3933H20.0132Z" fill="black" fill-opacity="0.54"/>
</svg>
