<svg width="25" height="24" viewBox="0 0 25 24" fill="none" xmlns="http://www.w3.org/2000/svg">
<path d="M18.3124 3H6.68762C4.92488 3 3.5 4.46142 3.5 6.26935V17.7306C3.5 19.5386 4.92488 21 6.68762 21H18.3124C20.0751 21 21.5 19.5386 21.5 17.7306V6.26935C21.5 4.46142 20.0751 3 18.3124 3ZM10.0401 15.6C10.0401 15.6847 10.0025 15.723 9.935 15.723H8.46512C8.39762 15.723 8.36738 15.6847 8.36738 15.6V7.70769C8.36738 7.63846 8.405 7.60781 8.4725 7.60781H9.935C9.98 7.59988 10.025 7.63089 10.0324 7.68462C10.0401 7.69219 10.0401 7.70012 10.0401 7.70769V15.6ZM16.7374 15.3692C16.3475 15.5383 15.9351 15.6617 15.515 15.7385C15.1399 15.8077 14.75 15.8463 14.3601 15.8463C13.805 15.8538 13.2499 15.7385 12.7475 15.5001C12.275 15.2769 11.8851 14.9077 11.6151 14.4537C11.3374 13.9846 11.2024 13.4001 11.2024 12.6999C11.195 12.1309 11.3374 11.5691 11.6151 11.0769C11.8999 10.5768 12.3126 10.1614 12.8076 9.8845C13.3325 9.5845 13.9625 9.43846 14.705 9.43846C14.7426 9.43846 14.795 9.43846 14.8625 9.44603C14.93 9.45397 15.0049 9.45397 15.0949 9.46154V7.03089C15.0949 6.9768 15.1174 6.94615 15.1701 6.94615H16.6924C16.73 6.93858 16.7599 6.96923 16.7676 6.99988C16.7676 7.00781 16.7676 7.01538 16.7676 7.01538V14.3383C16.7676 14.4768 16.775 14.6308 16.7824 14.7999C16.7975 14.9614 16.8049 15.1154 16.8126 15.2463C16.8126 15.3 16.7901 15.3462 16.7374 15.3692ZM14.6449 10.8692C14.3524 10.8692 14.0599 10.9309 13.7976 11.0694C13.5424 11.1999 13.3251 11.3924 13.1599 11.6383C12.995 11.8846 12.9124 12.2153 12.9124 12.6155C12.905 12.8845 12.95 13.1538 13.04 13.4077C13.1149 13.6154 13.2274 13.8 13.3775 13.954C13.5199 14.0924 13.6925 14.1999 13.8876 14.2615C14.0901 14.3308 14.3 14.3615 14.5099 14.3615C14.6224 14.3615 14.7275 14.3539 14.8249 14.3463C14.9226 14.3539 15.0126 14.3384 15.0949 14.3077V10.923C15.0274 10.9078 14.9599 10.8923 14.8924 10.8848C14.8101 10.8768 14.7275 10.8692 14.6449 10.8692Z" fill="#757575"/>
</svg>
