<svg width="37" height="36" viewBox="0 0 37 36" fill="none" xmlns="http://www.w3.org/2000/svg">
<rect x="0.5" width="36" height="36" rx="8" fill="#FF6D8A"/>
<path d="M24.1666 10H13.8334C12.2666 10 11 11.299 11 12.9061V23.0939C11 24.701 12.2666 26 13.8334 26H24.1666C25.7334 26 27 24.701 27 23.0939V12.9061C27 11.299 25.7334 10 24.1666 10ZM16.8134 21.2C16.8134 21.2753 16.78 21.3093 16.72 21.3093H15.4134C15.3534 21.3093 15.3266 21.2753 15.3266 21.2V14.1846C15.3266 14.1231 15.36 14.0958 15.42 14.0958H16.72C16.76 14.0888 16.8 14.1163 16.8066 14.1641C16.8134 14.1708 16.8134 14.1779 16.8134 14.1846V21.2ZM22.7666 20.9949C22.42 21.1452 22.0534 21.2548 21.68 21.3231C21.3466 21.3846 21 21.4189 20.6534 21.4189C20.16 21.4256 19.6666 21.3231 19.22 21.1112C18.8 20.9128 18.4534 20.5846 18.2134 20.1811C17.9666 19.7641 17.8466 19.2446 17.8466 18.6221C17.84 18.1163 17.9666 17.617 18.2134 17.1795C18.4666 16.7349 18.8334 16.3657 19.2734 16.1196C19.74 15.8529 20.3 15.7231 20.96 15.7231C20.9934 15.7231 21.04 15.7231 21.1 15.7298C21.16 15.7369 21.2266 15.7369 21.3066 15.7436V13.583C21.3066 13.5349 21.3266 13.5077 21.3734 13.5077H22.7266C22.76 13.501 22.7866 13.5282 22.7934 13.5554C22.7934 13.5625 22.7934 13.5692 22.7934 13.5692V20.0785C22.7934 20.2016 22.8 20.3385 22.8066 20.4888C22.82 20.6324 22.8266 20.7692 22.8334 20.8856C22.8334 20.9333 22.8134 20.9744 22.7666 20.9949ZM20.9066 16.9949C20.6466 16.9949 20.3866 17.0497 20.1534 17.1728C19.9266 17.2888 19.7334 17.4599 19.5866 17.6785C19.44 17.8974 19.3666 18.1913 19.3666 18.5471C19.36 18.7862 19.4 19.0256 19.48 19.2513C19.5466 19.4359 19.6466 19.6 19.78 19.7369C19.9066 19.8599 20.06 19.9554 20.2334 20.0103C20.4134 20.0718 20.6 20.0991 20.7866 20.0991C20.8866 20.0991 20.98 20.0923 21.0666 20.0856C21.1534 20.0923 21.2334 20.0786 21.3066 20.0513V17.0427C21.2466 17.0292 21.1866 17.0154 21.1266 17.0087C21.0534 17.0016 20.98 16.9949 20.9066 16.9949Z" fill="black" fill-opacity="0.54"/>
</svg>
