<svg width="25" height="24" viewBox="0 0 25 24" fill="none" xmlns="http://www.w3.org/2000/svg">
<path fill-rule="evenodd" clip-rule="evenodd" d="M6.68762 3H18.3124C20.0751 3 21.5 4.46142 21.5 6.26935V17.7306C21.5 19.5386 20.0751 21 18.3124 21H6.68762C4.92488 21 3.5 19.5386 3.5 17.7306V6.26935C3.5 4.46142 4.92488 3 6.68762 3ZM11.5624 12.9C12.05 12.7154 12.4701 12.3923 12.77 11.9614C13.0699 11.5309 13.22 10.9846 13.22 10.323C13.22 9.9768 13.1599 9.64615 13.0474 9.32308C12.9275 8.99243 12.7401 8.69243 12.5 8.44615C12.2149 8.16166 11.87 7.94603 11.4949 7.81551C11.0751 7.65397 10.565 7.5768 9.95012 7.5768C9.72512 7.5768 9.50012 7.5768 9.26738 7.58474C9.15518 7.58839 9.04641 7.59028 8.94113 7.59211C8.82837 7.59407 8.7196 7.59596 8.61488 7.59988C8.51429 7.60382 8.41743 7.6058 8.32335 7.60773C8.22804 7.60968 8.13558 7.61157 8.045 7.61538C7.87238 7.62296 7.7525 7.62296 7.62488 7.62296C7.5725 7.62296 7.55 7.65397 7.55 7.70769V15.6231C7.55 15.6923 7.57988 15.723 7.64 15.723H9.09512C9.1475 15.7154 9.18512 15.6692 9.17738 15.6155V13.1463C9.32012 13.1463 9.42488 13.1463 9.50012 13.1538C9.575 13.1614 9.69488 13.1614 9.87488 13.1614C10.4901 13.1614 11.0526 13.0922 11.5624 12.9ZM17.2475 15.6386C17.585 15.5001 17.8775 15.2614 18.0874 14.9538C18.2825 14.6538 18.3876 14.2922 18.3799 13.9309C18.3876 13.654 18.3275 13.3846 18.2076 13.1383C18.0649 12.8769 17.8624 12.6617 17.6149 12.5001C17.2549 12.2694 16.865 12.0768 16.46 11.9383C16.28 11.8615 16.1 11.7768 15.9274 11.6845C15.83 11.6308 15.74 11.5615 15.6725 11.4768C15.6275 11.4155 15.5976 11.3463 15.5976 11.277C15.5976 11.2078 15.6201 11.1306 15.6574 11.0694C15.7101 10.9922 15.7924 10.9385 15.8901 10.9154C16.0325 10.8768 16.19 10.8537 16.3401 10.8617C16.6249 10.8617 16.9026 10.8999 17.18 10.9615C17.4349 11.0153 17.675 11.1 17.9 11.223C17.9299 11.2385 17.9675 11.2385 18.035 11.223C18.0575 11.2078 18.0726 11.1768 18.0726 11.1462V9.89243C18.0726 9.86276 18.0655 9.83342 18.0585 9.80409L18.0575 9.80012C18.0424 9.76911 18.0125 9.73846 17.9826 9.73089C17.7801 9.64615 17.5625 9.5845 17.3375 9.55385C17.0299 9.50769 16.7149 9.48462 16.4076 9.48462C15.875 9.48462 15.4324 9.56935 15.0801 9.75397C14.7574 9.90757 14.48 10.1538 14.2926 10.4614C14.1274 10.7463 14.0374 11.0614 14.0374 11.3924C14.03 11.6614 14.0901 11.9308 14.21 12.177C14.3524 12.4385 14.5475 12.6617 14.7799 12.8308C15.11 13.0615 15.4626 13.2462 15.8451 13.3846C16.2125 13.5306 16.46 13.646 16.5799 13.7463C16.7001 13.8462 16.7599 13.946 16.7599 14.0538C16.7599 14.1923 16.6776 14.3232 16.5574 14.3769C16.4224 14.4462 16.2199 14.4847 15.9351 14.4847C15.6349 14.4847 15.335 14.4462 15.0499 14.3694C14.7201 14.2922 14.4125 14.1692 14.12 13.9922C14.0975 13.977 14.075 13.9691 14.0525 13.9846C14.03 14.0001 14.0226 14.0308 14.0226 14.0538V15.3923C14.0149 15.454 14.0525 15.5077 14.1049 15.5383C14.345 15.6537 14.6076 15.7385 14.8699 15.7846C15.2074 15.8538 15.5449 15.8845 15.8901 15.8845C16.4301 15.8845 16.8801 15.8001 17.2475 15.6386ZM11.5848 10.3691C11.5929 10.1216 11.529 9.88559 11.4066 9.68857C11.1093 9.21005 10.5193 9.09229 10.0024 9.09229C9.80732 9.09229 9.63506 9.09229 9.49232 9.09986C9.34256 9.09229 9.23744 9.09986 9.18506 9.10779V11.6924C9.19217 11.6929 9.19925 11.6934 9.20629 11.6939C9.30306 11.701 9.39367 11.7076 9.47756 11.7076H9.87482C10.3889 11.7076 11.0048 11.5866 11.3524 11.1616C11.5099 10.9691 11.5848 10.7077 11.5848 10.3691Z" fill="black" fill-opacity="0.54"/>
</svg>
