<svg width="37" height="36" viewBox="0 0 37 36" fill="none" xmlns="http://www.w3.org/2000/svg">
<rect x="0.5" width="36" height="36" rx="8" fill="#57A5F7"/>
<path fill-rule="evenodd" clip-rule="evenodd" d="M13.8334 10H24.1666C25.7334 10 27 11.299 27 12.9061V23.0939C27 24.701 25.7334 26 24.1666 26H13.8334C12.2666 26 11 24.701 11 23.0939V12.9061C11 11.299 12.2666 10 13.8334 10ZM18.1666 18.8C18.6 18.6359 18.9734 18.3487 19.24 17.9657C19.5066 17.583 19.64 17.0974 19.64 16.5093C19.64 16.2016 19.5866 15.9077 19.4866 15.6205C19.38 15.3266 19.2134 15.0599 19 14.841C18.7466 14.5881 18.44 14.3965 18.1066 14.2804C17.7334 14.1369 17.28 14.0683 16.7334 14.0683C16.5334 14.0683 16.3334 14.0683 16.1266 14.0753C16.0268 14.0786 15.9301 14.0803 15.8366 14.0819C15.7363 14.0836 15.6396 14.0853 15.5466 14.0888C15.4571 14.0923 15.371 14.094 15.2874 14.0958C15.2027 14.0975 15.1205 14.0992 15.04 14.1026C14.8866 14.1093 14.78 14.1093 14.6666 14.1093C14.62 14.1093 14.6 14.1369 14.6 14.1846V21.2205C14.6 21.2821 14.6266 21.3093 14.68 21.3093H15.9734C16.02 21.3026 16.0534 21.2615 16.0466 21.2138V19.0189H16.0466C16.1735 19.0189 16.2666 19.0189 16.3334 19.0256C16.4 19.0324 16.5066 19.0324 16.6666 19.0324C17.2134 19.0324 17.7134 18.9708 18.1666 18.8ZM23.22 21.2343C23.52 21.1112 23.78 20.899 23.9666 20.6256C24.14 20.359 24.2334 20.0375 24.2266 19.7163C24.2334 19.4702 24.18 19.2308 24.0734 19.0119C23.9466 18.7795 23.7666 18.5881 23.5466 18.4446C23.2266 18.2394 22.88 18.0683 22.52 17.9452C22.36 17.8769 22.2 17.8016 22.0466 17.7196C21.96 17.6718 21.88 17.6103 21.82 17.5349C21.78 17.4804 21.7534 17.4189 21.7534 17.3574C21.7534 17.2958 21.7734 17.2272 21.8066 17.1728C21.8534 17.1042 21.9266 17.0564 22.0134 17.0359C22.14 17.0016 22.28 16.9811 22.4134 16.9881C22.6666 16.9881 22.9134 17.0221 23.16 17.0769C23.3866 17.1247 23.6 17.2 23.8 17.3093C23.8266 17.3231 23.86 17.3231 23.92 17.3093C23.94 17.2958 23.9534 17.2683 23.9534 17.241V16.1266C23.9534 16.1002 23.9471 16.0741 23.9409 16.0481L23.94 16.0446C23.9266 16.017 23.9 15.9897 23.8734 15.983C23.6934 15.9077 23.5 15.8529 23.3 15.8256C23.0266 15.7846 22.7466 15.7641 22.4734 15.7641C22 15.7641 21.6066 15.8394 21.2934 16.0035C21.0066 16.1401 20.76 16.359 20.5934 16.6324C20.4466 16.8856 20.3666 17.1657 20.3666 17.4599C20.36 17.699 20.4134 17.9385 20.52 18.1574C20.6466 18.3897 20.82 18.5881 21.0266 18.7385C21.32 18.9436 21.6334 19.1077 21.9734 19.2308C22.3 19.3606 22.52 19.4631 22.6266 19.5522C22.7334 19.641 22.7866 19.7298 22.7866 19.8256C22.7866 19.9487 22.7134 20.0651 22.6066 20.1128C22.4866 20.1744 22.3066 20.2087 22.0534 20.2087C21.7866 20.2087 21.52 20.1744 21.2666 20.1061C20.9734 20.0375 20.7 19.9282 20.44 19.7708C20.42 19.7574 20.4 19.7503 20.38 19.7641C20.36 19.7779 20.3534 19.8051 20.3534 19.8256V21.0154C20.3466 21.0702 20.38 21.1179 20.4266 21.1452C20.64 21.2478 20.8734 21.3231 21.1066 21.3641C21.4066 21.4256 21.7066 21.4529 22.0134 21.4529C22.4934 21.4529 22.8934 21.3779 23.22 21.2343ZM18.1865 16.5503C18.1937 16.3303 18.1369 16.1205 18.0281 15.9454C17.7638 15.52 17.2394 15.4154 16.7799 15.4154C16.6065 15.4154 16.4534 15.4154 16.3265 15.4221C16.1934 15.4154 16.0999 15.4221 16.0534 15.4291V17.7266C16.0597 17.727 16.066 17.7275 16.0723 17.728C16.1583 17.7342 16.2388 17.74 16.3134 17.74H16.6665C17.1234 17.74 17.6709 17.6325 17.9799 17.2548C18.1199 17.0836 18.1865 16.8513 18.1865 16.5503Z" fill="black" fill-opacity="0.54"/>
</svg>
