<svg width="37" height="37" viewBox="0 0 37 37" fill="none" xmlns="http://www.w3.org/2000/svg">
<rect x="0.5" y="0.5" width="36" height="36" rx="8" fill="#57A5F7"/>
<path d="M23.3437 11H13.6563C12.1874 11 11 12.2178 11 13.7245V23.2755C11 24.7822 12.1874 26 13.6563 26H23.3437C24.8126 26 26 24.7822 26 23.2755V13.7245C26 12.2178 24.8126 11 23.3437 11ZM19.1562 20.3909L18.9749 21.5063C18.9749 21.5385 18.9562 21.564 18.9374 21.5832C18.9187 21.5962 18.8999 21.6025 18.875 21.6025H14.9126C14.8438 21.6025 14.8124 21.564 14.8124 21.4871V14.936C14.8063 14.8909 14.8376 14.8525 14.8812 14.8462H16.1313C16.1624 14.8398 16.1999 14.8654 16.1999 14.8975V20.3014H19.0874C19.1501 20.3014 19.1688 20.3332 19.1562 20.3909ZM22.8813 17.7178C22.8813 17.7692 22.85 17.7885 22.7812 17.7885C22.3751 17.7629 21.9688 17.8398 21.5999 18.0063C21.4751 18.064 21.3562 18.1409 21.2624 18.2437V21.5129C21.2624 21.5769 21.2375 21.6025 21.1812 21.6025H19.9625C19.9124 21.6091 19.8687 21.5769 19.8626 21.5255V17.9486C19.8626 17.7948 19.8626 17.6346 19.8562 17.4678C19.85 17.3014 19.85 17.1346 19.8438 16.9678C19.8374 16.8269 19.8251 16.686 19.8063 16.5448C19.7999 16.5129 19.8187 16.4808 19.85 16.4745C19.8562 16.4678 19.8626 16.4678 19.8749 16.4745H20.9688C21.0312 16.4745 21.0813 16.5192 21.1001 16.5769C21.125 16.6217 21.1438 16.6731 21.1499 16.7245C21.1625 16.7885 21.1751 16.8591 21.1812 16.9231C21.1874 16.9937 21.1938 17.0706 21.1938 17.1538C21.3813 16.9294 21.6063 16.7437 21.8624 16.6025C22.1501 16.4423 22.4688 16.3654 22.7937 16.3717C22.8374 16.3654 22.8749 16.3975 22.8813 16.4423V17.7178Z" fill="black" fill-opacity="0.54"/>
</svg>
