<svg width="25" height="25" viewBox="0 0 25 25" fill="none" xmlns="http://www.w3.org/2000/svg">
<path d="M18.3124 3.5H6.68762C4.92488 3.5 3.5 4.96142 3.5 6.76935V18.2306C3.5 20.0386 4.92488 21.5 6.68762 21.5H18.3124C20.0751 21.5 21.5 20.0386 21.5 18.2306V6.76935C21.5 4.96142 20.0751 3.5 18.3124 3.5ZM13.2875 14.7691L13.0699 16.1076C13.0699 16.1462 13.0474 16.1768 13.0249 16.1999C13.0024 16.2154 12.9799 16.223 12.95 16.223H8.19512C8.1125 16.223 8.07488 16.1768 8.07488 16.0845V8.2232C8.0675 8.16911 8.10512 8.12296 8.1575 8.11538H9.65762C9.69488 8.10781 9.73988 8.13846 9.73988 8.17704V14.6617H13.2049C13.2801 14.6617 13.3026 14.6999 13.2875 14.7691ZM17.7576 11.5614C17.7576 11.6231 17.72 11.6462 17.6374 11.6462C17.1501 11.6155 16.6625 11.7078 16.2199 11.9076C16.0701 11.9768 15.9274 12.0691 15.8149 12.1924V16.1155C15.8149 16.1923 15.785 16.223 15.7175 16.223H14.255C14.1949 16.2309 14.1425 16.1923 14.1351 16.1306V11.8383C14.1351 11.6537 14.1351 11.4615 14.1274 11.2614C14.12 11.0617 14.12 10.8615 14.1126 10.6614C14.1049 10.4923 14.0901 10.3232 14.0676 10.1537C14.0599 10.1155 14.0824 10.0769 14.12 10.0694C14.1274 10.0614 14.1351 10.0614 14.1499 10.0694H15.4626C15.5375 10.0694 15.5976 10.1231 15.6201 10.1923C15.65 10.246 15.6725 10.3077 15.6799 10.3694C15.695 10.4462 15.7101 10.5309 15.7175 10.6077C15.7249 10.6924 15.7326 10.7847 15.7326 10.8846C15.9576 10.6153 16.2276 10.3924 16.5349 10.223C16.8801 10.0308 17.2626 9.93846 17.6525 9.94603C17.7049 9.93846 17.7499 9.97704 17.7576 10.0308V11.5614Z" fill="#757575"/>
</svg>
