<svg width="24" height="24" viewBox="0 0 24 24" fill="none" xmlns="http://www.w3.org/2000/svg">
<rect width="24" height="24"/>
<path d="M3.97925 19L7.97925 19C8.53151 19 8.97925 18.5523 8.97925 18L8.97925 14C8.97925 13.4477 8.53151 13 7.97925 13L7.06565 13C7.29671 11.7653 7.98058 10.6735 8.97925 9.9288C8.97925 10.6251 9.47738 11 9.97925 11L13.9792 11C14.4823 11 14.9792 10.6229 14.9792 9.93627C15.9653 10.6821 16.6542 11.7785 16.8897 13L15.9792 13C15.427 13 14.9792 13.4477 14.9792 14L14.9792 18C14.9792 18.5523 15.427 19 15.9792 19L19.9792 19C20.5315 19 20.9792 18.5523 20.9792 18L20.9792 14C20.9792 13.4477 20.5315 13 19.9792 13L18.9164 13C18.5998 10.6203 17.0857 8.6052 14.9792 7.607L14.9792 6C14.9792 5.44774 14.5315 5 13.9792 5L9.97925 5C9.42698 5 8.97925 5.44773 8.97925 6L8.97925 7.60807C7.86898 8.13453 6.91911 8.94073 6.21485 9.96107C5.58451 10.8743 5.18711 11.9109 5.04211 13L3.97925 13C3.42698 13 2.97925 13.4477 2.97925 14L2.97925 18C2.97925 18.5523 3.42698 19 3.97925 19ZM18.9792 17L16.9792 17L16.9792 15L18.9792 15L18.9792 17ZM10.9792 7L12.9792 7L12.9792 9L10.9792 9L10.9792 7ZM4.97925 15L6.97925 15L6.97925 17L4.97925 17L4.97925 15Z" fill="#757575"/>
</svg>
