<svg width="36" height="36" viewBox="0 0 36 36" fill="none" xmlns="http://www.w3.org/2000/svg">
<rect width="36" height="36" rx="8" fill="#9FFFFF"/>
<path d="M11.316 23.8333L14.6493 23.8333C15.1096 23.8333 15.4827 23.4601 15.4827 22.9999L15.4827 19.6666C15.4827 19.2064 15.1096 18.8333 14.6493 18.8333L13.888 18.8333C14.0806 17.8043 14.6504 16.8945 15.4827 16.2739C15.4827 16.8542 15.8978 17.1666 16.316 17.1666L19.6493 17.1666C20.0686 17.1666 20.4827 16.8524 20.4827 16.2801C21.3044 16.9016 21.8784 17.8153 22.0747 18.8333L21.316 18.8333C20.8558 18.8333 20.4827 19.2064 20.4827 19.6666L20.4827 22.9999C20.4827 23.4601 20.8558 23.8333 21.316 23.8333L24.6493 23.8333C25.1096 23.8333 25.4827 23.4601 25.4827 22.9999L25.4827 19.6666C25.4827 19.2064 25.1096 18.8333 24.6493 18.8333L23.7636 18.8333C23.4998 16.8501 22.2381 15.1709 20.4827 14.3391L20.4827 12.9999C20.4827 12.5397 20.1096 12.1666 19.6493 12.1666L16.316 12.1666C15.8558 12.1666 15.4827 12.5397 15.4827 12.9999L15.4827 14.34C14.5574 14.7787 13.7659 15.4505 13.179 16.3008C12.6537 17.0618 12.3226 17.9257 12.2017 18.8333L11.316 18.8333C10.8558 18.8333 10.4827 19.2064 10.4827 19.6666L10.4827 22.9999C10.4827 23.4601 10.8558 23.8333 11.316 23.8333ZM23.816 22.1666L22.1493 22.1666L22.1493 20.4999L23.816 20.4999L23.816 22.1666ZM17.1493 13.8333L18.816 13.8333L18.816 15.4999L17.1493 15.4999L17.1493 13.8333ZM12.1493 20.4999L13.816 20.4999L13.816 22.1666L12.1493 22.1666L12.1493 20.4999Z" fill="black" fill-opacity="0.54"/>
</svg>
