<svg width="36" height="36" viewBox="0 0 36 36" fill="none" xmlns="http://www.w3.org/2000/svg">
<rect width="36" height="36" rx="8" fill="#74D5FF"/>
<path d="M24.6667 13H18.0001L16.9192 11.9191C16.5441 11.544 16.0354 11.3333 15.505 11.3333H11.3334C10.4167 11.3333 9.66675 12.0833 9.66675 13V23C9.66675 23.9166 10.4167 24.6666 11.3334 24.6666H24.6667C25.5834 24.6666 26.3334 23.9166 26.3334 23V14.6666C26.3334 13.75 25.5834 13 24.6667 13ZM24.6667 23H21.3334V21.3333H19.6667V23H11.3334V14.6666H19.6667V16.3333H21.3334V14.6666H24.6667V23ZM21.3334 18V16.3333H23.0001V18H21.3334ZM19.6667 18H21.3334V19.6666H19.6667V18ZM23.0001 21.3333H21.3334V19.6666H23.0001V21.3333Z" fill="black" fill-opacity="0.54"/>
</svg>
